<svg width="105" height="104" viewBox="0 0 105 104" fill="none" xmlns="http://www.w3.org/2000/svg">
<path fill-rule="evenodd" clip-rule="evenodd" d="M45.1579 29.7153C45.4632 31.4952 46.0459 33.4329 47.5299 34.446C47.178 34.605 46.5552 34.5228 46.1204 34.3693C46.583 35.0198 47.0067 35.6882 47.8613 35.9156C47.5062 36.0925 47.129 36.2211 46.7398 36.2982C47.2764 36.8848 47.9725 37.418 48.6742 37.5909C48.1238 37.8222 47.2958 37.9256 46.7448 37.9062C47.1579 38.5856 47.7596 38.9549 48.687 39.6749C48.0937 39.7244 47.4282 39.835 46.7526 39.6365C47.2547 40.6213 48.1905 40.9638 49.0284 41.3613C47.754 41.3285 46.4851 41.239 45.3764 40.7842L45.3825 42.9683C45.2758 43.1784 45.1379 43.2963 44.9694 43.3225V40.7375C43.7834 41.2073 42.484 41.507 41.1328 41.7289C42.0703 41.1845 42.876 40.574 43.3169 39.7811C42.8376 39.8851 42.286 39.8428 41.7233 39.7811C42.7158 39.4725 43.4348 38.8976 43.8485 38.0102C43.0611 38.2948 42.2743 38.3516 41.4876 38.3054C42.5435 37.8044 43.4542 37.2128 43.8485 36.2987C43.258 36.4294 42.668 36.4872 42.0775 36.535C42.9783 35.9428 43.6789 35.25 44.0842 34.4104C43.5532 34.5656 43.0216 34.5417 42.4906 34.5283C45.0395 33.2506 44.8154 31.4129 45.1579 29.7153Z" fill="#5E95B6"/>
<path fill-rule="evenodd" clip-rule="evenodd" d="M52.4196 26.604C52.7249 28.3839 53.307 30.3216 54.7916 31.3347C54.4386 31.4943 53.8164 31.412 53.3821 31.258C53.8436 31.9085 54.2673 32.5769 55.123 32.8043C54.7677 32.9811 54.3904 33.1096 54.001 33.1863C54.5375 33.7729 55.2337 34.3061 55.9359 34.4796C55.3844 34.7109 54.557 34.8143 54.006 34.7949C54.4197 35.4743 55.0213 35.843 55.9487 36.5636C55.3549 36.6131 54.6888 36.7232 54.0138 36.5247C54.5164 37.5094 55.4516 37.8519 56.2901 38.2495C55.0152 38.2167 53.7469 38.1271 52.6381 37.6717L52.6437 39.8558C52.5375 40.066 52.3996 40.1844 52.2306 40.21V37.625C51.0446 38.0949 49.7451 38.3946 48.3945 38.6164C49.3314 38.0715 50.1371 37.461 50.5781 36.6687C50.0988 36.7727 49.5466 36.7309 48.9845 36.6687C49.977 36.3601 50.6959 35.7851 51.1091 34.8983C50.3217 35.1824 49.5349 35.2397 48.7482 35.1935C49.8041 34.6925 50.7154 34.1015 51.1091 33.1868C50.5191 33.3175 49.9286 33.3753 49.3387 33.4231C50.24 32.8315 50.94 32.1382 51.3454 31.2986C50.8138 31.4537 50.2828 31.4298 49.7518 31.4164C52.3012 30.1392 52.0771 28.3016 52.4196 26.604Z" fill="#5E95B6"/>
<path fill-rule="evenodd" clip-rule="evenodd" d="M59.0212 29.1499C59.3264 30.9297 59.9086 32.8675 61.3932 33.8806C61.0401 34.0402 60.4179 33.9579 59.9837 33.8039C60.4463 34.4544 60.87 35.1233 61.7246 35.3502C61.3692 35.5269 60.9919 35.6556 60.6025 35.7327C61.1391 36.3193 61.8352 36.8526 62.5375 37.0255C61.987 37.2568 61.1586 37.3602 60.6075 37.3408C61.0212 38.0202 61.6228 38.3889 62.5503 39.1095C61.9565 39.159 61.2903 39.2696 60.6153 39.0711C61.118 40.0558 62.0532 40.3978 62.8917 40.7959C61.6167 40.7631 60.3484 40.6736 59.2397 40.2188L59.2453 42.4023C59.1391 42.6125 59.0012 42.7309 58.8327 42.7565V40.1715C57.6467 40.6413 56.3467 40.941 54.9961 41.1629C55.9336 40.6185 56.7392 40.0075 57.1802 39.2151C56.7014 39.3191 56.1487 39.2768 55.5871 39.2151C56.5785 38.906 57.2975 38.3316 57.7112 37.4442C56.925 37.7289 56.1376 37.7856 55.3503 37.7394C56.4067 37.2384 57.317 36.6468 57.7112 35.7327C57.1212 35.8634 56.5307 35.9212 55.9408 35.9685C56.841 35.3763 57.5416 34.6835 57.9464 33.8439C57.4154 33.9985 56.8844 33.9751 56.3534 33.9618C58.9027 32.6851 58.6781 30.8475 59.0212 29.1499Z" fill="#5E95B6"/>
<path d="M52.0126 0C80.6602 0 104.026 23.3593 104.026 51.9998C104.026 80.6402 80.6608 104 52.0126 104C23.3649 104 0 80.6402 0 51.9998C0 23.3593 23.3649 0 52.0126 0ZM52.0126 1.26663C24.0766 1.26663 1.29221 24.0571 1.29221 51.9998C1.29221 79.943 24.0771 102.733 52.0126 102.733C79.948 102.733 102.733 79.943 102.733 51.9998C102.733 24.0571 79.948 1.26663 52.0126 1.26663Z" fill="#CC2131"/>
<path d="M52.0128 11.4648C74.3468 11.4648 92.5623 29.6742 92.5623 52.0004C92.5623 74.3266 74.3468 92.5365 52.0128 92.5365C29.6788 92.5365 11.4639 74.3266 11.4639 52.0004C11.4639 29.6742 29.6788 11.4648 52.0128 11.4648ZM52.0128 12.7309C30.3911 12.7309 12.7561 30.3715 12.7561 52.0004C12.7561 73.6294 30.3905 91.2699 52.0128 91.2699C73.6345 91.2699 91.2701 73.6294 91.2701 52.0004C91.2695 30.3715 73.6345 12.7309 52.0128 12.7309Z" fill="#5E95B6"/>
<path fill-rule="evenodd" clip-rule="evenodd" d="M24.3401 70.5503C24.9745 70.0182 25.5867 69.6657 26.1761 69.4939C26.6116 69.3698 27.0657 69.3238 27.5172 69.3582C27.9748 69.3916 28.3868 69.5028 28.7538 69.6929C29.2442 69.9426 29.7007 70.3218 30.1261 70.8283C30.8962 71.7463 31.2287 72.7183 31.1214 73.7486C31.0141 74.7767 30.4536 75.7158 29.4388 76.5671C28.4335 77.4106 27.4182 77.797 26.3918 77.7264C25.3648 77.658 24.4674 77.1654 23.7001 76.2507C22.9227 75.3238 22.5875 74.3502 22.6953 73.3299C22.7999 72.3085 23.3498 71.3821 24.3401 70.5503ZM25.4699 71.8103C24.7649 72.4019 24.3667 73.0141 24.2767 73.6446C24.186 74.2763 24.3512 74.8417 24.7721 75.3433C25.193 75.8448 25.7184 76.1045 26.3495 76.1234C26.9801 76.1412 27.6573 75.8476 28.379 75.2421C29.093 74.6432 29.4939 74.0388 29.5828 73.4311C29.6713 72.825 29.4978 72.2612 29.063 71.7424C28.6276 71.2237 28.0999 70.9551 27.4783 70.9373C26.8561 70.9179 26.1866 71.2086 25.4699 71.8103ZM28.3006 80.7384L33.0803 74.16L35.8765 76.1912C36.5793 76.7022 37.0464 77.132 37.2794 77.4823C37.5112 77.8321 37.6141 78.2274 37.5863 78.6689C37.5574 79.1098 37.4039 79.5241 37.1209 79.9133C36.7617 80.4076 36.3208 80.7084 35.7976 80.8196C35.2732 80.9297 34.6916 80.8179 34.0539 80.4826C34.2201 80.8585 34.3224 81.2149 34.3647 81.5513C34.4058 81.8877 34.3992 82.4254 34.3441 83.1683L34.2146 85.0343L32.6277 83.8811L32.7072 81.7521C32.7378 80.9936 32.7389 80.501 32.7094 80.2764C32.681 80.0523 32.6138 79.8649 32.5098 79.7131C32.4041 79.5613 32.1995 79.3739 31.8954 79.1526L31.6251 78.9564L29.6296 81.7026L28.3006 80.7384ZM32.3869 77.9071L33.3705 78.6216C34.0072 79.0842 34.4247 79.3472 34.6221 79.4084C34.8201 79.4696 35.0119 79.4662 35.1965 79.4001C35.3822 79.3339 35.5462 79.2021 35.6897 79.0047C35.851 78.7829 35.9216 78.5616 35.9027 78.3392C35.8832 78.1184 35.7792 77.9105 35.5891 77.7181C35.4929 77.6258 35.1748 77.3822 34.6371 76.9919L33.5996 76.2385L32.3869 77.9071ZM36.3097 85.6898L39.7465 78.3203L41.2339 79.0136L37.797 86.3832L36.3097 85.6898ZM44.7557 85.3941L45.0871 84.064L48.5201 84.9203L47.7366 88.0624C47.3229 88.3021 46.768 88.4667 46.0746 88.554C45.4014 88.6428 44.7174 88.6053 44.0579 88.4433C43.2328 88.2381 42.5567 87.8851 42.0301 87.3869C41.5087 86.8981 41.1543 86.2577 41.017 85.5564C40.8685 84.8347 40.8897 84.0963 41.0782 83.339C41.2828 82.5177 41.637 81.8305 42.1407 81.2772C42.6439 80.7251 43.2706 80.3603 44.0184 80.1852C44.5906 80.0501 45.2528 80.0762 46.0062 80.2641C46.986 80.5082 47.6994 80.9041 48.1481 81.4524C48.5957 81.9995 48.8081 82.6556 48.7858 83.4201L47.13 83.3217C47.115 82.9069 46.9815 82.5489 46.7319 82.2475C46.4805 81.9467 46.1258 81.7393 45.6671 81.6247C44.9698 81.4512 44.3626 81.5341 43.84 81.8733C43.3195 82.2119 42.9509 82.8146 42.7346 83.6831C42.501 84.62 42.5339 85.3746 42.8336 85.9462C43.1327 86.5167 43.6203 86.887 44.2954 87.0555C44.6284 87.1383 44.9793 87.1578 45.3468 87.1105C45.716 87.0632 46.0429 86.9771 46.3293 86.8486L46.579 85.8483L44.7557 85.3941ZM50.311 89.1367L50.5946 81.0109L52.2349 81.0681L51.9507 89.1945L50.311 89.1367ZM54.7715 89.403L53.2207 81.4212L54.7876 81.116L59.0913 85.8122L58.0554 80.481L59.5517 80.1902L61.1035 88.172L59.4866 88.4867L55.2569 83.9078L56.2677 89.1122L54.7715 89.403ZM70.6789 84.2987L69.0608 85.0532L67.6363 83.6793L64.691 85.0527L64.8645 87.0104L63.2854 87.7466L62.7182 79.0392L64.2918 78.3052L70.6789 84.2987ZM66.5793 82.66L64.289 80.3992L64.5704 83.5975L66.5793 82.66ZM72.5077 83.2233L67.4317 76.9558L68.7089 75.9227L72.9225 81.1249L76.0946 78.556L76.957 79.6208L72.5077 83.2233ZM78.8503 77.9127L72.6211 72.686L76.4972 68.0676L77.5508 68.9517L74.7307 72.3129L76.1118 73.4722L78.7357 70.3451L79.7861 71.2259L77.1622 74.3524L78.8564 75.7748L81.7767 72.2946L82.827 73.1753L78.8503 77.9127ZM29.8303 21.8795L33.3727 19.6665C34.1434 19.185 34.8368 19.0076 35.4495 19.1338C36.0634 19.2612 36.5821 19.6632 37.0053 20.3398C37.4401 21.0354 37.5707 21.711 37.3973 22.3649C37.2227 23.0182 36.7072 23.6137 35.8476 24.1509L34.6805 24.8798L36.2791 27.4392L34.1389 28.7759L29.8303 21.8795ZM33.807 23.4831L34.3291 23.1567C34.74 22.8998 34.9847 22.6479 35.0614 22.4016C35.1002 22.2849 35.1119 22.1608 35.0957 22.0389C35.0796 21.9169 35.0359 21.8003 34.968 21.6977C34.9068 21.5947 34.8258 21.5049 34.7295 21.4336C34.6333 21.3623 34.5238 21.3109 34.4075 21.2823C34.169 21.2223 33.8509 21.3157 33.4522 21.5648L32.8451 21.944L33.807 23.4831ZM39.4106 16.873L41.8066 16.0946L44.3198 23.8284L41.9239 24.6068L39.4106 16.873ZM45.8166 15.0348L52.9099 14.5388L53.0228 16.1602L48.807 21.2262L53.521 20.8964L53.6427 22.6385L45.9479 23.1767L45.83 21.4942L50.0002 16.4827L45.9379 16.7668L45.8166 15.0348ZM56.9294 14.8402L63.8581 16.4399L63.4922 18.024L57.9798 21.636L62.5831 22.6991L62.1911 24.4011L54.6736 22.6657L55.0539 21.0215L60.5069 17.4485L56.5385 16.5327L56.9294 14.8402ZM68.7472 26.4356L66.2451 25.0483L65.2493 26.0302L63.0035 24.7859L69.618 19.155L72.015 20.4839L70.7456 29.0773L68.4464 27.8034L68.7472 26.4356ZM69.1392 24.6418L69.7703 21.6504L67.5735 23.7739L69.1392 24.6418ZM64.2607 98.4151C64.6916 98.5775 65.0786 98.677 65.4172 98.717L65.3216 99.3281C64.8534 99.2803 64.3613 99.1418 63.8503 98.9139C63.4678 99.272 63.0085 99.5177 62.4714 99.6517C61.9281 99.7868 61.4038 99.7791 60.8967 99.6278C60.391 99.4767 59.9404 99.1815 59.6 98.7782C59.2436 98.3628 58.9917 97.858 58.8433 97.2641C58.6965 96.6725 58.6815 96.1031 58.801 95.5577C58.9206 95.0133 59.1691 94.5585 59.5494 94.1938C59.9298 93.8312 60.3935 93.5799 60.9406 93.4431C61.4944 93.3052 62.0254 93.3124 62.537 93.4648C63.0422 93.614 63.4916 93.9101 63.8281 94.3155C64.18 94.7309 64.4286 95.2352 64.5765 95.8301C64.7005 96.3233 64.7361 96.786 64.6838 97.2169C64.6339 97.6429 64.4893 98.0523 64.2607 98.4151ZM62.2617 97.8352C62.7516 97.8496 63.1764 97.9469 63.5367 98.1265C63.897 97.5844 63.971 96.8871 63.758 96.0336C63.6362 95.5477 63.4483 95.144 63.1931 94.8221C62.9544 94.5129 62.6293 94.2816 62.259 94.1576C61.888 94.0371 61.4903 94.0255 61.113 94.1243C60.523 94.2716 60.0816 94.5969 59.7935 95.0984C59.5038 95.6011 59.4599 96.2538 59.6612 97.059C59.8558 97.838 60.1978 98.3895 60.6865 98.7104C61.1775 99.0301 61.7224 99.1163 62.3207 98.9678C62.5967 98.9007 62.8564 98.7785 63.0841 98.6086C62.804 98.51 62.5092 98.46 62.2122 98.4607L62.2617 97.8352ZM69.5824 97.3403L69.3578 96.7226C69.2026 97.3181 68.8429 97.7162 68.2802 97.9208C68.0339 98.0109 67.7836 98.0481 67.534 98.032C67.2843 98.0159 67.0814 97.9531 66.9246 97.848C66.7558 97.7305 66.6149 97.5773 66.512 97.3993C66.4325 97.2691 66.3374 97.0528 66.2262 96.7487L65.2782 94.1426L65.9893 93.8835L66.8384 96.2155C66.9741 96.5886 67.0808 96.8332 67.1553 96.9522C67.2704 97.124 67.4183 97.2358 67.6018 97.2908C67.7875 97.3448 67.986 97.3314 68.2001 97.2541C68.4131 97.1763 68.5943 97.0495 68.7422 96.8716C68.8901 96.6942 68.968 96.4952 68.9769 96.28C68.9869 96.062 68.9257 95.7734 68.7956 95.4148L67.9744 93.1607L68.6866 92.901L70.2179 97.1073L69.5824 97.3403ZM74.014 93.7917L74.7568 93.5215C74.8558 93.9869 74.8135 94.4073 74.6306 94.7843C74.446 95.1612 74.1224 95.4676 73.6598 95.7034C73.0765 96.0003 72.5216 96.057 71.9983 95.8718C71.4729 95.6872 71.0459 95.2702 70.7145 94.6213C70.3725 93.9497 70.2802 93.3408 70.4365 92.7953C70.5938 92.2482 70.9469 91.834 71.4985 91.5532C72.0306 91.2818 72.5594 91.2418 73.082 91.4325C73.6053 91.6232 74.0356 92.048 74.3698 92.7058C74.3915 92.747 74.421 92.8081 74.4588 92.8882L71.484 94.4045C71.7315 94.8304 72.0273 95.1029 72.3681 95.2213C72.7101 95.3408 73.047 95.3169 73.3801 95.1468C73.6275 95.0206 73.806 94.8476 73.9144 94.6269C74.0251 94.4078 74.0573 94.1298 74.014 93.7917ZM71.2383 93.8284L73.4646 92.6941C73.265 92.3744 73.0509 92.1659 72.8263 92.0703C72.4788 91.9196 72.1323 91.9313 71.7904 92.1053C71.4796 92.2632 71.2711 92.5006 71.1649 92.8159C71.0592 93.1317 71.0842 93.4698 71.2383 93.8284ZM70.893 91.3513L70.8574 90.0447L71.7437 89.5932L71.454 91.065L70.893 91.3513ZM77.294 93.6171L76.7035 94.0003L73.3378 88.8175L73.9745 88.4044L75.1744 90.2532C75.2255 89.7416 75.458 89.3502 75.875 89.08C76.1063 88.9293 76.3548 88.8353 76.6223 88.7936C76.878 88.7523 77.1399 88.7732 77.3857 88.8548C77.6281 88.9376 77.8644 89.0722 78.0946 89.2623C78.3248 89.4508 78.5278 89.681 78.704 89.9513C79.1222 90.5957 79.2862 91.1956 79.195 91.7539C79.1061 92.3116 78.8364 92.7353 78.3916 93.0239C77.9495 93.3113 77.4813 93.3525 76.9887 93.1462L77.294 93.6171ZM76.049 91.7166C76.3409 92.167 76.6139 92.4512 76.8658 92.5724C77.2784 92.7703 77.6576 92.7586 77.9984 92.5368C78.2776 92.3561 78.4394 92.0792 78.4839 91.705C78.5306 91.3324 78.3982 90.9065 78.0863 90.4272C77.7694 89.9374 77.4357 89.6388 77.0904 89.5326C76.7452 89.4258 76.4332 89.4614 76.1585 89.6399C75.8794 89.8211 75.7176 90.0975 75.672 90.4706C75.6259 90.8431 75.7515 91.259 76.049 91.7166ZM82.6835 87.8795L83.3536 87.4608C83.5459 87.8951 83.5926 88.3154 83.4926 88.7224C83.3903 89.1294 83.1373 89.497 82.7347 89.8234C82.2254 90.2354 81.6955 90.4055 81.1439 90.3338C80.5923 90.2621 80.0874 89.9435 79.6287 89.3769C79.1539 88.7914 78.9381 88.2148 78.9771 87.6482C79.0171 87.0805 79.2756 86.6023 79.7566 86.2131C80.2214 85.8366 80.7308 85.6876 81.2812 85.7655C81.8317 85.8433 82.341 86.1703 82.8059 86.7435C82.8342 86.7791 82.8765 86.8325 82.9299 86.9037L80.3354 89.0043C80.6668 89.3696 81.0121 89.5748 81.3713 89.6193C81.7305 89.6655 82.0547 89.5715 82.3444 89.3357C82.5607 89.1617 82.6997 88.9548 82.7592 88.7169C82.8214 88.48 82.7953 88.2014 82.6835 87.8795ZM79.9751 88.4933L81.9179 86.9209C81.656 86.6496 81.4019 86.49 81.1634 86.4438C80.7908 86.3682 80.4555 86.4522 80.1564 86.6935C79.8862 86.9131 79.7305 87.1883 79.6927 87.5181C79.656 87.8495 79.7505 88.1742 79.9751 88.4933ZM86.1415 84.2481L86.7214 83.7693C87.0417 84.1786 87.1952 84.6062 87.1774 85.051C87.1612 85.4941 86.9861 85.8956 86.6519 86.2531C86.2349 86.7007 85.7528 86.9248 85.2062 86.9237C84.6602 86.9231 84.1125 86.6685 83.5654 86.1586C83.2112 85.8283 82.9571 85.4813 82.8009 85.1171C82.6457 84.7524 82.6129 84.3882 82.703 84.0251C82.7942 83.6626 82.9699 83.3401 83.2329 83.0587C83.5643 82.7029 83.9268 82.496 84.3166 82.4388C84.7075 82.3809 85.0973 82.4732 85.4881 82.7179L85.0689 83.3345C84.8009 83.1811 84.5507 83.1171 84.3172 83.1438C84.0847 83.1716 83.8818 83.2773 83.7089 83.4624C83.4481 83.7426 83.3363 84.0624 83.3741 84.4249C83.4108 84.7858 83.6466 85.1689 84.0803 85.5725C84.5201 85.9829 84.9188 86.197 85.2757 86.2136C85.6322 86.2309 85.9369 86.1041 86.1904 85.8322C86.3934 85.6142 86.4957 85.3707 86.4979 85.0999C86.5018 84.8302 86.3822 84.5461 86.1415 84.2481ZM17.6533 83.6526L18.2549 84.1408C18.0669 84.3882 17.9518 84.6295 17.9101 84.8653C17.8684 85.0999 17.9057 85.3596 18.0241 85.6426C18.1409 85.925 18.3261 86.1886 18.579 86.4338C18.8031 86.6501 19.0339 86.808 19.2696 86.907C19.5065 87.0071 19.7222 87.0382 19.918 87.0037C20.1142 86.9682 20.2799 86.882 20.4128 86.7446C20.5468 86.6056 20.6236 86.4438 20.643 86.262C20.6636 86.0796 20.6141 85.8633 20.4968 85.6137C20.4223 85.4519 20.2277 85.1244 19.9152 84.6312C19.601 84.1391 19.4048 83.7704 19.3247 83.5263C19.2196 83.21 19.1946 82.9181 19.2491 82.6534C19.3036 82.3887 19.4303 82.1541 19.6277 81.9494C19.8446 81.7248 20.1103 81.5769 20.4267 81.5041C20.742 81.4323 21.0717 81.464 21.4137 81.5992C21.7562 81.7343 22.0759 81.9461 22.3762 82.2358C22.7048 82.5533 22.9455 82.8875 23.094 83.2367C23.243 83.5864 23.2853 83.9289 23.2224 84.2659C23.1564 84.6063 22.9977 84.9218 22.7637 85.1777L22.1599 84.6757C22.4001 84.3643 22.5024 84.054 22.4662 83.741C22.4307 83.429 22.2405 83.1077 21.8991 82.7785C21.5438 82.4349 21.2213 82.2497 20.9322 82.223C20.643 82.1958 20.4112 82.2747 20.2338 82.4588C20.1598 82.5311 20.1028 82.6189 20.0667 82.7159C20.0307 82.8129 20.0165 82.9167 20.0253 83.0198C20.0386 83.2328 20.2327 83.6231 20.6063 84.193C20.9805 84.7624 21.2168 85.1739 21.3164 85.4263C21.4604 85.7961 21.5049 86.1319 21.4526 86.4338C21.3992 86.7363 21.2563 87.006 21.0261 87.2451C20.7982 87.4808 20.5146 87.6393 20.1776 87.7171C19.8401 87.7966 19.4887 87.7705 19.1223 87.6415C18.7559 87.5131 18.415 87.2962 18.0975 86.9893C17.6955 86.6012 17.4147 86.2159 17.2563 85.8366C17.0996 85.4757 17.0549 85.0762 17.1278 84.6896C17.2007 84.3009 17.383 83.9412 17.6533 83.6526ZM22.786 90.088L22.449 90.678C22.2761 90.5925 22.1124 90.4892 21.9608 90.3699C21.7473 90.1965 21.6088 90.028 21.5449 89.8651C21.4824 89.7166 21.4709 89.5515 21.5121 89.3958C21.5532 89.2468 21.7173 88.9949 22.0036 88.6413L23.625 86.639L23.1935 86.2898L23.5644 85.8316L23.9959 86.1814L24.6937 85.3195L25.5667 85.4402L24.5819 86.6562L25.1752 87.1372L24.8049 87.5948L24.2111 87.1144L22.5635 89.1489C22.4268 89.3179 22.3506 89.4347 22.3322 89.4992C22.3139 89.5642 22.3168 89.6334 22.3406 89.6966C22.3645 89.7628 22.4206 89.83 22.5079 89.9007C22.5741 89.954 22.6664 90.0163 22.786 90.088ZM24.3367 89.6877L24.7849 89.0705L26.6709 90.4411L26.2228 91.0577L24.3367 89.6877ZM26.438 93.3391L29.6212 88.0418L30.3224 88.4633L27.515 93.1351L30.1233 94.7025L29.7474 95.328L26.438 93.3391ZM34.0044 96.6636C33.6491 96.762 33.3327 96.7999 33.0547 96.7793C32.7701 96.7571 32.4921 96.6826 32.2345 96.5596C31.7881 96.3517 31.4967 96.0826 31.3588 95.7534C31.2209 95.4237 31.2309 95.0906 31.3894 94.7509C31.4817 94.5529 31.6112 94.3923 31.7786 94.2705C31.9454 94.1481 32.1256 94.072 32.3185 94.0403C32.5175 94.0094 32.7201 94.0113 32.9185 94.0458C33.0703 94.0731 33.2899 94.1337 33.5785 94.2277C34.1645 94.4212 34.6105 94.5324 34.9152 94.563C34.9613 94.4695 34.9908 94.4117 35.0025 94.3861C35.1337 94.1048 35.1598 93.8774 35.0836 93.7022C34.9808 93.4654 34.7556 93.2663 34.4097 93.105C34.0861 92.9544 33.8209 92.8993 33.6135 92.9405C33.4067 92.9822 33.1993 93.1295 32.9913 93.3831L32.3613 92.9777C32.5576 92.7186 32.7667 92.5329 32.9891 92.4211C33.2115 92.3094 33.4773 92.2677 33.787 92.2955C34.0961 92.3244 34.4247 92.4189 34.7734 92.5818C35.1198 92.7436 35.3828 92.9149 35.5618 93.0984C35.7397 93.2802 35.8515 93.4576 35.896 93.6277C35.9399 93.7995 35.9388 93.988 35.8915 94.196C35.8593 94.3239 35.7731 94.5407 35.6302 94.846L35.2021 95.7634C34.9046 96.4012 34.73 96.8138 34.6805 96.9961C34.631 97.1796 34.6127 97.3687 34.6266 97.5638L33.9082 97.2291C33.9043 97.0528 33.936 96.8649 34.0044 96.6636ZM34.6638 95.1012C34.3669 95.0873 33.9516 94.9989 33.4183 94.8371C33.117 94.7459 32.8962 94.6986 32.755 94.6947C32.6228 94.6881 32.4918 94.7222 32.3797 94.7926C32.2707 94.8604 32.1878 94.9538 32.1317 95.0745C32.0897 95.1608 32.0675 95.2554 32.0666 95.3514C32.0658 95.4474 32.0863 95.5423 32.1267 95.6294C32.2084 95.8162 32.383 95.9725 32.6505 96.0976C32.8951 96.2171 33.1667 96.2705 33.4383 96.2527C33.6861 96.2387 33.9231 96.1464 34.115 95.9892C34.2607 95.868 34.4047 95.6561 34.546 95.3531L34.6638 95.1012ZM35.6541 97.9803L35.8237 97.3892L39.4651 95.03C39.1867 94.9666 38.9099 94.8961 38.635 94.8187L36.8813 94.3161L37.0509 93.725L40.5677 94.7331L40.4293 95.2146L37.3161 97.2775L36.7228 97.6478C37.0581 97.7162 37.3672 97.7929 37.653 97.8747L39.6431 98.4451L39.4629 99.0729L35.6541 97.9803ZM43.7688 99.4388C43.448 99.6206 43.1499 99.734 42.8758 99.7807C42.5943 99.8277 42.3066 99.823 42.0268 99.7668C41.5436 99.6723 41.1955 99.4821 40.9825 99.1963C40.7685 98.9094 40.6978 98.5836 40.7696 98.2161C40.8113 98.0009 40.898 97.814 41.0315 97.6556C41.1632 97.4966 41.3195 97.3787 41.4991 97.3014C41.6845 97.223 41.8816 97.1759 42.0824 97.1618C42.2358 97.1507 42.4638 97.1568 42.7663 97.1779C43.3818 97.2241 43.8411 97.2241 44.1441 97.1796L44.1864 96.9867C44.2459 96.6825 44.2164 96.4546 44.0996 96.3033C43.9428 96.0981 43.6759 95.9597 43.3012 95.8863C42.9503 95.8185 42.6801 95.829 42.4888 95.9197C42.2987 96.0103 42.1324 96.2038 41.9923 96.4996L41.2828 96.2583C41.4101 95.9597 41.5686 95.7289 41.7571 95.5666C41.9456 95.4042 42.1936 95.2997 42.5011 95.2519C42.808 95.2052 43.1499 95.2174 43.5275 95.2908C43.9028 95.3636 44.1992 95.4659 44.4177 95.6016C44.6345 95.7345 44.7858 95.8796 44.8697 96.0342C44.9537 96.1899 44.9982 96.3734 45.0032 96.5869C45.0032 96.7187 44.9709 96.95 44.907 97.2803L44.714 98.2739C44.5795 98.9656 44.51 99.4076 44.5061 99.5967C44.5027 99.7863 44.5306 99.9748 44.5912 100.161L43.8133 100.01C43.7645 99.824 43.7494 99.6304 43.7688 99.4388ZM44.0307 97.7646C43.7393 97.8224 43.3151 97.8374 42.7585 97.8096C42.4438 97.7935 42.218 97.8007 42.0801 97.8313C41.9526 97.857 41.8356 97.9203 41.7442 98.0129C41.6527 98.1055 41.591 98.2233 41.5669 98.3512C41.5286 98.5486 41.5714 98.7293 41.6959 98.8905C41.8205 99.0523 42.0279 99.1619 42.3176 99.218C42.6045 99.2742 42.8719 99.2608 43.1199 99.1785C43.3569 99.1052 43.5645 98.9583 43.7126 98.7593C43.8244 98.6064 43.9128 98.3667 43.9773 98.0381L44.0307 97.7646ZM46.1108 100.334L46.6562 95.8907L47.3329 95.9736L47.2506 96.6464C47.463 96.3534 47.6482 96.1649 47.8072 96.082C47.9611 96.0009 48.1362 95.9693 48.3088 95.9914C48.5629 96.0225 48.8109 96.1348 49.0522 96.3283L48.7069 96.9956C48.5541 96.8713 48.3703 96.7912 48.1753 96.7637C48.0152 96.7428 47.8528 96.7761 47.7138 96.8582C47.5658 96.9456 47.4496 97.0781 47.3824 97.2363C47.2614 97.5107 47.1829 97.8019 47.1494 98.0998L46.8636 100.426L46.1108 100.334ZM52.7114 99.2964L53.4921 99.421C53.3519 99.8741 53.1106 100.222 52.7676 100.462C52.4245 100.704 51.993 100.815 51.4742 100.798C50.8192 100.775 50.3077 100.555 49.9379 100.138C49.5687 99.7223 49.3969 99.1496 49.4219 98.4229C49.4486 97.67 49.6627 97.0918 50.0641 96.6903C50.4662 96.2883 50.9771 96.0987 51.5938 96.1198C52.1926 96.141 52.6736 96.3617 53.0395 96.7815C53.4031 97.2019 53.5738 97.7818 53.5477 98.5202C53.5454 98.5652 53.5421 98.632 53.536 98.7215L50.2004 98.6053C50.2115 99.0979 50.336 99.4794 50.5774 99.749C50.8187 100.02 51.1256 100.161 51.4987 100.174C51.7767 100.184 52.0169 100.119 52.2193 99.9792C52.4211 99.8402 52.5852 99.6128 52.7114 99.2964ZM50.2649 97.9836L52.7631 98.0704C52.7425 97.6928 52.6569 97.4081 52.5057 97.2135C52.2738 96.9127 51.9663 96.7565 51.581 96.7431C51.2329 96.7309 50.9366 96.8371 50.6908 97.0612C50.4461 97.2869 50.3038 97.5939 50.2649 97.9836ZM55.1968 100.544L55.1207 99.6829L55.982 99.6072L56.057 100.469C56.0854 100.784 56.0515 101.045 55.9558 101.25C55.8613 101.454 55.6962 101.62 55.4615 101.748L55.2235 101.443C55.3775 101.359 55.4865 101.245 55.5494 101.104C55.6133 100.962 55.6383 100.762 55.6244 100.507L55.1968 100.544ZM22.8727 21.1422L18.8999 16.4076L20.9121 14.719C21.4181 14.2942 21.8212 14.0295 22.1221 13.9216C22.4229 13.8147 22.7509 13.812 23.0534 13.9138C23.3804 14.02 23.6695 14.2188 23.8858 14.486C24.1844 14.8413 24.325 15.2222 24.3106 15.6286C24.2956 16.0356 24.106 16.4443 23.7418 16.853C24.0204 16.8011 24.3051 16.7901 24.5869 16.8202C24.8427 16.8519 25.2386 16.9553 25.7757 17.1327L27.1285 17.5714L25.9859 18.5305L24.4307 18.0802C23.8763 17.9183 23.5138 17.8266 23.3425 17.8071C23.1905 17.7854 23.0355 17.8004 22.8905 17.8511C22.7593 17.9006 22.5836 18.0173 22.3645 18.2008L22.1704 18.3637L23.8285 20.3404L22.8727 21.1422ZM21.536 17.6075L22.2433 17.0137C22.7014 16.6295 22.9722 16.3698 23.054 16.2352C23.1357 16.1007 23.1685 15.9583 23.154 15.8104C23.139 15.6609 23.0718 15.5157 22.9528 15.3734C22.8188 15.2138 22.6692 15.121 22.5013 15.0943C22.3339 15.0681 22.1621 15.1065 21.9853 15.2116C21.8996 15.2655 21.6617 15.4551 21.2747 15.7799L20.5285 16.406L21.536 17.6075ZM28.3412 16.7546L25.3448 11.3489L29.3527 9.12754L29.8597 10.0422L26.9428 11.6591L27.6073 12.8574L30.3207 11.3533L30.8256 12.2641L28.1122 13.7687L28.9273 15.2394L31.9476 13.5652L32.4525 14.476L28.3412 16.7546ZM32.9802 11.7898L34.0705 11.2438C34.2857 11.5985 34.5309 11.8243 34.8078 11.9227C35.0847 12.0211 35.4017 12.0028 35.7553 11.8665C36.1301 11.7225 36.3825 11.534 36.5121 11.3027C36.6411 11.0709 36.665 10.849 36.5832 10.636C36.5376 10.508 36.4477 10.4005 36.3297 10.333C36.2124 10.2685 36.0411 10.2385 35.8148 10.2446C35.6591 10.2496 35.3166 10.2852 34.785 10.3508C34.1011 10.4364 33.5896 10.4142 33.251 10.2852C32.7756 10.1034 32.4497 9.78477 32.274 9.32716C32.1614 9.03373 32.1382 8.71353 32.2073 8.40693C32.2762 8.08666 32.4414 7.8003 32.7033 7.5462C32.9652 7.29154 33.3182 7.08025 33.762 6.90955C34.4865 6.63153 35.092 6.58038 35.5796 6.75775C36.0672 6.93568 36.4225 7.28486 36.6438 7.80809L35.5001 8.3074C35.3372 8.02994 35.1476 7.85813 34.9341 7.79029C34.72 7.72357 34.4498 7.7536 34.1211 7.87926C33.7825 8.00937 33.5445 8.18063 33.4067 8.39303C33.3635 8.45481 33.3365 8.52644 33.3283 8.60134C33.32 8.67625 33.3307 8.75203 33.3594 8.82173C33.4117 8.95851 33.514 9.05359 33.6663 9.10641C33.8604 9.17258 34.2668 9.1648 34.8851 9.08139C35.5023 8.99799 35.9749 8.97519 36.3013 9.01356C36.6148 9.04711 36.9132 9.1651 37.1648 9.35496C37.4128 9.54456 37.6069 9.82091 37.747 10.1857C37.8738 10.5165 37.901 10.8607 37.8282 11.2204C37.7553 11.5791 37.5774 11.8932 37.2955 12.1635C37.0142 12.432 36.6233 12.6633 36.1217 12.8557C35.3922 13.1354 34.7667 13.181 34.2468 12.9947C33.7258 12.8079 33.3043 12.4048 32.9802 11.7898ZM41.4274 10.993L40.2719 5.98987L38.4854 6.40245L38.2502 5.38325L43.0354 4.27842L43.2706 5.29762L41.4874 5.70964L42.6423 10.7128L41.4274 10.993ZM50.8287 9.63353L49.4742 9.72805L48.8375 8.36523L46.3732 8.5376L45.9629 9.97382L44.6423 10.0661L46.6118 3.73296L47.9284 3.64121L50.8287 9.63353ZM48.3655 7.35437L47.3563 5.12636L46.684 7.47169L48.3655 7.35437ZM52.648 3.33984L53.8924 3.42714L53.66 6.76665C53.6222 7.29598 53.6144 7.64072 53.6338 7.79975C53.6694 8.05552 53.7829 8.26792 53.9725 8.43362C54.1615 8.60043 54.4306 8.69662 54.7781 8.72109C55.1312 8.74555 55.4026 8.69162 55.5927 8.56039C55.7807 8.42861 55.9024 8.25847 55.953 8.05163C56.0031 7.84367 56.0465 7.49615 56.0804 7.00796L56.3195 3.59729L57.565 3.68402L57.3381 6.92233C57.287 7.66296 57.2152 8.18285 57.1274 8.48366C57.0384 8.78447 56.8961 9.03413 56.7003 9.23152C56.5046 9.42891 56.2516 9.57959 55.9403 9.68357C55.6289 9.78755 55.2291 9.82202 54.7415 9.7881C54.1526 9.74696 53.7106 9.64798 53.4164 9.48952C53.1223 9.33272 52.8943 9.13977 52.7325 8.90958C52.5718 8.67994 52.4706 8.44474 52.4317 8.20176C52.3739 7.84256 52.37 7.31934 52.4189 6.62875L52.648 3.33984ZM59.173 10.2085L60.5631 4.18612L63.123 4.77718C63.7669 4.92564 64.2212 5.08855 64.4881 5.2637C64.755 5.43885 64.9429 5.68573 65.0552 6.00266C65.1672 6.3277 65.1827 6.67822 65.0997 7.01185C64.9952 7.46391 64.775 7.80531 64.4425 8.03884C64.1077 8.27181 63.6679 8.36634 63.123 8.3213C63.3499 8.53426 63.5273 8.75333 63.6574 8.9763C63.7853 9.19983 63.9409 9.57848 64.1233 10.1139L64.587 11.4579L63.1341 11.1226L62.5575 9.60906C62.3535 9.06916 62.2078 8.72442 62.1199 8.57596C62.0463 8.44132 61.9412 8.32648 61.8136 8.24123C61.694 8.16617 61.4955 8.09611 61.2175 8.03161L60.9701 7.97434L60.3901 10.4881L59.173 10.2085ZM61.1908 7.01408L62.091 7.22203C62.6743 7.35659 63.0446 7.41664 63.2009 7.40107C63.3571 7.38495 63.4906 7.32601 63.6007 7.22537C63.7102 7.12306 63.7864 6.98238 63.8275 6.80112C63.8742 6.59817 63.8581 6.42302 63.7786 6.27289C63.6991 6.12388 63.5645 6.00934 63.3743 5.93094C63.2798 5.89479 62.9857 5.81917 62.4936 5.70519L61.5433 5.48611L61.1908 7.01408ZM71.0448 13.9283L69.7765 13.4418V11.9377L67.4701 11.0525L66.4914 12.1807L65.2554 11.7058L69.7164 6.79834L70.9491 7.27152L71.0448 13.9283ZM69.7753 10.8223L69.8026 8.37635L68.2018 10.2179L69.7753 10.8223ZM72.2385 14.7223L75.5141 9.48118L76.5439 10.1245L76.5016 14.9653L78.689 11.4645L79.6721 12.0789L76.3965 17.3201L75.3356 16.6567L75.3573 11.9188L73.2222 15.3362L72.2385 14.7223ZM79.076 19.4797L82.3766 15.5463L80.9726 14.3676L81.6449 13.5669L85.4081 16.724L84.7358 17.5252L83.333 16.3487L80.0324 20.282L79.076 19.4797ZM19.4832 68.5981L22.8961 67.9342C41.0254 61.2813 59.9576 59.4459 79.8595 63.4243L83.6182 63.5382C61.9615 58.0269 40.5472 58.7542 19.4832 68.5981Z" fill="#5E95B6"/>
<path fill-rule="evenodd" clip-rule="evenodd" d="M27.485 54.6705C29.8642 54.3057 31.8192 54.2429 33.3488 54.4837C34.8779 54.7244 35.7537 55.2187 35.9761 55.9644C36.1151 56.4281 36.0489 56.9396 35.7842 57.5029C35.5151 58.0645 35.0308 58.7061 34.3308 59.4245C33.4762 60.3114 32.5537 61.0515 31.5584 61.6397C30.5676 62.2303 29.5612 62.6439 28.5364 62.8808C27.1575 63.2005 25.9498 63.2166 24.9172 62.9264C23.8858 62.6395 23.2541 62.1124 23.0262 61.3506C22.8977 60.9202 22.8655 60.4587 22.9283 59.9722C22.99 59.4829 23.1557 58.918 23.4276 58.2747L24.2884 56.1512C23.6628 56.2396 23.1613 56.2413 22.7798 56.1523C22.399 56.0667 22.171 55.8965 22.0965 55.6497C22.022 55.3994 22.2272 55.1264 22.712 54.8301C23.1974 54.5343 24.2188 54.0805 25.7768 53.4672C26.6342 52.0177 27.3838 50.9512 28.0282 50.2756C28.6754 49.5962 29.3198 49.1825 29.971 49.0312C30.0345 49.0133 30.1025 49.0203 30.1611 49.0507C30.2135 49.0794 30.2524 49.1275 30.2695 49.1847C30.2873 49.2437 30.2807 49.3237 30.2523 49.4233C30.2245 49.5261 30.1778 49.6423 30.1116 49.7747L28.6771 52.4675C30.6143 51.6968 32.1422 50.8917 33.256 50.0499C34.3669 49.2092 34.8445 48.5242 34.6877 47.9981C34.5882 47.6662 34.2852 47.451 33.7736 47.3498C33.2649 47.2481 32.6382 47.2853 31.9004 47.456C30.8373 47.7023 29.6768 48.1038 28.4208 48.6632C27.1669 49.2181 25.8441 49.922 24.4513 50.7677H25.5166L22.0615 52.7199L21.8896 52.82C21.2041 53.1987 20.7426 53.4139 20.5096 53.4678C20.3433 53.5062 20.1971 53.4984 20.0692 53.4467C20.0123 53.4256 19.9611 53.3917 19.9194 53.3477C19.8778 53.3036 19.8468 53.2505 19.829 53.1926C19.73 52.8606 19.8468 52.2351 20.1771 51.3076C20.5112 50.3824 20.9183 49.6863 21.4009 49.2231C21.6906 48.9362 22.1137 48.6159 22.6809 48.2617C23.2475 47.9081 24.0053 47.4855 24.9628 46.999C26.1299 46.4157 27.158 45.9486 28.041 45.6028C28.924 45.2569 29.773 44.9906 30.587 44.8021C32.1167 44.4479 33.4361 44.4307 34.5448 44.7476C35.6536 45.0645 36.3347 45.6523 36.591 46.5102C36.9786 47.8063 36.4092 49.1108 34.8862 50.423C33.3633 51.7352 31.0146 52.9351 27.8375 54.0238L27.485 54.6705ZM26.8316 55.8776L26.0587 57.3016C25.8685 57.6481 25.7229 58.0172 25.6256 58.4003C25.5427 58.7506 25.5311 59.0203 25.5906 59.2205C25.6868 59.5407 26.0254 59.772 26.6031 59.9116C27.1836 60.0506 27.8291 60.0389 28.5442 59.8738C29.7669 59.5902 30.8751 59.0264 31.8731 58.1851C32.8679 57.3439 33.2955 56.6861 33.1537 56.2101C33.0486 55.8587 32.4447 55.653 31.3449 55.5957C30.2429 55.5373 28.7382 55.6307 26.8316 55.8776ZM55.6244 55.6847C54.5079 56.8223 53.5894 57.6725 52.866 58.2357C52.142 58.799 51.5999 59.0792 51.2346 59.0803C50.8993 59.0815 50.4784 58.6728 49.963 57.8549C49.4475 57.0369 49.1867 56.2713 49.1851 55.5713C49.184 55.0592 49.403 54.477 49.8379 53.8326C50.2771 53.1887 50.8865 52.5515 51.6739 51.9265C52.2636 51.4525 52.894 51.0315 53.5577 50.6682C54.2688 50.2835 55.0084 49.9541 55.7701 49.6829C56.2959 49.4844 56.8322 49.3148 57.3765 49.1747C57.8891 49.0463 58.2411 48.9795 58.4407 48.979C58.7121 48.9784 58.984 49.1252 59.2564 49.4149C59.5244 49.7052 59.6606 49.9793 59.6618 50.2373C59.6618 50.3151 59.6323 50.3852 59.5695 50.4463C59.5055 50.5075 59.3871 50.5859 59.2047 50.681L58.7432 50.9484L59.183 51.8114C59.2414 51.9137 59.2809 52.0038 59.3026 52.0733C59.3231 52.1472 59.332 52.2123 59.332 52.2779C59.3331 52.4625 59.0084 53.008 58.3612 53.9193C57.7151 54.8262 57.3904 55.5312 57.3915 56.0361C57.3915 56.2285 57.4554 56.3753 57.5839 56.4737C57.7151 56.576 57.8936 56.6244 58.1271 56.6238C58.4835 56.6227 58.9284 56.4498 59.466 56.1006C60.0037 55.7509 60.7705 55.1214 61.7608 54.2134L61.7891 55.2704C60.046 57.1059 58.8322 58.2852 58.1499 58.8034C57.4688 59.3217 56.8877 59.5808 56.409 59.5819C56.2243 59.5862 56.0408 59.551 55.8708 59.4787C55.7008 59.4064 55.5482 59.2987 55.4232 59.1626C55.1602 58.8846 55.0234 58.5327 55.0223 58.1106C55.0211 57.7259 55.218 56.9302 55.6139 55.7292L55.6244 55.6847ZM57.65 51.4188C54.9372 52.5526 53.1801 53.4422 52.3756 54.0789C51.576 54.7161 51.1745 55.4261 51.1768 56.2001C51.1768 56.3925 51.2201 56.5521 51.3008 56.6789C51.3858 56.8056 51.4876 56.8707 51.6149 56.8701C52.0264 56.8696 52.8271 56.3508 54.0159 55.3116C55.2007 54.2724 56.4107 52.9746 57.65 51.4188ZM69.32 56.536C68.0722 57.5696 67.1848 58.238 66.6672 58.5399C66.1489 58.8424 65.718 58.9819 65.3783 58.9591C64.8156 58.9224 64.3302 58.5694 63.9165 57.901C63.5073 57.2293 63.3321 56.4742 63.396 55.6285C63.4531 54.9171 63.6502 54.224 63.976 53.589C64.3074 52.9251 64.795 52.2629 65.4367 51.6001C65.9643 51.048 66.4064 50.6587 66.7561 50.4352C67.1059 50.2078 67.4206 50.1055 67.7042 50.1244C68.0005 50.1439 68.3036 50.2384 68.611 50.4069C68.9185 50.5748 69.0692 50.7244 69.0597 50.8511C69.0458 51.0268 68.8423 51.3994 68.4481 51.9726C68.055 52.5415 67.6241 53.0224 67.157 53.4061C67.0681 53.49 66.9268 53.6079 66.7355 53.7642C65.7864 54.5509 65.286 55.2693 65.2359 55.9188C65.2176 56.1723 65.2459 56.3753 65.3171 56.5237C65.3933 56.6733 65.5017 56.7539 65.6452 56.7634C65.9199 56.7817 66.2435 56.6766 66.6193 56.4509C66.9963 56.2218 67.6574 55.703 68.5999 54.8873C68.9852 53.8409 69.6297 52.8651 70.5299 51.9687C71.4257 51.0674 72.0718 50.6343 72.4599 50.6599C72.6306 50.6715 72.7996 50.7483 72.967 50.8989C73.1366 51.0457 73.2155 51.2114 73.2016 51.3949C73.1649 51.8731 72.928 52.4608 72.4849 53.1581C72.0428 53.8515 71.4457 54.5632 70.6984 55.2938C70.8201 55.4701 70.9502 55.5985 71.0848 55.6808C71.2238 55.7603 71.3767 55.8076 71.5563 55.8187C71.8877 55.8409 72.2992 55.7208 72.7924 55.4617C73.2811 55.2026 73.8916 54.7756 74.62 54.1829L74.5083 55.3049C73.7187 56.0083 73.0237 56.5121 72.4265 56.8179C71.826 57.1226 71.2677 57.2577 70.7584 57.2232C70.5122 57.205 70.2716 57.1403 70.0495 57.0325C69.7854 56.9001 69.54 56.7331 69.32 56.536ZM81.5654 58.903C80.9376 59.3706 80.336 59.6975 79.7627 59.8833C79.1895 60.0695 78.6418 60.1146 78.1275 60.0156C77.403 59.8766 76.8558 59.4468 76.4855 58.725C76.1163 57.9989 76.0251 57.147 76.2142 56.1657C76.3443 55.4817 76.6768 54.7939 77.2111 54.1C77.7527 53.3972 78.4171 52.7983 79.1722 52.3324C79.8112 51.9222 80.5118 51.6171 81.2473 51.4288C81.9707 51.2465 82.5963 51.2042 83.1317 51.3065C83.5587 51.3883 83.9268 51.5551 84.2404 51.8114C84.554 52.0677 84.6903 52.2896 84.6541 52.4792C84.6452 52.5231 84.5735 52.5971 84.44 52.7005C84.3088 52.8006 84.196 52.8912 84.1087 52.9707L84.1531 52.9791C84.4223 53.0308 84.5952 53.152 84.6725 53.3416C84.7486 53.5312 84.7486 53.8359 84.668 54.254C84.5596 54.8178 84.3355 55.3961 83.9924 55.9888C83.6505 56.5788 83.2007 57.1804 82.6446 57.7993C83.0094 57.8532 83.4731 57.7587 84.0425 57.5123C84.6102 57.2677 85.3803 56.8229 86.3511 56.1745L86.0937 57.3856C85.0839 58.0634 84.2727 58.5293 83.6588 58.7701C83.0483 59.0153 82.5195 59.0981 82.0808 59.0136C81.9529 58.9892 81.8528 58.9658 81.7733 58.9463C81.7044 58.9302 81.635 58.9157 81.5654 58.903ZM80.5729 57.5735C80.5784 57.5452 80.584 57.4962 80.5879 57.4306C80.6174 57.1437 80.6446 56.9408 80.6674 56.824C80.7486 56.397 80.9499 55.9143 81.2635 55.3661C81.5815 54.8178 82.0063 54.2151 82.5418 53.5506C81.3485 53.7931 80.3038 54.259 79.413 54.9441C78.5267 55.6285 78.0151 56.3191 77.8817 57.0114C77.8222 57.3244 77.8578 57.5741 77.984 57.7642C78.1113 57.9516 78.3293 58.0728 78.6435 58.1329C78.9204 58.1863 79.2256 58.1651 79.5559 58.0706C79.8867 57.9761 80.2276 57.812 80.5729 57.5735ZM38.2747 56.8568L37.9194 56.0166L39.687 54.3986C39.4746 54.2802 39.3145 54.145 39.2149 54.0016C39.1154 53.8581 39.0631 53.7024 39.0631 53.5345C39.0631 52.8873 39.4746 52.1456 40.2936 51.3182C41.1165 50.4908 41.7971 50.0771 42.3387 50.0771C42.4254 50.0771 42.4994 50.1055 42.5683 50.1672C42.5997 50.1949 42.6248 50.229 42.6419 50.2671C42.6591 50.3053 42.6679 50.3467 42.6679 50.3885C42.6679 50.4458 42.6417 50.532 42.5939 50.6549C42.5422 50.7738 42.4644 50.9251 42.3643 51.1097L44.5217 50.9785C44.5739 50.9785 44.6384 50.9746 44.7252 50.9662C44.9573 50.9466 45.1901 50.9343 45.423 50.9295C45.8823 50.9295 46.2159 51.0646 46.4322 51.331C46.649 51.6012 46.7569 52.0071 46.7569 52.5515C46.7569 52.7483 46.5362 53.043 46.0986 53.4278C45.8255 53.6491 45.6176 53.8331 45.4747 53.9771C44.9848 54.4725 44.5778 54.9885 44.2614 55.5251C43.9451 56.0622 43.7849 56.4876 43.7849 56.8073C43.7849 57.0497 43.8411 57.2299 43.9584 57.3561C44.0707 57.4795 44.2398 57.5407 44.4694 57.5407C44.7246 57.5407 45.1411 57.34 45.7127 56.9341C46.2893 56.5326 47.2167 55.7792 48.4945 54.6733V55.7547C47.0733 57.2254 45.9212 58.2986 45.0371 58.9703C44.1536 59.6419 43.4513 59.9778 42.9359 59.9778C42.4766 59.9778 42.0868 59.7932 41.7615 59.4245C41.4368 59.0559 41.2722 58.6016 41.2722 58.0561C41.2722 57.3683 41.4713 56.68 41.8744 55.9877C42.2775 55.2955 42.962 54.4759 43.9239 53.534C43.4236 53.6472 42.9208 53.7495 42.416 53.8409C42.0173 53.9065 41.6403 53.9643 41.285 54.0133L40.9425 54.3619C39.6053 55.6975 38.7167 56.5293 38.2747 56.8568Z" fill="#CC2131"/>
</svg>
