<svg width="101" height="61" viewBox="0 0 101 61" fill="none" xmlns="http://www.w3.org/2000/svg">
<path fill-rule="evenodd" clip-rule="evenodd" d="M13.8131 1H85.957C88.4293 1 90.4918 3.10798 90.4918 5.50919V55.5023C90.4918 57.892 88.4299 60 85.957 60H13.8131C11.2912 60 9.27832 57.892 9.27832 55.5023V5.50972C9.27884 3.10798 11.2912 1 13.8131 1ZM16.2729 3.02226H83.5344C85.9079 3.02226 87.7708 4.76228 87.7708 7.21262V53.7874C87.7708 56.1285 85.9079 57.9412 83.5344 57.9412H16.2729C13.8502 57.9412 11.9372 56.128 11.9372 53.7874V7.21262C11.9372 4.76228 13.8508 3.02226 16.2729 3.02226Z" fill="#CC2229" stroke="#CC2229" stroke-width="0.1129" stroke-miterlimit="2.613"/>
<path fill-rule="evenodd" clip-rule="evenodd" d="M16.1362 3.02246H83.5347C85.9082 3.02246 87.771 4.76248 87.771 7.21282V53.7876C87.771 56.1287 85.9082 57.9413 83.5347 57.9413H16.1362C13.8505 57.9413 11.9375 56.1282 11.9375 53.7876V7.21282C11.937 4.76248 13.8505 3.02246 16.1362 3.02246Z" fill="#FFF22D"/>
<path d="M37.0708 18.0446L32.5611 25.3721C28.9708 25.6544 26.3992 24.5761 26.7844 21.9533C27.1691 18.8658 31.6914 17.6646 37.0708 18.0446ZM55.9799 20.7527C55.831 16.0103 57.893 12.6406 61.856 10.3006L76.0939 3.75708C76.0939 10.2514 74.3418 15.4589 67.745 16.9909L61.6819 18.2161C59.5697 18.6938 58.1658 19.4784 57.271 20.7527H73.3477C77.423 20.7527 80.7274 24.0738 80.7274 28.0922V28.1413C81.0134 30.1139 84.1808 33.6185 86.8026 35.4448H77.088L76.4786 34.6717C75.5341 35.1751 74.3784 35.4448 73.2609 35.4448H55.7437V33.0551C54.3387 34.575 52.3771 35.4448 50.2268 35.4448C46.4002 35.4448 43.1329 32.5036 42.7482 28.7664L38.6979 34.9916H28.3619C18.8328 34.9916 12.6829 30.0779 13.9876 21.9538C17.0693 12.3594 26.7844 7.54392 39.034 7.66675L56.7619 7.81363L47.9411 21.0835C48.6869 20.8504 49.4323 20.7527 50.2273 20.7527C52.3771 20.7527 54.3392 21.5858 55.7442 23.0687V20.7527H55.9799Z" stroke="#CC2229" stroke-width="1.4332" stroke-miterlimit="2.613"/>
<path fill-rule="evenodd" clip-rule="evenodd" d="M37.0708 18.0446L32.5611 25.3721C28.9708 25.6539 26.3992 24.5761 26.7844 21.9533C27.1691 18.8658 31.6914 17.6646 37.0708 18.0446ZM55.9799 20.7527C55.831 16.0103 57.893 12.6406 61.856 10.3006L76.0939 3.75708C76.0939 10.2514 74.3418 15.4589 67.745 16.9909L61.6819 18.2161C59.5697 18.6938 58.1658 19.4784 57.271 20.7527H73.3477C77.423 20.7527 80.7274 24.0738 80.7274 28.0922V28.1413C81.0134 30.1139 84.1808 33.6185 86.8026 35.4448H77.088L76.4785 34.6717C75.5341 35.1751 74.3784 35.4448 73.2609 35.4448H55.7437V33.0551C54.3387 34.575 52.3771 35.4448 50.2268 35.4448C46.4002 35.4448 43.1329 32.5036 42.7482 28.7664L38.6979 34.9916H28.3619C18.8328 34.9916 12.6829 30.0779 13.9876 21.9538C17.0693 12.3594 26.7844 7.54392 39.034 7.66675L56.7619 7.81363L47.9411 21.0835C48.6869 20.8504 49.4323 20.7527 50.2273 20.7527C52.3771 20.7527 54.3392 21.5858 55.7442 23.0687V20.7527H55.9799Z" fill="white"/>
<path fill-rule="evenodd" clip-rule="evenodd" d="M54.0531 9.38176L37.6293 33.6552H28.1876C20.1121 33.6552 14.7327 29.2808 15.95 22.0882C18.5216 13.6212 26.8333 9.2835 37.2943 9.38176H54.0531ZM39.0333 16.7093L32.9958 26.5608C27.9519 27.0265 24.4358 25.5562 24.7217 22.0882C25.3301 17.8858 31.6911 16.3293 39.0333 16.7093ZM50.2271 26.3282C49.2084 26.3282 48.451 27.1122 48.451 28.1414C48.451 29.0357 49.2089 29.7957 50.2271 29.7957C51.2212 29.7957 52.0042 29.0357 52.0042 28.1414C52.0042 27.1122 51.2212 26.3282 50.2271 26.3282ZM50.2271 22.1865C46.9603 22.1865 44.2512 24.8208 44.2512 28.1414C44.2512 31.3031 46.9598 33.9244 50.2271 33.9244C53.544 33.9244 56.2034 31.3026 56.2034 28.1414C56.2029 24.8208 53.544 22.1865 50.2271 22.1865ZM73.2607 26.3282C72.2796 26.3282 71.4344 27.1122 71.4344 28.1414C71.4344 29.0357 72.2796 29.7957 73.2607 29.7957C74.2297 29.7957 75.0749 29.0357 75.0749 28.1414C75.0749 27.1122 74.2297 26.3282 73.2607 26.3282ZM76.4783 33.006L77.1369 33.6552H82.727C80.814 32.3197 79.559 30.47 79.1367 28.0923C79.1367 24.8208 76.4783 22.1865 73.2607 22.1865C69.9307 22.1865 67.2357 24.8208 67.2357 28.1414C67.2357 31.3031 69.9307 33.9244 73.2607 33.9244C74.3787 33.9249 75.584 33.6186 76.4783 33.006Z" fill="#CC2229" stroke="#CC2229" stroke-width="0.1129" stroke-miterlimit="2.613"/>
<path fill-rule="evenodd" clip-rule="evenodd" d="M57.6064 22.3088V33.6553H61.6818V31.1317L63.7192 33.6553H68.5269L64.5012 28.1415L68.0173 22.3088H63.5948L61.6818 24.7231V22.3088H57.6064Z" fill="#CC2229" stroke="#CC2229" stroke-width="0.1129" stroke-miterlimit="2.613"/>
<path fill-rule="evenodd" clip-rule="evenodd" d="M74.801 5.84082C72.6523 8.96542 69.8815 11.7221 65.3467 13.0214C61.8552 14.2466 59.5198 15.8763 57.9424 18.0455C60.2281 17.1632 62.7009 16.5626 65.4957 16.2318C72.6889 15.2758 74.7388 11.134 74.801 5.84082Z" fill="#CC2229"/>
<path fill-rule="evenodd" clip-rule="evenodd" d="M3.38979 42.0854C8.844 37.9802 12.4469 38.5317 13.0553 41.0196C16.0868 38.2134 19.5898 38.0294 23.3673 41.0196C28.337 38.5317 32.2874 37.8945 33.9401 41.0196C39.0337 37.7602 41.6298 38.446 42.9846 41.0196C47.6062 38.5808 51.1092 38.3111 52.6998 41.0196C57.6072 38.1151 60.551 38.4825 62.1415 41.0196C67.7452 38.7648 71.4343 38.446 72.6522 41.0196C77.9809 38.3111 80.3048 39.9173 81.3737 40.9339C82.0814 41.4854 82.6908 41.4854 83.2867 41.0196C91.9711 38.5317 99.1266 38.3968 97.7227 44.3408L96.22 48.8008C95.6607 50.6506 96.4557 51.7043 98.7916 52.0357C95.2504 54.9758 91.5608 55.7233 87.8215 54.6204C87.3119 56.3243 83.9453 56.1775 79.6964 54.5713C78.5783 56.6061 76.9382 58.4433 72.6893 59.2153C73.3975 56.4101 72.8884 54.6941 69.8819 54.5713C68.478 56.3243 64.9368 56.1283 60.0294 54.5713C59.5197 56.6061 57.4703 58.2598 53.8674 59.2644C54.3891 55.8576 52.7985 54.7918 50.1276 54.5713C48.96 56.6061 46.3507 56.961 41.4438 54.5713C37.6297 56.3243 33.8403 57.4633 30.9828 54.5713C30.1381 56.7775 26.8829 56.4587 22.1123 54.5713C16.3727 56.3599 11.4653 57.3901 10.5704 54.5713C5.25316 56.5078 0.209262 57.3284 1.10357 54.4244L4.2841 44.7568C4.74406 43.2369 4.45816 42.4894 3.38979 42.0854Z" fill="white" stroke="#CC2229" stroke-width="1.11436" stroke-miterlimit="2.613"/>
<path fill-rule="evenodd" clip-rule="evenodd" d="M6.47025 43.422C9.60113 41.6203 12.3097 41.1055 12.5334 42.637C15.8007 41.5712 18.3723 41.3015 19.7266 42.637C20.3355 43.4712 20.2858 44.0958 19.7762 45.1741L17.9996 49.5975C17.3039 51.4353 17.9996 52.257 18.9441 53.1879L13.8134 54.1433C12.7822 54.2416 12.2109 53.261 12.6332 52.1587L14.6832 46.8399C15.8634 44.3038 12.2109 43.1894 11.2915 45.4067L8.43398 51.6554C8.16061 52.4404 8.21027 52.869 8.52126 53.1879L3.72564 54.1433C3.43973 53.3102 3.51448 52.3672 3.99901 51.337L6.42164 45.6764C6.97987 44.4261 6.88056 43.7895 6.47025 43.422ZM39.4427 52.1582C36.2251 53.8731 32.4853 54.2405 32.4361 52.7582C29.1809 53.8119 26.4974 54.0691 25.1557 52.7582C24.5964 51.9852 24.6461 51.2503 25.1055 50.2702L26.9568 45.8102C27.5658 43.9238 26.9568 43.1398 25.9381 42.2199L31.1561 41.2153C32.2616 41.105 32.709 42.1707 32.3363 43.2365L30.1374 48.6165C29.1187 51.2503 32.709 52.2559 33.7031 50.0005L36.4117 43.7884C36.7347 42.9542 36.7347 42.489 36.4117 42.2193L41.2193 41.2147C41.5052 42.1211 41.3934 43.04 40.9339 44.021L38.4987 49.7183C37.7037 51.3365 38.8218 52.1582 39.4427 52.1582ZM96.2689 52.1582C93.0512 53.8731 89.4118 54.2405 89.324 52.7582C85.995 53.8119 83.4354 54.0691 82.0811 52.7582C81.4727 51.9852 81.4226 50.8828 81.9322 49.8291C82.7774 48.445 83.9952 47.66 86.467 47.1096L91.0896 46.3611C92.1705 46.1771 92.1705 44.4256 91.052 43.825C89.3747 43.5553 87.9211 44.3393 86.2814 44.8542C85.0756 45.4788 84.405 44.4256 85.3991 43.4701C86.616 42.3176 90.0082 41.1536 93.1385 41.105C95.4373 41.105 96.779 43.8255 96.146 45.2587L94.8289 49.6697C94.0328 51.3365 95.6605 52.1582 96.2689 52.1582ZM91.238 48.1147L90.5298 50.6507C85.9082 52.3667 83.5347 49.9279 88.6042 48.617C88.6042 48.617 91.1758 48.1147 91.238 48.1147ZM58.2651 52.1582C57.9426 54.7428 57.0472 56.3245 55.3208 56.2753C56.1038 53.8731 55.1838 52.9668 52.3389 53.5182C51.7305 53.5919 51.1587 53.3102 51.3076 52.7587C47.9405 53.8125 45.4185 54.0696 44.0773 52.7587C43.5552 51.9857 43.5552 51.2508 44.0151 50.2708L45.7917 45.8107C46.4373 43.9243 45.7917 43.1403 44.7605 42.2204L49.9905 41.2158C51.1085 41.1055 51.581 42.1713 51.2209 43.237L49.059 48.617C47.9405 51.2508 51.5313 52.2564 52.5626 50.0011L55.3208 43.789C55.6433 42.9548 55.5445 42.4896 55.2586 42.2199L60.0793 41.2153C60.464 42.1216 60.2283 43.0405 59.7934 44.0216L57.3833 49.7188C56.5878 51.3856 57.7053 52.1582 58.2651 52.1582ZM77.3101 52.1582C77.0367 54.7428 76.0933 56.3245 74.3412 56.2753C75.1734 53.8731 74.2289 52.9668 71.3348 53.5182C70.7755 53.5919 70.0793 53.3102 70.3652 52.7587C67.0482 53.8125 64.427 54.0696 63.1098 52.7587C62.5516 51.9857 62.6002 51.2508 63.0351 50.2708L64.8368 45.8107C65.4953 43.9243 64.8368 43.1403 63.8677 42.2204L69.0355 41.2158C70.0788 41.1055 70.638 42.1713 70.2157 43.237L68.1292 48.617C67.0482 51.2508 70.5393 52.2564 71.5585 50.0011L74.3412 43.789C74.6883 42.9548 74.6146 42.4896 74.2911 42.2199L79.0992 41.2153C79.4217 42.1216 79.3726 43.0405 78.8499 44.0216L76.3776 49.7188C75.683 51.3856 76.7017 52.1582 77.3101 52.1582Z" fill="#CC2229"/>
</svg>
