<svg width="90" height="92" viewBox="0 0 90 92" fill="none" xmlns="http://www.w3.org/2000/svg">
<g clip-path="url(#clip0_1_117)">
<path d="M13.7627 44.7487C13.7627 44.7487 6.69072 52.7729 3.31874 69.8203C3.31874 69.8203 2.75682 74.0354 4.36469 74.2227C5.9568 74.4098 6.92485 72.0059 7.487 70.5383C7.72113 69.914 18.1183 45.8727 16.2292 44.5611C16.2292 44.5611 22.7233 44.202 23.4261 48.6202C24.1443 53.0224 17.3064 56.4414 15.308 56.8473C13.2944 57.2377 13.3412 58.0495 13.4662 58.1584C13.5911 58.2674 14.0281 58.8455 16.6198 58.4554C19.2113 58.0495 25.1747 56.2541 27.7661 50.7434C27.7661 50.7434 30.2642 45.5292 25.6119 41.7045C20.9441 37.8642 14.1062 39.7999 11.5461 41.4703C8.97038 43.1408 9.89138 44.9673 10.141 45.2169C10.406 45.4823 10.9995 45.8101 13.7627 44.7487ZM36.0773 39.9856C36.0773 39.9856 36.155 39.0331 36.8423 38.9394C37.5447 38.8458 38.0287 39.0331 38.1692 41.0628C38.3255 43.1079 37.3263 46.074 35.7027 48.9308C34.969 50.242 33.5797 53.458 33.6108 53.7857C33.6108 53.7857 34.0948 55.1284 32.5338 55.1129C30.9727 55.0976 30.0047 52.6151 30.2546 50.6481C30.504 48.6812 31.0815 46.558 36.0771 39.9854M49.322 41.1487C49.322 41.1487 45.1224 42.0229 42.8277 41.7888C42.8277 41.7888 39.3463 41.336 40.2986 39.3378C40.2986 39.3378 40.7045 38.5104 41.6723 38.5726C42.6401 38.6347 43.8734 38.7914 45.5751 38.5104C47.2767 38.245 52.3659 38.1045 53.0373 38.1826C53.7084 38.2608 54.6919 38.9476 54.2547 40.3527C53.8022 41.7575 50.2738 45.6292 50.2738 45.6292L44.6539 50.9526C44.6539 50.9526 48.4005 50.2034 52.8655 50.9681C57.3305 51.7334 59.7186 51.9362 60.7803 51.811C61.826 51.6863 63.6525 51.2959 64.1366 51.0929C64.6206 50.8898 65.0422 51.046 65.2138 51.3428C65.4011 51.6395 65.3232 52.0767 64.5895 52.5292C63.8556 52.9815 61.311 54.6368 56.5184 54.4651C51.7259 54.2933 48.9314 54.3246 48.9314 54.3246C48.9314 54.3246 43.5451 54.2465 40.5948 55.1051C40.5948 55.1051 38.2688 56.3384 37.2697 55.1988C36.2706 54.0594 37.0355 52.5762 37.5506 51.7487C38.3003 50.5622 42.1408 47.0185 49.322 41.1487Z" fill="#221E1F"/>
<path d="M55.4825 37.2256C55.4825 37.2256 55.0455 36.1171 55.7166 35.4928C55.9037 35.3055 56.3254 35.1026 56.6376 35.0869C56.9499 35.0869 57.1685 35.2118 57.6368 35.2742C58.0582 35.3523 65.817 34.228 65.817 34.228C65.817 34.228 68.2212 33.8534 69.5326 35.2118C70.6413 36.3827 68.6273 38.537 68.6273 38.537C68.6273 38.537 61.914 45.4216 61.6801 45.4993C61.6801 45.4993 63.5691 45.7026 64.1 45.765C64.6308 45.8273 67.6748 46.3424 68.721 46.1864C69.7667 46.0304 70.0011 45.9991 70.1258 45.968C70.2663 45.9212 70.9218 45.7339 71.0936 46.28C71.2807 46.842 70.6098 47.6695 68.7363 48.4969C66.8472 49.3245 64.0842 49.4024 62.9136 49.3555C61.7577 49.2776 58.4954 49.1372 57.3092 49.2308C56.1068 49.3242 54.8422 49.6523 54.702 49.6523C54.5302 49.6678 53.3283 49.5899 54.0149 47.7164C54.702 45.8431 56.6376 44.4536 56.6376 44.4536L64.3807 38.1308C64.3807 38.1308 57.8083 38.9584 56.7313 38.5054C56.2317 38.3028 55.623 37.7562 55.4825 37.2256ZM19.5299 70.5431C21.1533 70.2466 23.901 69.9031 23.901 69.9031C23.901 69.9031 29.4898 57.1486 31.8159 57.0703C34.1421 56.9926 29.5366 68.7164 29.5366 68.7164L36.3745 67.2648C36.3745 67.2648 37.9666 61.6913 39.481 59.1624C40.9795 56.6335 41.4793 56.5399 41.7292 56.5399C41.9788 56.5399 42.978 56.5867 42.7906 57.7574C42.6033 58.9285 41.4012 65.8908 41.4012 65.8908L43.2902 65.1884C43.2902 65.1884 43.7274 64.9698 43.9771 65.3757C44.2267 65.7972 43.5399 66.328 43.5399 66.328L40.8703 68.0608C40.8703 68.0608 39.0283 76.0851 38.3101 77.1624C37.592 78.2394 36.7178 78.8639 35.8592 78.8015C35.0163 78.7392 34.1732 77.896 34.2511 75.9446C34.3134 73.9932 35.1097 71.2145 35.1565 70.9959C35.1565 70.9959 28.9432 73.4779 27.9909 73.5715C27.9909 73.5715 25.9145 81.9234 25.2903 83.0008C24.6813 84.0779 23.3701 84.7803 22.3242 84.6555C20.9034 84.4838 20.7006 82.5168 20.685 81.3457C20.669 80.175 21.575 76.3501 22.2929 74.1492C22.2929 74.1492 19.0927 73.8057 18.5463 73.0407C18.5463 73.0407 18.078 72.4941 18.2028 71.6199C18.3432 70.7304 19.5299 70.5431 19.5299 70.5431Z" fill="#221E1F"/>
<path d="M59.7642 75.0831C59.7642 75.0831 69.0996 72.2105 74.735 71.5705C80.3709 70.9149 82.9468 70.7431 82.9468 70.7431C82.9468 70.7431 83.5087 70.6182 83.6337 71.2429C83.7431 71.8203 82.8684 71.9453 82.8684 71.9453C65.6339 77.1127 53.4727 82.3111 52.0364 82.9201C50.6782 83.4665 33.1625 91.1627 33.1625 91.1627C33.1625 91.1627 31.008 91.9433 29.2597 91.631C27.4956 91.319 27.152 90.5072 27.0115 89.7109C27.0115 89.7109 26.4964 87.9155 29.0411 87.0571C31.3824 86.261 37.6585 83.451 37.6585 83.451L54.1598 76.9098L59.7642 75.0831Z" fill="#FCC607"/>
<path d="M81.7902 39.4938C81.6497 39.8684 81.6029 40.4307 81.6029 40.4307C81.6029 40.4307 79.4016 41.6953 78.4027 42.0857C77.372 42.4916 76.1077 42.4135 76.1077 42.4135C77.3721 38.1205 82.758 37.2774 82.758 37.2774C82.758 37.2774 81.9307 39.1349 81.7902 39.494M89.83 42.1946C89.7519 41.8824 88.0504 41.6795 87.4258 41.6167C86.8013 41.5701 86.2552 41.2579 85.9898 40.5399C85.7399 39.8531 86.6451 37.683 87.051 36.1531C87.4727 34.6231 86.6293 34.0767 86.1458 34.0299C85.6773 33.9831 85.0841 34.4203 85.0841 34.4203C78.8241 33.1089 71.7364 39.7279 71.3305 42.6629C71.034 44.8016 71.6427 46.3161 73.4224 46.6907C75.1865 47.0653 76.7946 46.4252 78.1841 45.8789C79.5578 45.3638 82.3055 43.2406 82.3055 43.2406C82.5705 43.9119 84.0539 44.583 85.4121 44.6301C86.7701 44.6924 89.1276 43.5997 89.5335 43.3187C89.9392 43.0533 89.9237 42.5069 89.83 42.1946Z" fill="#221E1F"/>
<path d="M41.9894 27.9903C41.9894 27.9903 42.7076 27.6313 43.0041 27.9435C43.3006 28.2558 43.129 28.724 42.8945 29.1455C42.6606 29.5671 39.3665 34.6562 38.2582 35.6395C37.5555 36.2487 36.5564 36.3579 35.7759 35.8894C34.9798 35.4367 35.089 33.9067 35.37 33.2669C35.6509 32.6269 36.5875 30.8315 38.5234 29.6295C40.4439 28.4431 41.9894 27.9903 41.9894 27.9903Z" fill="#009867"/>
<path d="M84.8558 21.2631L83.4666 20.2953C79.5324 17.2198 63.5778 10.8973 63.5778 10.8973C63.5778 10.8973 62.4539 8.36845 61.8137 7.13497C60.0183 3.66934 57.3179 0.937399 57.1927 0.843746C57.0524 0.765625 56.9275 0.765625 56.9275 0.765625L56.8025 0.796919L52.119 2.04571L41.3785 5.15226C41.3785 5.15226 34.0101 7.46298 33.6665 7.58793C33.3232 7.72841 33.0733 7.96254 33.0733 7.96254C33.0733 7.96254 30.56 12.2866 30.3569 12.7864C30.1383 13.2859 27.2503 18.8748 27.2503 18.8748L20.0692 22.2623C19.4136 22.6213 19.4136 22.5903 14.4491 25.5876L8.43882 29.787C8.43882 29.787 2.74058 34.0957 2.27231 34.5325C1.80382 34.9539 1.27319 35.8749 1.77252 36.6712C2.25655 37.4672 3.48981 37.3268 3.48981 37.3268L9.2504 35.8123L20.8184 32.8775L34.5875 30.0051L36.4766 29.6773C36.8825 29.3027 37.3507 28.9281 37.8814 28.6003C39.7236 27.4605 41.238 26.9612 41.5814 26.8517C42.2995 26.524 43.2361 26.4458 43.8761 27.1014C44.1415 27.3668 44.3757 27.7883 44.3601 28.366L45.1406 28.2255H45.1717L59.8931 26.3209C59.8931 26.3209 69.2913 25.3684 72.4447 25.2747C80.0631 25.0408 83.7315 23.9012 83.7315 23.9012C84.0438 23.7607 85.074 23.4016 85.277 22.5588C85.4801 21.7159 84.8558 21.2629 84.8558 21.2629" fill="#EE1C23"/>
<path d="M64.7131 61.6621C64.7131 61.6621 60.7013 61.6777 60.6074 60.179C60.5137 58.6801 62.2155 58.3525 62.9805 58.7427C62.9805 58.7427 63.4177 58.8363 63.8394 58.774C64.2608 58.7116 66.3527 58.337 66.3527 58.337C66.3527 58.337 69.5063 53.2317 70.0838 52.7013C70.0838 52.7013 70.708 51.8585 71.7074 52.5296C72.7063 53.2164 71.9881 54.793 71.9881 54.793L70.6767 57.4471L80.1216 55.6829C80.1216 55.6829 80.6992 55.5425 80.8087 56.011C80.9023 56.4011 79.903 56.8378 79.903 56.8378C79.903 56.8378 70.1774 60.7409 69.147 60.9127L66.4616 68.172L64.2606 74.6973C64.2606 74.6973 63.9954 75.2279 63.4488 75.1969C62.9021 75.1813 62.6367 74.2293 62.6212 73.9949C62.5899 73.7608 62.3873 70.3262 62.793 68.0157C63.1989 65.7055 64.7131 61.709 64.7131 61.709M45.4134 64.4281C45.4134 64.4281 45.1012 63.7102 44.4454 63.3824C43.7898 63.0388 43.6801 62.7108 43.9926 62.3677C44.2736 62.0397 45.5852 61.6809 46.8963 61.9461C48.2232 62.196 49.1287 63.7881 49.2381 64.8811C49.3475 65.9741 49.2068 67.7692 48.4729 69.6581C48.4729 69.6581 54.3114 66.0207 55.498 64.038C55.498 64.038 56.9499 61.0719 57.6212 60.5408C57.6212 60.5408 58.9794 59.5106 59.5571 61.0561C59.5571 61.0561 59.6039 62.2736 59.167 64.7246C58.7298 67.1756 58.6985 71.9217 58.7764 72.0622C58.8547 72.2185 59.4166 72.9988 58.5267 73.5139C58.5267 73.5139 57.9022 73.7169 57.0123 72.9988C56.1226 72.2806 54.577 70.9382 54.6549 68.2373C54.6549 68.2373 51.8609 72.2651 49.5035 73.3263C47.1462 74.388 46.1311 74.4972 44.6484 73.3887C43.1653 72.2961 44.1957 68.9084 44.1957 68.9084C44.1957 68.9084 45.3666 65.3804 45.3823 65.3023C45.3976 65.2086 45.5537 64.7248 45.4134 64.4281ZM27.3152 17.4619C27.2997 17.5242 27.1748 17.54 27.0653 17.4932C26.9404 17.4463 26.7999 17.3059 26.9249 16.9781C27.0343 16.6345 29.7817 10.9833 31.5772 7.95469C31.5772 7.95469 31.7485 7.4396 32.4513 7.22099C33.1382 7.00239 50.6852 1.97572 50.6852 1.97572L55.2281 0.804828C55.2281 0.804828 56.0869 0.664348 56.3989 1.55405C56.6957 2.44422 55.837 2.81883 55.6497 2.88119C55.4779 2.95885 44.9248 6.2687 44.9248 6.2687L33.0603 9.06345C33.0601 9.06322 27.3465 17.415 27.3152 17.4619ZM59.2794 0.337703C59.2794 0.337703 59.217 0.181691 59.357 0.119331C59.4977 0.0569717 59.6071 0.259811 59.6071 0.259811C59.6071 0.259811 60.8093 2.46112 60.9653 2.94492C61.1214 3.42872 63.697 10.5475 63.697 10.5475C63.697 10.5475 72.4395 13.0921 72.8922 13.2171C73.3605 13.3418 82.8364 16.6672 87.6604 19.165C87.6604 19.165 88.1132 19.3836 88.1602 19.4147C88.2073 19.4457 88.7219 19.9455 88.4722 20.57C88.2383 21.179 87.6134 21.2882 87.4108 21.2727C87.2082 21.2571 86.1152 20.8355 86.1152 20.8355C86.1152 20.8355 68.7399 14.5908 64.2281 13.5138C64.2281 13.5138 61.9645 12.7644 61.6364 12.0464C61.3244 11.3283 60.7467 7.53485 60.7467 7.53485L59.2794 0.337703ZM79.9923 22.0548C79.6643 20.353 76.7918 20.2594 76.3706 20.3064C75.949 20.3375 47.2869 24.1156 45.3823 24.4276C35.0165 26.1291 17.2196 30.5941 17.2196 30.5941L6.30742 33.8101C6.51049 33.4042 15.2372 27.2377 15.7522 26.8475C16.2673 26.4574 26.3835 20.2438 26.3835 20.2438C26.3835 20.2438 27.1953 19.9318 26.9299 19.4322C26.7113 18.9797 26.2898 19.12 26.2898 19.12C26.2898 19.12 25.6653 19.3854 23.8544 20.1502C20.3419 21.6491 14.7061 25.0368 14.7061 25.0368C10.2571 27.5033 0.92144 35.0749 0.92144 35.0749C0.92144 35.0749 0.000439227 35.6994 0.484239 36.8232C0.952505 37.9628 2.21705 37.8223 2.21705 37.8223L15.7676 34.1694C16.7667 33.7167 34.4541 30.1103 34.4541 30.1103L36.3743 29.767C36.8115 29.3611 37.2953 28.9552 37.8885 28.5963C39.7149 27.4565 41.2292 26.9572 41.5727 26.8478C42.2909 26.5355 43.2432 26.4419 43.8677 27.0977C44.1486 27.3786 44.3983 27.8158 44.3672 28.4246L45.1478 28.2996L45.1633 28.2841C55.2326 26.5513 77.4004 25.0839 77.4004 25.0839C78.2126 24.9583 80.4137 24.2248 79.9923 22.0548ZM83.1628 75.1827H83.3659C83.5998 75.1827 83.8181 75.0891 83.8181 74.8707C83.8181 74.7144 83.6934 74.5584 83.3659 74.5584C83.2722 74.5584 83.2096 74.5584 83.1626 74.574V75.1829L83.1628 75.1827ZM83.1628 76.1818H82.8818V74.3864C83.0223 74.3554 83.1628 74.3398 83.3816 74.3398C83.6623 74.3398 83.8339 74.3867 83.9433 74.4648C84.0527 74.5584 84.1151 74.6678 84.1151 74.8394C84.1151 75.0895 83.9588 75.23 83.756 75.2768V75.2924C83.9122 75.3236 84.0214 75.4637 84.0683 75.7446C84.0995 76.0256 84.1464 76.1352 84.1777 76.1818H83.8807C83.8341 76.1352 83.7871 75.9635 83.756 75.7293C83.7094 75.4952 83.6 75.4013 83.3661 75.4013H83.1628V76.1818ZM83.4593 73.8716C82.7569 73.8716 82.1634 74.4803 82.1634 75.2453C82.1634 76.0103 82.7569 76.6193 83.4746 76.6193C84.1923 76.6193 84.7707 76.0103 84.7707 75.2453C84.7707 74.4803 84.1927 73.8716 83.4748 73.8716H83.4593ZM83.475 73.6217C84.365 73.6217 85.0676 74.3398 85.0676 75.2451C85.0676 76.1661 84.365 76.8687 83.4595 76.8687C82.5853 76.8687 81.8669 76.1661 81.8669 75.2451C81.8669 74.3396 82.5853 73.6217 83.4595 73.6217H83.475Z" fill="#221E1F"/>
</g>
<defs>
<clipPath id="clip0_1_117">
<rect width="89.9392" height="92" fill="white"/>
</clipPath>
</defs>
</svg>
