<svg width="110" height="29" viewBox="0 0 110 29" fill="none" xmlns="http://www.w3.org/2000/svg">
<path fill-rule="evenodd" clip-rule="evenodd" d="M1.35945 0.177753H7.74676C10.4669 0.177753 12.4185 0.532642 13.542 1.30125C15.021 2.24761 15.7307 3.54885 15.7307 5.20436C15.7307 6.44614 15.3164 7.5108 14.489 8.39832C13.8975 8.93034 13.0694 9.34468 12.0642 9.58127C10.9996 9.81786 9.58002 9.93616 7.74739 9.93616H6.03242V16.8561L7.74739 18.3939H1.12286L3.07442 16.7378V11.0603H2.83783C2.18689 11.0603 1.53658 11.1786 0.886274 11.474L0.767979 11.2374C1.18232 11.0008 1.47775 10.8825 1.71434 10.8237C1.8921 10.7642 2.36527 10.7054 3.07442 10.6459V9.995C2.95612 9.93616 2.77837 9.93616 2.66007 9.93616C1.65488 9.93616 0.826813 10.1727 0.235338 10.6459L0.0575828 10.4682C0.649058 9.34468 1.65425 8.81204 3.07379 8.8715V1.89272L1.35945 0.177753ZM6.0318 1.65613V8.75258H6.74157V2.42474H8.33824C9.52119 2.42474 10.3493 2.54303 10.8813 2.77962C11.3544 2.95738 11.8276 3.42993 12.1825 4.08086C11.8276 3.60768 11.3544 3.2528 10.8224 3.07567C10.2898 2.89792 9.58065 2.77962 8.63429 2.77962H7.15591V8.75258C8.98917 8.75258 10.4087 8.51662 11.2368 7.92514C12.1237 7.3925 12.5969 6.5056 12.5969 5.32265C12.5969 3.31226 11.5917 2.06985 9.58065 1.71496C9.10747 1.59667 8.45716 1.53721 7.62909 1.53721C7.21475 1.53784 6.68211 1.59729 6.0318 1.65613ZM15.021 1.71559C15.4347 1.89335 15.8484 2.24823 16.1445 2.72079C16.6771 3.54885 16.9137 4.49521 16.9137 5.6187C16.9137 7.27483 16.4405 8.57545 15.3759 9.46298C14.6661 10.1139 13.838 10.5276 12.8328 10.7642C11.7682 11.0008 10.2898 11.1191 8.2794 11.1191C7.86506 11.1191 7.51017 11.1191 7.15591 11.0596V16.9143L9.40352 19.5756H2.24698L1.89209 19.2214H8.57483L6.74157 17.0921V10.7041C7.56963 10.7041 8.45653 10.7636 9.40289 10.7636C11.591 10.7636 13.2472 10.4087 14.3707 9.7584C15.849 8.8715 16.6183 7.51142 16.6183 5.55986C16.6183 4.79126 16.5 4.14033 16.2634 3.60831C16.0262 3.01621 15.6124 2.42473 15.021 1.71559ZM25.6663 0C27.1446 0 28.5047 0.354884 29.6877 1.12349C30.9295 1.89272 31.9353 3.19334 32.5856 5.0266C33.0588 6.38668 33.3548 7.98398 33.3548 9.69894C33.3548 11.4727 32.9999 13.07 32.3496 14.4896C31.6399 16.0262 30.5752 17.1509 29.1557 17.86C28.091 18.3933 27.027 18.6293 25.844 18.6293C23.7742 18.6293 21.9409 17.9201 20.4619 16.5012C18.7469 14.785 17.86 12.3609 17.86 9.28522C17.86 6.26901 18.6293 3.90373 20.2253 2.2476C21.6442 0.768602 23.4187 0 25.6663 0ZM25.6663 1.18358C24.6611 1.18358 23.7735 1.53784 23.0049 2.18877C21.6442 3.43056 20.9345 5.91475 20.9345 9.64011C20.9345 12.006 21.2305 13.8987 21.9397 15.1993C22.2357 15.9097 22.7677 16.4411 23.418 16.8555C24.0797 17.2489 24.8365 17.4534 25.6062 17.447C27.0846 17.447 28.208 16.7954 29.0361 15.4359C29.8047 14.0158 30.1596 12.0648 30.1596 9.40352C30.1596 6.68273 29.8636 4.73117 29.2727 3.42993C28.9767 2.72016 28.4446 2.18815 27.8532 1.83326C27.2035 1.41954 26.4937 1.24241 25.6663 1.18358ZM28.7413 3.31226C27.7361 2.72079 26.8492 2.4842 26.1388 2.4842C25.2519 2.4842 24.4827 2.78025 23.8918 3.3711C22.8272 4.37629 22.2952 6.56506 22.2952 9.8767C22.2952 13.4249 23.0638 15.732 24.6016 16.9143L24.4833 17.0914C23.537 16.3823 22.8866 15.4948 22.4729 14.4301C22.0586 13.3066 21.8815 11.8283 21.8815 9.995C21.8815 7.39313 22.1775 5.44157 22.8866 4.02203C23.1827 3.3711 23.5964 2.89854 24.1284 2.60249C24.6611 2.2476 25.3114 2.06985 25.9617 2.06985C26.5532 2.06985 27.1446 2.18815 27.6178 2.42474C28.091 2.66133 28.5047 2.95738 28.7413 3.31226ZM30.2792 0.709767C31.2843 1.18295 32.1124 1.89272 32.7627 2.89791C34.0045 4.73117 34.6548 6.91932 34.6548 9.52181C34.6548 11.5328 34.2999 13.3661 33.5902 14.9634C32.7621 16.796 31.5203 18.0979 29.8642 18.9253C28.7407 19.4573 27.5577 19.7528 26.316 19.7528C24.6598 19.7528 23.122 19.2208 21.7031 18.1561V18.0378C22.886 18.9253 24.3644 19.3397 26.1382 19.3397C28.3858 19.3397 30.3374 18.511 31.8157 16.8555C33.4719 15.0216 34.2999 12.6563 34.2999 9.64011C34.2999 7.62972 33.945 5.85529 33.2353 4.31746C32.5255 2.77962 31.5203 1.5973 30.2785 0.887525L30.2792 0.709767ZM55.0585 0.177753L53.107 2.12931V16.7366L54.8219 18.3927H48.317L50.2685 16.7366V7.15591L45.7739 19.575H44.4138L44.2962 19.2208H45.538L50.2691 5.97296V3.78481L45.006 18.3927H44.0008L40.0964 6.91995V14.4307C40.0964 15.4366 40.1558 16.1457 40.333 16.5601C40.4513 16.9744 40.7473 17.4476 41.2199 17.9208L42.5211 19.5763H35.0698L34.7737 19.222H41.8114L41.2793 18.3946H34.9515C36.1344 17.743 36.9619 17.0927 37.3168 16.5607C37.6128 15.9692 37.79 15.0228 37.79 13.7216V1.95218L35.8979 0.178379H43.2904L41.2205 2.01164L45.2419 13.8994L45.7739 12.7164L42.1074 2.12931L43.9995 0.768603L44.2956 1.00519L42.5211 2.24698L45.8922 12.1825L49.5587 2.01039L47.8438 0.177128L55.0585 0.177753ZM38.9134 3.54885V13.721C38.9134 15.2594 39.0906 16.3823 39.3866 16.9744C39.7415 17.5646 40.333 17.979 41.2793 18.2149L41.1016 18.0378C40.6284 17.6835 40.2147 17.2104 39.9781 16.6183C39.8598 16.264 39.8003 15.968 39.7415 15.7908V5.79646L38.9134 3.54885ZM55.8278 1.30125L54.2311 2.42474V16.7366L56.7153 19.575H49.145L48.9673 19.2208H55.8278L53.8756 16.9738V2.18815L55.5317 1.06465L55.8278 1.30125ZM57.9577 0.177753H64.3437C67.0652 0.177753 69.0161 0.532642 70.1396 1.30125C71.6186 2.24761 72.3277 3.54885 72.3277 5.20436C72.3277 6.44614 71.9146 7.5108 71.0859 8.39832C70.4957 8.93034 69.7265 9.34468 68.6618 9.58127C67.5972 9.81786 66.1776 9.93616 64.3444 9.93616H62.6294V16.8561L64.3444 18.3939H57.7211L59.7321 16.7378V11.0603H59.4361C58.7631 11.0552 58.097 11.1964 57.4839 11.474L57.3662 11.2374C57.7793 11.0008 58.0754 10.8825 58.3126 10.8237C58.4897 10.7642 58.9629 10.7054 59.7321 10.6459V9.995C59.555 9.93616 59.3779 9.93616 59.2589 9.93616C58.2531 9.93616 57.425 10.1727 56.8336 10.6459L56.7159 10.4682C57.2479 9.34468 58.2525 8.81204 59.7315 8.8715V1.89272L57.9577 0.177753ZM62.6282 1.65613V8.75258H63.3379V2.42474H64.9346C66.1182 2.42474 66.9456 2.54303 67.477 2.77962C67.9502 2.95738 68.4234 3.42993 68.7789 4.08086C68.4234 3.60768 67.9502 3.2528 67.4182 3.07567C66.8862 2.89792 66.1764 2.77962 65.23 2.77962H63.751V8.75258C65.5849 8.75258 67.0038 8.51662 67.8913 7.92514C68.7789 7.3925 69.192 6.5056 69.192 5.32265C69.192 3.31226 68.1874 2.06985 66.1764 1.71496C65.7032 1.59667 65.0529 1.53721 64.2254 1.53721C63.8117 1.53784 63.2797 1.59729 62.6282 1.65613ZM71.6186 1.71559C72.0317 1.89335 72.446 2.24823 72.7421 2.72079C73.2741 3.54885 73.5113 4.49521 73.5113 5.6187C73.5113 7.27483 73.0381 8.57545 71.9735 9.46298C71.2643 10.1139 70.4356 10.5276 69.4311 10.7642C68.3664 11.0008 66.8887 11.1191 64.8776 11.1191C64.4633 11.1191 64.1084 11.1191 63.7529 11.0596V16.9143L66.0011 19.5756H58.844L58.4897 19.2214H65.1731L63.3392 17.0921V10.7041C64.1666 10.7041 65.0541 10.7636 66.0005 10.7636C68.1887 10.7636 69.8442 10.4087 70.9689 9.7584C72.4466 8.8715 73.2159 7.51142 73.2159 5.55986C73.2159 4.79126 73.0976 4.14033 72.8616 3.60831C72.6832 3.01621 72.2101 2.42473 71.6186 1.71559ZM89.7747 0.177753C89.0054 1.06465 88.5329 1.71559 88.2368 2.2476C87.9408 2.77962 87.5865 3.54885 87.2323 4.55405C87.1722 4.37629 87.114 4.19916 86.995 4.0214C86.5219 2.89791 85.9304 2.18815 85.3389 1.83326C84.8069 1.47838 83.7422 1.30062 82.2645 1.30062C81.4953 1.30062 80.6084 1.36008 79.6032 1.41891V7.98398H80.4907V2.18815C81.1998 2.12931 81.9102 2.06985 82.6188 2.06985C83.7423 2.06985 84.6298 2.18815 85.2213 2.48357C85.7533 2.72016 86.2847 3.19334 86.699 3.96195C86.5807 3.84428 86.463 3.78481 86.463 3.72535C85.6938 3.1345 85.1023 2.77899 84.7481 2.6607C84.452 2.5424 83.7422 2.48294 82.7371 2.48294C82.441 2.48294 81.7907 2.48294 80.845 2.5424V7.98335H83.4462L85.2801 5.44032V11.591L83.4462 9.1663H79.6026V17.1503H80.4901V9.8767H83.5645L83.9788 10.2316H80.8443V17.1515C83.1514 17.1515 84.5703 16.9744 85.2795 16.6783C85.7526 16.3823 86.1069 16.2052 86.284 15.968C86.4624 15.732 86.9356 14.9634 87.8219 13.5432C88.0591 14.5484 88.3551 15.3765 88.7094 16.0268C89.0636 16.6783 89.714 17.3875 90.5433 18.2149H74.6342L76.7635 16.5594V10.2316C75.9942 10.2904 75.2256 10.5865 74.6342 10.9414L74.3982 10.6453C74.9302 10.2316 75.7577 9.99437 76.7635 9.8767V9.16693H76.408C75.9949 9.16693 75.5217 9.22576 75.0485 9.46235C74.5753 9.63948 74.161 9.8767 73.8067 10.2316C74.161 8.75258 75.1674 7.98398 76.7641 7.98398V1.89272L74.6348 0.177753H89.7747ZM90.425 1.18358C89.6558 2.24823 89.0643 3.01683 88.8283 3.49002C88.5323 3.9632 88.2951 4.49521 87.9996 5.20498L87.7637 4.90956C88.414 3.43056 89.2414 2.07048 90.2479 0.888151L90.425 1.18358ZM86.284 5.91413V12.1831L85.8709 12.006V5.737L86.284 5.91413ZM92.1399 18.275L91.4296 19.5756H75.8759L75.6988 19.2214H91.2524L91.7256 18.275C90.3061 17.0332 89.3603 15.6725 88.8283 14.253L89.3015 14.4301C89.5975 15.1994 89.9518 15.7908 90.3061 16.3222C90.6609 16.7954 91.3125 17.447 92.1399 18.275ZM92.4354 0.177753H99.1769L97.2248 2.12931V16.9143L99.0586 18.3933H92.4354L94.3863 16.7954V1.95218L92.4354 0.177753ZM99.8279 1.00582L98.3501 2.42536V16.9143L100.774 19.5756H93.3223L92.968 19.2214H99.8873L97.9364 17.0332V2.30644L99.5925 0.709767L99.8279 1.00582ZM101.307 0.177753H108.048L106.155 2.12931V16.9143L107.989 18.3933H101.307L103.317 16.7954V1.95218L101.307 0.177753ZM108.699 1.00582L107.28 2.42536V16.9143L109.645 19.5756H102.253L101.897 19.2214H108.816L106.865 17.0332V2.30644L108.462 0.709767L108.699 1.00582ZM0.472554 21.5867H2.60124C3.48814 21.5867 4.13907 21.705 4.49333 21.9409C4.96651 22.237 5.26257 22.7101 5.26257 23.2428C5.26257 23.6559 5.08543 24.0108 4.78938 24.3062C4.61163 24.4846 4.37504 24.6022 4.02015 24.7205C3.66527 24.7794 3.19209 24.8388 2.60061 24.8388H2.00914V27.1459L2.54178 27.6191H0.354259L1.00519 27.0858V25.1937H0.945734C0.70977 25.1937 0.47318 25.2526 0.295425 25.312L0.235964 25.2519C0.354259 25.1931 0.472554 25.1343 0.532014 25.1343C0.650309 25.0742 0.768605 25.0742 1.00519 25.0742V24.8382H0.8869C0.532015 24.8382 0.295425 24.897 0.0588345 25.0742L0 25.0153C0.23659 24.601 0.532641 24.4239 1.00519 24.4833V22.1168L0.472554 21.5867ZM2.00976 22.0598V24.4251H2.24698V22.2971H2.77899C3.0594 22.2939 3.33864 22.3336 3.60706 22.4147C3.78482 22.4748 3.90311 22.6519 4.02141 22.8879C3.90311 22.7108 3.78482 22.5919 3.60706 22.5336C3.35933 22.4513 3.09948 22.4113 2.83846 22.4153H2.36528V24.4264C3.01559 24.4264 3.42993 24.3675 3.72535 24.1904C4.02141 23.9532 4.19854 23.6571 4.19854 23.3029C4.19854 22.5925 3.84365 22.1794 3.19334 22.0611C3.01558 22.0611 2.83846 22.0023 2.5424 22.0023C2.42411 22.001 2.18752 22.0598 2.00976 22.0598ZM4.96714 22.0598C5.1449 22.1187 5.26319 22.237 5.38086 22.4141C5.55862 22.7101 5.61745 23.0056 5.61745 23.3605C5.61745 23.9519 5.43969 24.3663 5.08543 24.6623C4.90768 24.8983 4.61226 25.0166 4.25737 25.0754C3.90248 25.1937 3.4293 25.1937 2.71953 25.1937H2.36528V27.1459L3.13451 28.0322H0.768605L0.59085 27.9139H2.83846L2.24698 27.2047V25.0754H3.13388C3.84365 25.0754 4.4345 24.9578 4.79001 24.7794C5.26319 24.4846 5.49978 24.0101 5.49978 23.3598C5.49978 23.1239 5.49978 22.8867 5.44032 22.7095C5.32203 22.5324 5.20373 22.2964 4.96714 22.0598ZM26.3166 21.5867H28.5642L27.9132 22.237V27.1465L28.5047 27.6197H26.3166L26.9669 27.0864V22.1781L26.3166 21.5867ZM28.7413 21.8239L28.2681 22.2971V27.1465L29.0962 28.0328H26.6126L26.4943 27.9145H28.8008L28.1505 27.2054V22.2971L28.6831 21.7638L28.7413 21.8239ZM54.8219 21.5867L51.0371 27.2636H51.3325L55.0585 21.6449L55.118 21.7632L51.4515 27.2629H51.9246L52.3384 27.2041C52.8115 27.2041 53.2253 27.1453 53.4619 26.9669C53.7579 26.7898 53.935 26.4937 54.1716 26.0806C54.4082 26.7309 54.7043 27.3224 54.9997 27.6773L49.6182 27.6185L53.107 22.3546H52.4567C52.0429 22.3546 51.7469 22.3546 51.5698 22.4135C51.392 22.4736 51.2737 22.5318 51.1554 22.6507C50.9777 22.769 50.86 23.0049 50.7411 23.301L50.6822 23.1827C50.7411 22.8867 50.86 22.6507 51.0966 22.4736C51.2737 22.3553 51.392 22.2964 51.5698 22.2964C51.7469 22.2363 52.0429 22.2363 52.3972 22.2363H53.2253L53.4024 22.0004C53.1658 22.0004 52.9292 21.9403 52.6926 21.9403C52.1011 21.9403 51.6874 22.0004 51.4508 22.0586C51.2142 22.1168 50.9777 22.1769 50.8005 22.3546C50.6228 22.5318 50.5045 22.7089 50.3862 23.0049C50.1739 22.52 49.937 22.0462 49.6764 21.5854H54.8219V21.5867ZM55.5323 27.6191L55.2964 28.0322H49.8554L49.7371 27.9139H55.1781L55.3552 27.6191C55.0003 27.1459 54.7049 26.6715 54.5271 26.0812L54.6454 26.1401C54.7637 26.4361 54.882 26.6721 55.0003 26.9093C55.118 27.0864 55.2957 27.3237 55.5323 27.6191ZM81.4358 21.5867L77.5909 27.2636H77.887L81.6129 21.6449L81.7306 21.7632L78.0647 27.2629H78.5379L78.9522 27.2041C79.4254 27.2041 79.8385 27.1453 80.0757 26.9669C80.3117 26.7898 80.5489 26.4937 80.7849 26.0806C81.0221 26.7309 81.3181 27.3224 81.6136 27.6773L76.2308 27.6185L79.7208 22.3546H79.0105C78.6562 22.3546 78.3601 22.3546 78.183 22.4135C78.0059 22.4736 77.8288 22.5318 77.7098 22.6507C77.5909 22.7696 77.4138 23.0049 77.3543 23.301L77.2367 23.1827C77.3543 22.8867 77.4726 22.6507 77.7098 22.4736C77.8281 22.3553 78.0059 22.2964 78.183 22.2964C78.3601 22.2363 78.5961 22.2363 78.9522 22.2363H79.7797L80.0156 22.0004C79.7797 22.0004 79.5425 21.9403 79.3065 21.9403C78.715 21.9403 78.3007 22.0004 78.0059 22.0586C77.7687 22.1174 77.5915 22.1769 77.4144 22.3546C77.2373 22.5324 77.1184 22.7089 77.0001 23.0049C76.788 22.52 76.5513 22.0462 76.2909 21.5854H81.4358V21.5867ZM82.0861 27.6191L81.8489 28.0322H76.4674L76.3491 27.9139H81.7901L81.9672 27.6191C81.6129 27.1459 81.3169 26.6715 81.0797 26.0812L81.2568 26.1401C81.3751 26.4361 81.494 26.6721 81.5529 26.9093C81.6718 27.0864 81.8489 27.3237 82.0861 27.6191ZM107.22 21.5867L106.747 22.1187L107.516 24.1898L107.694 24.0715L106.984 22.2376L107.516 21.6461L107.635 21.7062L107.162 22.2382L107.812 24.012C107.871 24.012 107.93 23.9532 108.049 23.8349L108.226 23.6578C108.226 23.8349 108.285 24.012 108.403 24.191C108.462 24.3682 108.522 24.5453 108.58 24.6642C108.522 24.6041 108.462 24.6041 108.403 24.6041C108.107 24.6041 107.87 24.6642 107.753 24.7813L108.58 27.0883L109.291 27.6216H106.924L107.576 27.0883L107.043 25.7276L106.569 26.202C106.451 26.438 106.333 26.6151 106.215 26.7341L106.155 26.674C106.333 26.3197 106.63 25.9648 106.984 25.6106L106.924 25.3734C106.747 25.5505 106.569 25.6694 106.392 25.9066C106.215 26.1426 106.096 26.3197 105.977 26.4968C105.727 26.1179 105.471 25.7434 105.208 25.3734C104.972 25.9066 104.854 26.3792 104.854 26.7341C104.854 26.97 104.972 27.2661 105.15 27.5033C105.209 27.5621 105.327 27.7393 105.564 28.0353H102.962L102.903 27.917H105.327C105.031 27.6222 104.914 27.385 104.795 27.2667C104.735 27.0896 104.735 26.9124 104.735 26.7347C104.735 26.3804 104.853 25.9072 105.09 25.3151L104.913 25.0779C104.795 25.374 104.676 25.6694 104.617 25.9655C104.499 26.3197 104.44 26.4975 104.44 26.6746C104.44 26.9118 104.558 27.0889 104.676 27.2661C104.735 27.3262 104.853 27.4432 105.03 27.6804L102.665 27.6216C102.931 27.5135 103.173 27.3525 103.375 27.1484C103.553 26.97 103.672 26.7341 103.849 26.438C104.026 26.142 104.145 25.9648 104.203 25.7276C104.262 25.5505 104.38 25.2544 104.499 24.7813C104.44 24.7224 104.322 24.7224 104.203 24.6636C104.085 24.6035 103.907 24.5453 103.789 24.5453C103.849 24.427 103.967 24.3081 104.026 24.1309C104.085 24.0126 104.144 23.8349 104.203 23.7178C104.262 23.7767 104.321 23.895 104.499 24.0126C104.558 24.0727 104.676 24.1309 104.735 24.2499L104.853 24.0126C104.676 23.8355 104.499 23.7178 104.321 23.5996L104.439 23.4813C104.557 23.5996 104.734 23.7185 104.913 23.8956L105.563 22.1205L105.03 21.5885H107.22V21.5867ZM106.038 23.0644L105.565 24.4852C105.565 24.4852 105.624 24.6029 105.801 24.7212C105.919 24.8395 106.038 25.0754 106.215 25.3126L106.688 24.8395L106.038 23.0644ZM105.861 22.5324L105.092 24.5434C105.328 24.8395 105.624 25.1937 105.978 25.6081C106.038 25.6081 106.096 25.4898 106.155 25.4309C105.933 25.0896 105.675 24.7724 105.387 24.4846L105.977 22.8867L105.861 22.5324ZM108.639 23.8931C108.699 24.1891 108.877 24.5434 109.173 25.0754C108.758 25.0166 108.462 25.0166 108.285 25.0166H108.167L108.995 27.0864L110 28.0328H107.28L107.22 27.9145H109.704L108.877 27.1465L107.989 24.8983H108.935C108.699 24.4852 108.581 24.1291 108.462 23.8336L108.639 23.8931Z" fill="#A0632E"/>
</svg>
