<svg width="15" height="11" viewBox="0 0 15 11" fill="none" xmlns="http://www.w3.org/2000/svg">
<g clip-path="url(#clip0_598_4014)">
<path d="M14.9996 0.890292C14.9192 1.11773 14.7563 1.28443 14.5867 1.45083C11.5452 4.4306 8.50521 7.4121 5.46665 10.395C5.29705 10.5614 5.12715 10.7212 4.89533 10.8001H4.57313C4.33251 10.7157 4.15939 10.5447 3.98391 10.3723C2.75352 9.16253 1.52078 7.95536 0.289222 6.74676C-0.0130198 6.45022 -0.0787501 6.13123 0.0937919 5.81281C0.31123 5.41205 0.843528 5.29862 1.20974 5.57673C1.26725 5.62049 1.31949 5.67145 1.37142 5.72212C2.45187 6.78102 3.53201 7.83991 4.61187 8.89968C4.64972 8.93681 4.68171 8.97971 4.75301 9.06205C4.80055 8.99209 4.82784 8.93365 4.87127 8.89104C7.79245 6.02326 10.716 3.15779 13.6377 0.290308C13.8587 0.0735195 14.104 -0.0537324 14.4236 0.0219854C14.6915 0.0853234 14.8649 0.253169 14.9629 0.501915C14.9729 0.526962 14.9873 0.55057 14.9999 0.574754V0.89058L14.9996 0.890292Z" fill="#858585"/>
</g>
<defs>
<clipPath id="clip0_598_4014">
<rect width="15" height="10.8" fill="white"/>
</clipPath>
</defs>
</svg>
