<svg width="109" height="64" viewBox="0 0 109 64" fill="none" xmlns="http://www.w3.org/2000/svg">
<g clip-path="url(#clip0_1_182)">
<path d="M10.7864 47.7926C10.7864 46.7874 10.7477 46.6714 10.2065 46.6714H9.97455C9.93589 46.6714 9.81991 46.6714 9.81991 46.5555C9.81991 46.4008 9.97455 46.3235 10.2065 46.3235C10.9024 46.2462 12.5647 46.2075 12.5647 46.2075C13.106 46.2075 15.4255 46.2075 15.4255 48.0245C15.4255 49.3003 14.3431 49.5322 13.9178 49.6096V49.6482C14.3817 49.6869 15.0389 49.7255 15.4642 50.3441C15.7348 50.7307 15.8508 51.1559 15.8508 51.5425C15.8508 51.9678 15.6575 53.7848 13.4539 53.7848C13.3379 53.7848 11.7529 53.7461 11.4049 53.7461C11.4049 53.7461 10.2452 53.7848 10.0132 53.7848C9.93589 53.7848 9.78125 53.7848 9.78125 53.5915C9.78125 53.4368 9.93589 53.3982 10.1678 53.3982C10.7091 53.3595 10.7091 53.0502 10.7091 52.509V47.7926H10.7864ZM12.758 49.4549C14.0338 49.4549 14.1884 48.4498 14.1884 47.9859C14.1884 47.0194 13.6472 46.4781 12.6807 46.4781C11.9848 46.4781 11.9848 46.7488 11.9848 47.058V49.0297C11.9848 49.223 11.9848 49.4163 12.3328 49.4163H12.758V49.4549ZM11.9848 51.9678C11.9848 52.9729 12.1008 53.4755 12.9513 53.4755C13.0286 53.4755 13.4539 53.4755 13.7632 53.3209C14.3817 52.9729 14.575 52.2384 14.575 51.6972C14.575 49.8028 13.106 49.8028 12.758 49.8028C12.0235 49.8028 11.9848 49.8802 11.9848 50.3054V51.9678Z" fill="#006D56"/>
<path d="M18.1313 50.1507C17.938 50.1507 17.8221 50.1507 17.8221 50.8079C17.8221 52.161 18.6339 53.2048 19.7937 53.2048C20.2963 53.2048 20.7602 53.0115 21.0308 52.7022C21.1854 52.5089 21.2241 52.5089 21.2628 52.5089C21.3401 52.5089 21.3787 52.5862 21.3787 52.6249C21.3787 52.8182 20.6055 53.862 19.1751 53.862C17.7061 53.862 16.585 52.8182 16.585 51.1172C16.585 49.3388 17.8221 48.1404 19.3684 48.1404C21.0695 48.1404 21.4174 49.4935 21.4174 49.9187C21.4174 50.1507 21.3014 50.1507 21.1081 50.1507H18.1313ZM19.4844 49.7641C19.9483 49.7641 20.2576 49.4935 20.2576 49.1842C20.2576 48.4497 19.4844 48.4497 19.3298 48.4497C18.3246 48.4497 17.9767 49.4548 17.9767 49.6481C17.9767 49.7641 18.0154 49.7641 18.286 49.7641H19.4844Z" fill="#006D56"/>
<path d="M23.7756 52.0834C23.7756 52.6246 23.8529 53.2045 24.4328 53.2045C24.5874 53.2045 24.7421 53.1659 25.1287 52.8953C25.1673 52.8566 25.206 52.8566 25.2446 52.8566C25.2833 52.8566 25.322 52.9339 25.322 52.9726C25.322 53.1659 24.6261 53.9004 23.7756 53.9004C23.1957 53.9004 22.6545 53.4752 22.6545 52.586V49.1066C22.6545 48.952 22.5771 48.8747 22.3838 48.8747H22.1132C22.0746 48.8747 21.9199 48.8747 21.9199 48.7587C21.9199 48.6427 22.0359 48.5654 22.0746 48.5267L22.3838 48.3721C22.6545 48.2175 23.0024 47.9082 23.3503 47.2896C23.389 47.2123 23.4663 47.135 23.5436 47.135C23.5823 47.135 23.6983 47.135 23.6983 47.3283V48.1402C23.6983 48.3721 23.7369 48.4108 23.9689 48.4108H24.5874C24.7421 48.4108 24.8194 48.3721 24.9354 48.3721C25.0127 48.3721 25.09 48.4108 25.09 48.6041C25.0513 48.836 25.0513 48.8747 24.8967 48.8747C24.7034 48.8747 24.4328 48.836 23.9302 48.836C23.7369 48.836 23.7369 48.8747 23.7369 49.1066V52.0834H23.7756Z" fill="#006D56"/>
<path d="M27.4865 52.0834C27.4865 52.6246 27.5638 53.2045 28.1437 53.2045C28.2984 53.2045 28.453 53.1659 28.8396 52.8953C28.8783 52.8566 28.9169 52.8566 28.9556 52.8566C28.9942 52.8566 29.0329 52.9339 29.0329 52.9726C29.0329 53.1659 28.337 53.9004 27.4865 53.9004C26.9066 53.9004 26.3654 53.4752 26.3654 52.586V49.1066C26.3654 48.952 26.2881 48.8747 26.0948 48.8747H25.8242C25.7855 48.8747 25.6309 48.8747 25.6309 48.7587C25.6309 48.6427 25.7468 48.5654 25.7855 48.5267L26.0948 48.3721C26.3654 48.2175 26.7133 47.9082 27.0613 47.2896C27.0999 47.2123 27.1772 47.135 27.2546 47.135C27.2932 47.135 27.4092 47.135 27.4092 47.3283V48.1402C27.4092 48.3721 27.4479 48.4108 27.6798 48.4108H28.2984C28.453 48.4108 28.5303 48.3721 28.6463 48.3721C28.7236 48.3721 28.8009 48.4108 28.8009 48.6041C28.7623 48.836 28.7623 48.8747 28.6076 48.8747C28.4143 48.8747 28.1437 48.836 27.6411 48.836C27.4479 48.836 27.4479 48.8747 27.4479 49.1066V52.0834H27.4865Z" fill="#006D56"/>
<path d="M31.1206 50.1507C30.9273 50.1507 30.8113 50.1507 30.8113 50.8079C30.8113 52.161 31.6232 53.2048 32.783 53.2048C33.2855 53.2048 33.7494 53.0115 34.0201 52.7022C34.1747 52.5089 34.2134 52.5089 34.252 52.5089C34.3293 52.5089 34.368 52.5862 34.368 52.6249C34.368 52.8182 33.5948 53.862 32.1644 53.862C30.6953 53.862 29.5742 52.8182 29.5742 51.1172C29.5742 49.3388 30.8113 48.1404 32.3577 48.1404C34.0587 48.1404 34.4066 49.4935 34.4066 49.9187C34.4066 50.1507 34.2907 50.1507 34.0974 50.1507H31.1206ZM32.4737 49.7641C32.9376 49.7641 33.2469 49.4935 33.2469 49.1842C33.2469 48.4497 32.4737 48.4497 32.319 48.4497C31.3139 48.4497 30.966 49.4548 30.966 49.6481C30.966 49.7641 31.0046 49.7641 31.2752 49.7641H32.4737Z" fill="#006D56"/>
<path d="M36.881 48.8749C36.881 48.9522 36.881 49.0296 36.9584 49.0296C36.997 49.0296 37.0357 48.9522 37.0743 48.9136C37.113 48.8749 37.6542 48.1791 38.2728 48.1791C38.6594 48.1791 39.0846 48.411 39.0846 48.9136C39.0846 49.4162 38.698 49.6095 38.3888 49.6095C38.1568 49.6095 38.0022 49.4935 37.8089 49.3002C37.6156 49.0682 37.5383 49.0296 37.4609 49.0296C37.229 49.0296 36.9197 49.2229 36.9197 50.228V52.5476C36.9197 53.0501 36.9197 53.3594 37.4996 53.3981C37.7316 53.3981 37.8862 53.4367 37.8862 53.5914C37.8862 53.746 37.7316 53.746 37.6542 53.746C37.4609 53.746 36.5718 53.7074 36.3785 53.7074C36.2238 53.7074 35.412 53.746 35.2187 53.746C35.1414 53.746 35.0254 53.746 35.0254 53.5914C35.0254 53.4754 35.1027 53.4367 35.3733 53.3981C35.8759 53.3208 35.8759 53.2048 35.8759 52.5089V50.1507C35.8759 49.3775 35.7213 49.3775 35.296 49.3388C35.2573 49.3388 35.1414 49.3388 35.1414 49.2229C35.1414 49.1455 35.18 49.1069 35.3347 49.0682C35.6053 48.9522 36.2238 48.6043 36.4558 48.3337C36.4945 48.295 36.7264 48.0244 36.8037 48.0244C36.9197 48.0244 36.9197 48.1404 36.9197 48.2177V48.8749H36.881Z" fill="#006D56"/>
<path d="M44.4585 52.5477C44.4585 53.0502 44.4585 53.3982 44.9997 53.4368C45.2317 53.4368 45.3863 53.4755 45.3863 53.6301C45.3863 53.7848 45.2317 53.7848 45.1543 53.7848C44.9224 53.7848 44.5358 53.7461 43.8013 53.7461C43.1827 53.7461 42.6028 53.7848 42.4868 53.7848C42.4095 53.7848 42.2549 53.7848 42.2549 53.5915C42.2549 53.4368 42.4095 53.3982 42.6415 53.3982C43.1827 53.3595 43.1827 53.0502 43.1827 52.5477V47.4446C43.1827 46.942 43.1827 46.6328 42.6415 46.5555C42.4095 46.5555 42.2549 46.5168 42.2549 46.3622C42.2549 46.2075 42.4095 46.2075 42.4868 46.2075C42.7188 46.2075 43.1054 46.2462 43.8013 46.2462C44.6131 46.2462 44.961 46.2075 45.1157 46.2075C45.193 46.2075 45.3476 46.2075 45.3476 46.4008C45.3476 46.5555 45.193 46.5941 44.961 46.5941C44.4198 46.6328 44.4198 46.942 44.4198 47.4446V52.5477H44.4585Z" fill="#006D56"/>
<path d="M50.0256 50.3826C50.0256 49.8027 50.0256 48.9136 48.9432 48.9136C48.5952 48.9136 48.2473 49.0295 48.0153 49.3388C47.8607 49.5321 47.822 49.7254 47.822 50.0347V52.6249C47.822 53.3207 47.822 53.4367 48.286 53.514C48.5566 53.5527 48.6339 53.63 48.6339 53.7073C48.6339 53.862 48.5179 53.862 48.4406 53.862C48.286 53.862 47.4741 53.8233 47.2808 53.8233C47.1262 53.8233 46.3143 53.862 46.121 53.862C46.0437 53.862 45.9277 53.862 45.9277 53.7073C45.9277 53.5914 46.0051 53.5527 46.2757 53.514C46.7396 53.4367 46.7396 53.3207 46.7396 52.6249V50.3053C46.7396 49.7254 46.7396 49.4548 46.3916 49.4548C46.1983 49.4548 46.0824 49.4548 46.0824 49.3002C46.0824 49.2228 46.121 49.1842 46.237 49.1455C46.3143 49.1069 47.0489 48.7976 47.3581 48.3723C47.4355 48.2564 47.5128 48.1404 47.5901 48.1404C47.7061 48.1404 47.7061 48.2564 47.7061 48.3723V48.9522C47.7061 49.1455 47.7061 49.1842 47.7447 49.1842C47.822 49.1842 47.8607 49.1455 47.8994 49.1069C48.5952 48.411 48.9045 48.2564 49.5231 48.2564C50.2576 48.2564 51.0694 48.6816 51.0694 49.8027V52.6249C51.0694 53.3207 51.0694 53.4367 51.5334 53.514C51.804 53.5527 51.8813 53.63 51.8813 53.7073C51.8813 53.862 51.7653 53.862 51.688 53.862C51.5334 53.862 50.7215 53.8233 50.5282 53.8233C50.3736 53.8233 49.5617 53.862 49.3684 53.862C49.2911 53.862 49.1751 53.862 49.1751 53.7073C49.1751 53.5914 49.2524 53.5527 49.5231 53.514C49.987 53.4367 49.987 53.3207 49.987 52.6249V50.3826H50.0256Z" fill="#006D56"/>
<path d="M57.3318 48.6044C57.5251 48.6044 57.5251 48.9137 57.5251 48.9137C57.5251 49.0683 57.4864 49.0683 57.3318 49.0683H56.9452C56.8292 49.0683 56.7519 49.0683 56.7519 49.1456C56.7519 49.1843 56.7906 49.2616 56.7906 49.2616C56.8679 49.4549 56.9839 49.7642 56.9839 50.0348C56.9839 50.692 56.404 51.7745 54.8576 51.8131C54.5483 51.8131 53.8138 51.8518 53.8138 52.277C53.8138 52.625 54.2777 52.6636 54.355 52.6636H55.7468C57.1772 52.6636 57.6411 53.3595 57.6411 53.9394C57.6411 55.0992 56.2493 56.143 54.4323 56.143C53.6592 56.143 52.3447 55.911 52.3447 54.9059C52.3447 54.2873 52.8086 54.0167 53.2339 53.7847C53.3112 53.7461 53.5432 53.6301 53.5432 53.5528C53.5432 53.5141 53.5432 53.4755 53.2726 53.2822C53.1566 53.2049 52.654 52.7409 52.654 52.4703C52.654 52.277 52.77 52.161 52.886 52.1224L53.6592 51.8131C53.7751 51.7745 53.8138 51.7358 53.8138 51.6971C53.8138 51.6585 53.7751 51.6198 53.7365 51.6198C53.2726 51.3879 52.5767 51.0013 52.5767 50.0348C52.5767 49.0683 53.4272 48.1018 54.7803 48.1018C55.2055 48.1018 55.5535 48.1791 55.9787 48.4111C56.288 48.5271 56.288 48.5271 56.4426 48.5271H57.3318V48.6044ZM54.7803 48.4497C54.239 48.4497 53.7365 48.991 53.7365 50.0348C53.7365 51.1172 54.2777 51.5812 54.7803 51.5812C54.8963 51.5812 55.7468 51.5812 55.7468 49.9575C55.7854 49.5322 55.5921 48.4497 54.7803 48.4497ZM54.587 53.7461C54.471 53.7461 54.0457 53.6688 53.9684 53.6688C53.8138 53.6688 53.3499 54.0167 53.3499 54.5966C53.3499 55.2538 53.9684 55.795 54.8963 55.795C55.4761 55.795 56.6746 55.5244 56.6746 54.5579C56.6746 53.7461 55.4761 53.7461 55.2055 53.7461H54.587Z" fill="#006D56"/>
<path d="M59.883 48.8749C59.883 48.9522 59.883 49.0296 59.9603 49.0296C59.999 49.0296 60.0376 48.9522 60.0763 48.9136C60.1149 48.8749 60.6562 48.1791 61.2747 48.1791C61.6613 48.1791 62.0866 48.411 62.0866 48.9136C62.0866 49.4162 61.7 49.6095 61.3907 49.6095C61.1588 49.6095 61.0041 49.4935 60.8108 49.3002C60.6175 49.0682 60.5402 49.0296 60.4629 49.0296C60.2309 49.0296 59.9217 49.2229 59.9217 50.228V52.5476C59.9217 53.0501 59.9217 53.3594 60.5015 53.3981C60.7335 53.3981 60.8881 53.4367 60.8881 53.5914C60.8881 53.746 60.7335 53.746 60.6562 53.746C60.4629 53.746 59.5737 53.7074 59.3804 53.7074C59.2258 53.7074 58.4139 53.746 58.2206 53.746C58.1433 53.746 58.0273 53.746 58.0273 53.5914C58.0273 53.4754 58.1047 53.4367 58.3753 53.3981C58.8778 53.3208 58.8779 53.2048 58.8779 52.5089V50.1507C58.8779 49.3775 58.7232 49.3775 58.298 49.3388C58.2593 49.3388 58.1433 49.3388 58.1433 49.2229C58.1433 49.1455 58.182 49.1069 58.3366 49.0682C58.6072 48.9522 59.2258 48.6043 59.4577 48.3337C59.4964 48.295 59.7284 48.0244 59.8057 48.0244C59.9217 48.0244 59.9217 48.1404 59.9217 48.2177V48.8749H59.883Z" fill="#006D56"/>
<path d="M63.9429 50.1507C63.7496 50.1507 63.6336 50.1507 63.6336 50.8079C63.6336 52.161 64.4454 53.2048 65.6052 53.2048C66.1078 53.2048 66.5717 53.0115 66.8423 52.7022C66.997 52.5089 67.0356 52.5089 67.0743 52.5089C67.1516 52.5089 67.1903 52.5862 67.1903 52.6249C67.1903 52.8182 66.4171 53.862 64.9867 53.862C63.5176 53.862 62.3965 52.8182 62.3965 51.1172C62.3965 49.3388 63.6336 48.1404 65.18 48.1404C66.881 48.1404 67.2289 49.4935 67.2289 49.9187C67.2289 50.1507 67.1129 50.1507 66.9196 50.1507H63.9429ZM65.2959 49.7641C65.7599 49.7641 66.0691 49.4935 66.0691 49.1842C66.0691 48.4497 65.2959 48.4497 65.1413 48.4497C64.1362 48.4497 63.7882 49.4548 63.7882 49.6481C63.7882 49.7641 63.8269 49.7641 64.0975 49.7641H65.2959Z" fill="#006D56"/>
<path d="M72.95 52.7406C72.95 53.0885 73.0273 53.1659 73.1046 53.1659C73.1819 53.1659 73.4912 52.8566 73.5685 52.8566C73.6458 52.8566 73.6458 52.9726 73.6458 53.0112C73.6458 53.3205 73.6072 53.3205 72.8726 53.5911C72.7567 53.6298 72.1768 53.9004 72.0995 53.9004C72.0221 53.9004 71.9448 53.8617 71.9062 53.4365C71.9062 53.3592 71.8675 53.2432 71.7902 53.2432C71.7515 53.2432 71.6742 53.2818 71.6355 53.3205C71.3263 53.5911 70.9397 53.9004 70.3211 53.9004C69.0454 53.9004 67.9629 52.8179 67.9629 51.1942C67.9629 49.2999 69.3933 48.2175 70.6691 48.2175C71.017 48.2175 71.4422 48.3334 71.6355 48.4108C71.6742 48.4494 71.7515 48.4494 71.7515 48.4494C71.7902 48.4494 71.8288 48.4108 71.8288 48.3334V47.0577C71.8288 46.7097 71.7902 46.5938 71.4036 46.5551C71.3649 46.5551 71.2103 46.5164 71.2103 46.4005C71.2103 46.2845 71.3649 46.2072 71.4036 46.2072C71.6355 46.1685 72.0608 46.0525 72.6793 45.7433C72.6793 45.7433 72.7567 45.7046 72.7953 45.7046C72.9113 45.7046 72.9113 45.8979 72.9113 45.9365C72.9113 46.0912 72.8726 46.903 72.8726 47.0963V52.7406H72.95ZM71.9062 50.0731C71.9062 49.5319 71.9062 48.4494 70.785 48.4494C70.0118 48.4494 69.2 49.2226 69.2 50.8076C69.2 52.1607 69.8959 53.2045 70.9783 53.2045C71.9062 53.2045 71.9062 52.7406 71.9062 52.5087V50.0731Z" fill="#006D56"/>
<path d="M74.8446 50.2664C74.8446 49.6478 74.7286 49.4932 74.342 49.4545C74.3033 49.4545 74.1487 49.4545 74.1487 49.2999C74.1487 49.2226 74.1874 49.1452 74.342 49.1066C74.8832 48.9133 75.1538 48.7586 75.3085 48.604C75.3858 48.5267 75.7337 48.2174 75.8111 48.2174C75.927 48.2174 75.927 48.372 75.927 48.6427V52.5473C75.927 53.2045 75.927 53.3591 76.3909 53.4364C76.6616 53.4751 76.7389 53.5524 76.7389 53.6297C76.7389 53.7844 76.6229 53.7844 76.5456 53.7844C76.3909 53.7844 75.8884 53.7457 75.3858 53.7457C74.9219 53.7457 74.4193 53.7844 74.226 53.7844C74.1487 53.7844 74.0327 53.7844 74.0327 53.6297C74.0327 53.5138 74.11 53.4751 74.3806 53.4364C74.8446 53.3591 74.8446 53.2431 74.8446 52.5473V50.2664ZM75.3858 47.4829C75.0379 47.4829 74.7672 47.1736 74.7672 46.8257C74.7672 46.4777 75.0379 46.1685 75.3858 46.1685C75.7337 46.1685 76.0043 46.4777 76.0043 46.8643C76.0043 47.1736 75.7337 47.4829 75.3858 47.4829Z" fill="#006D56"/>
<path d="M78.7876 50.1507C78.5943 50.1507 78.4783 50.1507 78.4783 50.8079C78.4783 52.161 79.2902 53.2048 80.4499 53.2048C80.9525 53.2048 81.4164 53.0115 81.687 52.7022C81.8417 52.5089 81.8803 52.5089 81.919 52.5089C81.9963 52.5089 82.035 52.5862 82.035 52.6249C82.035 52.8182 81.2618 53.862 79.8314 53.862C78.3623 53.862 77.2412 52.8182 77.2412 51.1172C77.2412 49.3388 78.4783 48.1404 80.0247 48.1404C81.7257 48.1404 82.0736 49.4935 82.0736 49.9187C82.0736 50.1507 81.9577 50.1507 81.7644 50.1507H78.7876ZM80.1793 49.7641C80.6432 49.7641 80.9525 49.4935 80.9525 49.1842C80.9525 48.4497 80.1793 48.4497 80.0247 48.4497C79.0195 48.4497 78.6716 49.4548 78.6716 49.6481C78.6716 49.7641 78.7103 49.7641 78.9809 49.7641H80.1793Z" fill="#006D56"/>
<path d="M86.7903 50.3826C86.7903 49.8027 86.7903 48.9136 85.7078 48.9136C85.3599 48.9136 85.012 49.0295 84.78 49.3388C84.6254 49.5321 84.5867 49.7254 84.5867 50.0347V52.6249C84.5867 53.3207 84.5867 53.4367 85.0506 53.514C85.3212 53.5527 85.3985 53.63 85.3985 53.7073C85.3985 53.862 85.2826 53.862 85.2052 53.862C85.0506 53.862 84.2388 53.8233 84.0455 53.8233C83.8908 53.8233 83.079 53.862 82.8857 53.862C82.8084 53.862 82.6924 53.862 82.6924 53.7073C82.6924 53.5914 82.7697 53.5527 83.0403 53.514C83.5042 53.4367 83.5042 53.3207 83.5042 52.6249V50.3053C83.5042 49.7254 83.5042 49.4548 83.1563 49.4548C82.963 49.4548 82.847 49.4548 82.847 49.3002C82.847 49.2228 82.8857 49.1842 83.0017 49.1455C83.079 49.1069 83.8135 48.7976 84.1228 48.3723C84.2001 48.2564 84.2774 48.1404 84.3547 48.1404C84.4707 48.1404 84.4707 48.2564 84.4707 48.3723V48.9522C84.4707 49.1455 84.4707 49.1842 84.5094 49.1842C84.5867 49.1842 84.6254 49.1455 84.664 49.1069C85.3599 48.411 85.6692 48.2564 86.2877 48.2564C87.0222 48.2564 87.8341 48.6816 87.8341 49.8027V52.6249C87.8341 53.3207 87.8341 53.4367 88.298 53.514C88.5686 53.5527 88.6459 53.63 88.6459 53.7073C88.6459 53.862 88.53 53.862 88.4526 53.862C88.298 53.862 87.4862 53.8233 87.2929 53.8233C87.1382 53.8233 86.3264 53.862 86.1331 53.862C86.0558 53.862 85.9398 53.862 85.9398 53.7073C85.9398 53.5914 86.0171 53.5527 86.2877 53.514C86.7516 53.4367 86.7516 53.3207 86.7516 52.6249V50.3826H86.7903Z" fill="#006D56"/>
<path d="M90.8107 52.0834C90.8107 52.6246 90.8881 53.2045 91.4679 53.2045C91.6226 53.2045 91.7772 53.1659 92.1638 52.8953C92.2025 52.8566 92.2411 52.8566 92.2798 52.8566C92.3184 52.8566 92.3571 52.9339 92.3571 52.9726C92.3571 53.1659 91.6612 53.9004 90.8107 53.9004C90.2308 53.9004 89.6896 53.4752 89.6896 52.586V49.1066C89.6896 48.952 89.6123 48.8747 89.419 48.8747H89.1484C89.1097 48.8747 88.9551 48.8747 88.9551 48.7587C88.9551 48.6427 89.0711 48.5654 89.1097 48.5267L89.419 48.3721C89.6896 48.2175 90.0375 47.9082 90.3855 47.2896C90.4241 47.2123 90.5015 47.135 90.5788 47.135C90.6174 47.135 90.7334 47.135 90.7334 47.3283V48.1402C90.7334 48.3721 90.7721 48.4108 91.004 48.4108H91.6226C91.7772 48.4108 91.8545 48.3721 91.9705 48.3721C92.0478 48.3721 92.1252 48.4108 92.1252 48.6041C92.0865 48.836 92.0865 48.8747 91.9319 48.8747C91.7386 48.8747 91.4679 48.836 90.9654 48.836C90.7721 48.836 90.7721 48.8747 90.7721 49.1066V52.0834H90.8107Z" fill="#006D56"/>
<path d="M93.0146 52.161C93.0146 52.1223 93.0146 51.929 93.1693 51.929C93.2853 51.929 93.3626 52.045 93.4012 52.2769C93.4399 52.5089 93.7878 53.5527 94.677 53.5527C95.1796 53.5527 95.7595 53.2048 95.7595 52.5476C95.7595 51.8903 95.2569 51.6197 94.4837 51.3105C93.8265 51.0398 93.0146 50.6919 93.0146 49.8027C93.0146 49.1069 93.5172 48.1404 94.9863 48.1404C95.1409 48.1404 95.9914 48.2564 96.0687 48.2564C96.3394 48.295 96.3394 48.411 96.3394 48.6043L96.3007 49.3388C96.3007 49.3775 96.262 49.5321 96.1847 49.5321C96.1074 49.5321 96.0687 49.4935 95.9914 49.2615C95.9141 49.0295 95.6048 48.3723 94.8703 48.3723C94.4064 48.3723 93.9811 48.6816 93.9811 49.1069C93.9811 49.6094 94.2131 49.6868 95.3729 50.228C95.7595 50.4213 96.6873 50.8079 96.6873 51.8517C96.6873 52.7795 95.9914 53.8233 94.5224 53.8233C93.8652 53.8233 93.1693 53.514 93.1306 53.4754C93.0146 53.3981 93.0146 53.3207 93.0146 53.0115V52.161Z" fill="#006D56"/>
<path d="M98.5428 53.8619C98.1948 53.8619 97.9629 53.5526 97.9629 53.2433C97.9629 52.934 98.1948 52.6248 98.5428 52.6248C98.8907 52.6248 99.1227 52.934 99.1227 53.2433C99.1227 53.5912 98.8907 53.8619 98.5428 53.8619Z" fill="#006D56"/>
<path d="M26.0178 57.8826C26.0178 56.8775 25.9792 56.7615 25.438 56.7615H25.206C25.1673 56.7615 25.0514 56.7615 25.0514 56.6455C25.0514 56.4909 25.206 56.4136 25.438 56.4136C26.1338 56.3363 27.7962 56.2976 27.7962 56.2976C28.3374 56.2976 30.657 56.2976 30.657 58.1146C30.657 59.3904 29.5745 59.6223 29.1493 59.6996V59.7383C29.6132 59.777 30.2704 59.8156 30.6956 60.4342C30.9663 60.8208 31.0822 61.246 31.0822 61.6326C31.0822 62.0579 30.8889 63.8749 28.6853 63.8749C28.5694 63.8749 26.9843 63.8362 26.6364 63.8362C26.6364 63.8362 25.4766 63.8749 25.2447 63.8749C25.1673 63.8749 25.0127 63.8749 25.0127 63.6816C25.0127 63.5269 25.1673 63.4883 25.3993 63.4883C25.9405 63.4496 25.9405 63.1403 25.9405 62.5991V57.8826H26.0178ZM27.9895 59.5837C29.2652 59.5837 29.4199 58.5785 29.4199 58.1146C29.4199 57.1481 28.8786 56.6069 27.9122 56.6069C27.2163 56.6069 27.2163 56.8775 27.2163 57.1868V59.1584C27.2163 59.3517 27.2163 59.545 27.5642 59.545H27.9895V59.5837ZM27.2163 62.0965C27.2163 63.1017 27.3323 63.6042 28.1828 63.6042C28.2601 63.6042 28.6853 63.6042 28.9946 63.4496C29.6132 63.1017 29.8065 62.3671 29.8065 61.8259C29.8065 59.9316 28.3374 59.9316 27.9895 59.9316C27.2549 59.9316 27.2163 60.0089 27.2163 60.4342V62.0965Z" fill="#006D56"/>
<path d="M33.3628 60.2793C33.1695 60.2793 33.0535 60.2793 33.0535 60.9365C33.0535 62.2896 33.8654 63.3334 35.0251 63.3334C35.5277 63.3334 35.9916 63.1401 36.2622 62.8309C36.4169 62.6376 36.4555 62.6376 36.4942 62.6376C36.5715 62.6376 36.6102 62.7149 36.6102 62.7535C36.6102 62.9468 35.837 63.9906 34.4066 63.9906C32.9375 63.9906 31.8164 62.9468 31.8164 61.2458C31.8164 59.4675 33.0535 58.269 34.5999 58.269C36.3009 58.269 36.6488 59.6221 36.6488 60.0087C36.6488 60.2407 36.5329 60.2407 36.3396 60.2407H33.3628V60.2793ZM34.7159 59.8927C35.1798 59.8927 35.4891 59.6221 35.4891 59.3128C35.4891 58.5783 34.7159 58.5783 34.5612 58.5783C33.5561 58.5783 33.2081 59.5835 33.2081 59.7768C33.2081 59.8927 33.2468 59.8927 33.5174 59.8927H34.7159Z" fill="#006D56"/>
<path d="M39.008 62.2126C39.008 62.7538 39.0853 63.3337 39.6652 63.3337C39.8198 63.3337 39.9745 63.295 40.3611 63.0244C40.3997 62.9858 40.4384 62.9858 40.4771 62.9858C40.5157 62.9858 40.5544 63.0631 40.5544 63.1017C40.5544 63.295 39.8585 64.0296 39.008 64.0296C38.4281 64.0296 37.8869 63.6043 37.8869 62.7151V59.2358C37.8869 59.0812 37.8096 59.0038 37.6163 59.0038H37.3456C37.307 59.0038 37.1523 59.0038 37.1523 58.8879C37.1523 58.7719 37.2683 58.6946 37.307 58.6559L37.6163 58.5013C37.8869 58.3466 38.2348 58.0373 38.5827 57.4188C38.6214 57.3415 38.6987 57.2642 38.776 57.2642C38.8147 57.2642 38.9307 57.2642 38.9307 57.4575V58.2693C38.9307 58.5013 38.9693 58.5399 39.2013 58.5399H39.8198C39.9745 58.5399 40.0518 58.5013 40.1678 58.5013C40.2451 58.5013 40.3224 58.5399 40.3224 58.7332C40.2838 58.9652 40.2838 59.0038 40.1291 59.0038C39.9358 59.0038 39.6652 58.9652 39.1626 58.9652C38.9693 58.9652 38.9693 59.0038 38.9693 59.2358V62.2126H39.008Z" fill="#006D56"/>
<path d="M42.7189 62.2126C42.7189 62.7538 42.7963 63.3337 43.3761 63.3337C43.5308 63.3337 43.6854 63.295 44.072 63.0244C44.1107 62.9858 44.1493 62.9858 44.188 62.9858C44.2267 62.9858 44.2653 63.0631 44.2653 63.1017C44.2653 63.295 43.5694 64.0296 42.7189 64.0296C42.139 64.0296 41.5978 63.6043 41.5978 62.7151V59.2358C41.5978 59.0812 41.5205 59.0038 41.3272 59.0038H41.0566C41.0179 59.0038 40.8633 59.0038 40.8633 58.8879C40.8633 58.7719 40.9793 58.6946 41.0179 58.6559L41.3272 58.5013C41.5978 58.3466 41.9457 58.0373 42.2937 57.4188C42.3323 57.3415 42.4097 57.2642 42.487 57.2642C42.5256 57.2642 42.6416 57.2642 42.6416 57.4575V58.2693C42.6416 58.5013 42.6803 58.5399 42.9122 58.5399H43.5308C43.6854 58.5399 43.7627 58.5013 43.8787 58.5013C43.956 58.5013 44.0334 58.5399 44.0334 58.7332C43.9947 58.9652 43.9947 59.0038 43.8401 59.0038C43.6468 59.0038 43.3761 58.9652 42.8736 58.9652C42.6803 58.9652 42.6803 59.0038 42.6803 59.2358V62.2126H42.7189Z" fill="#006D56"/>
<path d="M46.353 60.2793C46.1597 60.2793 46.0437 60.2793 46.0437 60.9365C46.0437 62.2896 46.8556 63.3334 48.0154 63.3334C48.5179 63.3334 48.9819 63.1401 49.2525 62.8309C49.4071 62.6376 49.4458 62.6376 49.4844 62.6376C49.5618 62.6376 49.6004 62.7149 49.6004 62.7535C49.6004 62.9468 48.8272 63.9906 47.3968 63.9906C45.9278 63.9906 44.8066 62.9468 44.8066 61.2458C44.8066 59.4675 46.0437 58.269 47.5901 58.269C49.2911 58.269 49.6391 59.6221 49.6391 60.0087C49.6391 60.2407 49.5231 60.2407 49.3298 60.2407H46.353V60.2793ZM47.7061 59.8927C48.17 59.8927 48.4793 59.6221 48.4793 59.3128C48.4793 58.5783 47.7061 58.5783 47.5515 58.5783C46.5463 58.5783 46.1984 59.5835 46.1984 59.7768C46.1984 59.8927 46.237 59.8927 46.5077 59.8927H47.7061Z" fill="#006D56"/>
<path d="M52.1131 59.0035C52.1131 59.0808 52.1131 59.1581 52.1904 59.1581C52.229 59.1581 52.2677 59.0808 52.3064 59.0422C52.345 59.0035 52.8863 58.3076 53.5048 58.3076C53.8914 58.3076 54.3167 58.5396 54.3167 59.0422C54.3167 59.5447 53.9301 59.738 53.6208 59.738C53.3888 59.738 53.2342 59.622 53.0409 59.4288C52.8476 59.1968 52.7703 59.1581 52.693 59.1581C52.461 59.1581 52.1517 59.3514 52.1517 60.3566V62.6761C52.1517 63.1787 52.1517 63.488 52.7316 63.5267C52.9636 63.5267 53.1182 63.5653 53.1182 63.72C53.1182 63.8746 52.9636 63.8746 52.8863 63.8746C52.693 63.8746 51.8038 63.8359 51.5718 63.8359C51.4172 63.8359 50.6053 63.8746 50.412 63.8746C50.3347 63.8746 50.2188 63.8746 50.2188 63.72C50.2188 63.604 50.2961 63.5653 50.5667 63.5267C51.0693 63.4493 51.0693 63.3334 51.0693 62.6375V60.3179C51.0693 59.5447 50.9146 59.5447 50.4894 59.5061C50.4507 59.5061 50.3347 59.5061 50.3347 59.3901C50.3347 59.3128 50.3734 59.2741 50.528 59.2355C50.7986 59.1195 51.4172 58.7715 51.6492 58.5009C51.6878 58.4623 51.9198 58.1917 51.9971 58.1917C52.1131 58.1917 52.1131 58.3076 52.1131 58.3849V59.0035Z" fill="#006D56"/>
<path d="M58.53 57.5344C58.53 57.0318 58.53 56.7225 57.9501 56.6839C57.7181 56.6452 57.5635 56.6452 57.5635 56.4906C57.5635 56.3359 57.6021 56.3359 57.9887 56.3359C58.1434 56.3359 58.9552 56.3746 59.1485 56.3746C59.4191 56.3746 60.6949 56.3359 61.0042 56.3359C62.8598 56.3359 63.3237 57.6117 63.3237 58.5009C63.3237 59.9699 62.1253 60.6658 61.1975 60.6658C60.9269 60.6658 60.6949 60.6271 60.231 60.4338C60.1537 60.3952 59.883 60.3179 59.8444 60.3179C59.7284 60.3179 59.7284 60.3952 59.7284 60.5498V62.7534C59.7284 63.256 59.7284 63.6039 60.347 63.6426C60.5789 63.6426 60.7336 63.6812 60.7336 63.8359C60.7336 63.9905 60.5789 63.9905 60.5016 63.9905C60.115 63.9905 59.5351 63.9518 59.1485 63.9518C58.9552 63.9518 58.0274 63.9905 57.7954 63.9905C57.7181 63.9905 57.5635 63.9905 57.5635 63.7972C57.5635 63.6426 57.7181 63.6039 57.9501 63.6039C58.53 63.5653 58.53 63.256 58.53 62.7534V57.5344ZM59.7284 59.6607C59.7284 59.8539 59.7284 59.9313 59.8444 59.9699C60.0377 60.0859 60.347 60.0859 60.5789 60.0859C61.1975 60.0859 62.048 59.5833 62.048 58.3849C62.048 57.3024 61.3134 56.6066 60.4243 56.6066C59.7671 56.6066 59.7284 56.9545 59.7284 57.5344V59.6607Z" fill="#006D56"/>
<path d="M64.5609 60.3955C64.5609 59.777 64.4449 59.6223 64.0583 59.5837C64.0196 59.5837 63.865 59.5837 63.865 59.429C63.865 59.3517 63.9037 59.2744 64.0583 59.2357C64.5995 59.0424 64.8701 58.8878 65.0248 58.7331C65.1021 58.6558 65.45 58.3466 65.5274 58.3466C65.6433 58.3466 65.6433 58.5012 65.6433 58.7718V62.6764C65.6433 63.3336 65.6433 63.4883 66.1073 63.5656C66.3779 63.6042 66.4552 63.6816 66.4552 63.7589C66.4552 63.9135 66.3392 63.9135 66.2619 63.9135C66.1072 63.9135 65.6047 63.8749 65.1021 63.8749C64.6382 63.8749 64.1356 63.9135 63.9423 63.9135C63.865 63.9135 63.749 63.9135 63.749 63.7589C63.749 63.6429 63.8263 63.6042 64.097 63.5656C64.5609 63.4883 64.5609 63.3723 64.5609 62.6764V60.3955ZM65.1021 57.612C64.7542 57.612 64.4836 57.3028 64.4836 56.9548C64.4836 56.6069 64.7542 56.2976 65.1021 56.2976C65.45 56.2976 65.7207 56.6069 65.7207 56.9935C65.682 57.2641 65.45 57.612 65.1021 57.612Z" fill="#006D56"/>
<path d="M68.5046 63.2173C68.3886 63.372 68.3886 63.4106 68.3886 63.4493C68.3886 63.5266 68.4659 63.5266 68.5819 63.5266C70.5922 63.5266 70.6695 63.2946 70.9401 62.4441C70.9788 62.3668 71.0174 62.2508 71.0947 62.2508C71.2107 62.2508 71.2107 62.3668 71.2107 62.4828L71.1721 63.6426C71.1721 63.7972 71.1334 63.8745 70.9401 63.8745C70.5148 63.8745 69.819 63.8359 69.3937 63.8359C68.3886 63.8359 67.654 63.8745 67.1901 63.8745C67.0355 63.8745 66.8809 63.8745 66.8809 63.6426C66.8809 63.5266 66.9195 63.4106 66.9582 63.372L69.6643 59.0808C69.7417 58.9648 69.7803 58.8875 69.7803 58.8488C69.7803 58.7715 69.703 58.7715 69.3551 58.7715C68.1953 58.7715 67.77 58.7715 67.3061 59.4674C67.1901 59.622 67.1515 59.6607 67.0742 59.6607C66.9968 59.6607 66.9582 59.5833 66.9582 59.5447C66.9582 59.4674 66.9582 59.4287 66.9968 59.39L67.4221 58.0756C67.4607 57.9596 67.4994 57.8823 67.5767 57.8823C67.6927 57.8823 67.6927 57.9596 67.6927 58.1916C67.6927 58.3849 67.8473 58.4236 68.0793 58.4236H70.9401C71.1334 58.4236 71.2107 58.4622 71.2107 58.5395C71.2107 58.6555 71.1721 58.7328 71.1334 58.8102L68.5046 63.2173Z" fill="#006D56"/>
<path d="M73.569 63.2173C73.453 63.372 73.453 63.4106 73.453 63.4493C73.453 63.5266 73.5303 63.5266 73.6463 63.5266C75.6566 63.5266 75.7339 63.2946 76.0046 62.4441C76.0432 62.3668 76.0819 62.2508 76.1592 62.2508C76.2752 62.2508 76.2752 62.3668 76.2752 62.4828L76.2365 63.6426C76.2365 63.7972 76.1979 63.8745 76.0046 63.8745C75.5793 63.8745 74.8834 63.8359 74.4582 63.8359C73.453 63.8359 72.7185 63.8745 72.2546 63.8745C72.0999 63.8745 71.9453 63.8745 71.9453 63.6426C71.9453 63.5266 71.984 63.4106 72.0226 63.372L74.7288 59.0808C74.8061 58.9648 74.8448 58.8875 74.8448 58.8488C74.8448 58.7715 74.7674 58.7715 74.4195 58.7715C73.2597 58.7715 72.8345 58.7715 72.3706 59.4674C72.2546 59.622 72.2159 59.6607 72.1386 59.6607C72.0613 59.6607 72.0226 59.5833 72.0226 59.5447C72.0226 59.4674 72.0226 59.4287 72.0613 59.39L72.4865 58.0756C72.5252 57.9596 72.5639 57.8823 72.6412 57.8823C72.7572 57.8823 72.7572 57.9596 72.7572 58.1916C72.7572 58.3849 72.9118 58.4236 73.1438 58.4236H76.0046C76.1979 58.4236 76.2752 58.4622 76.2752 58.5395C76.2752 58.6555 76.2365 58.7328 76.1979 58.8102L73.569 63.2173Z" fill="#006D56"/>
<path d="M79.6771 59.5835C79.6771 59.1582 79.6384 58.5783 79.1359 58.5783C78.4787 58.5783 78.2467 59.3129 78.1694 59.5835C77.9761 60.1247 77.3575 60.1634 77.3189 60.1634C77.2029 60.1634 77.0869 60.086 77.0869 59.9314C77.0869 59.5061 77.7828 58.269 79.4838 58.269C80.5276 58.269 80.7982 58.6556 80.7982 59.1582V62.5602C80.7982 62.9468 80.8369 63.2561 81.1462 63.2561C81.2621 63.2561 81.3781 63.2175 81.4554 63.1401C81.5714 63.0242 81.5714 63.0242 81.6487 63.0242C81.726 63.0242 81.7647 63.1015 81.7647 63.1401C81.7647 63.4494 81.0688 63.9906 80.6049 63.9906C80.1797 63.9906 79.9477 63.6427 79.8317 63.3334C79.7158 63.1015 79.7158 63.1015 79.6771 63.1015C79.6384 63.1015 79.5998 63.1401 79.5998 63.1401C79.1359 63.5654 78.5173 63.9906 78.0147 63.9906C77.2029 63.9906 77.1256 63.1401 77.1256 62.9855C77.1256 62.0963 77.7055 61.5938 79.4451 60.8206C79.7158 60.7046 79.7158 60.5886 79.7158 60.3953V59.5835H79.6771ZM79.6771 61.2072C79.6771 61.0912 79.5998 61.0912 79.5611 61.0912C79.4065 61.0912 79.1359 61.2458 78.9426 61.3618C78.2467 61.7097 78.2467 62.1736 78.2467 62.4443C78.2467 63.0242 78.5173 63.2561 78.7493 63.2561C79.2518 63.2561 79.6771 62.8309 79.6771 61.9804V61.2072Z" fill="#006D56"/>
<path d="M83.3113 63.9908C82.9634 63.9908 82.7314 63.6815 82.7314 63.3722C82.7314 63.0629 82.9634 62.7537 83.3113 62.7537C83.6593 62.7537 83.8912 63.0629 83.8912 63.3722C83.8912 63.6815 83.6593 63.9908 83.3113 63.9908Z" fill="#006D56"/>
<path d="M103.143 18.9138C95.6048 14.7772 78.1307 10.5633 70.7855 9.98343L65.2571 9.55818C59.3423 9.09426 56.0562 8.8623 53.582 8.8623C51.1078 8.8623 47.8217 9.13292 41.9068 9.55818L36.3785 9.98343C28.9946 10.5247 11.5592 14.7385 4.02058 18.9138C0.386594 20.8467 0 22.1998 0 26.8003V38.4754C0 39.4419 0.115978 40.795 1.15978 41.8388C2.35823 43.0373 3.9046 43.0373 5.7216 43.0373H101.326C103.143 43.0373 104.69 43.0373 105.888 41.8388C106.932 40.795 107.048 39.4033 107.048 38.4754V26.8003C107.087 22.1998 106.7 20.8467 103.143 18.9138Z" fill="#006D56"/>
<path d="M105.888 38.4755C105.888 39.21 105.811 40.2925 105.076 41.027C104.226 41.8775 103.027 41.8775 101.365 41.8775H5.7214C4.05904 41.8775 2.8606 41.8775 2.01009 41.027C1.27556 40.2925 1.19824 39.21 1.19824 38.4755V26.8003C1.19824 22.3932 1.58484 21.5426 4.52296 19.9576C11.9456 15.8597 29.1104 11.7231 36.3783 11.1819L41.9066 10.7567C47.8215 10.2927 51.0689 10.0608 53.5045 10.0608C55.94 10.0608 59.2261 10.3314 65.1023 10.7567L70.6306 11.1819C77.8986 11.7231 95.1021 15.8597 102.525 19.9576C105.424 21.5426 105.849 22.3932 105.849 26.8003V38.4755H105.888Z" fill="white"/>
<path d="M102.293 20.4601C94.9091 16.4009 77.8603 12.303 70.631 11.7617L65.064 11.3365C59.1878 10.8726 55.9404 10.6406 53.5048 10.6406C51.0693 10.6406 47.8219 10.8726 41.9457 11.3365L36.3787 11.7617C29.1494 12.303 12.1006 16.4395 4.71661 20.4601C1.97179 21.9678 1.70117 22.5477 1.70117 26.8003V38.4754C1.70117 39.4806 1.89447 40.1378 2.35838 40.6017C3.05425 41.2976 4.09806 41.2976 5.64444 41.2976H101.249C102.834 41.2976 103.878 41.2976 104.535 40.6017C104.961 40.1378 105.193 39.5192 105.193 38.4754V26.8003C105.308 22.5477 105.038 21.9678 102.293 20.4601Z" fill="#FF0017"/>
<path d="M104.729 38.4757C104.729 40.7179 103.685 40.6793 101.249 40.6793H5.83775C3.4022 40.6793 2.3584 40.7179 2.3584 38.4757V26.8005C2.3584 22.664 2.62901 22.316 5.06456 21.0016C12.1006 17.1357 28.9561 12.9218 36.4947 12.3806C37.9251 12.2646 40.4766 12.0713 40.4766 12.0713L39.8194 11.1048C39.8194 11.1048 42.9122 9.75171 53.3502 9.75171C63.7883 9.75171 67.5769 11.1821 67.5769 11.1821L66.8037 12.0713C66.8037 12.0713 69.2393 12.2646 70.5923 12.3419C78.1309 12.9218 94.9864 17.1357 102.022 20.9629C104.458 22.316 104.729 22.6253 104.729 26.7619V38.4757Z" fill="white"/>
<path d="M66.3016 34.2227C66.6881 34.0681 66.9974 33.7202 66.9974 33.1016V20.4986C66.9974 19.0296 65.4897 18.7976 65.0645 19.8414C65.6443 19.6095 66.4175 20.0347 66.4175 21.0785V33.6815C66.3789 33.8748 66.3402 34.0681 66.3016 34.2227Z" fill="#006D56"/>
<path d="M65.9149 39.8672C63.1701 39.8672 60 37.1997 59.9227 34.0683V19.687C59.9227 17.9473 60.4252 16.7102 61.1598 15.821C60.116 16.7102 59.3428 18.102 59.3428 20.2669V34.6095C59.4201 37.7796 62.5902 40.4085 65.335 40.4085C66.804 40.4085 68.621 39.9832 69.8581 38.5141C68.6597 39.5579 67.152 39.8672 65.9149 39.8672Z" fill="#006D56"/>
<path d="M17.2812 39.1325V35.5758C17.2812 35.5758 17.6678 35.3438 17.6678 34.4933V33.6428H15.9668V34.2227H17.0879V35.0732C17.0879 35.9237 16.7013 36.1557 16.7013 36.1557V39.7124H21.2245V39.1325H17.2812Z" fill="#006D56"/>
<path d="M11.9842 39.1328V35.5762C11.9842 35.5762 12.4094 35.3442 12.4094 34.4937L14.4584 20.0737L13.9172 20.1897L11.8296 35.0736C11.8296 35.9241 11.4043 36.1561 11.4043 36.1561V39.7127H15.8115V39.1328H11.9842Z" fill="#006D56"/>
<path d="M16.9716 31.0141H17.6288L16.9329 23.9395L16.585 27.0709L16.9716 31.0141Z" fill="#006D56"/>
<path d="M50.0643 38.321V34.0298C49.871 33.9138 49.6777 33.8365 49.4844 33.6819V38.9009C51.2627 40.022 54.9354 41.3365 56.8683 38.8623C54.8194 40.5246 51.6493 39.3648 50.0643 38.321Z" fill="#006D56"/>
<path d="M53.0789 20.1509V32.2126C53.0789 32.9085 52.9629 33.4497 52.7696 33.7977C53.3109 33.527 53.6588 32.8698 53.6588 31.5941V19.5323C53.6588 18.3339 53.0789 18.0633 53.0789 18.0633V14.5066H52.499V18.6432C52.5377 18.6432 53.0789 18.9524 53.0789 20.1509Z" fill="#006D56"/>
<path d="M100.244 39.6739C98.6204 39.7512 97.2674 39.3646 95.9529 37.509V34.1069H95.373V38.1275C96.6488 39.9832 98.0405 40.3698 99.6642 40.2924C100.592 40.2538 101.597 39.5966 102.332 38.7461C101.675 39.2873 100.94 39.6352 100.244 39.6739Z" fill="#006D56"/>
<path d="M98.6977 33.3725C99.4322 33.6432 100.321 33.6045 100.321 35.0736C100.321 35.5761 100.244 35.9241 100.128 36.1947C100.515 36.0787 100.901 35.5761 100.901 34.455C100.901 32.9859 100.012 32.9859 99.2776 32.754C98.6203 32.522 97.7312 31.9808 97.3059 31.4396C96.726 30.7824 95.9915 29.8545 95.9915 27.9602C95.9915 26.1819 96.4168 24.7128 97.19 23.7463C96.0688 24.5968 95.4116 26.3365 95.4116 28.5401C95.4116 30.4344 96.1848 31.3622 96.726 32.0195C97.1513 32.5607 98.0405 33.1406 98.6977 33.3725Z" fill="#006D56" stroke="#FF0017" stroke-width="0.0629762" stroke-miterlimit="79.8403"/>
<path d="M100.901 28.1147C100.901 25.6405 99.7029 25.7178 99.355 26.6457C99.7802 26.5683 100.283 27.1096 100.283 28.6946H103.221V28.1147H100.901Z" fill="#006D56"/>
<path d="M78.9425 39.1716V35.5762C78.9425 35.5762 79.5224 35.267 79.5224 34.1072V30.0093H77.5508V30.5892H78.9039V34.6484C78.9039 35.8469 78.324 36.1175 78.324 36.1175V39.7515H84.0069V39.1716H78.9425Z" fill="#006D56"/>
<path d="M72.68 39.1712V35.5759C72.68 35.5759 73.3759 35.2666 73.3759 34.1068V21.5812C73.3759 20.3827 72.68 19.9575 72.68 19.9575V15.5503L72.1001 15.4343V20.5374C72.1001 20.5374 72.796 21.0013 72.796 22.1611V34.6481C72.796 35.8465 72.1001 36.1171 72.1001 36.1171V39.7511H77.5511V39.1712H72.68Z" fill="#006D56"/>
<path d="M78.9424 22.625V25.9497H79.5223V22.0451C79.5223 20.8467 79.0584 20.5761 79.0584 20.5761V16.7875L78.4785 16.6328V21.156C78.4785 21.156 78.9424 21.4266 78.9424 22.625Z" fill="#006D56"/>
<path d="M29.8453 32.9088H27.3711V33.4887H29.2654C30.3092 33.4113 31.2757 33.0634 31.9716 32.2129C31.353 32.6381 30.6185 32.8314 29.8453 32.9088Z" fill="#006D56"/>
<path d="M22.616 39.1327V35.576C22.616 35.576 23.1959 35.2668 23.1959 34.107V22.6251C23.1959 21.8133 22.616 21.3494 22.616 21.3494V18.1406L22.0361 18.3726V21.9293C22.0361 21.9293 22.616 22.3932 22.616 23.205V34.6482C22.616 35.8466 22.0361 36.1173 22.0361 36.1173V39.6739H27.3711V39.094H22.616V39.1327Z" fill="#006D56"/>
<path d="M28.1829 28.5786C28.8402 28.3467 29.0334 27.2642 29.0334 26.8003V22.0452C29.0334 20.3442 28.1829 20.2668 27.951 20.2668H27.3711V20.8467C27.6417 20.8467 28.4536 20.9627 28.4536 22.6251V27.3802C28.4536 27.6895 28.3762 28.192 28.1829 28.5786Z" fill="#006D56"/>
<path d="M91.1975 39.1711L89.1099 31.0913V33.9521L90.6176 39.751H94.2902V39.1711H91.1975Z" fill="#006D56"/>
<path d="M85.5921 39.1714V35.576C85.5921 35.576 86.288 35.4601 86.1333 34.7255V23.1664C86.1333 21.9679 85.5921 21.504 85.5921 21.504V18.1793L85.0122 18.0247V22.0452C85.0122 22.0452 85.5534 22.5092 85.5534 23.7076V35.2668C85.7081 36.0013 85.0122 36.1173 85.0122 36.1173V39.7126H88.9168V39.1327H85.5921V39.1714Z" fill="#006D56"/>
<path d="M91.1589 24.6741C91.2749 24.9447 91.3908 25.3313 91.3908 25.8725V25.9498L91.9321 28.8493L91.9707 25.2926C91.9707 24.0942 91.4295 23.6303 91.4295 23.6303V19.9963L90.8496 19.803V23.089L91.1589 24.6741Z" fill="#006D56"/>
<path d="M3.94317 39.1326V35.576C3.94317 35.576 4.36843 35.344 4.36843 34.4548V27.1095C4.36843 26.491 3.94317 26.1431 3.94317 26.1431V23.8235L3.36328 24.0554V26.7229C3.36328 26.7229 3.78854 27.0709 3.78854 27.6894V35.0347C3.78854 35.9239 3.36328 36.1559 3.36328 36.1559V39.7125H7.49984V39.1326H3.94317Z" fill="#006D56"/>
<path d="M8.19553 31.2462C8.77542 31.1303 8.93006 30.2797 8.93006 29.8931V26.3365C8.93006 25.0607 8.27285 24.9834 8.07955 24.9834H7.6543V25.6019C7.92491 25.6406 8.35017 25.9112 8.35017 26.9164V30.473C8.35017 30.6663 8.31151 30.9756 8.19553 31.2462Z" fill="#006D56"/>
<path d="M39.974 29.3518H40.6312L39.4714 19.6096L39.1621 22.5091L39.974 29.3518Z" fill="#006D56"/>
<path d="M40.3604 39.1326V35.5759C40.3604 35.5759 40.9403 35.2667 40.9403 34.1069V32.9084H38.1182V33.4883H40.3604V34.6868C40.3604 35.8852 39.7805 36.1558 39.7805 36.1558V39.7125H45.966V39.1326H40.3604Z" fill="#006D56"/>
<path d="M33.0922 39.1326V35.576C33.0922 35.576 33.6721 35.2667 33.6721 34.1069V33.875L36.3009 15.5117L35.7983 15.5504L33.0535 34.4548V34.6868C33.0535 35.8852 32.4736 36.1559 32.4736 36.1559V39.7125H38.0793V39.1326H33.0922Z" fill="#006D56"/>
<path d="M9.54918 33.5658H7.61621V34.1457H8.93063C9.74248 34.0684 10.3997 33.6818 10.8249 33.0632C10.5157 33.3338 10.0518 33.5271 9.54918 33.5658Z" fill="#006D56"/>
<path d="M8.07992 39.1327H3.94336V35.576C3.94336 35.576 4.36861 35.3441 4.36861 34.4549V27.1096C4.36861 26.4911 3.94336 26.1431 3.94336 26.1431V23.4756C6.18561 22.5478 8.07992 21.9292 8.07992 21.9292C9.51032 21.6973 10.7088 21.9292 11.482 22.7411C11.9459 23.2437 12.1778 24.0942 12.1392 25.254V30.125C12.1392 31.942 11.134 33.4498 9.54898 33.5657H7.61601V34.4549C7.61601 35.3441 8.04126 35.576 8.04126 35.576V39.1327H8.07992ZM7.65467 24.9833V31.2462H8.07992C8.73713 31.2462 8.93043 30.2797 8.93043 29.8931V26.3364C8.93043 25.0607 8.27322 24.9833 8.07992 24.9833H7.65467Z" fill="#FF0017" stroke="#FF0017" stroke-width="0.130901" stroke-miterlimit="79.8403"/>
<path d="M99.2778 33.527H95.9531V37.5475C97.2289 39.4032 98.6206 39.7898 100.244 39.7125C101.868 39.6351 103.84 37.6635 103.84 35.9238V32.5991C103.84 30.5115 102.68 29.9316 101.559 29.2744C100.438 28.6172 99.2778 28.8878 99.2778 27.1868C99.2778 25.8337 100.902 25.2538 100.902 28.1533H103.84V24.4806C101.404 22.1997 100.051 22.4317 98.8912 22.6637C97.1129 23.0116 95.9531 25.0992 95.9531 27.9987C95.9531 29.893 96.7263 30.8208 97.2675 31.478C97.6928 31.9806 98.6206 32.5605 99.2392 32.7924C99.9737 33.063 100.863 33.0244 100.863 34.4934C100.863 36.813 99.2392 36.4651 99.2392 35.5759V33.527H99.2778Z" fill="#FF0017" stroke="#FF0017" stroke-width="0.130901" stroke-miterlimit="79.8403"/>
<path d="M96.2618 23.2437L96.5324 23.6303L97.3056 22.8571C98.1948 21.968 97.8082 20.8855 96.7257 20.8855C95.7979 20.8855 95.7979 22.1613 96.4164 22.3546C96.7644 22.4705 96.7644 22.6252 96.6097 22.8185C96.4938 23.0118 96.2618 23.2437 96.2618 23.2437Z" fill="#FF0017" stroke="#FF0017" stroke-width="0.130901" stroke-miterlimit="79.8403"/>
<path d="M12.4096 34.4934L14.4972 19.6095L19.6389 18.2178L21.34 34.4934C21.34 35.3439 21.7652 35.5759 21.7652 35.5759H21.8039V39.1325H17.2807V35.5759C17.2807 35.5759 17.6673 35.3439 17.6673 34.4934V33.6429H15.9663V34.4934C15.9663 35.3439 16.3916 35.5759 16.3916 35.5759V39.1325H11.9844V35.5759C11.9844 35.5759 12.4096 35.3439 12.4096 34.4934ZM16.1596 31.014H17.6287L16.9328 23.9394L16.1596 31.014Z" fill="#FF0017" stroke="#FF0017" stroke-width="0.130901" stroke-miterlimit="79.8403"/>
<path d="M58.6855 19.9576C58.6855 18.7592 59.2654 18.4886 59.2654 18.4886V14.0814L53.1185 13.9268V18.0633C53.1185 18.0633 53.6984 18.3726 53.6984 19.5324V31.5941C53.6984 34.3776 52.1134 34.3776 50.0645 33.0632V38.2822C52.5387 39.8672 58.7242 41.7229 58.7242 33.4498V19.9576H58.6855Z" fill="#FF0017" stroke="#FF0017" stroke-width="0.130901" stroke-miterlimit="79.8403"/>
<path d="M84.6255 35.576C84.6255 35.576 84.0842 35.2667 84.0842 34.1069L84.0456 23.0116C84.0456 21.8132 84.7414 21.3879 84.7414 21.3879V17.406L79.0585 16.0529V20.5761C79.0585 20.5761 79.5224 20.8854 79.5224 22.0451V25.9884H77.5508V22.0451C77.5508 20.8467 78.2466 20.4215 78.2466 20.4215V15.821L72.6797 14.8545V19.9575C72.6797 19.9575 73.3756 20.4215 73.3756 21.5812V34.0682C73.3756 35.2667 72.6797 35.5373 72.6797 35.5373V39.1713H78.1307V35.576C78.1307 35.576 77.5508 35.2667 77.5508 34.1069V30.009H79.5224V34.0682C79.5224 35.2667 78.9425 35.5373 78.9425 35.5373V39.1713H84.6255V35.576Z" fill="#FF0017" stroke="#FF0017" stroke-width="0.130901" stroke-miterlimit="79.8403"/>
<path d="M84.0842 34.1069C84.0842 35.2667 84.6255 35.576 84.6255 35.576V39.2099H78.9425V35.576M84.0842 34.0682L84.0456 22.973C84.0456 21.7745 84.7414 21.3493 84.7414 21.3493M84.7414 21.3106V17.406L79.0585 16.0529V20.5761M79.0585 20.5374C79.0585 20.5374 79.5224 20.8467 79.5224 22.0065M79.5224 22.0451V25.9884H77.5508V22.0451M77.5894 22.0451C77.5894 20.8467 78.2853 20.4215 78.2853 20.4215M78.2466 20.3828V15.821L72.6797 14.8545V19.9575C72.6797 19.9575 73.3756 20.4215 73.3756 21.5812V34.0682C73.3756 35.2667 72.6797 35.5373 72.6797 35.5373M72.6797 35.576V39.2099H78.1307V35.576C78.1307 35.576 77.5508 35.2667 77.5508 34.1069M77.5894 34.0682V30.009H79.5611V34.0682M79.5224 34.0682C79.5224 35.2667 78.9425 35.5373 78.9425 35.5373" stroke="#FF0017" stroke-width="0.130901" stroke-miterlimit="79.8403"/>
<path d="M85.5919 35.5759C85.5919 35.5759 86.2878 35.4599 86.1331 34.7254V23.1662C86.1331 21.9677 85.5919 21.5038 85.5919 21.5038V17.4446L90.0377 18.6044L91.932 28.8105L91.9707 25.2538C91.9707 24.0553 91.4295 23.5914 91.4295 23.5914V19.1456L95.5274 20.5373V24.094C95.5274 24.094 94.8315 24.5579 94.8315 25.7177V39.1325H91.1588L89.0712 31.0527V34.4161C89.0712 35.6145 89.4578 35.5372 89.4578 35.5372V39.1325H85.5532V35.5759H85.5919Z" fill="#FF0017" stroke="#FF0017" stroke-width="0.130901" stroke-miterlimit="79.8403"/>
<path d="M95.5273 24.094V20.5373L91.4294 19.1456V23.5914C91.4294 23.5914 91.9706 24.0553 91.9706 25.2538L91.9319 28.8105L90.0376 18.6044L85.5918 17.4446V21.5038C85.5918 21.5038 86.133 21.9677 86.133 23.1662V34.7254C86.2877 35.4599 85.5918 35.5759 85.5918 35.5759V39.1712H89.4964V35.5759M95.5659 24.1327C95.5659 24.1327 94.8701 24.5966 94.8701 25.7564V39.1712H91.1974L89.1098 31.0914V34.4547M89.0711 34.4547C89.0711 35.6532 89.4577 35.5759 89.4577 35.5759" stroke="#FF0017" stroke-width="0.130901" stroke-miterlimit="79.8403"/>
<path d="M27.3713 20.267V28.6174H27.9512C28.8017 28.6174 29.0337 27.3417 29.0337 26.8004V22.0453C29.0337 20.3443 28.1832 20.267 27.9512 20.267H27.3713ZM27.9512 39.1328H22.6162V35.5761C22.6162 35.5761 23.1961 35.2668 23.1961 34.1071V22.6252C23.1961 21.8134 22.6162 21.3494 22.6162 21.3494V17.7928C25.5157 16.5557 27.9512 16.2077 27.9512 16.2077C29.8069 15.9371 31.3532 16.2077 32.3197 17.2515C32.8996 17.9088 33.6728 18.6046 33.6342 20.7309V27.7283C33.6728 31.7102 31.8945 32.754 29.8455 32.9086H27.3713V34.1071C27.3713 35.3055 27.9512 35.5761 27.9512 35.5761V39.1328Z" fill="#FF0017" stroke="#FF0017" stroke-width="0.130901" stroke-miterlimit="79.8403"/>
<path d="M33.634 33.8363L36.3788 14.9319L43.6081 14.2747L45.9664 34.0683C45.9664 35.2667 46.5463 35.5374 46.5463 35.5374V39.094H40.3608V35.576C40.3608 35.576 40.9406 35.2667 40.9406 34.107V32.9085H38.1185V34.107C38.1185 35.3054 38.6984 35.576 38.6984 35.576V39.1327H33.0928V35.576C33.0928 35.576 33.6727 35.2667 33.6727 34.107L33.634 33.8363ZM38.3891 29.3518H40.6314L39.4716 19.6097L38.3891 29.3518Z" fill="#FF0017" stroke="#FF0017" stroke-width="0.130901" stroke-miterlimit="79.8403"/>
<path d="M53.5432 9.94467C58.4529 9.90601 66.5714 10.6405 66.5327 11.1431C66.5327 11.1431 64.4065 12.4189 65.7595 12.5349C66.6487 12.6122 67.5379 12.6122 67.5379 12.6122C69.2389 12.6122 71.9064 13.5787 73.8007 14.0039L74.3033 14.1199L74.226 13.5787L73.6461 9.0555L76.3136 6.388L76.6615 6.00141L76.0816 5.80811C76.0816 5.80811 71.2878 4.57101 69.8961 4.57101L70.244 2.79267C70.476 1.71021 64.0585 0.0478516 53.5432 0.0478516C43.0278 0.0478516 36.4943 1.47825 36.7263 2.56072L37.1902 4.57101C35.7985 4.57101 31.0047 5.80811 31.0047 5.80811L30.4248 6.00141L30.7727 6.388L33.4402 9.0555L32.8604 13.5787L32.783 14.1199L33.2856 14.0039C35.1413 13.5787 37.8088 12.6122 39.5484 12.6122C39.5484 12.6122 40.4376 12.6122 41.3268 12.5349C42.6799 12.4189 40.5536 11.1431 40.5536 11.1431C40.4763 10.6405 48.6334 9.94467 53.5432 9.94467Z" fill="#FF0017" stroke="#FF0017" stroke-width="0.130901" stroke-miterlimit="79.8403"/>
<path d="M53.5429 9.21022C59.3031 9.1329 67.1123 10.0221 67.5762 10.602C67.5762 10.602 69.0453 3.56594 69.1613 3.218C69.3159 2.63811 62.3959 0.898438 53.5815 0.898438C44.7672 0.898438 37.7311 2.3675 37.8471 2.98605C37.9244 3.37264 39.5481 10.602 39.5481 10.602C39.9734 10.0221 47.7826 9.1329 53.5429 9.21022Z" fill="#006D56" stroke="#006D56" stroke-width="0.130901" stroke-miterlimit="79.8403"/>
<path d="M38.7753 11.6073L39.3938 11.878C39.0072 11.9166 38.5433 11.9166 37.9634 12.0326C36.765 12.2646 35.2186 12.7285 33.7496 13.0764L34.2908 8.70789L31.7393 6.38832C31.7393 6.38832 36.2624 5.30586 37.3449 5.34452L38.7753 11.6073Z" fill="#006D56" stroke="#006D56" stroke-width="0.130901" stroke-miterlimit="79.8403"/>
<path d="M68.3109 11.6073L67.6924 11.878C68.079 11.9166 68.5429 11.9166 69.1228 12.0326C70.3212 12.2646 71.8676 12.7285 73.3367 13.0764L72.7954 8.70789L75.3469 6.38832C75.3469 6.38832 70.8238 5.30586 69.7413 5.34452L68.3109 11.6073Z" fill="#006D56" stroke="#006D56" stroke-width="0.130901" stroke-miterlimit="79.8403"/>
<path d="M41.0563 8.24385V8.05056L41.6362 8.0119L41.1723 3.29545L40.5924 3.3341L40.5537 3.14081L43.9557 2.87019C45.5408 2.71555 45.8887 3.45008 45.9274 4.14595C46.0047 4.88048 45.8114 5.73099 44.2264 5.88563L43.2212 6.00161L43.4145 7.89592L44.1104 7.8186L44.149 8.0119L41.0563 8.24385ZM43.2599 5.76965L43.5305 5.73099C43.8398 5.69233 44.3423 5.26708 44.3037 4.68719L44.1877 3.914C44.149 3.56606 43.6851 3.06349 43.2212 3.10215L42.9893 3.14081L43.2599 5.76965Z" fill="white"/>
<path d="M46.855 7.74141V7.54812L47.3962 7.50946L47.1643 2.793L46.623 2.83166V2.63837L49.5225 2.44507V2.63837L48.9813 2.67703L49.2519 7.39348L49.7931 7.35482V7.54812L46.855 7.74141Z" fill="white"/>
<path d="M54.7809 2.32886V2.56081L52.4226 7.27727H52.8479C53.5438 7.27727 54.2783 6.73603 54.5489 5.49893H54.7809L54.7422 7.47056L50.5283 7.50922V7.23861L52.8479 2.56081H52.6159C51.6881 2.56081 51.0696 3.334 50.8763 4.18451H50.6443L50.7216 2.36752L54.7809 2.32886Z" fill="white"/>
<path d="M60.4245 2.56064V2.7926L57.7957 7.35442L58.2209 7.39307C58.9168 7.43173 59.69 6.96782 60.0379 5.73072H60.2699L60.1152 7.70235L55.9014 7.50905V7.23844L58.4915 2.71528H58.2596C57.3318 2.67662 56.6746 3.37249 56.4039 4.223H56.172L56.3653 2.40601L60.4245 2.56064Z" fill="white"/>
<path d="M60.8115 7.77987L60.8502 7.58657H61.0048C61.2368 7.62523 61.4687 7.19998 61.6234 6.8907L63.5563 2.87012L64.6775 2.94744L65.9919 8.05048L66.3785 8.08914L66.3398 8.28244L63.595 8.05048L63.6337 7.85719L64.1749 7.89585L63.7883 6.34947L62.3192 6.19483L61.9326 6.92936C61.662 7.47059 61.9326 7.66389 62.1259 7.66389L62.3192 7.70255L62.2806 7.89585L60.8115 7.77987ZM63.2084 4.2232L62.3579 6.04019L63.711 6.19483L63.2084 4.2232Z" fill="white"/>
<path d="M59.8838 19.6872C59.8838 14.7388 63.8271 13.8496 65.876 13.8496C67.925 13.8496 71.7522 15.0481 71.7522 19.6872V33.4886C71.7522 38.7463 68.2729 39.8674 65.876 39.8674C63.1312 39.8674 59.9611 37.1999 59.8838 34.0685V19.6872ZM64.9095 33.102C64.9095 34.7257 66.9585 34.6871 66.9585 33.102V20.499C66.9585 18.7594 64.9095 18.7594 64.9095 20.499V33.102Z" fill="#FF0017" stroke="#FF0017" stroke-width="0.130901" stroke-miterlimit="79.8403"/>
<path d="M106.159 44.1583C106.159 43.5784 106.623 43.1145 107.202 43.1145C107.782 43.1145 108.246 43.5784 108.246 44.1583C108.246 44.7382 107.782 45.2021 107.202 45.2021C106.623 45.2021 106.159 44.7382 106.159 44.1583ZM108.014 44.1583C108.014 43.6944 107.666 43.3465 107.202 43.3465C106.739 43.3465 106.391 43.6944 106.391 44.1583C106.391 44.6222 106.739 44.9702 107.202 44.9702C107.666 44.9315 108.014 44.6222 108.014 44.1583ZM107.705 44.6609H107.434L107.202 44.197H107.048V44.6609H106.816V43.5784H107.357C107.589 43.5784 107.782 43.6171 107.782 43.9263C107.782 44.1196 107.666 44.197 107.473 44.2356L107.705 44.6609ZM107.318 44.0423C107.434 44.0423 107.512 44.0037 107.512 43.8877C107.512 43.7717 107.357 43.7717 107.28 43.7717H107.048V44.0423H107.318Z" fill="white"/>
<path d="M108.318 42.597C108.528 43.0685 108.33 43.6167 107.878 43.8289C107.427 44.0412 106.893 43.8372 106.686 43.374C106.479 42.9107 106.678 42.3635 107.129 42.1513C107.577 41.9399 108.108 42.1393 108.318 42.597ZM108.165 42.6828C108.335 43.063 108.175 43.505 107.811 43.6757C107.447 43.8464 107.016 43.6822 106.85 43.3094C106.683 42.9356 106.843 42.4945 107.207 42.3238C107.569 42.1531 107.996 42.3137 108.165 42.6828Z" fill="#006D56"/>
<path d="M107.106 42.9938V42.4807H107.345C107.652 42.4807 107.74 42.4973 107.815 42.5684C107.877 42.6274 107.903 42.7502 107.873 42.8517C107.855 42.9154 107.804 42.9781 107.749 43.003C107.728 43.0122 107.712 43.0233 107.712 43.027C107.712 43.0307 107.725 43.039 107.74 43.0455C107.788 43.0658 107.83 43.1285 107.924 43.3205L108.016 43.5069H107.741L107.668 43.3565C107.628 43.2743 107.582 43.1913 107.566 43.1728C107.534 43.135 107.494 43.1202 107.418 43.1202H107.365V43.5059H107.108V42.9938H107.106ZM107.547 42.9227C107.565 42.9172 107.591 42.9024 107.602 42.8895C107.621 42.8683 107.625 42.8563 107.625 42.8009C107.625 42.7456 107.621 42.7326 107.602 42.7123C107.573 42.68 107.531 42.669 107.439 42.669H107.363V42.9329H107.439C107.481 42.932 107.529 42.9283 107.547 42.9227Z" fill="#006D56"/>
</g>
<defs>
<clipPath id="clip0_1_182">
<rect width="108.401" height="64" fill="white"/>
</clipPath>
</defs>
<!-- Code injected by live-server -->
<script>
	// <![CDATA[  <-- For SVG support
	if ('WebSocket' in window) {
		(function () {
			function refreshCSS() {
				var sheets = [].slice.call(document.getElementsByTagName("link"));
				var head = document.getElementsByTagName("head")[0];
				for (var i = 0; i < sheets.length; ++i) {
					var elem = sheets[i];
					var parent = elem.parentElement || head;
					parent.removeChild(elem);
					var rel = elem.rel;
					if (elem.href && typeof rel != "string" || rel.length == 0 || rel.toLowerCase() == "stylesheet") {
						var url = elem.href.replace(/(&|\?)_cacheOverride=\d+/, '');
						elem.href = url + (url.indexOf('?') >= 0 ? '&' : '?') + '_cacheOverride=' + (new Date().valueOf());
					}
					parent.appendChild(elem);
				}
			}
			var protocol = window.location.protocol === 'http:' ? 'ws://' : 'wss://';
			var address = protocol + window.location.host + window.location.pathname + '/ws';
			var socket = new WebSocket(address);
			socket.onmessage = function (msg) {
				if (msg.data == 'reload') window.location.reload();
				else if (msg.data == 'refreshcss') refreshCSS();
			};
			if (sessionStorage && !sessionStorage.getItem('IsThisFirstTime_Log_From_LiveServer')) {
				console.log('Live reload enabled.');
				sessionStorage.setItem('IsThisFirstTime_Log_From_LiveServer', true);
			}
		})();
	}
	else {
		console.error('Upgrade your browser. This Browser is NOT supported WebSocket for Live-Reloading.');
	}
	// ]]>
</script>
</svg>
