<svg width="96" height="96" viewBox="0 0 96 96" fill="none" xmlns="http://www.w3.org/2000/svg">
<path fill-rule="evenodd" clip-rule="evenodd" d="M47.9995 96C74.4892 96 95.9995 74.5067 95.9995 48.0175C95.9995 21.507 74.4892 0 47.9995 0C21.507 0 0 21.507 0 48.0175C0 74.5067 21.507 96 47.9995 96Z" fill="black"/>
<path fill-rule="evenodd" clip-rule="evenodd" d="M47.9993 93.4629C73.1076 93.4629 93.4593 73.1047 93.4593 48.0177C93.4593 22.8881 73.1076 2.53418 47.9993 2.53418C22.8877 2.53418 2.53711 22.8881 2.53711 48.0177C2.53711 73.1052 22.8877 93.4629 47.9993 93.4629Z" fill="white"/>
<path fill-rule="evenodd" clip-rule="evenodd" d="M47.9994 91.4432C71.9896 91.4432 91.446 71.989 91.446 48.0174C91.446 24.0065 71.9896 4.55664 47.9994 4.55664C24.0065 4.55664 4.55664 24.0065 4.55664 48.0174C4.55664 71.989 24.0065 91.4432 47.9994 91.4432Z" fill="#C4272F"/>
<path fill-rule="evenodd" clip-rule="evenodd" d="M47.0478 6.97545C46.932 6.95743 46.3617 6.92356 46.0476 7.12457C45.8772 7.24038 46.0476 7.45505 46.028 7.62274C45.9936 8.08977 45.6975 8.52349 45.2605 8.74143C45.1103 8.82337 44.9776 8.84686 44.912 8.97686C44.8618 9.09266 44.8951 9.16094 44.9595 9.20847C45.1955 9.40948 45.4812 9.55587 45.6314 9.85958C45.7958 10.2277 45.8772 10.9575 45.4402 11.4792C45.1098 11.4967 44.646 11.2416 44.4614 11.6294C44.0244 12.6115 43.2782 13.4779 42.2923 14.0984C41.3243 14.75 40.2401 14.9816 39.1689 15.2657C38.4894 15.4804 38.3736 16.1823 38.3364 16.8137L53.6846 18.3039C53.7731 17.6664 53.7998 16.947 53.1864 16.616C52.1879 16.1347 51.1495 15.6983 50.3345 14.8833C49.4829 14.0814 48.9132 13.0786 48.6811 12.0254C48.5647 11.6294 48.0644 11.7796 47.7492 11.6938C47.4296 11.1077 47.647 10.3949 47.883 10.0743C48.0644 9.80769 48.3844 9.72685 48.6466 9.55533C48.7149 9.52474 48.763 9.47722 48.7319 9.34011C48.698 9.20792 48.5816 9.1604 48.4489 9.04405C48.0633 8.75728 47.8655 8.27659 47.913 7.80245C47.93 7.6211 48.1141 7.45395 47.9983 7.30429C47.7131 7.05629 47.1472 6.97545 47.0478 6.97545Z" fill="black"/>
<path fill-rule="evenodd" clip-rule="evenodd" d="M54.4351 19.737C54.469 19.253 54.5548 18.7172 55.0387 18.4888C55.2736 18.3698 55.6221 18.4036 55.8401 18.5358C55.9564 18.6352 56.0586 18.7685 56.1268 18.8876C56.2421 19.1875 56.1908 19.5529 56.1738 19.8708C56.5567 19.9691 56.7883 19.737 57.1871 19.6856C57.9403 19.5698 58.8078 19.737 59.2912 20.3034C59.3595 20.4192 59.3906 20.5531 59.3595 20.6689C59.1437 21.1053 58.6434 21.1698 58.2244 21.2244C57.5585 21.2899 56.9385 20.9895 56.4224 20.6689C56.3371 20.6175 56.2263 20.6006 56.1268 20.6006C56.0921 20.7379 56.0725 20.8785 56.0684 21.0201C56.0586 21.0878 56.0416 21.2894 55.7887 21.3025C55.6363 21.3205 55.6735 21.3025 55.5872 21.3025C55.556 21.6024 55.4888 22.1251 55.4888 22.2885C55.7204 22.3223 56.0236 22.2885 56.1405 22.5244C56.1555 22.5797 56.1567 22.6379 56.1441 22.6938C56.1314 22.7497 56.1052 22.8016 56.0678 22.8451C55.9761 22.9778 55.7199 22.9368 55.6904 23.0696C55.6052 23.2608 55.5697 23.506 55.6554 23.6557C55.7204 23.7715 56.0236 23.7715 56.0236 23.99C56.0236 24.1102 56.0045 24.2052 55.9384 24.2942C55.7379 24.4434 55.455 24.3418 55.2097 24.3418C55.373 24.6892 55.5063 25.0267 55.455 25.4299C55.39 25.8761 55.2097 26.194 54.9366 26.477C55.0732 26.6125 55.6363 26.5622 55.674 26.7938C55.6909 26.9304 55.674 27.0298 55.5877 27.1106C55.4555 27.227 55.2572 27.1958 55.1556 27.3767C55.0895 27.5438 54.8208 27.8131 54.8891 27.9158C55.0054 28.0791 55.0895 28.1616 55.0054 28.4435C54.9743 28.5461 54.9371 28.6106 54.7525 28.6456C54.5553 28.6456 54.5859 28.5942 54.422 28.5773C53.6376 30.6978 53.0029 31.7018 51.5876 33.4137C51.6695 33.5196 51.834 33.6354 51.7553 33.7851C51.687 33.9522 51.3871 34.0681 51.5193 34.2827C51.769 34.4848 52.1169 34.4848 52.3523 34.7405C52.5222 34.9213 52.6724 35.1365 52.6391 35.4014C52.59 35.6368 52.4173 35.8657 52.1721 35.9231C51.8875 35.9886 51.6226 35.8182 51.4379 35.6199C51.2162 35.3845 51.1883 35.0535 50.9332 34.853C50.7049 34.818 50.6197 35.1529 50.3837 35.1359C50.2706 35.1359 50.2035 35.0371 50.1215 34.9688C49.1836 35.7499 47.9317 36.8375 46.4825 37.0696C46.4279 37.2887 46.4617 37.6361 46.1788 37.7043C45.9472 37.7546 45.7669 37.8065 45.5146 37.7852L42.5103 37.4209C42.265 37.3897 41.9913 37.3897 41.7592 37.3051C41.4937 37.1723 41.4118 37.0183 41.4118 36.8031C40.0238 36.2852 38.8745 35.1015 38.1076 34.15C38.0224 34.2013 38.1076 34.1025 37.9874 34.0855C37.7727 34.0511 37.7389 33.6993 37.5067 33.6993C37.2205 33.8496 37.1353 34.1844 36.8693 34.3505C36.6541 34.5182 36.3569 34.634 36.0849 34.5182C35.8533 34.416 35.7364 34.1707 35.7364 33.9178C35.7364 33.6518 35.9347 33.4508 36.1395 33.317C36.4224 33.116 36.7573 33.1842 37.0402 33.0346C37.2205 32.8505 36.9375 32.6653 36.9064 32.4851C36.8381 32.3348 37.0402 32.2464 37.1353 32.1644C36.075 30.2144 35.8533 28.9651 35.4878 26.725C35.3201 26.725 35.1197 26.7457 34.9656 26.6944C34.8526 26.6605 34.7887 26.5715 34.7679 26.4584C34.7411 26.1585 35.023 26.1247 35.1568 25.9914C35.2349 25.9106 35.2043 25.6271 35.1705 25.4457C35.1191 25.2545 34.9012 25.2381 34.805 25.1054C34.7406 25.0093 34.7406 24.9071 34.7679 24.7749C34.8526 24.5586 35.4021 24.6247 35.5528 24.6072C35.3376 24.2768 35.2349 23.9212 35.2349 23.4749C35.2726 23.069 35.4704 22.7719 35.702 22.472C35.4704 22.4245 35.1705 22.4551 35.0061 22.2743C34.9378 22.189 34.9487 22.0732 34.9651 21.9744C35.0224 21.7526 35.3027 21.8039 35.3851 21.7084C35.5037 21.5723 35.5037 21.3205 35.4704 21.1222C35.4534 20.9895 35.2207 20.972 35.1399 20.8224C35.0885 20.7333 35.0885 20.5897 35.1399 20.4875C35.289 20.2865 35.5862 20.3854 35.8008 20.3854C35.8522 20.221 35.886 19.7031 35.903 19.3994C35.8178 19.389 35.8527 19.3994 35.702 19.3683C35.4704 19.3208 35.4873 19.1023 35.4873 19.0378C35.5037 18.9357 35.5348 18.7379 35.5179 18.621C35.4139 18.6041 35.3078 18.6041 35.2038 18.621C34.6346 18.8368 33.9862 19.017 33.3318 18.8188C32.9145 18.686 32.4475 18.5353 32.3317 18.0655C32.3153 17.9328 32.3661 17.817 32.4475 17.717C33.0511 17.2505 33.9174 17.2505 34.6341 17.5023C35.0219 17.6362 35.2202 17.9191 35.6189 17.9022C35.6533 17.5717 35.6675 17.2019 35.8336 16.9326C35.9226 16.8141 36.0554 16.7179 36.1892 16.6497C36.4377 16.5513 36.772 16.5852 36.9867 16.7316C37.4057 17.0692 37.3718 17.4346 37.3035 17.9186L54.4351 19.737ZM45.5473 35.2348C46.2126 35.2987 46.5125 35.2687 46.4442 35.9504C47.8934 35.6505 48.6986 34.9513 49.4671 34.3335C52.7713 31.2511 53.3847 28.3959 53.6579 26.9774C53.5524 26.8271 53.3208 26.7627 53.3547 26.5617C53.3547 26.4278 53.4186 26.2913 53.5519 26.241C53.7737 26.176 54.0053 26.2749 54.2238 26.3093C53.9708 25.8756 53.9228 25.2075 54.1855 24.7438C54.2707 24.5936 54.404 24.4428 54.5067 24.2937C54.2369 24.2254 53.855 24.3276 53.7054 24.0069C53.6852 23.8911 53.6852 23.7584 53.7737 23.6551C53.9058 23.5224 54.1686 23.5738 54.2238 23.3421C54.2363 23.2056 54.2888 23.0423 54.2238 22.9183C54.0735 22.7719 53.7906 22.7074 53.8545 22.4381C53.8725 22.3043 53.9708 22.2229 54.0872 22.1721C54.2363 22.1552 54.404 22.189 54.5854 22.189L54.6192 22.1415L54.7033 21.2069C54.5712 21.1692 54.3565 21.1692 54.3183 20.9715L37.2178 19.3339C37.1326 19.5048 36.9348 19.4748 36.8021 19.4846L36.7032 20.4187L36.7169 20.4673C36.8873 20.5039 37.0676 20.5039 37.2008 20.5525C37.3237 20.617 37.4046 20.7229 37.3882 20.8557C37.4046 21.1217 37.102 21.1386 36.9348 21.2544C36.8354 21.3566 36.8665 21.5379 36.8665 21.6712C36.8665 21.9055 37.1326 21.9055 37.2347 22.0732C37.303 22.1721 37.2724 22.3048 37.2347 22.4245C37.0381 22.708 36.6863 22.5239 36.3853 22.5572C36.4716 22.7216 36.5667 22.8707 36.6213 23.0581C36.8026 23.5568 36.6382 24.2047 36.2837 24.5936C36.5197 24.5936 36.772 24.539 36.9698 24.658C37.0856 24.7263 37.1189 24.8596 37.102 24.9923C37.0856 25.1901 36.8359 25.2075 36.7169 25.3408C36.6038 25.4768 36.6377 25.7079 36.7032 25.8756C36.7851 25.9745 36.9518 25.9914 37.0577 26.0777C37.0959 26.1159 37.1241 26.1628 37.1401 26.2144C37.1561 26.266 37.1593 26.3207 37.1495 26.3738C37.085 26.7113 36.6863 26.6125 36.4547 26.7113C36.5874 28.4435 37.3237 30.582 37.8902 31.646C37.9541 31.6335 37.9847 31.5985 38.0715 31.5816C38.3031 31.5302 38.3534 31.8132 38.49 31.929C38.5724 31.9836 38.6407 31.9836 38.6882 31.9164C38.9712 31.5302 39.3366 30.9818 39.8889 31.0632C40.1068 31.1145 40.3046 31.3156 40.3728 31.5138C40.4373 31.8514 40.257 32.1136 39.991 32.2813C39.7244 32.4861 39.3732 32.4692 39.0914 32.602C38.8554 32.7511 39.2241 32.9494 39.2547 33.1684C39.2547 33.3181 39.1209 33.3831 39.0362 33.4825C39.6709 34.2357 40.339 35.0715 41.7073 35.6374C41.7783 34.9524 42.0754 35.0546 42.7435 35.1196L42.7741 34.6553C42.9068 34.2188 43.446 34.4674 43.76 34.4335C43.8245 34.0511 43.8622 33.6147 43.5579 33.3011C43.3607 33.1171 43.057 33.0663 42.9412 32.8002C42.9243 32.7041 42.9412 32.585 43.0303 32.5167C43.2581 32.3463 43.5416 32.3354 43.777 32.1344C44.0769 31.8651 44.0599 31.4188 44.0599 31.0468C42.7604 30.7939 41.6079 30.2154 40.6427 29.3142C39.0051 27.7448 38.2545 25.6751 38.4905 23.4235C38.5353 22.6533 38.8729 22.0219 39.0056 21.2714C39.1045 20.6683 38.8215 20.1876 38.467 19.7201L38.337 16.8146L53.6852 18.3048L53.0024 21.1222C52.5692 21.521 52.2021 21.9367 52.2021 22.5408C52.171 23.2913 52.3687 23.99 52.283 24.7574C52.0847 27.009 50.9496 28.899 49.0493 30.1155C47.9545 30.8181 46.677 31.1825 45.3764 31.1632C45.3108 31.5313 45.2119 31.9847 45.4408 32.2982C45.632 32.5342 45.9149 32.6025 46.1127 32.8172C46.1771 32.8854 46.1771 33.0182 46.1438 33.1171C45.9805 33.3487 45.6801 33.3323 45.4408 33.4825C45.0792 33.7381 44.6777 33.9834 44.6597 34.3685L45.5473 35.2348ZM78.711 73.0579C78.9268 73.7898 79.178 74.7053 80.0487 74.9271C80.2121 74.9774 80.4 74.991 80.5802 75.0079C80.5644 75.2598 80.5469 75.6214 80.5332 75.776C78.8612 75.8601 77.1564 75.9934 75.4751 76.1769C75.4751 75.9284 75.509 75.6416 75.5264 75.3936C75.9733 75.3411 76.3791 75.1909 76.6102 74.7419C76.8259 74.3557 76.7265 73.8712 76.644 73.4555L76.4436 72.4559C75.4237 72.4909 74.3897 72.5903 73.3868 72.6897C73.1246 73.2381 72.8887 73.8248 72.7565 74.4213C72.6915 74.7053 72.7395 75.0593 72.9739 75.2598C73.2191 75.4722 73.537 75.5094 73.8582 75.5263C73.8582 75.7918 73.8233 76.0403 73.79 76.3107C72.3539 76.4101 70.9692 76.5123 69.5675 76.6925C69.5539 76.5292 69.5845 76.2457 69.6358 75.9043C69.8113 75.8619 69.9841 75.8088 70.1531 75.7454C71.1358 75.3422 71.4226 74.2072 71.8388 73.361C72.739 71.2061 73.6534 69.0201 74.5399 66.8668C74.222 66.2982 73.537 66.1851 72.9548 66.1305C72.9739 65.9022 72.9739 65.6323 73.0389 65.4007C74.2051 65.3494 75.4915 65.2128 76.6921 65.0795C77.0914 66.7516 78.2604 71.3553 78.711 73.0579ZM73.8063 71.6562C74.553 71.6213 75.4237 71.5743 76.2109 71.4885C76.0093 70.6359 75.7275 69.3708 75.3582 67.9009C74.8263 69.1466 74.309 70.3984 73.8063 71.6562ZM59.1443 78.0603C59.9434 78.074 60.7649 78.0264 61.5428 77.8631C62.0442 77.7266 62.4473 77.495 62.7806 76.9072C62.9106 76.6243 62.999 76.2769 63.0848 75.977C63.3983 75.9633 63.6141 75.9458 63.9309 75.9289C63.7798 76.9238 63.6637 77.9236 63.583 78.9266C61.4281 79.0293 57.6585 79.38 55.8548 79.5816C57.2428 77.194 58.5794 74.6769 59.8587 72.2352C60.3465 71.2493 60.8977 70.2874 61.3106 69.3025C60.6426 69.3025 59.9609 69.3364 59.3261 69.4871C59.0902 69.5374 58.8771 69.6707 58.6745 69.8198C58.2075 70.2185 57.9928 70.7544 57.8901 71.3072C57.6246 71.3553 57.3247 71.3553 57.0374 71.3722C57.1401 70.9358 57.3242 69.2856 57.41 68.4362C57.9414 68.3679 58.562 68.3542 59.0902 68.2996V68.3166C60.8305 68.1674 62.7123 68.05 64.5514 67.8353C62.8281 71.021 61.1265 74.0733 59.1443 78.0603Z" fill="black"/>
<path fill-rule="evenodd" clip-rule="evenodd" d="M66.1336 80.4781C66.935 80.4781 67.7669 80.4311 68.5343 80.2607C69.056 80.1476 69.4531 79.9127 69.7858 79.3124C69.9201 79.0295 70.0015 78.699 70.0867 78.3778C70.4068 78.3609 70.6051 78.3478 70.9187 78.3478C70.7887 79.3124 70.6565 80.3459 70.5882 81.3488C68.4366 81.4296 64.6637 81.8022 62.8469 81.9824C64.2475 79.5981 65.5847 77.0778 66.8541 74.6394C67.3343 73.6578 67.8881 72.7062 68.3202 71.7066C67.6543 71.7066 66.9661 71.7405 66.3325 71.888C66.0828 71.9563 65.8845 72.0715 65.6666 72.225C65.2121 72.6238 64.9975 73.1563 64.8997 73.7228C64.6331 73.7599 64.3332 73.7599 64.0465 73.7774C64.136 73.3612 64.3332 71.6864 64.4004 70.837C64.9477 70.7687 65.5677 70.7687 66.0998 70.7218C67.8357 70.5715 69.7175 70.4552 71.5556 70.2575C69.8377 73.4262 68.1192 76.4753 66.1336 80.4781ZM57.4741 66.7004C56.805 66.7686 56.2271 67.1335 55.9387 67.7502C55.7895 68.0714 55.7049 68.4019 55.6366 68.7488C55.4203 70.4077 55.257 72.071 55.1073 73.7599C55.1242 74.4897 54.8577 75.5095 55.5874 75.9771C55.8704 76.1262 56.1741 76.1776 56.5264 76.1437L56.4412 76.9494C54.5862 77.0412 52.8896 77.1777 51.0356 77.3624C51.0657 77.0925 51.0657 76.7959 51.1318 76.5304C51.5191 76.4758 51.9053 76.3939 52.1893 76.1442C52.8901 75.4254 52.9213 74.4564 53.0715 73.542C53.2698 71.8743 53.45 70.2198 53.5358 68.5182C53.5915 68.0725 53.4506 67.5973 53.0715 67.3351C52.7885 67.1346 52.458 67.0866 52.103 67.0866L52.1893 66.2994C53.9411 66.2 55.7901 66.0498 57.5599 65.8865L57.4741 66.7004Z" fill="black"/>
<path fill-rule="evenodd" clip-rule="evenodd" d="M42.4914 80.4682C43.1638 80.4098 43.7772 80.1143 44.0777 79.4823C44.3644 78.8486 44.4802 78.0741 44.5786 77.3443C44.8112 75.1582 45.1111 72.9891 45.1963 70.7681C45.2133 70.2367 45.0942 69.7183 44.661 69.4047C44.365 69.2032 44.0132 69.1518 43.6456 69.1518L43.7308 68.3166C44.7807 68.2216 45.8622 68.1675 46.9503 68.0501C48.1335 67.9692 49.4373 67.6863 50.5861 68.0031C51.3393 68.2216 51.8511 68.9535 51.9369 69.7013C52.0396 70.8206 51.7222 71.989 51.217 73.0099C50.5866 74.257 49.5537 75.7241 48.0007 75.7924C47.5987 75.8126 47.2169 75.6805 46.882 75.4587C46.7662 76.561 46.5991 77.6447 46.5991 78.7935C46.6155 79.1966 46.7324 79.5478 47.0492 79.7963C47.384 80.0323 47.7817 80.0323 48.1815 80.0148C48.1815 80.3147 48.1335 80.6004 48.1023 80.8675C46.1615 81.0166 44.3469 81.1297 42.3931 81.3318C42.3988 81.0415 42.4317 80.7524 42.4914 80.4682ZM47.0312 74.0734C47.13 74.1248 47.2977 74.3252 47.6648 74.2881C48.1662 74.24 48.7157 73.8932 49.25 72.4746C49.9158 70.6185 49.6329 69.9056 49.3494 69.5686C49.0304 69.1699 48.4628 69.1699 47.5796 69.3201C47.478 69.916 47.1164 73.1388 47.0312 74.0734ZM83.2516 43.512C82.766 43.8119 82.0985 43.9108 81.4976 43.5765C81.0164 43.2766 80.7509 42.8396 80.7509 42.3114C80.782 41.7422 80.9153 41.4216 81.2321 41.0731C80.5641 40.8415 79.8163 41.0731 79.2946 41.5068C78.8145 41.9613 78.531 42.5567 78.6812 43.2127C79.0461 44.9787 80.8159 46.2099 81.9002 47.6662C83.0161 48.9837 83.6339 50.701 83.1696 52.5064C82.5688 54.7093 80.9153 56.2404 79.1455 56.6223C77.6958 56.9232 76.1773 56.6392 75.2088 55.5587C74.6401 54.8727 74.3086 54.0205 74.5069 53.1039C74.6571 52.5064 74.9903 51.8673 75.5939 51.5849C76.0795 51.3396 76.7781 51.3194 77.2451 51.6029C77.6614 51.8514 78.0432 52.2846 78.0771 52.7691C78.0771 53.1853 77.9776 53.5573 77.7805 53.8872C77.6608 54.1232 77.4434 54.2723 77.2309 54.3887C77.7258 54.7399 78.6468 54.7749 79.2302 54.4226C80.0146 53.9894 80.4303 53.1679 80.4122 52.3217C80.3609 50.5645 78.8609 49.4371 77.811 48.0999C76.3602 46.5988 75.1607 44.6269 75.9932 42.4785C76.594 40.6443 78.4627 39.17 80.3991 39.0373C81.8117 38.9384 83.2155 39.4262 83.9016 40.7421C84.2812 41.6565 84.1895 42.9248 83.2516 43.512ZM74.7723 47.765C74.7254 46.6294 74.1076 45.4452 72.9927 45.0437C70.7384 44.232 68.5185 45.3982 66.918 46.9462C64.6156 49.5004 63.5319 52.7511 63.982 56.3082C64.2179 58.031 65.3836 59.8276 67.1327 60.3601C69.5203 61.0588 71.9592 60.0422 73.439 58.0064C73.7771 57.5563 74.2916 57.0281 73.9104 56.5917C73.6542 56.3557 73.0571 55.6527 72.6748 55.9569C72.0368 56.5392 71.5555 57.3247 70.7886 57.7737C70.0184 58.2282 68.9238 58.303 68.1694 57.7737C67.5483 57.375 67.3342 56.7026 67.2348 56.0591C67.2179 55.6707 67.1709 55.2365 67.284 54.859C68.3677 54.6017 69.4039 54.2712 70.4068 53.8037C72.6748 52.7374 74.7893 50.582 74.7723 47.765ZM69.5853 51.9842C68.9336 52.4687 68.1875 52.7374 67.3992 52.9007H67.3681C67.5484 51.0998 68.07 49.4152 69.1521 48.0179C69.7175 47.3455 70.4718 46.7485 71.3764 46.9468C71.7402 47.097 71.9417 47.5296 71.9729 47.9147C72.0226 49.6157 70.8875 50.9676 69.5853 51.9842ZM39.6914 50.3542C39.6444 49.218 39.0222 48.048 37.9046 47.6492C35.6536 46.8348 33.4331 47.9999 31.8332 49.5316C29.5314 52.1027 28.4465 55.3533 28.901 58.9115C29.1288 60.6294 30.2819 62.4298 32.0309 62.9591C34.4355 63.6611 36.8673 62.6287 38.3536 60.6131C38.6885 60.1586 39.2069 59.6293 38.8207 59.1928C38.5721 58.958 37.9713 58.255 37.5692 58.5592C36.9351 59.1426 36.4549 59.927 35.7006 60.3601C34.9364 60.8305 33.8352 60.9086 33.0644 60.3771C32.4674 59.9783 32.2494 59.3059 32.1468 58.6586C32.1342 58.2768 32.0823 57.8404 32.1981 57.4607C33.2829 57.2089 34.3159 56.8752 35.3018 56.4076C37.5873 55.3391 39.7089 53.1842 39.6914 50.3542ZM34.5005 54.5864C33.8526 55.0698 33.1027 55.3397 32.315 55.4899H32.2811C32.4685 53.7059 32.983 52.0186 34.0679 50.6027C34.6343 49.9314 35.3843 49.3163 36.2703 49.5316C36.6527 49.6818 36.8504 50.1013 36.8881 50.5C36.9362 52.219 35.8 53.5726 34.5005 54.5864Z" fill="black"/>
<path fill-rule="evenodd" clip-rule="evenodd" d="M45.8135 37.7208L45.2263 43.328C47.1158 42.9904 49.599 42.6588 51.0519 44.3642C52.2018 45.6806 52.2832 47.6487 51.9172 49.3158C51.2835 52.1677 50.2506 54.906 48.1154 57.1401C47.0988 58.1048 45.8305 58.8586 44.3087 58.5248L43.7083 58.255C43.3609 60.9796 40.9941 84.9321 40.4555 90.791C39.3346 90.5959 38.2218 90.357 37.1196 90.0749C38.0876 81.2625 41.1268 53.3716 41.6081 47.3614C41.6392 46.9801 41.5431 46.6627 41.4409 46.5327C40.9258 45.8303 40.0081 46.294 39.2887 46.311C39.1047 46.294 38.9036 46.1952 38.9036 46.028C38.9036 45.4627 38.8731 44.5269 39.2243 44.3948C40.1075 44.0599 41.0897 43.9441 42.045 43.7431L42.6923 37.4204L45.8135 37.7208ZM43.9099 55.8919C43.9585 56.0422 44.1076 56.0596 44.2305 56.1405C45.1957 56.3721 46.0479 55.6527 46.5766 54.859C47.3993 53.6201 47.8838 52.2354 48.2481 50.8169C48.5322 49.4502 49.0025 47.6285 48.1973 46.3284C47.532 45.2818 46.1304 45.3813 45.0461 45.5484C44.6604 48.8794 44.1666 53.9375 43.9099 55.8919Z" fill="black"/>
<path fill-rule="evenodd" clip-rule="evenodd" d="M52.4168 59.7593C52.3207 60.4241 52.1885 61.0801 51.8504 61.6422C51.3222 62.7134 50.1849 62.9106 49.2503 63.282C48.9646 63.4322 49.0307 64.115 49.0307 64.5143C49.0498 64.6634 49.2175 64.7317 49.3497 64.7317C52.0683 64.398 54.7525 64.0298 57.5766 64.0019C57.8901 64.0019 58.361 63.9784 58.4085 63.7152C58.4599 63.4322 58.674 62.597 58.2965 62.5118C57.7918 62.3616 57.0549 62.4299 56.5426 62.1638C55.8876 61.7957 55.721 61.2604 55.7052 60.9638C55.5572 60.1411 55.8543 56.8233 56.0925 55.1239L56.69 55.3872C58.2069 55.7396 59.4769 54.9743 60.5104 54.0069C62.6484 51.7684 63.6824 49.0334 64.3161 46.1957C64.6853 44.5144 64.5815 42.5561 63.4464 41.2228C61.9967 39.518 59.4961 39.8583 57.6077 40.1893C57.7273 39.1864 57.8907 37.4374 57.9726 36.6868C58.0578 35.9336 57.7273 35.7899 57.4105 35.7702C56.9593 35.7183 56.2061 35.6501 55.6374 35.6364C55.0901 35.5987 54.8416 35.7899 54.8214 36.3558C54.7946 36.9151 54.5728 39.1695 54.4226 40.6257C53.4711 40.8071 52.4851 40.9267 51.6062 41.2572C51.255 41.4063 51.2714 42.3415 51.2714 42.8975C51.285 43.0609 51.4828 43.1597 51.6701 43.1947C52.3901 43.1603 53.3034 42.7064 53.8228 43.3913C53.9244 43.5279 54.02 43.842 53.9905 44.2309C53.8376 46.8162 53.1701 53.7884 52.4168 59.7593ZM57.4258 42.407C58.5107 42.2426 59.9128 42.141 60.5913 43.1952C61.397 44.4969 60.9283 46.3284 60.6426 47.6968C60.2608 49.0984 59.7796 50.5001 58.958 51.7346C58.4085 52.5228 57.5766 53.2389 56.6087 53.004C56.489 52.9177 56.3377 52.9008 56.2907 52.768C56.5426 50.8169 57.0375 45.7631 57.4258 42.407ZM19.7874 40.7601C19.3034 46.3596 18.72 52.0186 18.1022 57.5569C17.9318 59.1432 17.6489 60.9807 15.9818 61.6258C15.4628 61.9661 14.4976 61.6941 14.3988 62.5123C14.3988 62.809 14.2147 63.2825 14.4976 63.512C14.9679 63.6999 15.4628 63.4983 15.9124 63.4808C18.7845 63.0957 21.6867 62.8674 24.6609 62.7445C24.8111 62.7308 24.9914 62.6451 25.04 62.4779C25.0263 62.0448 25.4459 61.3117 24.8253 61.1134C24.29 60.9938 23.5084 61.0452 22.9561 60.7764C22.4372 60.5098 22.0898 59.9953 21.9909 59.4387C21.868 57.192 22.2744 55.006 22.4372 52.8057C22.754 52.9177 23.038 53.1034 23.3756 53.2007C25.6769 53.7884 27.7641 52.4687 29.0641 50.6186C29.647 49.814 30.1757 48.952 30.5483 48.0813C31.6489 45.5304 32.802 42.0274 31.1994 39.3202C29.8283 37.2735 27.2118 37.4204 24.9745 37.6045C22.2089 37.9011 19.4356 38.2906 16.7312 38.8051C14.6473 39.2208 12.346 40.009 11.3906 42.1781C10.7122 43.4765 10.7767 45.3458 11.5272 46.5983C12.4995 48.0338 14.0142 48.4162 15.518 48.1665C16.8 47.8972 17.8193 46.9807 18.1203 45.8303C18.3825 44.8115 18.2699 43.6748 17.4315 42.9735C16.8989 42.5561 15.9992 42.5425 15.4328 42.874C14.9346 43.1433 14.6478 43.6442 14.5801 44.173C14.532 44.6777 14.6959 45.1284 15.1018 45.4452C15.2651 45.5954 15.613 45.4632 15.6502 45.78C15.6338 45.9641 15.5011 46.0635 15.3296 46.1444C14.7981 46.3798 14.2496 46.1444 13.799 45.797C13.1643 45.2179 13.1435 44.2626 13.3789 43.4951C13.8629 41.9433 15.5175 41.4418 16.9153 41.1758C18.017 40.9944 19.7874 40.7601 19.7874 40.7601ZM22.6256 50.3679C22.9561 47.062 23.3456 43.5934 23.7066 40.2925C25.0263 40.156 26.724 39.8588 27.5259 41.1758C28.2972 42.3934 27.84 44.4117 27.6281 45.3086C27.2266 46.7955 26.7454 48.1977 25.8621 49.4835C25.1591 50.4012 24.5926 50.753 23.7066 50.7699C23.2587 50.753 22.8534 50.517 22.6256 50.3679Z" fill="black"/>
<path fill-rule="evenodd" clip-rule="evenodd" d="M45.9811 6.07484C46.0794 6.09177 46.6453 6.17371 46.9327 6.42334C47.0654 6.55608 46.8644 6.74016 46.8474 6.90676C46.7988 7.37106 46.9966 7.87578 47.3997 8.15873C47.5324 8.27836 47.6482 8.32643 47.6854 8.45862C47.7132 8.59245 47.6646 8.62577 47.5974 8.67384C47.3314 8.82405 47.0135 8.92347 46.8163 9.19549C46.5765 9.50958 46.3618 10.212 46.6825 10.8124C47.013 10.8943 47.5149 10.731 47.6275 11.1428C47.8732 12.2345 48.4454 13.2256 49.2678 13.9843C50.0784 14.8201 51.1168 15.2533 52.1154 15.7165C52.7397 16.0682 52.702 16.7849 52.6201 17.4016L37.2725 15.9142C37.3031 15.3002 37.4189 14.5808 38.0874 14.3662C39.1695 14.0996 40.2576 13.8653 41.2086 13.2136C42.2077 12.5958 42.9577 11.73 43.3914 10.731C43.5782 10.3628 44.0425 10.5971 44.3735 10.5807C44.81 10.0591 44.7319 9.32932 44.5614 8.97809C44.4112 8.67438 44.107 8.52471 43.8923 8.31004C43.824 8.26143 43.7929 8.21063 43.8404 8.091C43.9087 7.96154 44.0245 7.94079 44.1747 7.84519C44.6281 7.64418 44.9116 7.1908 44.9591 6.72705C44.9771 6.55662 44.81 6.35451 44.9771 6.22615C45.2918 6.03715 45.8609 6.07484 45.9811 6.07484Z" fill="white"/>
<path fill-rule="evenodd" clip-rule="evenodd" d="M82.6478 40.0235C81.965 38.7071 80.5645 38.2188 79.1454 38.3253C77.2144 38.458 75.3419 39.9241 74.7629 41.7622C73.9102 43.9116 75.1245 45.8797 76.5764 47.3999C77.6104 48.7169 79.1142 49.8623 79.1787 51.6218C79.1787 52.4548 78.7635 53.2861 77.9786 53.7062C77.3952 54.0531 76.4786 54.0378 75.9739 53.6723C76.2121 53.5571 76.4104 53.4194 76.5426 53.1676C76.7272 52.8371 76.8435 52.469 76.8266 52.0697C76.7955 51.5671 76.4278 51.1307 75.9947 50.8822C75.5276 50.6189 74.8274 50.6189 74.3434 50.8652C73.7436 51.1684 73.4257 51.8031 73.2766 52.3898C73.0581 53.3042 73.3886 54.1563 73.9594 54.8593C74.9443 55.9403 76.4453 56.2227 77.8939 55.9092C79.6681 55.5197 81.3325 53.9886 81.9361 51.8026C82.3818 49.9858 81.7859 48.263 80.6497 46.946C79.5649 45.4968 77.8131 44.2792 77.4307 42.4925C77.2805 41.8436 77.5809 41.24 78.0442 40.7904C78.5658 40.3704 79.3136 40.1251 79.9986 40.3573C79.6851 40.7112 79.5343 41.0428 79.5174 41.5918C79.5174 42.1271 79.767 42.5739 80.2641 42.8568C80.8507 43.1955 81.5155 43.0956 82.0044 42.7924C82.9302 42.2096 83.0532 40.957 82.6478 40.0235ZM69.152 53.1037C68.1524 53.5571 67.1161 53.887 66.0483 54.1568C65.915 54.5185 65.9832 54.9549 65.9832 55.34C66.0827 56.0091 66.317 56.6564 66.9179 57.0557C67.6657 57.6085 68.7701 57.5102 69.554 57.0557C70.3051 56.6089 70.7885 55.8245 71.4232 55.2379C71.8083 54.938 72.4059 55.6366 72.6577 55.8759C73.0395 56.309 72.5179 56.8383 72.1874 57.3119C70.7033 59.3242 68.2856 60.361 65.8844 59.6443C64.1359 59.109 62.962 57.3119 62.7299 55.606C62.2978 52.0353 63.369 48.8026 65.6872 46.2484C67.2844 44.6791 69.4906 43.5129 71.7406 44.3486C72.8598 44.7266 73.4743 45.9136 73.5213 47.0492C73.5377 49.8825 71.4232 52.0183 69.152 53.1037ZM70.7202 47.2131C70.7033 46.8171 70.4886 46.3981 70.1237 46.2479C69.2192 46.0294 68.4703 46.6297 67.9208 47.2983C66.8327 48.7169 66.3012 50.3856 66.1133 52.1888H66.1504C66.9517 52.0189 67.6815 51.7523 68.3364 51.2853C69.6359 50.2507 70.7688 48.901 70.7202 47.2131ZM34.0677 55.7043C33.0648 56.1577 32.0314 56.4887 30.9476 56.7586C30.8307 57.1202 30.8957 57.5566 30.8957 57.9417C30.9979 58.6109 31.2197 59.2582 31.8336 59.6602C32.5809 60.2097 33.6892 60.1103 34.4665 59.6602C35.2197 59.2112 35.701 58.4257 36.339 57.8401C36.7181 57.5391 37.3249 58.2389 37.5702 58.477C37.9553 58.9113 37.4375 59.4384 37.1032 59.9131C35.6196 61.9282 33.1839 62.9589 30.7974 62.2493C29.044 61.7108 27.8811 59.9131 27.6423 58.211C27.1961 54.6403 28.2771 51.4033 30.5827 48.8289C32.1991 47.2803 34.3988 46.113 36.6531 46.9454C37.7718 47.3305 38.3928 48.4978 38.4398 49.6329C38.4573 52.4859 36.339 54.6206 34.0677 55.7043ZM35.6371 49.7973C35.6027 49.3986 35.4011 48.9834 35.0362 48.8299C34.1366 48.6142 33.386 49.2183 32.8365 49.8831C31.732 51.3191 31.2202 52.9868 31.029 54.7845H31.0667C31.8648 54.6211 32.6022 54.3546 33.2533 53.887C34.5517 52.8541 35.6846 51.5032 35.6371 49.7973ZM43.9754 42.6116L44.6128 36.8379C44.8625 36.8515 45.1274 36.9023 45.377 36.8515C45.6632 36.786 45.6321 36.4517 45.6632 36.2376C47.1304 35.9879 48.4813 35.0369 49.4006 34.2487C49.4836 34.317 49.5519 34.4164 49.6628 34.4164C49.8988 34.4333 50.0053 34.1023 50.2123 34.1329C50.4685 34.3339 50.4991 34.6824 50.7181 34.9031C50.9017 35.1189 51.1682 35.2855 51.4544 35.2041C51.6997 35.1527 51.8707 34.9381 51.9177 34.6824C51.9526 34.4328 51.8193 34.2012 51.6347 34.0368C51.4031 33.7844 51.0524 33.7675 50.8006 33.5665C50.6662 33.348 50.9661 33.2316 51.0355 33.0656C51.1316 32.9317 50.9503 32.7995 50.8678 32.7029C52.2836 30.9981 52.7539 29.7974 53.5351 27.6802C53.7055 27.707 53.8863 27.7753 54.0365 27.7441C54.1687 27.7277 54.2539 27.6589 54.2894 27.5431C54.3713 27.2602 54.1217 27.1782 54.0054 27.0286C53.9404 26.9291 54.019 26.6598 54.0873 26.4758C54.1682 26.3086 54.3872 26.3419 54.5205 26.2234C54.6024 26.1415 54.6199 26.042 54.6024 25.9093C54.5713 25.6739 54.0048 25.6427 53.8726 25.5914C54.1381 25.2953 54.3184 24.9703 54.3866 24.5377C54.4347 24.1209 54.3025 23.7872 54.1381 23.4567C54.3708 23.4567 54.6707 23.5556 54.857 23.3912C54.9362 23.3229 54.9564 23.2043 54.9564 23.1082C54.9362 22.8864 54.6521 22.8864 54.5849 22.7706C54.5057 22.604 54.5369 22.355 54.6188 22.1878C54.6521 22.0376 54.8875 22.0889 55.0039 21.9562C55.0722 21.8672 55.1066 21.7344 55.0552 21.6186C54.9558 21.404 54.6521 21.4373 54.4205 21.404C54.4205 21.2226 54.4888 20.7042 54.5199 20.418H54.7171C54.9733 20.4011 54.9913 20.1864 54.9913 20.1181C55.0039 20.0329 55.0039 19.821 55.0552 19.7019C55.1547 19.7188 55.2726 19.7357 55.3518 19.7696C55.8691 20.1012 56.488 20.3841 57.1604 20.3158C57.5756 20.2853 58.0737 20.2028 58.2955 19.7696C58.3081 19.7087 58.3082 19.646 58.2959 19.5851C58.2836 19.5241 58.2591 19.4663 58.224 19.4151C57.7427 18.8361 56.8731 18.6689 56.1264 18.7847C55.72 18.8492 55.4704 19.0846 55.0886 18.9825C55.1066 18.6509 55.1705 18.2795 55.0552 17.9965C54.9884 17.8616 54.8929 17.7429 54.7756 17.6486C54.5538 17.5011 54.2058 17.4672 53.9699 17.5836C53.4854 17.8332 53.4001 18.3478 53.369 18.8487L52.4825 18.7678L52.5475 18.0817L37.2173 16.5982L37.1491 17.2881L36.2691 17.2018C36.322 16.7019 36.339 16.183 35.9227 15.8498C35.701 15.6996 35.3705 15.6657 35.1181 15.7646C34.9887 15.8121 34.8516 15.935 34.7669 16.0503C34.5992 16.3169 34.5856 16.6812 34.5309 17.0051C34.1529 17.016 33.9514 16.7495 33.5657 16.6173C32.8502 16.3513 31.9838 16.3513 31.3824 16.832C31.2945 16.9172 31.23 17.0499 31.2639 17.1695C31.3824 17.6366 31.8511 17.8004 32.2499 17.9201C32.9141 18.1178 33.5657 17.9512 34.136 17.736C34.2169 17.7021 34.3507 17.7021 34.4528 17.7179C34.4665 17.8518 34.4359 18.0528 34.419 18.1511C34.419 18.2057 34.3982 18.4177 34.6342 18.4892C34.7877 18.5198 34.75 18.5029 34.8352 18.5198C34.8139 18.8197 34.7877 19.3343 34.7401 19.5058C34.5184 19.485 34.2174 19.4004 34.0683 19.6079C34.0448 19.6598 34.0326 19.7162 34.0326 19.7732C34.0326 19.8301 34.0448 19.8865 34.0683 19.9384C34.1535 20.0892 34.3851 20.0892 34.3987 20.2383C34.4364 20.4196 34.4364 20.6693 34.3168 20.8086C34.2354 20.9244 33.9525 20.8561 33.9006 21.0751C33.8869 21.1702 33.87 21.2898 33.9355 21.3712C34.1016 21.5733 34.3851 21.5219 34.6342 21.5733C34.3982 21.8693 34.2005 22.1736 34.1699 22.5887C34.1699 23.0432 34.2687 23.3742 34.484 23.7255C34.3337 23.7424 33.7848 23.6561 33.6996 23.8915C33.669 24.0073 33.6509 24.1231 33.7373 24.2264C33.8361 24.3591 34.0513 24.3591 34.1016 24.5596C34.136 24.7447 34.1699 25.0266 34.0847 25.1063C33.9355 25.2391 33.669 25.2724 33.6996 25.5597C33.7071 25.6157 33.7298 25.6686 33.7653 25.7126C33.8007 25.7566 33.8475 25.79 33.9006 25.8094C34.0513 25.864 34.248 25.8252 34.4195 25.8432C34.7877 28.0806 35.0056 29.3288 36.0735 31.2695C35.9681 31.3515 35.7698 31.4509 35.8343 31.6C35.8687 31.7841 36.1522 31.9485 35.9681 32.1353C35.6846 32.2823 35.3541 32.2304 35.0706 32.4352C34.8729 32.569 34.6719 32.7695 34.6719 33.0361C34.6511 33.2638 34.7877 33.537 35.0226 33.6151C35.2886 33.7544 35.5857 33.6358 35.8004 33.4725C36.0735 33.2846 36.1522 32.9678 36.4378 32.817C36.6695 32.817 36.6875 33.1682 36.9191 33.1988C37.0393 33.2158 37.1201 33.1306 37.219 33.083C37.9722 34.0373 39.1395 35.2216 40.5232 35.7323C40.5232 35.9513 40.4254 36.2856 40.6941 36.4042C40.9257 36.5036 41.1923 36.4894 41.4408 36.538L40.8061 43.0409C39.8409 43.2288 38.8724 43.3446 37.9722 43.6757C37.6248 43.8259 37.6554 44.7605 37.6554 45.3089C37.6554 45.4799 37.8701 45.5793 38.0405 45.6126C38.7544 45.5787 39.671 45.1286 40.2063 45.8136C40.2916 45.9475 40.3904 46.2643 40.3566 46.6461C39.8409 53.0677 36.4204 84.4828 35.701 90.8874L39.1215 90.9901C39.4225 87.4707 42.0925 60.4413 42.4607 57.5397L43.0746 57.8095C44.5784 58.1597 45.8615 57.3922 46.8808 56.4248C49.0029 54.1874 50.0484 51.4519 50.6832 48.5973C51.0355 46.9296 50.9497 44.9784 49.7977 43.6451C48.3469 41.9435 45.861 42.274 43.9754 42.6116ZM42.6589 55.1903C42.9075 53.2392 43.4291 48.1674 43.7946 44.8288C44.8756 44.6616 46.2772 44.5622 46.9666 45.6126C47.7613 46.9127 47.314 48.7365 47.0141 50.101C46.629 51.5202 46.1614 52.9174 45.33 54.1563C44.7975 54.9374 43.9448 55.653 42.973 55.4214C42.8594 55.3395 42.7103 55.3225 42.6589 55.1903ZM52.7403 43.5123C52.5901 46.0971 51.9177 53.0687 51.1688 59.061C51.0655 59.7257 50.9328 60.3605 50.6012 60.9258C50.0697 61.997 48.9445 62.2117 47.9995 62.5634C47.7335 62.7136 47.8012 63.3953 47.8192 63.7946C47.8192 63.9623 47.9826 64.0306 48.1016 64.0121C50.8164 63.6996 53.5039 63.3303 56.3236 63.2823C56.6552 63.2823 57.1118 63.2664 57.161 62.9993C57.2036 62.7136 57.4254 61.897 57.0545 61.796C56.5421 61.6627 55.8063 61.7108 55.2879 61.4436C54.6401 61.0799 54.4697 60.5473 54.4527 60.2436C54.3036 59.4286 54.6204 56.1244 54.8411 54.4048L55.4556 54.6681C56.9589 55.0221 58.2382 54.271 59.258 53.3036C61.397 51.0662 62.448 48.317 63.0849 45.4799C63.4329 43.8117 63.3471 41.8436 62.1984 40.52C60.7487 38.8223 58.2382 39.1556 56.3564 39.4904C56.4749 38.4875 56.6393 36.7172 56.7245 35.971C56.8054 35.2205 56.4749 35.0883 56.1592 35.0533C55.7058 35.0189 54.9749 34.9512 54.4052 34.9206C53.8388 34.8862 53.5913 35.0883 53.57 35.6503C53.5362 36.2059 53.3215 38.4711 53.1882 39.9072C52.2197 40.0874 51.2551 40.2202 50.3538 40.5381C50.0069 40.6916 50.0337 41.6289 50.0337 42.1784C50.0337 42.3417 50.2522 42.4614 50.4221 42.4783C51.1327 42.4614 52.0531 41.99 52.571 42.676C52.672 42.8301 52.7709 43.1261 52.7403 43.5123ZM55.0394 52.0484C55.2879 50.1016 55.8063 45.0604 56.1745 41.6945C57.256 41.524 58.6582 41.4213 59.3443 42.4925C60.1423 43.7953 59.6944 45.6126 59.3913 46.9979C59.0094 48.3951 58.5419 49.7831 57.7099 51.0154C57.1774 51.8026 56.3241 52.5231 55.3535 52.2838C55.2399 52.2193 55.0891 52.1882 55.0394 52.0484ZM15.6672 40.4731C16.7826 40.2748 18.5568 40.0405 18.5568 40.0405C18.0652 45.6437 17.4681 51.3028 16.8509 56.858C16.6837 58.4262 16.4002 60.2752 14.7293 60.9089C14.2148 61.247 13.2463 60.9804 13.1638 61.7965C13.143 62.1133 12.9797 62.5634 13.2463 62.7961C13.7095 62.9829 14.2142 62.7781 14.6818 62.7612C17.537 62.3793 20.4386 62.1477 23.4096 62.0325C23.5559 62.0145 23.74 61.9293 23.7919 61.7583C23.7919 61.3295 24.1869 60.5953 23.5734 60.3949C23.0387 60.2752 22.2745 60.3266 21.7042 60.0644C21.1896 59.7946 20.8379 59.2789 20.7363 58.7267C20.6205 56.4767 21.022 54.2896 21.1897 52.0877C21.5076 52.2199 21.7894 52.4012 22.1243 52.4865C24.4256 53.0687 26.5067 51.7523 27.8133 49.9017C28.3962 49.0992 28.9282 48.2329 29.2964 47.4004C30.415 44.8129 31.5687 41.3094 29.948 38.6082C28.5808 36.5691 25.9616 36.7057 23.7242 36.8859C20.9542 37.1995 18.1853 37.5709 15.4848 38.1106C13.397 38.5055 11.1094 39.2905 10.1442 41.4596C9.46195 42.7651 9.52968 44.648 10.2966 45.8797C11.2618 47.3152 12.7667 47.7184 14.2814 47.4655C15.5651 47.182 16.5679 46.2643 16.8678 45.1292C17.1371 44.0995 17.0312 42.9634 16.179 42.2615C15.6503 41.8447 14.7632 41.8277 14.1984 42.1626C13.6838 42.4248 13.3965 42.947 13.349 43.461C13.2807 43.9761 13.4648 44.4125 13.8635 44.7261C14.0143 44.8763 14.3655 44.7605 14.3988 45.0604C14.3819 45.2445 14.2497 45.3466 14.082 45.4318C13.5467 45.6645 12.9972 45.4455 12.5465 45.0811C11.9298 44.4967 11.8949 43.5593 12.1265 42.7755C12.6154 41.2236 14.2803 40.7424 15.6672 40.4731ZM22.4542 50.0535C22.0008 50.0366 21.6228 49.7973 21.3868 49.6515C21.7037 46.3599 22.0898 42.8749 22.4542 39.5931C23.7712 39.444 25.4727 39.1397 26.2778 40.4561C27.0448 41.6737 26.5914 43.6926 26.3909 44.6097C25.9949 46.0775 25.494 47.5124 24.6107 48.7644C23.9039 49.6821 23.3456 50.036 22.4542 50.0535ZM36.2199 17.8682L53.2865 19.5222C53.2516 19.6855 53.2385 19.9045 53.2516 20.0886C53.2865 20.2689 53.5045 20.2864 53.6208 20.3169L53.5525 21.2543L53.5247 21.3018C53.3379 21.3018 53.1707 21.2543 53.02 21.2892C52.9596 21.3059 52.9054 21.3399 52.8642 21.3871C52.823 21.4343 52.7966 21.4926 52.7884 21.5547C52.7201 21.8043 53.003 21.8683 53.1532 22.0217C53.2215 22.1414 53.1702 22.3216 53.1532 22.4549C53.1019 22.6729 52.8353 22.639 52.7031 22.7717C52.6212 22.8537 52.6212 23.0033 52.6392 23.1273C52.7884 23.4234 53.1532 23.324 53.4373 23.4097C53.3379 23.5572 53.2046 23.6927 53.1194 23.8571C52.8353 24.3274 52.89 24.972 53.1532 25.4292C52.9205 25.3877 52.7031 25.2964 52.4672 25.3609C52.3519 25.4084 52.2836 25.5242 52.2667 25.6608C52.253 25.8754 52.4841 25.9437 52.5901 26.0776C52.6862 26.2409 52.607 26.4588 52.5027 26.6123C52.3994 26.6948 52.2361 26.6779 52.1165 26.7461C52.0716 26.7751 52.0337 26.8137 52.0055 26.859C51.9773 26.9043 51.9594 26.9553 51.9532 27.0083C51.9532 27.3601 52.3694 27.3459 52.5901 27.4797C52.1334 29.1469 51.0016 31.1149 50.2516 32.0496C50.1664 32.0151 50.1489 31.984 50.0703 31.9474C49.8529 31.8655 49.7491 32.1342 49.5825 32.2129C49.5006 32.2473 49.4361 32.2473 49.4011 32.1484C49.2007 31.7316 48.9341 31.1149 48.3857 31.0942C48.1508 31.0942 47.9525 31.2521 47.8509 31.4498C47.7144 31.7497 47.8509 32.0496 48.0481 32.2812C48.2835 32.5166 48.6146 32.5679 48.8702 32.7509C49.0674 32.9492 48.6823 33.0825 48.614 33.2633C48.5659 33.4135 48.6992 33.5195 48.7473 33.6353C48 34.2493 47.1954 34.9381 45.7282 35.2352C45.7971 34.5491 45.5005 34.5825 44.8286 34.5185L44.8761 34.0679C44.8286 33.6145 44.2594 33.768 43.9595 33.6522C43.9765 33.2633 44.0142 32.8334 44.3752 32.6018C44.597 32.4516 44.9138 32.4691 45.081 32.2129C45.1121 32.1135 45.1121 31.9977 45.0471 31.9168C44.845 31.7191 44.5631 31.6464 44.3752 31.4187C44.1436 31.0936 44.2316 30.6474 44.3097 30.2819C45.6332 30.2994 46.8814 29.9274 48 29.2315C49.8824 28.0107 51.0186 26.1081 51.2054 23.8571C51.3015 23.0896 51.101 22.4079 51.118 21.6536C51.1316 21.0369 51.5031 20.6409 51.9362 20.2377L37.4063 18.8372C37.7581 19.3004 38.0411 19.7707 37.922 20.3852C37.8062 21.1221 37.4757 21.7525 37.42 22.5401C37.1922 24.7748 37.9389 26.8576 39.576 28.41C40.5417 29.314 41.6937 29.911 42.9932 30.1492C42.9932 30.5174 42.9932 30.9817 42.7103 31.2515C42.4787 31.4492 42.1946 31.4492 41.9598 31.6158C41.8745 31.6841 41.8571 31.7966 41.8571 31.9168C41.9909 32.1817 42.2935 32.2293 42.4787 32.4205C42.7917 32.7171 42.7611 33.1508 42.6928 33.5359C42.376 33.5872 41.8472 33.3174 41.7079 33.7533L41.6768 34.2176C41.0088 34.1493 40.7116 34.0504 40.6433 34.7398C39.2723 34.1842 38.607 33.331 37.9722 32.5843C38.0542 32.4991 38.188 32.4199 38.17 32.2675C38.153 32.0654 37.7881 31.8649 38.0208 31.7185C38.3038 31.582 38.6583 31.582 38.9243 31.4006C39.1865 31.2165 39.3739 30.9445 39.2887 30.6304C39.2411 30.4158 39.0363 30.2148 38.8216 30.1798C38.2694 30.0847 37.905 30.6468 37.6248 31.0123C37.5702 31.0931 37.5052 31.0931 37.42 31.0461C37.2736 30.9303 37.2359 30.6468 37.001 30.6818C36.9191 30.6971 36.8879 30.7293 36.8033 30.7626C36.2538 29.6953 35.5174 27.5431 35.3847 25.8077C35.6196 25.7285 36.0194 25.8236 36.0839 25.4767C36.1046 25.3773 36.0735 25.2549 35.985 25.1905C35.8856 25.0916 35.7228 25.0916 35.6376 24.972C35.5721 24.8086 35.5349 24.594 35.6545 24.4432C35.7703 24.3274 36.0194 24.3105 36.0369 24.11C36.0566 23.9762 36.02 23.8265 35.9031 23.7582C35.7021 23.6555 35.4535 23.7069 35.2208 23.6927C35.5524 23.3076 35.7354 22.6734 35.5524 22.1556C35.5038 21.9912 35.4016 21.824 35.3197 21.6541C35.6196 21.6372 35.9506 21.8043 36.1724 21.5383C36.2068 21.4225 36.2379 21.2898 36.1724 21.1702C36.0566 21.0205 35.8009 21.0068 35.7873 20.7741C35.8009 20.6583 35.7703 20.4535 35.8692 20.3552C36.0369 20.2383 36.3395 20.2383 36.3226 19.9564C36.3395 19.8368 36.2543 19.721 36.1385 19.6554C36.0091 19.6079 35.8179 19.6216 35.6545 19.5702L35.6376 19.5227L35.7354 18.605C35.8692 18.5881 36.0741 18.622 36.1522 18.4346C36.1893 18.2713 36.2062 18.0353 36.2199 17.8682ZM75.6243 64.5479C74.4253 64.6812 73.1417 64.8145 71.9585 64.8647C71.9039 65.0974 71.9039 65.3673 71.8733 65.6021C72.4709 65.6502 73.1559 65.7666 73.4738 66.3319C72.5806 68.499 71.6791 70.6626 70.7694 72.8228C70.3564 73.6755 70.0696 74.8106 69.07 75.2104C68.9034 75.2744 68.733 75.3257 68.5686 75.377C68.5183 75.7075 68.4878 75.9779 68.5047 76.1625C69.885 75.9779 71.2872 75.8785 72.7265 75.7561C72.7577 75.5109 72.7915 75.2438 72.7915 74.9925C72.4534 74.9788 72.1579 74.9444 71.905 74.7259C71.6767 74.5255 71.622 74.1775 71.6903 73.8951C71.8089 73.2882 72.0541 72.7076 72.3207 72.1624C73.3236 72.057 74.3565 71.9576 75.3763 71.9232L75.5746 72.925C75.6429 73.3423 75.7445 73.8263 75.5435 74.2087C75.3108 74.6407 74.912 74.8117 74.4587 74.8603C74.4253 75.1121 74.4084 75.3956 74.4084 75.6436C76.0793 75.4601 77.7978 75.3268 79.4666 75.2449C79.4824 75.0957 79.4922 74.7265 79.5168 74.4779C79.3289 74.4577 79.1454 74.4408 78.9815 74.3938C78.1119 74.1781 77.8453 73.2576 77.6481 72.5246C76.9572 69.8699 76.2826 67.2109 75.6243 64.5479ZM74.291 67.3687C74.6569 68.8386 74.9426 70.1075 75.1404 70.9531C74.356 71.0416 73.4907 71.0896 72.7397 71.1208C72.8729 70.769 73.7764 68.5688 74.291 67.3687ZM63.4793 67.3004C61.6456 67.5222 59.7622 67.6374 58.0268 67.7882V67.7713C57.4915 67.8193 56.8748 67.8363 56.3241 67.9013C56.2602 68.7496 56.0691 70.4085 55.9773 70.8373C56.2602 70.8214 56.5574 70.8214 56.8267 70.769C56.9217 70.2195 57.1402 69.688 57.6078 69.286C57.8083 69.1385 58.0273 69.0019 58.2567 68.9544C58.8936 68.802 59.5764 68.7709 60.2445 68.7496C59.8283 69.7535 59.276 70.722 58.7784 71.7069C57.5089 74.1393 56.175 76.6623 54.7778 79.0472C56.5913 78.85 60.3608 78.4944 62.5157 78.3994C62.5807 77.3965 62.7129 76.3799 62.8637 75.3951C62.5458 75.4076 62.3284 75.4076 62.0143 75.4421C61.9324 75.7463 61.8444 76.0959 61.71 76.3799C61.3796 76.96 60.9803 77.1949 60.4799 77.3282C59.6944 77.4959 58.8636 77.5456 58.0579 77.5287C60.062 73.5417 61.7614 70.486 63.4793 67.3004Z" fill="white"/>
<path fill-rule="evenodd" clip-rule="evenodd" d="M70.4886 69.7189C68.6505 69.9161 66.7682 70.039 65.0317 70.1892C64.4964 70.2373 63.8786 70.2373 63.3302 70.3056C63.2652 71.1582 63.068 72.8221 62.9789 73.2383C63.2646 73.2214 63.5656 73.2214 63.8316 73.1902C63.931 72.6238 64.1359 72.0879 64.5985 71.6859C64.7987 71.5329 65.027 71.4206 65.2704 71.3554C65.9008 71.2063 66.5868 71.1752 67.2483 71.1752C66.8184 72.1704 66.2667 73.1219 65.7822 74.1079C64.5128 76.5436 63.1789 79.0601 61.7772 81.4499C63.5962 81.2631 67.3674 80.8982 69.5196 80.8162C69.5846 79.8134 69.7168 78.7766 69.8511 77.8119C69.5365 77.8119 69.3388 77.8289 68.9979 77.8453C68.9329 78.1599 68.8548 78.4942 68.7013 78.7766C68.3834 79.3802 67.9683 79.6162 67.4668 79.7325C66.6797 79.8991 65.8674 79.9472 65.0623 79.9472C67.05 75.946 68.7696 72.8903 70.4886 69.7189ZM56.4891 65.3501C54.7182 65.5178 52.8703 65.6669 51.1174 65.7663L51.0355 66.5507C51.3867 66.5507 51.7215 66.6021 51.9837 66.8025C52.389 67.0691 52.5212 67.5334 52.4672 67.9868C52.3688 69.6883 52.1886 71.3401 52.0001 73.0105C51.851 73.9249 51.8199 74.8923 51.1179 75.6095C50.8339 75.8613 50.4521 75.9465 50.0703 75.9946C50.0064 76.2601 49.9851 76.5611 49.9648 76.8254C51.8199 76.6419 53.5252 76.4928 55.3737 76.4103L55.4387 75.609C55.1082 75.6423 54.804 75.5909 54.521 75.4413C53.7912 74.977 54.0578 73.9571 54.0365 73.2214C54.1856 71.5357 54.3577 69.8691 54.5718 68.2222C54.6401 67.8699 54.7182 67.5329 54.8673 67.2193C55.1552 66.6015 55.738 66.2164 56.4099 66.1651L56.4891 65.3501Z" fill="white"/>
<path fill-rule="evenodd" clip-rule="evenodd" d="M41.3252 80.7993C43.2796 80.601 45.0942 80.4781 47.0481 80.329C47.082 80.0635 47.1301 79.7795 47.1301 79.4829C46.7133 79.4965 46.3112 79.4965 45.9808 79.2682C45.6629 79.012 45.5471 78.6613 45.5301 78.2653C45.5301 77.1122 45.6978 76.0268 45.8136 74.9272C46.1441 75.1419 46.5297 75.2741 46.9493 75.2599C48.4814 75.1916 49.5138 73.7228 50.1382 72.4741C50.6505 71.4575 50.9663 70.287 50.868 69.1688C50.7827 68.4177 50.2704 67.6858 49.5138 67.464C48.3678 67.1505 47.0814 67.4329 45.8781 67.5214C44.7801 67.6366 43.709 67.6858 42.6586 67.7868L42.5761 68.616C42.9415 68.616 43.296 68.6674 43.5959 68.8689C44.0127 69.1857 44.1421 69.7008 44.1258 70.2367C44.0433 72.4555 43.7297 74.629 43.5107 76.8074C43.4085 77.5448 43.296 78.3128 43.0098 78.9432C42.7099 79.5812 42.0752 79.8811 41.4241 79.9291C41.363 80.2153 41.3299 80.5067 41.3252 80.7993ZM46.5128 68.7903C47.4135 68.6335 47.9827 68.6335 48.2826 69.0355C48.5656 69.3704 48.8496 70.0865 48.1668 71.9213C47.6654 73.3606 47.1164 73.708 46.598 73.7594C46.2293 73.7894 46.066 73.5928 45.9633 73.5409C46.0485 72.6068 46.397 69.3878 46.5128 68.7903Z" fill="white"/>
<path fill-rule="evenodd" clip-rule="evenodd" d="M43.409 27.9158C43.2996 28.1953 43.2554 28.4961 43.2795 28.7952C43.3926 29.2967 43.7607 29.6277 44.1666 29.7779C44.1934 29.5326 44.1764 29.2147 44.2786 28.9651C44.4807 28.3621 44.9783 27.877 45.4655 27.4236C45.9462 26.9774 46.1609 26.2405 46.0287 25.5784C45.8616 24.8596 45.6158 24.0435 45.9632 23.2908C46.0118 23.175 46.097 23.069 46.1309 22.9603C45.7665 22.9773 45.4147 23.3733 45.2449 23.6928C45.1449 23.8573 45.128 24.0916 44.9952 24.2423C44.9133 24.2768 44.8756 24.1779 44.845 24.1227C44.679 23.8059 44.7975 23.3929 44.8964 23.069C45.0291 22.472 44.8964 21.8684 44.3955 21.521C44.3649 21.8586 44.3092 22.1415 44.1431 22.5026C43.8798 23.0581 43.4641 23.4399 42.9731 23.8054C42.2433 24.4608 41.5747 25.2278 41.708 26.2405C41.8069 26.6944 41.98 26.9604 42.1444 27.1276C42.1444 26.6299 42.1444 26.2574 42.3121 25.91C42.3755 26.5065 42.4913 27.1784 43.409 27.9158Z" fill="#C4272F"/>
<path fill-rule="evenodd" clip-rule="evenodd" d="M44.5277 26.6609C44.4288 26.9433 44.242 27.1788 44.0606 27.3945C43.7777 27.0766 43.7089 26.6467 43.7302 26.2108C43.7607 25.6919 43.9754 25.2385 44.3092 24.8911C44.6784 25.3876 44.7456 26.0601 44.5277 26.6609Z" fill="white"/>
<!-- Code injected by live-server -->
<script>
	// <![CDATA[  <-- For SVG support
	if ('WebSocket' in window) {
		(function () {
			function refreshCSS() {
				var sheets = [].slice.call(document.getElementsByTagName("link"));
				var head = document.getElementsByTagName("head")[0];
				for (var i = 0; i < sheets.length; ++i) {
					var elem = sheets[i];
					var parent = elem.parentElement || head;
					parent.removeChild(elem);
					var rel = elem.rel;
					if (elem.href && typeof rel != "string" || rel.length == 0 || rel.toLowerCase() == "stylesheet") {
						var url = elem.href.replace(/(&|\?)_cacheOverride=\d+/, '');
						elem.href = url + (url.indexOf('?') >= 0 ? '&' : '?') + '_cacheOverride=' + (new Date().valueOf());
					}
					parent.appendChild(elem);
				}
			}
			var protocol = window.location.protocol === 'http:' ? 'ws://' : 'wss://';
			var address = protocol + window.location.host + window.location.pathname + '/ws';
			var socket = new WebSocket(address);
			socket.onmessage = function (msg) {
				if (msg.data == 'reload') window.location.reload();
				else if (msg.data == 'refreshcss') refreshCSS();
			};
			if (sessionStorage && !sessionStorage.getItem('IsThisFirstTime_Log_From_LiveServer')) {
				console.log('Live reload enabled.');
				sessionStorage.setItem('IsThisFirstTime_Log_From_LiveServer', true);
			}
		})();
	}
	else {
		console.error('Upgrade your browser. This Browser is NOT supported WebSocket for Live-Reloading.');
	}
	// ]]>
</script>
</svg>
