<svg width="47" height="47" viewBox="0 0 47 47" fill="none" xmlns="http://www.w3.org/2000/svg">
<circle cx="23.2124" cy="23.2123" r="23" transform="rotate(0.531437 23.2124 23.2123)" fill="#ED1C24"/>
<path d="M31.3333 12C32.0171 12 32.5807 12.5147 32.6577 13.1778L32.6667 13.3333V34.6667C32.6667 35.403 32.0697 36 31.3333 36C30.6496 36 30.086 35.4853 30.009 34.8222L30 34.6667V28H28.6667C27.9829 28 27.4193 27.4853 27.3423 26.8222L27.3333 26.6667V18.6667C27.3333 15.7211 29.3333 12 31.3333 12ZM23.3333 12C24.0171 12 24.5807 12.5147 24.6577 13.1778L24.6667 13.3333V20C24.6667 22.4848 22.9675 24.5726 20.6677 25.165L20.6667 34.6667C20.6667 35.403 20.0697 36 19.3333 36C18.6496 36 18.086 35.4853 18.009 34.8222L18 34.6667L18.0003 25.1654C15.7851 24.5954 14.1267 22.6379 14.0069 20.2744L14 20V13.3333C14 12.597 14.597 12 15.3333 12C16.0171 12 16.5807 12.5147 16.6577 13.1778L16.6667 13.3333V20C16.6667 20.987 17.2029 21.8488 17.9999 22.3099L18 13.3333C18 12.597 18.597 12 19.3333 12C20.0171 12 20.5807 12.5147 20.6577 13.1778L20.6667 13.3333L20.6681 22.3091C21.4031 21.8833 21.9161 21.1166 21.9906 20.2253L22 20V13.3333C22 12.597 22.597 12 23.3333 12Z" fill="white"/>
</svg>
