<svg width="30" height="30" viewBox="0 0 30 30" fill="none" xmlns="http://www.w3.org/2000/svg">
<path d="M29.9895 23.9792C29.9901 23.9619 29.9897 23.9446 29.9882 23.9273L27.6667 13.7126L29.522 4.436C29.5228 4.42078 29.5228 4.40552 29.522 4.3903C29.5259 4.37496 29.529 4.35942 29.5312 4.34375V2.46875C29.5312 2.34443 29.4819 2.2252 29.394 2.13729C29.306 2.04939 29.1868 2 29.0625 2H0.9375C0.81318 2 0.693951 2.04939 0.606044 2.13729C0.518136 2.2252 0.46875 2.34443 0.46875 2.46875V4.34375C0.471026 4.35935 0.474155 4.37481 0.478125 4.39006C0.477305 4.40529 0.477305 4.42054 0.478125 4.43577L2.33344 13.7123L0.0117656 23.9273C0.0103296 23.9446 0.00992265 23.9619 0.0105469 23.9792C0.00596667 23.9963 0.0024444 24.0137 0 24.0312L0 27.7812C0 27.9056 0.049386 28.0248 0.137294 28.1127C0.225201 28.2006 0.34443 28.25 0.46875 28.25H29.5312C29.6556 28.25 29.7748 28.2006 29.8627 28.1127C29.9506 28.0248 30 27.9056 30 27.7812V24.0312C29.9976 24.0137 29.994 23.9963 29.9895 23.9792ZM3.1868 14.1875H8.01136C5.55788 14.8845 3.62213 15.9435 2.49666 17.224L3.1868 14.1875ZM26.8132 14.1875L27.5033 17.224C26.3779 15.9435 24.4421 14.8845 21.9886 14.1875H26.8132ZM5.60278 23.5625C3.5887 22.5627 2.34375 21.2546 2.34375 19.8434C2.34375 16.7943 8.13952 14.2184 15 14.2184C21.8605 14.2184 27.6562 16.7943 27.6562 19.8434C27.6562 21.2544 26.4113 22.5627 24.3972 23.5625H16.875C16.7507 23.5625 16.6315 23.6119 16.5435 23.6998C16.4556 23.7877 16.4062 23.9069 16.4062 24.0312C16.4062 24.4042 16.2581 24.7619 15.9944 25.0256C15.7306 25.2893 15.373 25.4375 15 25.4375C14.627 25.4375 14.2694 25.2893 14.0056 25.0256C13.7419 24.7619 13.5938 24.4042 13.5938 24.0312C13.5938 23.9069 13.5444 23.7877 13.4565 23.6998C13.3685 23.6119 13.2493 23.5625 13.125 23.5625H5.60278ZM3.73542 23.5625H1.05609L1.62722 21.0495C2.06378 22.0786 2.79793 22.9537 3.73542 23.5625ZM28.3729 21.0495L28.9439 23.5625H26.2646C27.2021 22.9537 27.9364 22.0786 28.3729 21.0495ZM1.40625 2.9375H28.5938V3.875H16.875C16.7507 3.875 16.6315 3.92439 16.5435 4.01229C16.4556 4.1002 16.4062 4.21943 16.4062 4.34375C16.4062 4.71671 16.2581 5.0744 15.9944 5.33812C15.7306 5.60184 15.373 5.75 15 5.75C14.627 5.75 14.2694 5.60184 14.0056 5.33812C13.7419 5.0744 13.5938 4.71671 13.5938 4.34375C13.5938 4.21943 13.5444 4.1002 13.4565 4.01229C13.3685 3.92439 13.2493 3.875 13.125 3.875H1.40625V2.9375ZM1.50938 4.8125H12.7034C12.8115 5.34183 13.0991 5.81757 13.5176 6.15924C13.9361 6.50091 14.4598 6.68753 15 6.68753C15.5402 6.68753 16.0639 6.50091 16.4824 6.15924C16.9009 5.81757 17.1885 5.34183 17.2966 4.8125H28.4906L26.8031 13.25H3.19688L1.50938 4.8125ZM29.0625 27.3125H0.9375V24.5H12.7034C12.8115 25.0293 13.0991 25.5051 13.5176 25.8467C13.9361 26.1884 14.4598 26.375 15 26.375C15.5402 26.375 16.0639 26.1884 16.4824 25.8467C16.9009 25.5051 17.1885 25.0293 17.2966 24.5H29.0625V27.3125ZM13.125 22.1562C13.125 22.9447 13.9485 23.5625 15 23.5625C16.0515 23.5625 16.875 22.9447 16.875 22.1562C16.875 21.3678 16.0515 20.75 15 20.75C13.9485 20.75 13.125 21.3678 13.125 22.1562ZM15.9375 22.1562C15.9375 22.3474 15.5722 22.625 15 22.625C14.4278 22.625 14.0625 22.3474 14.0625 22.1562C14.0625 21.9651 14.4278 21.6875 15 21.6875C15.5722 21.6875 15.9375 21.9651 15.9375 22.1562ZM9.375 20.2812C8.3235 20.2812 7.5 20.899 7.5 21.6875C7.5 22.476 8.3235 23.0938 9.375 23.0938C10.4265 23.0938 11.25 22.476 11.25 21.6875C11.25 20.899 10.4265 20.2812 9.375 20.2812ZM9.375 22.1562C8.8028 22.1562 8.4375 21.8786 8.4375 21.6875C8.4375 21.4964 8.8028 21.2188 9.375 21.2188C9.9472 21.2188 10.3125 21.4964 10.3125 21.6875C10.3125 21.8786 9.9472 22.1562 9.375 22.1562ZM18.2812 21.6875C18.2812 22.476 19.1047 23.0938 20.1562 23.0938C21.2078 23.0938 22.0312 22.476 22.0312 21.6875C22.0312 20.899 21.2078 20.2812 20.1562 20.2812C19.1047 20.2812 18.2812 20.899 18.2812 21.6875ZM21.0938 21.6875C21.0938 21.8786 20.7285 22.1562 20.1562 22.1562C19.584 22.1562 19.2188 21.8786 19.2188 21.6875C19.2188 21.4964 19.584 21.2188 20.1562 21.2188C20.7285 21.2188 21.0938 21.4964 21.0938 21.6875ZM15 17.4688C16.0515 17.4688 16.875 16.851 16.875 16.0625C16.875 15.274 16.0515 14.6562 15 14.6562C13.9485 14.6562 13.125 15.274 13.125 16.0625C13.125 16.851 13.9485 17.4688 15 17.4688ZM15 15.5938C15.5722 15.5938 15.9375 15.8714 15.9375 16.0625C15.9375 16.2536 15.5722 16.5312 15 16.5312C14.4278 16.5312 14.0625 16.2536 14.0625 16.0625C14.0625 15.8714 14.4278 15.5938 15 15.5938ZM9.84375 16.0625C8.79225 16.0625 7.96875 16.6803 7.96875 17.4688C7.96875 18.2572 8.79225 18.875 9.84375 18.875C10.8953 18.875 11.7188 18.2572 11.7188 17.4688C11.7188 16.6803 10.8953 16.0625 9.84375 16.0625ZM9.84375 17.9375C9.27155 17.9375 8.90625 17.6599 8.90625 17.4688C8.90625 17.2776 9.27155 17 9.84375 17C10.416 17 10.7812 17.2776 10.7812 17.4688C10.7812 17.6599 10.416 17.9375 9.84375 17.9375ZM19.6875 18.4062C20.739 18.4062 21.5625 17.7885 21.5625 17C21.5625 16.2115 20.739 15.5938 19.6875 15.5938C18.636 15.5938 17.8125 16.2115 17.8125 17C17.8125 17.7885 18.636 18.4062 19.6875 18.4062ZM19.6875 16.5312C20.2597 16.5312 20.625 16.8089 20.625 17C20.625 17.1911 20.2597 17.4688 19.6875 17.4688C19.1153 17.4688 18.75 17.1911 18.75 17C18.75 16.8089 19.1153 16.5312 19.6875 16.5312ZM5.625 17.9375C4.5735 17.9375 3.75 18.5553 3.75 19.3438C3.75 20.1322 4.5735 20.75 5.625 20.75C6.6765 20.75 7.5 20.1322 7.5 19.3438C7.5 18.5553 6.6765 17.9375 5.625 17.9375ZM5.625 19.8125C5.0528 19.8125 4.6875 19.5349 4.6875 19.3438C4.6875 19.1526 5.0528 18.875 5.625 18.875C6.1972 18.875 6.5625 19.1526 6.5625 19.3438C6.5625 19.5349 6.1972 19.8125 5.625 19.8125ZM24.375 20.75C25.4265 20.75 26.25 20.1322 26.25 19.3438C26.25 18.5553 25.4265 17.9375 24.375 17.9375C23.3235 17.9375 22.5 18.5553 22.5 19.3438C22.5 20.1322 23.3235 20.75 24.375 20.75ZM24.375 18.875C24.9472 18.875 25.3125 19.1526 25.3125 19.3438C25.3125 19.5349 24.9472 19.8125 24.375 19.8125C23.8028 19.8125 23.4375 19.5349 23.4375 19.3438C23.4375 19.1526 23.8028 18.875 24.375 18.875ZM13.125 19.8127C13.0136 19.8129 12.9057 19.7734 12.8208 19.7013C12.7358 19.6291 12.6794 19.5291 12.6615 19.4191C12.6436 19.3091 12.6656 19.1963 12.7233 19.101C12.7811 19.0057 12.8709 18.9341 12.9767 18.899L14.3829 18.4303C14.4413 18.4108 14.503 18.403 14.5644 18.4074C14.6258 18.4117 14.6858 18.4282 14.7408 18.4557C14.7959 18.4832 14.845 18.5213 14.8853 18.5678C14.9257 18.6143 14.9565 18.6683 14.976 18.7267C14.9954 18.7851 15.0032 18.8468 14.9989 18.9082C14.9945 18.9696 14.9781 19.0295 14.9506 19.0846C14.9231 19.1396 14.885 19.1888 14.8385 19.2291C14.792 19.2694 14.738 19.3002 14.6796 19.3197L13.2733 19.7885C13.2255 19.8045 13.1754 19.8127 13.125 19.8127ZM16.899 19.9608C16.8796 19.9024 16.8718 19.8407 16.8761 19.7793C16.8805 19.7179 16.8969 19.658 16.9244 19.6029C16.9519 19.5478 16.99 19.4987 17.0365 19.4584C17.083 19.4181 17.137 19.3873 17.1954 19.3678L18.6017 18.899C18.7196 18.8597 18.8484 18.8688 18.9596 18.9244C19.0708 18.98 19.1554 19.0775 19.1947 19.1954C19.234 19.3134 19.2249 19.4421 19.1693 19.5533C19.1137 19.6645 19.0163 19.7491 18.8983 19.7885L17.4921 20.2572C17.4337 20.2768 17.372 20.2846 17.3105 20.2803C17.2491 20.276 17.1891 20.2596 17.134 20.2321C17.0789 20.2046 17.0298 20.1664 16.9895 20.1199C16.9492 20.0733 16.9184 20.0193 16.899 19.9608Z" fill="#727272"/>
</svg>
