<svg width="32" height="32" viewBox="0 0 32 32" fill="none" xmlns="http://www.w3.org/2000/svg">
<path d="M28.5 15.5C28.4343 15.5 28.3693 15.5129 28.3086 15.538C28.248 15.5631 28.1928 15.6 28.1464 15.6464C28.1 15.6928 28.0632 15.748 28.038 15.8086C28.0129 15.8693 28 15.9343 28 16C28.0001 18.7216 27.0751 21.3624 25.3768 23.4891C23.6785 25.6158 21.3077 27.1021 18.6535 27.704C15.9993 28.3059 13.2193 27.9877 10.7697 26.8017C8.32013 25.6156 6.34646 23.6321 5.17256 21.1767C3.99866 18.7213 3.69427 15.9398 4.30933 13.2886C4.92438 10.6374 6.42236 8.27396 8.55744 6.58619C10.6925 4.89842 13.3379 3.98653 16.0595 4.00015C18.781 4.01376 21.4172 4.95208 23.5353 6.66113H21.4268C21.2942 6.66113 21.167 6.71381 21.0732 6.80757C20.9794 6.90134 20.9268 7.02852 20.9268 7.16113C20.9268 7.29374 20.9794 7.42091 21.0732 7.51468C21.167 7.60845 21.2942 7.66113 21.4268 7.66113H24.8389C24.9713 7.66062 25.0982 7.60777 25.1919 7.51412C25.2855 7.42046 25.3384 7.29358 25.3389 7.16113V3.74902C25.3389 3.61641 25.2862 3.48924 25.1924 3.39547C25.0987 3.3017 24.9715 3.24902 24.8389 3.24902C24.7063 3.24902 24.5791 3.3017 24.4853 3.39547C24.3916 3.48924 24.3389 3.61641 24.3389 3.74902V6.0288C21.7709 3.88112 18.4735 2.80692 15.1332 3.02994C11.793 3.25296 8.6676 4.75601 6.40799 7.22601C4.14837 9.69602 2.92877 12.9425 3.00322 16.2894C3.07766 19.6362 4.44041 22.8253 6.80762 25.1924C8.62571 27.0105 10.9421 28.2486 13.4638 28.7502C15.9856 29.2518 18.5994 28.9944 20.9749 28.0104C23.3503 27.0265 25.3806 25.3602 26.8091 23.2224C28.2376 21.0846 29 18.5712 29 16C29 15.9343 28.9871 15.8693 28.962 15.8086C28.9369 15.748 28.9 15.6928 28.8536 15.6464C28.8072 15.6 28.752 15.5631 28.6914 15.538C28.6307 15.5129 28.5657 15.5 28.5 15.5Z" fill="#727272"/>
<path d="M18.762 12.4118L16.2142 19.4118C16.1915 19.4735 16.1813 19.5391 16.184 19.6048C16.1868 19.6705 16.2025 19.735 16.2302 19.7946C16.2579 19.8542 16.2971 19.9078 16.3456 19.9522C16.394 19.9967 16.4508 20.0311 16.5125 20.0536C16.5743 20.0761 16.6399 20.0862 16.7056 20.0832C16.7713 20.0803 16.8358 20.0645 16.8953 20.0366C16.9549 20.0087 17.0083 19.9694 17.0527 19.9208C17.097 19.8723 17.1313 19.8154 17.1536 19.7536L19.7015 12.7536C19.7468 12.629 19.7408 12.4915 19.6847 12.3714C19.6287 12.2512 19.5272 12.1583 19.4026 12.1129C19.2781 12.0676 19.1406 12.0736 19.0204 12.1297C18.9003 12.1857 18.8073 12.2872 18.762 12.4118Z" fill="#727272"/>
<path d="M11.781 15.0955C11.7817 14.8529 11.7342 14.6126 11.6414 14.3885C11.5486 14.1644 11.4122 13.9609 11.2402 13.7898C10.5425 13.0916 9.32667 13.0916 8.62892 13.7898C8.45686 13.9608 8.32045 14.1643 8.22758 14.3884C8.13472 14.6125 8.08724 14.8529 8.0879 15.0955C8.0879 15.2281 8.14058 15.3552 8.23434 15.449C8.32811 15.5428 8.45529 15.5955 8.5879 15.5955C8.72051 15.5955 8.84768 15.5428 8.94145 15.449C9.03522 15.3552 9.0879 15.2281 9.0879 15.0955C9.08764 14.9842 9.10942 14.8741 9.152 14.7713C9.19458 14.6686 9.2571 14.5753 9.33595 14.4968C9.49711 14.3426 9.71154 14.2566 9.93458 14.2566C10.1576 14.2566 10.372 14.3426 10.5332 14.4968C10.6919 14.6555 10.781 14.8708 10.781 15.0952C10.781 15.3196 10.6919 15.5349 10.5332 15.6936L8.23438 17.9924C8.16445 18.0623 8.11682 18.1514 8.09752 18.2484C8.07823 18.3454 8.08812 18.4459 8.12596 18.5373C8.1638 18.6287 8.22789 18.7068 8.31011 18.7617C8.39234 18.8166 8.48901 18.846 8.5879 18.8459H11.281C11.4136 18.8459 11.5408 18.7933 11.6346 18.6995C11.7283 18.6057 11.781 18.4786 11.781 18.3459C11.781 18.2133 11.7283 18.0862 11.6346 17.9924C11.5408 17.8986 11.4136 17.8459 11.281 17.8459H9.79493L11.2402 16.4006C11.4122 16.2297 11.5486 16.0263 11.6414 15.8022C11.7342 15.5782 11.7817 15.338 11.781 15.0955Z" fill="#727272"/>
<path d="M14.6315 18.8461C14.6972 18.8461 14.7622 18.8332 14.8229 18.8081C14.8835 18.783 14.9387 18.7461 14.9851 18.6997C15.0315 18.6533 15.0684 18.5981 15.0935 18.5375C15.1186 18.4768 15.1315 18.4118 15.1315 18.3461V17.6005H15.3896C15.5222 17.6005 15.6493 17.5478 15.7431 17.454C15.8369 17.3603 15.8896 17.2331 15.8896 17.1005C15.8896 16.9679 15.8369 16.8407 15.7431 16.7469C15.6493 16.6532 15.5222 16.6005 15.3896 16.6005H15.1315V13.7489C15.1315 13.6413 15.0967 13.5366 15.0324 13.4503C14.9681 13.364 14.8777 13.3007 14.7745 13.2699C14.6714 13.2391 14.5611 13.2424 14.46 13.2792C14.3589 13.3161 14.2724 13.3846 14.2133 13.4745L12.0155 16.8261C11.9661 16.9015 11.9379 16.9889 11.934 17.079C11.9302 17.1692 11.9508 17.2586 11.9937 17.338C12.0365 17.4174 12.1001 17.4837 12.1775 17.5299C12.255 17.5761 12.3435 17.6005 12.4337 17.6005H14.1315V18.3461C14.1315 18.4118 14.1444 18.4768 14.1695 18.5375C14.1946 18.5981 14.2315 18.6533 14.2779 18.6997C14.3243 18.7461 14.3795 18.783 14.4401 18.8081C14.5008 18.8332 14.5658 18.8461 14.6315 18.8461ZM13.3595 16.6005L14.1315 15.4232V16.6005H13.3595Z" fill="#727272"/>
<path d="M21.4348 18.3462C21.4348 18.4788 21.4875 18.606 21.5813 18.6997C21.675 18.7935 21.8022 18.8462 21.9348 18.8462C22.0674 18.8462 22.1946 18.7935 22.2884 18.6997C22.3821 18.606 22.4348 18.4788 22.4348 18.3462V17.3169C22.4332 16.7196 22.5501 16.1281 22.7787 15.5763C23.0072 15.0246 23.3429 14.5236 23.7664 14.1025C23.8363 14.0326 23.8839 13.9435 23.9032 13.8465C23.9225 13.7495 23.9126 13.649 23.8748 13.5576C23.8369 13.4662 23.7728 13.3882 23.6906 13.3332C23.6084 13.2783 23.5117 13.249 23.4128 13.249H20.457C20.3244 13.249 20.1972 13.3016 20.1035 13.3954C20.0097 13.4892 19.957 13.6164 19.957 13.749C19.957 13.8816 20.0097 14.0087 20.1035 14.1025C20.1972 14.1963 20.3244 14.249 20.457 14.249H22.3586C21.7534 15.1574 21.4319 16.2253 21.4348 17.3169V18.3462Z" fill="#727272"/>
</svg>
