<svg width="158" height="30" viewBox="0 0 158 30" fill="none" xmlns="http://www.w3.org/2000/svg">
<g id="Vector">
<path d="M0 30L30.034 30L30.034 1.15077e-06L16.8558 0C16.8558 9.29867 9.30922 16.8367 1.15208e-06 16.8367L0 30Z" fill="#446C6E"/>
<path d="M40.733 11.0874C40.6233 11.0874 40.5336 11.0524 40.4638 10.9825C40.3939 10.9126 40.359 10.8227 40.359 10.7128V0.973893C40.359 0.864017 40.3939 0.774119 40.4638 0.704199C40.5336 0.634278 40.6233 0.599318 40.733 0.599318H44.4879C45.4852 0.599318 46.318 0.759136 46.9862 1.07877C47.6544 1.38842 48.163 1.8479 48.5121 2.45721C48.8711 3.05652 49.0606 3.80068 49.0805 4.68967C49.0905 5.12917 49.0955 5.51373 49.0955 5.84336C49.0955 6.17298 49.0905 6.55255 49.0805 6.98206C49.0506 7.91101 48.8661 8.68013 48.527 9.28944C48.1879 9.89874 47.6893 10.3532 47.0311 10.6529C46.3728 10.9426 45.5501 11.0874 44.5627 11.0874H40.733ZM42.7376 9.15459H44.4879C44.9866 9.15459 45.3955 9.07968 45.7146 8.92985C46.0337 8.78002 46.2681 8.54528 46.4177 8.22565C46.5773 7.89602 46.6621 7.4715 46.672 6.9521C46.682 6.66242 46.687 6.40272 46.687 6.17298C46.697 5.94324 46.697 5.7135 46.687 5.48377C46.687 5.25403 46.682 4.99932 46.672 4.71963C46.6521 3.97049 46.4576 3.42111 46.0886 3.07151C45.7296 2.71192 45.1711 2.53212 44.4131 2.53212H42.7376V9.15459Z" fill="#446C6E"/>
<path d="M54.2713 11.2372C53.1244 11.2372 52.2119 10.9176 51.5337 10.2783C50.8655 9.63904 50.5115 8.7101 50.4716 7.49148C50.4716 7.41157 50.4716 7.30669 50.4716 7.17684C50.4716 7.037 50.4716 6.92712 50.4716 6.84721C50.5115 6.07809 50.686 5.41884 50.9952 4.86946C51.3043 4.3101 51.7381 3.88558 52.2966 3.59591C52.8551 3.29625 53.5084 3.14642 54.2564 3.14642C55.0941 3.14642 55.7922 3.32122 56.3507 3.67083C56.9192 4.01044 57.343 4.47991 57.6223 5.07923C57.9115 5.66856 58.0561 6.34778 58.0561 7.11691V7.46152C58.0561 7.5614 58.0162 7.64631 57.9365 7.71623C57.8666 7.78615 57.7819 7.82111 57.6821 7.82111H52.7903C52.7903 7.8311 52.7903 7.85107 52.7903 7.88104C52.7903 7.90102 52.7903 7.92099 52.7903 7.94097C52.8003 8.26061 52.8601 8.55527 52.9698 8.82497C53.0895 9.08467 53.2541 9.29443 53.4635 9.45425C53.6829 9.61407 53.9422 9.69398 54.2414 9.69398C54.4907 9.69398 54.6952 9.65902 54.8548 9.5891C55.0143 9.51918 55.144 9.43427 55.2437 9.33439C55.3534 9.2345 55.4332 9.1496 55.4831 9.07968C55.5728 8.97979 55.6426 8.91986 55.6925 8.89988C55.7523 8.86992 55.8421 8.85493 55.9618 8.85493H57.5176C57.6173 8.85493 57.6971 8.8849 57.7569 8.94483C57.8267 8.99477 57.8567 9.06969 57.8467 9.16957C57.8367 9.32939 57.7519 9.52917 57.5924 9.76889C57.4428 9.99863 57.2184 10.2284 56.9192 10.4581C56.62 10.6779 56.246 10.8626 55.7972 11.0125C55.3584 11.1623 54.8498 11.2372 54.2713 11.2372ZM52.7903 6.45766H55.7224V6.42769C55.7224 6.0681 55.6626 5.75845 55.5429 5.49875C55.4332 5.22905 55.2686 5.01929 55.0492 4.86946C54.8298 4.71963 54.5655 4.64472 54.2564 4.64472C53.9472 4.64472 53.6829 4.71963 53.4635 4.86946C53.2441 5.01929 53.0745 5.22905 52.9549 5.49875C52.8452 5.75845 52.7903 6.0681 52.7903 6.42769V6.45766Z" fill="#446C6E"/>
<path d="M62.6183 11.2372C61.9999 11.2372 61.4664 11.1673 61.0176 11.0275C60.5787 10.8776 60.2197 10.6978 59.9405 10.4881C59.6712 10.2783 59.4667 10.0686 59.3271 9.85879C59.1975 9.63904 59.1277 9.45425 59.1177 9.30442C59.1077 9.19455 59.1426 9.10465 59.2224 9.03473C59.3022 8.96481 59.382 8.92985 59.4618 8.92985H60.9128C60.9428 8.92985 60.9727 8.93484 61.0026 8.94483C61.0325 8.95482 61.0624 8.97979 61.0924 9.01974C61.222 9.10964 61.3567 9.21452 61.4963 9.33439C61.6359 9.44426 61.7955 9.53915 61.975 9.61906C62.1645 9.69897 62.3988 9.73893 62.6781 9.73893C63.0072 9.73893 63.2865 9.674 63.5158 9.54415C63.7452 9.40431 63.8599 9.20953 63.8599 8.95981C63.8599 8.78002 63.8051 8.63019 63.6954 8.51032C63.5956 8.39046 63.4011 8.28058 63.1119 8.1807C62.8227 8.08081 62.3939 7.97094 61.8254 7.85107C61.2868 7.73121 60.8281 7.57139 60.4491 7.37162C60.0701 7.17185 59.7859 6.92213 59.5964 6.62247C59.4069 6.31282 59.3122 5.94324 59.3122 5.51373C59.3122 5.12417 59.4318 4.7496 59.6712 4.39001C59.9205 4.03042 60.2845 3.73575 60.7633 3.50601C61.242 3.26629 61.8403 3.14642 62.5584 3.14642C63.1069 3.14642 63.5856 3.21634 63.9945 3.35618C64.4134 3.48604 64.7625 3.65584 65.0417 3.8656C65.321 4.06538 65.5304 4.27514 65.67 4.49489C65.8196 4.70465 65.8994 4.88944 65.9094 5.04926C65.9194 5.14915 65.8894 5.23405 65.8196 5.30397C65.7498 5.37389 65.67 5.40885 65.5803 5.40885H64.2489C64.199 5.40885 64.1541 5.40386 64.1142 5.39387C64.0743 5.37389 64.0394 5.34892 64.0095 5.31895C63.8898 5.23904 63.7652 5.14915 63.6355 5.04926C63.5158 4.93938 63.3712 4.84449 63.2017 4.76458C63.0321 4.68467 62.8127 4.64472 62.5435 4.64472C62.2143 4.64472 61.96 4.71963 61.7805 4.86946C61.611 5.0093 61.5262 5.1891 61.5262 5.40885C61.5262 5.54869 61.5711 5.67854 61.6608 5.79841C61.7506 5.91827 61.9351 6.02815 62.2143 6.12803C62.4936 6.22792 62.9174 6.3328 63.4859 6.44268C64.1641 6.56254 64.7026 6.74233 65.1016 6.98206C65.5005 7.22179 65.7847 7.50147 65.9543 7.82111C66.1338 8.13076 66.2235 8.46537 66.2235 8.82497C66.2235 9.29443 66.0839 9.71395 65.8047 10.0835C65.5254 10.4431 65.1165 10.7278 64.578 10.9376C64.0494 11.1373 63.3962 11.2372 62.6183 11.2372Z" fill="#446C6E"/>
<path d="M68.0186 11.0874C67.9189 11.0874 67.8341 11.0524 67.7643 10.9825C67.6945 10.9126 67.6596 10.8227 67.6596 10.7128V3.67083C67.6596 3.56095 67.6945 3.47105 67.7643 3.40113C67.8341 3.33121 67.9189 3.29625 68.0186 3.29625H69.5146C69.6243 3.29625 69.714 3.33121 69.7838 3.40113C69.8536 3.47105 69.8885 3.56095 69.8885 3.67083V10.7128C69.8885 10.8227 69.8536 10.9126 69.7838 10.9825C69.714 11.0524 69.6243 11.0874 69.5146 11.0874H68.0186ZM67.9737 2.09761C67.874 2.09761 67.7892 2.06265 67.7194 1.99273C67.6496 1.92281 67.6147 1.83292 67.6147 1.72304V0.524403C67.6147 0.414528 67.6496 0.324631 67.7194 0.25471C67.7892 0.174801 67.874 0.134847 67.9737 0.134847H69.5445C69.6542 0.134847 69.7439 0.174801 69.8138 0.25471C69.8935 0.324631 69.9334 0.414528 69.9334 0.524403V1.72304C69.9334 1.83292 69.8935 1.92281 69.8138 1.99273C69.7439 2.06265 69.6542 2.09761 69.5445 2.09761H67.9737Z" fill="#446C6E"/>
<path d="M75.4149 14.3836C74.6769 14.3836 74.0635 14.2838 73.5748 14.084C73.0862 13.8942 72.6972 13.6595 72.408 13.3798C72.1287 13.1101 71.9293 12.8404 71.8096 12.5707C71.6899 12.301 71.6251 12.0913 71.6151 11.9414C71.6051 11.8315 71.64 11.7416 71.7198 11.6717C71.7996 11.6018 71.8894 11.5668 71.9891 11.5668H73.5898C73.6796 11.5668 73.7543 11.5868 73.8142 11.6268C73.884 11.6767 73.9389 11.7566 73.9787 11.8665C74.0286 11.9864 74.0984 12.1112 74.1882 12.2411C74.2779 12.3809 74.4126 12.4958 74.5921 12.5857C74.7816 12.6756 75.0309 12.7205 75.3401 12.7205C75.6891 12.7205 75.9784 12.6706 76.2077 12.5707C76.4371 12.4708 76.6067 12.301 76.7164 12.0613C76.836 11.8216 76.8959 11.4969 76.8959 11.0874V10.0835C76.6565 10.3432 76.3523 10.558 75.9833 10.7278C75.6243 10.8976 75.1805 10.9825 74.6519 10.9825C74.1333 10.9825 73.6746 10.9026 73.2756 10.7428C72.8867 10.573 72.5626 10.3382 72.3033 10.0386C72.044 9.72894 71.8445 9.35936 71.7049 8.92985C71.5652 8.50033 71.4855 8.01589 71.4655 7.4765C71.4555 7.20681 71.4555 6.94211 71.4655 6.6824C71.4855 6.16299 71.5652 5.68853 71.7049 5.25902C71.8445 4.82951 72.044 4.45993 72.3033 4.15028C72.5626 3.83064 72.8867 3.58592 73.2756 3.41612C73.6746 3.23632 74.1333 3.14642 74.6519 3.14642C75.2005 3.14642 75.6692 3.2513 76.0581 3.46106C76.4471 3.67083 76.7662 3.93053 77.0156 4.24018V3.67083C77.0156 3.57094 77.0505 3.48604 77.1203 3.41612C77.1901 3.33621 77.2749 3.29625 77.3746 3.29625H78.8407C78.9404 3.29625 79.0252 3.33621 79.095 3.41612C79.1748 3.48604 79.2146 3.57094 79.2146 3.67083L79.2296 10.8776C79.2296 11.6268 79.085 12.2611 78.7958 12.7805C78.5065 13.2999 78.0777 13.6944 77.5092 13.9641C76.9507 14.2438 76.2526 14.3836 75.4149 14.3836ZM75.3401 9.22951C75.6991 9.22951 75.9883 9.1496 76.2077 8.98978C76.4371 8.81997 76.6067 8.61021 76.7164 8.36049C76.8261 8.10079 76.8859 7.8311 76.8959 7.55141C76.9059 7.44154 76.9109 7.28671 76.9109 7.08694C76.9109 6.87718 76.9059 6.71736 76.8959 6.60749C76.8859 6.3278 76.8261 6.06311 76.7164 5.81339C76.6067 5.55369 76.4371 5.34392 76.2077 5.18411C75.9883 5.02429 75.6991 4.94438 75.3401 4.94438C74.9611 4.94438 74.6619 5.02928 74.4425 5.19909C74.2231 5.35891 74.0635 5.57366 73.9638 5.84336C73.8641 6.11305 73.8042 6.40771 73.7843 6.72735C73.7743 6.96708 73.7743 7.20181 73.7843 7.43155C73.8042 7.76118 73.8641 8.06083 73.9638 8.33053C74.0635 8.60022 74.2231 8.81997 74.4425 8.98978C74.6619 9.1496 74.9611 9.22951 75.3401 9.22951Z" fill="#446C6E"/>
<path d="M81.4736 11.0874C81.3738 11.0874 81.289 11.0524 81.2192 10.9825C81.1494 10.9126 81.1145 10.8227 81.1145 10.7128V3.67083C81.1145 3.56095 81.1494 3.47105 81.2192 3.40113C81.289 3.33121 81.3738 3.29625 81.4736 3.29625H82.9396C83.0493 3.29625 83.1391 3.33121 83.2089 3.40113C83.2787 3.47105 83.3136 3.56095 83.3136 3.67083V4.25516C83.5729 3.93553 83.907 3.67083 84.3159 3.46106C84.7248 3.2513 85.2234 3.14642 85.8119 3.14642C86.4003 3.14642 86.9139 3.28127 87.3527 3.55096C87.8015 3.81067 88.1506 4.19523 88.3999 4.70465C88.6592 5.20408 88.7888 5.81339 88.7888 6.53257V10.7128C88.7888 10.8227 88.749 10.9126 88.6692 10.9825C88.5994 11.0524 88.5146 11.0874 88.4149 11.0874H86.8291C86.7194 11.0874 86.6297 11.0524 86.5599 10.9825C86.49 10.9126 86.4551 10.8227 86.4551 10.7128V6.62247C86.4551 6.09307 86.3255 5.68354 86.0662 5.39387C85.8169 5.09421 85.4479 4.94438 84.9592 4.94438C84.4904 4.94438 84.1164 5.09421 83.8372 5.39387C83.5579 5.68354 83.4183 6.09307 83.4183 6.62247V10.7128C83.4183 10.8227 83.3834 10.9126 83.3136 10.9825C83.2438 11.0524 83.159 11.0874 83.0593 11.0874H81.4736Z" fill="#446C6E"/>
<path d="M98.2062 11.2372C97.2687 11.2372 96.4709 11.0824 95.8127 10.7728C95.1644 10.4531 94.6608 9.99364 94.3017 9.39432C93.9427 8.78501 93.7432 8.04585 93.7033 7.17684C93.6934 6.76731 93.6884 6.32781 93.6884 5.85834C93.6884 5.38887 93.6934 4.93938 93.7033 4.50987C93.7432 3.65085 93.9427 2.92168 94.3017 2.32236C94.6707 1.71305 95.1844 1.24858 95.8426 0.928944C96.5008 0.609307 97.2887 0.449488 98.2062 0.449488C98.8744 0.449488 99.4828 0.534392 100.031 0.704199C100.58 0.874006 101.054 1.11873 101.452 1.43836C101.851 1.758 102.161 2.13257 102.38 2.56209C102.599 2.9916 102.719 3.47105 102.739 4.00045C102.739 4.09035 102.704 4.16526 102.634 4.2252C102.574 4.28513 102.5 4.31509 102.41 4.31509H100.704C100.585 4.31509 100.49 4.28513 100.42 4.2252C100.35 4.16526 100.296 4.06538 100.256 3.92554C100.106 3.33621 99.8568 2.93167 99.5077 2.71192C99.1587 2.49217 98.7248 2.38229 98.2062 2.38229C97.5879 2.38229 97.0992 2.5521 96.7402 2.89171C96.3811 3.23133 96.1867 3.79568 96.1567 4.58479C96.1268 5.40386 96.1268 6.2429 96.1567 7.10193C96.1867 7.89103 96.3811 8.45539 96.7402 8.795C97.0992 9.13461 97.5879 9.30442 98.2062 9.30442C98.7248 9.30442 99.1587 9.19455 99.5077 8.9748C99.8667 8.74506 100.116 8.34052 100.256 7.76118C100.296 7.61135 100.35 7.51146 100.42 7.46152C100.49 7.40158 100.585 7.37162 100.704 7.37162H102.41C102.5 7.37162 102.574 7.40158 102.634 7.46152C102.704 7.52145 102.739 7.59636 102.739 7.68626C102.719 8.21566 102.599 8.69511 102.38 9.12463C102.161 9.55414 101.851 9.92871 101.452 10.2483C101.054 10.568 100.58 10.8127 100.031 10.9825C99.4828 11.1523 98.8744 11.2372 98.2062 11.2372Z" fill="#446C6E"/>
<path d="M104.614 11.0874C104.515 11.0874 104.43 11.0524 104.36 10.9825C104.29 10.9126 104.255 10.8227 104.255 10.7128V3.67083C104.255 3.57094 104.29 3.48604 104.36 3.41612C104.43 3.33621 104.515 3.29625 104.614 3.29625H106.08C106.18 3.29625 106.265 3.33621 106.335 3.41612C106.414 3.48604 106.454 3.57094 106.454 3.67083V4.27014C106.704 3.9605 107.008 3.72077 107.367 3.55096C107.736 3.38116 108.16 3.29625 108.639 3.29625H109.282C109.382 3.29625 109.466 3.33121 109.536 3.40113C109.606 3.47105 109.641 3.56095 109.641 3.67083V4.95936C109.641 5.06924 109.606 5.15913 109.536 5.22905C109.466 5.29897 109.382 5.33394 109.282 5.33394H107.965C107.526 5.33394 107.182 5.45879 106.933 5.70851C106.684 5.94824 106.559 6.29284 106.559 6.74233V10.7128C106.559 10.8227 106.524 10.9126 106.454 10.9825C106.385 11.0524 106.295 11.0874 106.185 11.0874H104.614Z" fill="#446C6E"/>
<path d="M112.914 11.2372C112.385 11.2372 111.911 11.1373 111.493 10.9376C111.074 10.7278 110.74 10.4481 110.49 10.0985C110.241 9.74891 110.116 9.35936 110.116 8.92985C110.116 8.22065 110.4 7.66129 110.969 7.25175C111.547 6.84222 112.305 6.56254 113.243 6.41271L115.203 6.12803V5.85834C115.203 5.46878 115.113 5.16912 114.933 4.95936C114.754 4.7496 114.44 4.64472 113.991 4.64472C113.662 4.64472 113.397 4.70965 113.198 4.8395C112.998 4.96935 112.844 5.13916 112.734 5.34892C112.654 5.47877 112.54 5.5437 112.39 5.5437H110.969C110.859 5.5437 110.774 5.51373 110.715 5.4538C110.655 5.38388 110.63 5.30397 110.64 5.21407C110.64 5.04426 110.705 4.84449 110.834 4.61475C110.964 4.38501 111.163 4.16027 111.433 3.94052C111.702 3.71078 112.046 3.521 112.465 3.37117C112.884 3.22134 113.397 3.14642 114.006 3.14642C114.634 3.14642 115.173 3.22134 115.621 3.37117C116.07 3.521 116.429 3.73076 116.699 4.00045C116.968 4.27014 117.167 4.58479 117.297 4.94438C117.427 5.29398 117.491 5.67355 117.491 6.08308V10.7128C117.491 10.8227 117.456 10.9126 117.387 10.9825C117.317 11.0524 117.227 11.0874 117.117 11.0874H115.651C115.552 11.0874 115.467 11.0524 115.397 10.9825C115.327 10.9126 115.292 10.8227 115.292 10.7128V10.1584C115.163 10.3482 114.988 10.528 114.769 10.6978C114.549 10.8577 114.285 10.9875 113.976 11.0874C113.677 11.1873 113.323 11.2372 112.914 11.2372ZM113.512 9.679C113.841 9.679 114.135 9.60907 114.395 9.46923C114.654 9.32939 114.858 9.11464 115.008 8.82497C115.158 8.5353 115.232 8.17071 115.232 7.73121V7.4765L113.841 7.70124C113.303 7.79114 112.909 7.92599 112.659 8.10578C112.41 8.28558 112.285 8.50533 112.285 8.76503C112.285 8.95482 112.34 9.11963 112.45 9.25947C112.57 9.39931 112.724 9.50419 112.914 9.57411C113.103 9.64403 113.303 9.679 113.512 9.679Z" fill="#446C6E"/>
<path d="M120.471 11.0874C120.361 11.0874 120.271 11.0524 120.202 10.9825C120.132 10.9126 120.097 10.8227 120.097 10.7128V5.06424H118.93C118.82 5.06424 118.731 5.02928 118.661 4.95936C118.591 4.88944 118.556 4.79954 118.556 4.68967V3.67083C118.556 3.56095 118.591 3.47105 118.661 3.40113C118.731 3.33121 118.82 3.29625 118.93 3.29625H120.097V2.75686C120.097 2.11759 120.217 1.59319 120.456 1.18365C120.695 0.77412 121.044 0.47446 121.503 0.284676C121.962 0.0948921 122.525 0 123.194 0H124.286C124.395 0 124.485 0.0349601 124.555 0.10488C124.625 0.174801 124.66 0.264699 124.66 0.374574V1.39342C124.66 1.50329 124.625 1.59319 124.555 1.66311C124.485 1.73303 124.395 1.76799 124.286 1.76799H123.283C122.914 1.76799 122.655 1.85789 122.505 2.03768C122.366 2.21748 122.296 2.48218 122.296 2.83178V3.29625H124.136C124.246 3.29625 124.336 3.33121 124.405 3.40113C124.475 3.47105 124.51 3.56095 124.51 3.67083V4.68967C124.51 4.79954 124.475 4.88944 124.405 4.95936C124.336 5.02928 124.246 5.06424 124.136 5.06424H122.296V10.7128C122.296 10.8227 122.261 10.9126 122.191 10.9825C122.121 11.0524 122.037 11.0874 121.937 11.0874H120.471Z" fill="#446C6E"/>
<path d="M129.383 11.0874C128.765 11.0874 128.236 10.9875 127.797 10.7877C127.358 10.578 127.024 10.2583 126.795 9.82882C126.576 9.39931 126.466 8.85993 126.466 8.21066V5.06424H125.299C125.189 5.06424 125.099 5.02928 125.03 4.95936C124.96 4.88944 124.925 4.79954 124.925 4.68967V3.67083C124.925 3.56095 124.96 3.47105 125.03 3.40113C125.099 3.33121 125.189 3.29625 125.299 3.29625H126.466V0.824062C126.466 0.714187 126.501 0.62429 126.571 0.55437C126.65 0.484449 126.74 0.449488 126.84 0.449488H128.306C128.416 0.449488 128.505 0.484449 128.575 0.55437C128.645 0.62429 128.68 0.714187 128.68 0.824062V3.29625H130.55C130.65 3.29625 130.734 3.33121 130.804 3.40113C130.874 3.47105 130.909 3.56095 130.909 3.67083V4.68967C130.909 4.79954 130.874 4.88944 130.804 4.95936C130.734 5.02928 130.65 5.06424 130.55 5.06424H128.68V8.03087C128.68 8.41044 128.745 8.7101 128.874 8.92985C129.014 9.13961 129.253 9.24449 129.592 9.24449H130.684C130.784 9.24449 130.869 9.27945 130.939 9.34937C131.009 9.41929 131.043 9.50419 131.043 9.60408V10.7128C131.043 10.8227 131.009 10.9126 130.939 10.9825C130.869 11.0524 130.784 11.0874 130.684 11.0874H129.383Z" fill="#446C6E"/>
<path d="M135.819 11.2372C134.672 11.2372 133.76 10.9176 133.082 10.2783C132.413 9.63904 132.059 8.7101 132.019 7.49148C132.019 7.41157 132.019 7.30669 132.019 7.17684C132.019 7.037 132.019 6.92712 132.019 6.84721C132.059 6.07809 132.234 5.41884 132.543 4.86946C132.852 4.3101 133.286 3.88558 133.845 3.59591C134.403 3.29625 135.056 3.14642 135.804 3.14642C136.642 3.14642 137.34 3.32122 137.899 3.67083C138.467 4.01044 138.891 4.47991 139.17 5.07923C139.459 5.66856 139.604 6.34778 139.604 7.11691V7.46152C139.604 7.5614 139.564 7.64631 139.484 7.71623C139.415 7.78615 139.33 7.82111 139.23 7.82111H134.338C134.338 7.8311 134.338 7.85107 134.338 7.88104C134.338 7.90102 134.338 7.92099 134.338 7.94097C134.348 8.26061 134.408 8.55527 134.518 8.82497C134.637 9.08467 134.802 9.29443 135.011 9.45425C135.231 9.61407 135.49 9.69398 135.789 9.69398C136.039 9.69398 136.243 9.65902 136.403 9.5891C136.562 9.51918 136.692 9.43427 136.792 9.33439C136.901 9.2345 136.981 9.1496 137.031 9.07968C137.121 8.97979 137.191 8.91986 137.24 8.89988C137.3 8.86992 137.39 8.85493 137.51 8.85493H139.065C139.165 8.85493 139.245 8.8849 139.305 8.94483C139.375 8.99477 139.405 9.06969 139.395 9.16957C139.385 9.32939 139.3 9.52917 139.14 9.76889C138.991 9.99863 138.766 10.2284 138.467 10.4581C138.168 10.6779 137.794 10.8626 137.345 11.0125C136.906 11.1623 136.398 11.2372 135.819 11.2372ZM134.338 6.45766H137.27V6.42769C137.27 6.0681 137.21 5.75845 137.091 5.49875C136.981 5.22905 136.817 5.01929 136.597 4.86946C136.378 4.71963 136.113 4.64472 135.804 4.64472C135.495 4.64472 135.231 4.71963 135.011 4.86946C134.792 5.01929 134.622 5.22905 134.503 5.49875C134.393 5.75845 134.338 6.0681 134.338 6.42769V6.45766Z" fill="#446C6E"/>
<path d="M141.458 11.0874C141.359 11.0874 141.274 11.0524 141.204 10.9825C141.134 10.9126 141.099 10.8227 141.099 10.7128V3.67083C141.099 3.57094 141.134 3.48604 141.204 3.41612C141.274 3.33621 141.359 3.29625 141.458 3.29625H142.925C143.024 3.29625 143.109 3.33621 143.179 3.41612C143.259 3.48604 143.298 3.57094 143.298 3.67083V4.27014C143.548 3.9605 143.852 3.72077 144.211 3.55096C144.58 3.38116 145.004 3.29625 145.483 3.29625H146.126C146.226 3.29625 146.31 3.33121 146.38 3.40113C146.45 3.47105 146.485 3.56095 146.485 3.67083V4.95936C146.485 5.06924 146.45 5.15913 146.38 5.22905C146.31 5.29897 146.226 5.33394 146.126 5.33394H144.809C144.371 5.33394 144.027 5.45879 143.777 5.70851C143.528 5.94824 143.403 6.29284 143.403 6.74233V10.7128C143.403 10.8227 143.368 10.9126 143.298 10.9825C143.229 11.0524 143.139 11.0874 143.029 11.0874H141.458Z" fill="#446C6E"/>
<path d="M148.034 4.24018C147.905 4.24018 147.81 4.20522 147.75 4.1353C147.7 4.05539 147.665 3.96549 147.645 3.8656L147.331 0.869012C147.321 0.739159 147.346 0.639273 147.406 0.569353C147.476 0.489443 147.566 0.449488 147.675 0.449488H149.171C149.291 0.449488 149.381 0.489443 149.441 0.569353C149.51 0.639273 149.535 0.739159 149.515 0.869012L149.201 3.8656C149.191 3.96549 149.156 4.05539 149.096 4.1353C149.047 4.20522 148.952 4.24018 148.812 4.24018H148.034Z" fill="#446C6E"/>
<path d="M153.91 11.2372C153.292 11.2372 152.759 11.1673 152.31 11.0275C151.871 10.8776 151.512 10.6978 151.233 10.4881C150.963 10.2783 150.759 10.0686 150.619 9.85879C150.49 9.63904 150.42 9.45425 150.41 9.30442C150.4 9.19455 150.435 9.10465 150.515 9.03473C150.594 8.96481 150.674 8.92985 150.754 8.92985H152.205C152.235 8.92985 152.265 8.93484 152.295 8.94483C152.325 8.95482 152.355 8.97979 152.385 9.01974C152.514 9.10964 152.649 9.21452 152.788 9.33439C152.928 9.44426 153.088 9.53915 153.267 9.61906C153.457 9.69897 153.691 9.73893 153.97 9.73893C154.299 9.73893 154.579 9.674 154.808 9.54415C155.037 9.40431 155.152 9.20953 155.152 8.95981C155.152 8.78002 155.097 8.63019 154.988 8.51032C154.888 8.39046 154.693 8.28058 154.404 8.1807C154.115 8.08081 153.686 7.97094 153.118 7.85107C152.579 7.73121 152.12 7.57139 151.741 7.37162C151.362 7.17185 151.078 6.92213 150.889 6.62247C150.699 6.31282 150.604 5.94324 150.604 5.51373C150.604 5.12417 150.724 4.7496 150.963 4.39001C151.213 4.03042 151.577 3.73575 152.055 3.50601C152.534 3.26629 153.133 3.14642 153.851 3.14642C154.399 3.14642 154.878 3.21634 155.287 3.35618C155.706 3.48604 156.055 3.65584 156.334 3.8656C156.613 4.06538 156.823 4.27514 156.962 4.49489C157.112 4.70465 157.192 4.88944 157.202 5.04926C157.212 5.14915 157.182 5.23405 157.112 5.30397C157.042 5.37389 156.962 5.40885 156.872 5.40885H155.541C155.491 5.40885 155.446 5.40386 155.406 5.39387C155.366 5.37389 155.332 5.34892 155.302 5.31895C155.182 5.23904 155.057 5.14915 154.928 5.04926C154.808 4.93938 154.663 4.84449 154.494 4.76458C154.324 4.68467 154.105 4.64472 153.836 4.64472C153.507 4.64472 153.252 4.71963 153.073 4.86946C152.903 5.0093 152.818 5.1891 152.818 5.40885C152.818 5.54869 152.863 5.67854 152.953 5.79841C153.043 5.91827 153.227 6.02815 153.507 6.12803C153.786 6.22792 154.21 6.3328 154.778 6.44268C155.456 6.56254 155.995 6.74233 156.394 6.98206C156.793 7.22179 157.077 7.50147 157.246 7.82111C157.426 8.13076 157.516 8.46537 157.516 8.82497C157.516 9.29443 157.376 9.71395 157.097 10.0835C156.818 10.4431 156.409 10.7278 155.87 10.9376C155.342 11.1373 154.688 11.2372 153.91 11.2372Z" fill="#446C6E"/>
<path d="M44.5178 30C43.5804 30 42.7825 29.8452 42.1243 29.5355C41.476 29.2159 40.9724 28.7564 40.6133 28.1571C40.2543 27.5478 40.0549 26.8086 40.015 25.9396C40.005 25.5301 40 25.0906 40 24.6211C40 24.1516 40.005 23.7022 40.015 23.2726C40.0549 22.4136 40.2543 21.6845 40.6133 21.0851C40.9824 20.4758 41.496 20.0114 42.1542 19.6917C42.8124 19.3721 43.6003 19.2123 44.5178 19.2123C45.186 19.2123 45.7944 19.2972 46.3429 19.467C46.8914 19.6368 47.3652 19.8815 47.7641 20.2011C48.163 20.5208 48.4722 20.8953 48.6916 21.3249C48.911 21.7544 49.0307 22.2338 49.0506 22.7632C49.0506 22.8531 49.0157 22.928 48.9459 22.988C48.8861 23.0479 48.8113 23.0779 48.7215 23.0779H47.0161C46.8964 23.0779 46.8017 23.0479 46.7319 22.988C46.6621 22.928 46.6072 22.8281 46.5673 22.6883C46.4177 22.099 46.1684 21.6944 45.8193 21.4747C45.4703 21.2549 45.0364 21.1451 44.5178 21.1451C43.8995 21.1451 43.4108 21.3149 43.0518 21.6545C42.6927 21.9941 42.4983 22.5585 42.4684 23.3476C42.4384 24.1666 42.4384 25.0057 42.4684 25.8647C42.4983 26.6538 42.6927 27.2182 43.0518 27.5578C43.4108 27.8974 43.8995 28.0672 44.5178 28.0672C45.0364 28.0672 45.4703 27.9573 45.8193 27.7376C46.1784 27.5078 46.4277 27.1033 46.5673 26.5239C46.6072 26.3741 46.6621 26.2742 46.7319 26.2243C46.8017 26.1644 46.8964 26.1344 47.0161 26.1344H48.7215C48.8113 26.1344 48.8861 26.1644 48.9459 26.2243C49.0157 26.2842 49.0506 26.3591 49.0506 26.449C49.0307 26.9784 48.911 27.4579 48.6916 27.8874C48.4722 28.3169 48.163 28.6915 47.7641 29.0111C47.3652 29.3308 46.8914 29.5755 46.3429 29.7453C45.7944 29.9151 45.186 30 44.5178 30Z" fill="#446C6E"/>
<path d="M54.1273 30C53.2996 30 52.6064 29.8652 52.0479 29.5955C51.4894 29.3158 51.0606 28.9212 50.7614 28.4118C50.4722 27.9024 50.3126 27.3081 50.2827 26.6288C50.2727 26.4291 50.2677 26.2043 50.2677 25.9546C50.2677 25.6949 50.2727 25.4701 50.2827 25.2804C50.3126 24.5911 50.4822 23.9968 50.7913 23.4974C51.1005 22.988 51.5343 22.5984 52.0928 22.3287C52.6513 22.049 53.3295 21.9092 54.1273 21.9092C54.9152 21.9092 55.5884 22.049 56.1469 22.3287C56.7054 22.5984 57.1392 22.988 57.4484 23.4974C57.7576 23.9968 57.9271 24.5911 57.957 25.2804C57.977 25.4701 57.9869 25.6949 57.9869 25.9546C57.9869 26.2043 57.977 26.4291 57.957 26.6288C57.9271 27.3081 57.7625 27.9024 57.4633 28.4118C57.1741 28.9212 56.7503 29.3158 56.1918 29.5955C55.6333 29.8652 54.9451 30 54.1273 30ZM54.1273 28.3519C54.616 28.3519 54.985 28.202 55.2344 27.9024C55.4837 27.5927 55.6183 27.1432 55.6383 26.5539C55.6482 26.4041 55.6532 26.2043 55.6532 25.9546C55.6532 25.7049 55.6482 25.5051 55.6383 25.3553C55.6183 24.7759 55.4837 24.3314 55.2344 24.0218C54.985 23.7121 54.616 23.5573 54.1273 23.5573C53.6386 23.5573 53.2647 23.7121 53.0054 24.0218C52.756 24.3314 52.6214 24.7759 52.6014 25.3553C52.5915 25.5051 52.5865 25.7049 52.5865 25.9546C52.5865 26.2043 52.5915 26.4041 52.6014 26.5539C52.6214 27.1432 52.756 27.5927 53.0054 27.9024C53.2647 28.202 53.6386 28.3519 54.1273 28.3519Z" fill="#446C6E"/>
<path d="M59.9105 29.8502C59.8108 29.8502 59.726 29.8152 59.6562 29.7453C59.5864 29.6754 59.5515 29.5855 59.5515 29.4756V22.4336C59.5515 22.3337 59.5864 22.2488 59.6562 22.1789C59.726 22.099 59.8108 22.059 59.9105 22.059H61.3766C61.4763 22.059 61.5611 22.099 61.6309 22.1789C61.7107 22.2488 61.7506 22.3337 61.7506 22.4336V23.0329C61.9999 22.7233 62.3041 22.4835 62.6631 22.3137C63.0321 22.1439 63.456 22.059 63.9347 22.059H64.578C64.6777 22.059 64.7625 22.094 64.8323 22.1639C64.9021 22.2338 64.937 22.3237 64.937 22.4336V23.7221C64.937 23.832 64.9021 23.9219 64.8323 23.9918C64.7625 24.0617 64.6777 24.0967 64.578 24.0967H63.2615C62.8227 24.0967 62.4786 24.2216 62.2293 24.4713C61.98 24.711 61.8553 25.0556 61.8553 25.5051V29.4756C61.8553 29.5855 61.8204 29.6754 61.7506 29.7453C61.6808 29.8152 61.591 29.8502 61.4813 29.8502H59.9105Z" fill="#446C6E"/>
<path d="M66.4116 29.8502C66.3119 29.8502 66.2271 29.8152 66.1573 29.7453C66.0875 29.6754 66.0526 29.5855 66.0526 29.4756V22.4336C66.0526 22.3237 66.0875 22.2338 66.1573 22.1639C66.2271 22.094 66.3119 22.059 66.4116 22.059H67.8776C67.9873 22.059 68.0771 22.094 68.1469 22.1639C68.2167 22.2338 68.2516 22.3237 68.2516 22.4336V23.0179C68.5109 22.6983 68.845 22.4336 69.2539 22.2238C69.6628 22.0141 70.1615 21.9092 70.7499 21.9092C71.3383 21.9092 71.8519 22.044 72.2907 22.3137C72.7395 22.5734 73.0886 22.958 73.3379 23.4674C73.5972 23.9669 73.7269 24.5762 73.7269 25.2953V29.4756C73.7269 29.5855 73.687 29.6754 73.6072 29.7453C73.5374 29.8152 73.4526 29.8502 73.3529 29.8502H71.7672C71.6575 29.8502 71.5677 29.8152 71.4979 29.7453C71.4281 29.6754 71.3932 29.5855 71.3932 29.4756V25.3852C71.3932 24.8558 71.2635 24.4463 71.0042 24.1566C70.7549 23.857 70.3859 23.7072 69.8972 23.7072C69.4285 23.7072 69.0545 23.857 68.7752 24.1566C68.496 24.4463 68.3564 24.8558 68.3564 25.3852V29.4756C68.3564 29.5855 68.3214 29.6754 68.2516 29.7453C68.1818 29.8152 68.097 29.8502 67.9973 29.8502H66.4116Z" fill="#446C6E"/>
<path d="M78.9899 30C77.843 30 76.9305 29.6804 76.2523 29.0411C75.5841 28.4018 75.23 27.4729 75.1901 26.2543C75.1901 26.1743 75.1901 26.0695 75.1901 25.9396C75.1901 25.7998 75.1901 25.6899 75.1901 25.61C75.23 24.8409 75.4046 24.1816 75.7137 23.6322C76.0229 23.0729 76.4567 22.6484 77.0152 22.3587C77.5737 22.059 78.227 21.9092 78.9749 21.9092C79.8127 21.9092 80.5108 22.084 81.0693 22.4336C81.6378 22.7732 82.0616 23.2427 82.3409 23.842C82.6301 24.4313 82.7747 25.1106 82.7747 25.8797V26.2243C82.7747 26.3242 82.7348 26.4091 82.655 26.479C82.5852 26.5489 82.5004 26.5839 82.4007 26.5839H77.5089C77.5089 26.5939 77.5089 26.6138 77.5089 26.6438C77.5089 26.6638 77.5089 26.6838 77.5089 26.7037C77.5189 27.0234 77.5787 27.318 77.6884 27.5877C77.8081 27.8474 77.9726 28.0572 78.1821 28.217C78.4015 28.3768 78.6608 28.4568 78.96 28.4568C79.2093 28.4568 79.4138 28.4218 79.5733 28.3519C79.7329 28.2819 79.8625 28.197 79.9623 28.0972C80.072 27.9973 80.1518 27.9124 80.2016 27.8424C80.2914 27.7426 80.3612 27.6826 80.4111 27.6627C80.4709 27.6327 80.5607 27.6177 80.6803 27.6177H82.2362C82.3359 27.6177 82.4157 27.6477 82.4755 27.7076C82.5453 27.7575 82.5752 27.8325 82.5653 27.9323C82.5553 28.0922 82.4705 28.2919 82.311 28.5317C82.1614 28.7614 81.937 28.9911 81.6378 29.2209C81.3386 29.4406 80.9646 29.6254 80.5158 29.7753C80.077 29.9251 79.5683 30 78.9899 30ZM77.5089 25.2204H80.441V25.1905C80.441 24.8309 80.3811 24.5212 80.2615 24.2615C80.1518 23.9918 79.9872 23.7821 79.7678 23.6322C79.5484 23.4824 79.2841 23.4075 78.9749 23.4075C78.6658 23.4075 78.4015 23.4824 78.1821 23.6322C77.9627 23.7821 77.7931 23.9918 77.6734 24.2615C77.5637 24.5212 77.5089 24.8309 77.5089 25.1905V25.2204Z" fill="#446C6E"/>
<path d="M84.6291 29.8502C84.5294 29.8502 84.4446 29.8152 84.3748 29.7453C84.305 29.6754 84.2701 29.5855 84.2701 29.4756V22.4336C84.2701 22.3337 84.305 22.2488 84.3748 22.1789C84.4446 22.099 84.5294 22.059 84.6291 22.059H86.0952C86.1949 22.059 86.2797 22.099 86.3495 22.1789C86.4293 22.2488 86.4692 22.3337 86.4692 22.4336V23.0329C86.7185 22.7233 87.0227 22.4835 87.3817 22.3137C87.7507 22.1439 88.1746 22.059 88.6533 22.059H89.2965C89.3963 22.059 89.4811 22.094 89.5509 22.1639C89.6207 22.2338 89.6556 22.3237 89.6556 22.4336V23.7221C89.6556 23.832 89.6207 23.9219 89.5509 23.9918C89.4811 24.0617 89.3963 24.0967 89.2965 24.0967H87.9801C87.5413 24.0967 87.1972 24.2216 86.9479 24.4713C86.6985 24.711 86.5739 25.0556 86.5739 25.5051V29.4756C86.5739 29.5855 86.539 29.6754 86.4692 29.7453C86.3994 29.8152 86.3096 29.8502 86.1999 29.8502H84.6291Z" fill="#446C6E"/>
</g>
</svg>
