<svg width="42" height="33" viewBox="0 0 42 33" fill="none" xmlns="http://www.w3.org/2000/svg">
<path opacity="0.45" d="M23.1 24.5037C23.1 19.6604 24.7059 15.0224 27.9176 10.5895C31.2118 6.15671 35.7 2.62686 41.3824 0L42 1.97015C38.3765 3.94029 35.2882 6.36194 32.7353 9.23507C30.2647 12.1082 28.9059 15.1455 28.6588 18.347C29.7294 17.3619 30.8824 16.5821 32.1177 16.0075C33.4353 15.3507 34.7529 15.0224 36.0706 15.0224C37.9647 15.0224 39.4059 15.556 40.3941 16.6231C41.4647 17.6082 42 19.0037 42 20.8097C42 22.8619 41.4647 24.8321 40.3941 26.7202C39.3235 28.5261 37.8824 30.0448 36.0706 31.2761C34.3412 32.4254 32.4471 33 30.3882 33C28 33 26.1882 32.3022 24.9529 30.9067C23.7176 29.4291 23.1 27.2948 23.1 24.5037ZM0 24.5037C0 19.6604 1.64706 15.0224 4.94118 10.5895C8.23529 6.15671 12.7235 2.62686 18.4059 0L19.0235 1.97015C15.3176 3.94029 12.2294 6.36194 9.75882 9.23507C7.28823 12.1082 5.92941 15.1455 5.68235 18.347C6.75294 17.3619 7.90588 16.5821 9.14118 16.0075C10.3765 15.3507 11.6529 15.0224 12.9706 15.0224C14.9471 15.0224 16.4294 15.556 17.4176 16.6231C18.4059 17.6082 18.9 19.0037 18.9 20.8097C18.9 22.8619 18.3647 24.8321 17.2941 26.7202C16.2235 28.5261 14.8235 30.0448 13.0941 31.2761C11.3647 32.4254 9.42941 33 7.28824 33C4.9 33 3.08824 32.3022 1.85294 30.9067C0.617647 29.4291 0 27.2948 0 24.5037Z" fill="#769496"/>
</svg>
