<svg width="30" height="30" viewBox="0 0 30 30" fill="none" xmlns="http://www.w3.org/2000/svg">
<path d="M26.7133 9.3038L25.8 3.36862C25.9415 3.238 26.0546 3.07954 26.132 2.90318C26.2095 2.72682 26.2496 2.53636 26.25 2.34375V1.40625C26.2496 1.03341 26.1013 0.675968 25.8377 0.412333C25.574 0.148699 25.2166 0.000409443 24.8438 0L5.15625 0C4.78341 0.000409443 4.42597 0.148699 4.16233 0.412333C3.8987 0.675968 3.75041 1.03341 3.75 1.40625V2.34375C3.75038 2.53636 3.79054 2.72682 3.86798 2.90318C3.94542 3.07954 4.05845 3.238 4.2 3.36862L3.28673 9.3038C3.28308 9.32736 3.28125 9.35116 3.28125 9.375V28.5938C3.28166 28.9666 3.42995 29.324 3.69358 29.5877C3.95722 29.8513 4.31466 29.9996 4.6875 30H25.3125C25.6853 29.9996 26.0428 29.8513 26.3064 29.5877C26.5701 29.324 26.7183 28.9666 26.7188 28.5938V9.375C26.7188 9.35116 26.7169 9.32736 26.7133 9.3038ZM4.6875 1.40625C4.68761 1.28196 4.73703 1.1628 4.82492 1.07492C4.9128 0.987034 5.03196 0.937612 5.15625 0.9375H24.8438C24.968 0.937612 25.0872 0.987034 25.1751 1.07492C25.263 1.1628 25.3124 1.28196 25.3125 1.40625V2.34375C25.3124 2.46804 25.263 2.5872 25.1751 2.67508C25.0872 2.76297 24.968 2.81239 24.8438 2.8125H16.4062V1.875C16.4062 1.75068 16.3569 1.63145 16.269 1.54354C16.181 1.45564 16.0618 1.40625 15.9375 1.40625H14.0625C13.9382 1.40625 13.819 1.45564 13.731 1.54354C13.6431 1.63145 13.5938 1.75068 13.5938 1.875V2.8125H5.15625C5.03196 2.81239 4.9128 2.76297 4.82492 2.67508C4.73703 2.5872 4.68761 2.46804 4.6875 2.34375V1.40625ZM15.4688 2.34375V5.15625H14.5312V2.34375H15.4688ZM25.7812 28.5938C25.7811 28.718 25.7317 28.8372 25.6438 28.9251C25.556 29.013 25.4368 29.0624 25.3125 29.0625H4.6875C4.56321 29.0624 4.44405 29.013 4.35617 28.9251C4.26828 28.8372 4.21886 28.718 4.21875 28.5938V9.41095L5.08988 3.75H13.5938V5.625C13.5938 5.74932 13.6431 5.86855 13.731 5.95646C13.819 6.04436 13.9382 6.09375 14.0625 6.09375H15.9375C16.0618 6.09375 16.181 6.04436 16.269 5.95646C16.3569 5.86855 16.4062 5.74932 16.4062 5.625V3.75H24.9101L25.7812 9.41095V28.5938ZM16.4062 15.4688C16.1281 15.4688 15.8562 15.5512 15.625 15.7057C15.3937 15.8603 15.2135 16.0799 15.107 16.3369C15.0006 16.5938 14.9728 16.8766 15.027 17.1493C15.0813 17.4221 15.2152 17.6727 15.4119 17.8694C15.6085 18.066 15.8591 18.2 16.1319 18.2542C16.4047 18.3085 16.6874 18.2806 16.9444 18.1742C17.2014 18.0678 17.421 17.8875 17.5755 17.6563C17.73 17.425 17.8125 17.1531 17.8125 16.875C17.8121 16.5022 17.6638 16.1447 17.4002 15.8811C17.1365 15.6174 16.7791 15.4692 16.4062 15.4688ZM16.4062 17.3438C16.3135 17.3438 16.2229 17.3163 16.1458 17.2648C16.0687 17.2132 16.0087 17.14 15.9732 17.0544C15.9377 16.9687 15.9284 16.8745 15.9465 16.7836C15.9646 16.6926 16.0092 16.6091 16.0748 16.5435C16.1403 16.478 16.2239 16.4333 16.3148 16.4153C16.4057 16.3972 16.5 16.4065 16.5856 16.4419C16.6713 16.4774 16.7445 16.5375 16.796 16.6146C16.8475 16.6917 16.875 16.7823 16.875 16.875C16.8749 16.9993 16.8254 17.1184 16.7376 17.2063C16.6497 17.2942 16.5305 17.3436 16.4062 17.3438ZM17.8125 19.2188C17.8125 19.4969 17.895 19.7688 18.0495 20C18.204 20.2313 18.4236 20.4115 18.6806 20.518C18.9376 20.6244 19.2203 20.6522 19.4931 20.598C19.7659 20.5437 20.0165 20.4098 20.2131 20.2131C20.4098 20.0165 20.5437 19.7659 20.598 19.4931C20.6522 19.2203 20.6244 18.9376 20.518 18.6806C20.4115 18.4236 20.2313 18.204 20 18.0495C19.7688 17.895 19.4969 17.8125 19.2188 17.8125C18.8459 17.8129 18.4885 17.9612 18.2248 18.2248C17.9612 18.4885 17.8129 18.8459 17.8125 19.2188ZM19.2188 18.75C19.3115 18.75 19.4021 18.7775 19.4792 18.829C19.5563 18.8805 19.6163 18.9537 19.6518 19.0394C19.6873 19.125 19.6966 19.2193 19.6785 19.3102C19.6604 19.4011 19.6158 19.4847 19.5502 19.5502C19.4847 19.6158 19.4011 19.6604 19.3102 19.6785C19.2193 19.6966 19.125 19.6873 19.0394 19.6518C18.9537 19.6163 18.8805 19.5563 18.829 19.4792C18.7775 19.4021 18.75 19.3115 18.75 19.2188C18.7501 19.0945 18.7995 18.9753 18.8874 18.8874C18.9753 18.7995 19.0945 18.7501 19.2188 18.75ZM17.9124 11.4247L7.63739 21.6997C7.57179 21.7652 7.52711 21.8487 7.50899 21.9397C7.49088 22.0306 7.50014 22.1249 7.53561 22.2106C7.57108 22.2962 7.63117 22.3695 7.70827 22.421C7.78537 22.4725 7.87602 22.5 7.96875 22.5H12.1875V24.8438C12.1875 25.2167 12.3357 25.5744 12.5994 25.8381C12.8631 26.1018 13.2208 26.25 13.5938 26.25C13.9667 26.25 14.3244 26.1018 14.5881 25.8381C14.8518 25.5744 15 25.2167 15 24.8438V22.5H22.5C22.6243 22.5 22.7435 22.4506 22.8315 22.3627C22.9194 22.2748 22.9688 22.1556 22.9688 22.0312C22.9741 20.0606 22.5886 18.1085 21.8344 16.2879C21.0802 14.4672 19.9724 12.8143 18.5752 11.4247C18.4873 11.3368 18.3681 11.2874 18.2438 11.2874C18.1195 11.2874 18.0003 11.3368 17.9124 11.4247ZM15 21.5625V21.0938C15 20.9694 14.9506 20.8502 14.8627 20.7623C14.7748 20.6744 14.6556 20.625 14.5312 20.625C14.4069 20.625 14.2877 20.6744 14.1998 20.7623C14.1119 20.8502 14.0625 20.9694 14.0625 21.0938V24.8438C14.0625 24.9681 14.0131 25.0873 13.9252 25.1752C13.8373 25.2631 13.7181 25.3125 13.5938 25.3125C13.4694 25.3125 13.3502 25.2631 13.2623 25.1752C13.1744 25.0873 13.125 24.9681 13.125 24.8438V21.0938C13.125 20.9694 13.0756 20.8502 12.9877 20.7623C12.8998 20.6744 12.7806 20.625 12.6562 20.625C12.5319 20.625 12.4127 20.6744 12.3248 20.7623C12.2369 20.8502 12.1875 20.9694 12.1875 21.0938V21.5625H9.10045L18.2383 12.4244C20.5738 14.9059 21.9202 18.1564 22.0236 21.5625H15Z" fill="#727272"/>
</svg>
