<svg width="56" height="56" viewBox="0 0 56 56" fill="none" xmlns="http://www.w3.org/2000/svg">
<path d="M55.9803 44.7612C55.9815 44.7289 55.9807 44.6966 55.978 44.6644L51.6444 25.5968L55.1077 8.2806C55.1092 8.25218 55.1092 8.2237 55.1077 8.19529C55.115 8.16666 55.1208 8.13766 55.125 8.1084V4.6084C55.125 4.37633 55.0328 4.15377 54.8687 3.98968C54.7046 3.82559 54.4821 3.7334 54.25 3.7334H1.75C1.51794 3.7334 1.29538 3.82559 1.13128 3.98968C0.967187 4.15377 0.875 4.37633 0.875 4.6084V8.1084C0.879248 8.13751 0.88509 8.16637 0.8925 8.19485C0.890969 8.22327 0.890969 8.25174 0.8925 8.28016L4.35575 25.5964L0.0219625 44.6644C0.019282 44.6966 0.0185223 44.7289 0.0196875 44.7612C0.0111378 44.7932 0.00456287 44.8256 0 44.8584L0 51.8584C0 52.0905 0.0921872 52.313 0.256282 52.4771C0.420376 52.6412 0.642936 52.7334 0.875 52.7334H55.125C55.3571 52.7334 55.5796 52.6412 55.7437 52.4771C55.9078 52.313 56 52.0905 56 51.8584V44.8584C55.9954 44.8256 55.9889 44.7932 55.9803 44.7612ZM5.94869 26.4834H14.9545C10.3747 27.7845 6.7613 29.7613 4.66043 32.1515L5.94869 26.4834ZM50.0513 26.4834L51.3396 32.1515C49.2387 29.7613 45.6253 27.7845 41.0455 26.4834H50.0513ZM10.4585 43.9834C6.69891 42.1171 4.375 39.6753 4.375 37.0411C4.375 31.3494 15.1938 26.5411 28 26.5411C40.8062 26.5411 51.625 31.3494 51.625 37.0411C51.625 39.6749 49.3011 42.1171 45.5415 43.9834H31.5C31.2679 43.9834 31.0454 44.0756 30.8813 44.2397C30.7172 44.4038 30.625 44.6263 30.625 44.8584C30.625 45.5546 30.3484 46.2223 29.8562 46.7146C29.3639 47.2068 28.6962 47.4834 28 47.4834C27.3038 47.4834 26.6361 47.2068 26.1438 46.7146C25.6516 46.2223 25.375 45.5546 25.375 44.8584C25.375 44.6263 25.2828 44.4038 25.1187 44.2397C24.9546 44.0756 24.7321 43.9834 24.5 43.9834H10.4585ZM6.97279 43.9834H1.97137L3.03748 39.2924C3.85239 41.2134 5.2228 42.8469 6.97279 43.9834ZM52.9628 39.2924L54.0286 43.9834H49.0272C50.7772 42.8469 52.1479 41.2134 52.9628 39.2924ZM2.625 5.4834H53.375V7.2334H31.5C31.2679 7.2334 31.0454 7.32559 30.8813 7.48968C30.7172 7.65377 30.625 7.87633 30.625 8.1084C30.625 8.80459 30.3484 9.47227 29.8562 9.96455C29.3639 10.4568 28.6962 10.7334 28 10.7334C27.3038 10.7334 26.6361 10.4568 26.1438 9.96455C25.6516 9.47227 25.375 8.80459 25.375 8.1084C25.375 7.87633 25.2828 7.65377 25.1187 7.48968C24.9546 7.32559 24.7321 7.2334 24.5 7.2334H2.625V5.4834ZM2.8175 8.9834H23.713C23.9148 9.97148 24.4517 10.8595 25.2328 11.4973C26.014 12.1351 26.9915 12.4835 28 12.4835C29.0085 12.4835 29.986 12.1351 30.7672 11.4973C31.5483 10.8595 32.0852 9.97148 32.287 8.9834H53.1825L50.0325 24.7334H5.9675L2.8175 8.9834ZM54.25 50.9834H1.75V45.7334H23.713C23.9148 46.7215 24.4517 47.6095 25.2328 48.2473C26.014 48.8851 26.9915 49.2335 28 49.2335C29.0085 49.2335 29.986 48.8851 30.7672 48.2473C31.5483 47.6095 32.0852 46.7215 32.287 45.7334H54.25V50.9834ZM24.5 41.3584C24.5 42.8302 26.0372 43.9834 28 43.9834C29.9628 43.9834 31.5 42.8302 31.5 41.3584C31.5 39.8866 29.9628 38.7334 28 38.7334C26.0372 38.7334 24.5 39.8866 24.5 41.3584ZM29.75 41.3584C29.75 41.7151 29.0681 42.2334 28 42.2334C26.9319 42.2334 26.25 41.7151 26.25 41.3584C26.25 41.0017 26.9319 40.4834 28 40.4834C29.0681 40.4834 29.75 41.0017 29.75 41.3584ZM17.5 37.8584C15.5372 37.8584 14 39.0116 14 40.4834C14 41.9552 15.5372 43.1084 17.5 43.1084C19.4628 43.1084 21 41.9552 21 40.4834C21 39.0116 19.4628 37.8584 17.5 37.8584ZM17.5 41.3584C16.4319 41.3584 15.75 40.8401 15.75 40.4834C15.75 40.1267 16.4319 39.6084 17.5 39.6084C18.5681 39.6084 19.25 40.1267 19.25 40.4834C19.25 40.8401 18.5681 41.3584 17.5 41.3584ZM34.125 40.4834C34.125 41.9552 35.6622 43.1084 37.625 43.1084C39.5878 43.1084 41.125 41.9552 41.125 40.4834C41.125 39.0116 39.5878 37.8584 37.625 37.8584C35.6622 37.8584 34.125 39.0116 34.125 40.4834ZM39.375 40.4834C39.375 40.8401 38.6931 41.3584 37.625 41.3584C36.5569 41.3584 35.875 40.8401 35.875 40.4834C35.875 40.1267 36.5569 39.6084 37.625 39.6084C38.6931 39.6084 39.375 40.1267 39.375 40.4834ZM28 32.6084C29.9628 32.6084 31.5 31.4552 31.5 29.9834C31.5 28.5116 29.9628 27.3584 28 27.3584C26.0372 27.3584 24.5 28.5116 24.5 29.9834C24.5 31.4552 26.0372 32.6084 28 32.6084ZM28 29.1084C29.0681 29.1084 29.75 29.6267 29.75 29.9834C29.75 30.3401 29.0681 30.8584 28 30.8584C26.9319 30.8584 26.25 30.3401 26.25 29.9834C26.25 29.6267 26.9319 29.1084 28 29.1084ZM18.375 29.9834C16.4122 29.9834 14.875 31.1366 14.875 32.6084C14.875 34.0802 16.4122 35.2334 18.375 35.2334C20.3378 35.2334 21.875 34.0802 21.875 32.6084C21.875 31.1366 20.3378 29.9834 18.375 29.9834ZM18.375 33.4834C17.3069 33.4834 16.625 32.9651 16.625 32.6084C16.625 32.2517 17.3069 31.7334 18.375 31.7334C19.4431 31.7334 20.125 32.2517 20.125 32.6084C20.125 32.9651 19.4431 33.4834 18.375 33.4834ZM36.75 34.3584C38.7128 34.3584 40.25 33.2052 40.25 31.7334C40.25 30.2616 38.7128 29.1084 36.75 29.1084C34.7872 29.1084 33.25 30.2616 33.25 31.7334C33.25 33.2052 34.7872 34.3584 36.75 34.3584ZM36.75 30.8584C37.8181 30.8584 38.5 31.3767 38.5 31.7334C38.5 32.0901 37.8181 32.6084 36.75 32.6084C35.6819 32.6084 35 32.0901 35 31.7334C35 31.3767 35.6819 30.8584 36.75 30.8584ZM10.5 33.4834C8.5372 33.4834 7 34.6366 7 36.1084C7 37.5802 8.5372 38.7334 10.5 38.7334C12.4628 38.7334 14 37.5802 14 36.1084C14 34.6366 12.4628 33.4834 10.5 33.4834ZM10.5 36.9834C9.43189 36.9834 8.75 36.4651 8.75 36.1084C8.75 35.7517 9.43189 35.2334 10.5 35.2334C11.5681 35.2334 12.25 35.7517 12.25 36.1084C12.25 36.4651 11.5681 36.9834 10.5 36.9834ZM45.5 38.7334C47.4628 38.7334 49 37.5802 49 36.1084C49 34.6366 47.4628 33.4834 45.5 33.4834C43.5372 33.4834 42 34.6366 42 36.1084C42 37.5802 43.5372 38.7334 45.5 38.7334ZM45.5 35.2334C46.5681 35.2334 47.25 35.7517 47.25 36.1084C47.25 36.4651 46.5681 36.9834 45.5 36.9834C44.4319 36.9834 43.75 36.4651 43.75 36.1084C43.75 35.7517 44.4319 35.2334 45.5 35.2334ZM24.5 36.9838C24.292 36.9842 24.0906 36.9104 23.9321 36.7758C23.7735 36.6411 23.6681 36.4544 23.6348 36.249C23.6015 36.0437 23.6424 35.8332 23.7502 35.6553C23.858 35.4774 24.0257 35.3437 24.2232 35.2783L26.8482 34.4033C26.9572 34.3669 27.0723 34.3524 27.1869 34.3605C27.3015 34.3687 27.4134 34.3993 27.5162 34.4507C27.619 34.502 27.7107 34.5732 27.786 34.66C27.8613 34.7468 27.9188 34.8475 27.9551 34.9566C27.9915 35.0656 28.006 35.1807 27.9979 35.2953C27.9897 35.4099 27.9591 35.5218 27.9077 35.6246C27.8564 35.7274 27.7852 35.8191 27.6984 35.8944C27.6116 35.9697 27.5109 36.0272 27.4018 36.0635L24.7768 36.9385C24.6876 36.9685 24.5941 36.9838 24.5 36.9838ZM31.5449 37.2602C31.5085 37.1512 31.494 37.0361 31.5021 36.9215C31.5102 36.8069 31.5409 36.695 31.5922 36.5922C31.6436 36.4894 31.7147 36.3977 31.8015 36.3224C31.8883 36.2471 31.9891 36.1896 32.0982 36.1533L34.7232 35.2783C34.9433 35.2049 35.1836 35.2219 35.3912 35.3257C35.5988 35.4294 35.7567 35.6114 35.8301 35.8316C35.9035 36.0517 35.8865 36.292 35.7827 36.4996C35.679 36.7072 35.497 36.8651 35.2768 36.9385L32.6518 37.8135C32.5428 37.8501 32.4277 37.8647 32.313 37.8567C32.1983 37.8486 32.0864 37.8181 31.9835 37.7667C31.8807 37.7153 31.789 37.6441 31.7137 37.5572C31.6385 37.4703 31.5811 37.3694 31.5449 37.2602Z" fill="white"/>
</svg>
