<svg width="47" height="47" viewBox="0 0 47 47" fill="none" xmlns="http://www.w3.org/2000/svg">
<circle cx="23.2124" cy="23.2123" r="23" transform="rotate(0.531437 23.2124 23.2123)" fill="#ED1C24"/>
<path d="M16.0038 15.183C16.0042 13.3927 17.4768 11.8276 19.3787 12.0153C25.7509 12.6445 31.4167 15.6737 35.46 20.1834C36.7396 21.6107 36.3421 23.7293 34.8873 24.7838L34.3815 25.1505L33.9474 24.5038L33.938 24.4908C30.1198 19.2194 23.9113 15.7876 16.9014 15.7876H16.0037L16.0038 15.183ZM32.4753 25.5307L32.9277 26.2046C31.1845 27.4688 29.284 28.8476 28.2056 29.632L27.9638 29.8123V32.3262C27.9638 32.9869 27.4282 33.5226 26.7674 33.5226C26.1067 33.5226 25.571 32.9869 25.571 32.3262V32.2538C25.5339 31.9568 25.2807 31.7264 24.9775 31.7264C24.6471 31.7264 24.3793 31.9942 24.3793 32.3246V34.1224C24.3793 34.7832 23.8437 35.3188 23.183 35.3188C22.5628 35.3188 22.0528 34.847 21.9925 34.2427C21.4361 34.6437 20.8408 35.0733 20.2697 35.4856C18.489 36.7714 15.9995 35.4992 16 33.302L16.0033 17.5821H16.9014C23.306 17.5821 28.9794 20.7125 32.4753 25.5307ZM20.7902 22.7558C21.4509 22.7558 21.9866 22.2202 21.9866 21.5594C21.9866 20.8987 21.4509 20.363 20.7902 20.363C20.1294 20.363 19.5938 20.8987 19.5938 21.5594C19.5938 22.2202 20.1294 22.7558 20.7902 22.7558ZM25.5757 26.3427C26.2365 26.3427 26.7721 25.807 26.7721 25.1463C26.7721 24.4855 26.2365 23.9499 25.5757 23.9499C24.915 23.9499 24.3793 24.4855 24.3793 25.1463C24.3793 25.807 24.915 26.3427 25.5757 26.3427ZM20.7902 29.9285C21.4509 29.9285 21.9866 29.3929 21.9866 28.7322C21.9866 28.0714 21.4509 27.5358 20.7902 27.5358C20.1294 27.5358 19.5938 28.0714 19.5938 28.7322C19.5938 29.3929 20.1294 29.9285 20.7902 29.9285Z" fill="white"/>
</svg>
