<svg width="47" height="47" viewBox="0 0 47 47" fill="none" xmlns="http://www.w3.org/2000/svg">
<circle cx="23.2124" cy="23.2123" r="23" transform="rotate(0.531437 23.2124 23.2123)" fill="#ED1C24"/>
<path d="M24.5505 12.2747C24.1292 11.9084 23.5025 11.9084 23.0812 12.2747C21.144 13.9593 20.1463 16.2859 20.0881 18.6318C20.0824 18.861 20.2189 19.0666 20.4225 19.1718C21.1267 19.5356 21.8084 19.9921 22.4694 20.5521C22.7794 20.8147 23.0609 21.0904 23.3163 21.3715C23.5811 21.6629 24.0507 21.6629 24.3155 21.3715C24.571 21.0903 24.8525 20.8146 25.1626 20.5519C25.8226 19.9928 26.5043 19.5369 27.2089 19.1735C27.4127 19.0684 27.5493 18.8627 27.5436 18.6334C27.4859 16.287 26.4882 13.9597 24.5505 12.2747ZM23.8159 31.2379C25.7248 27.8585 29.5809 25.8083 33.6485 26.3506C34.236 26.429 34.6752 26.953 34.6286 27.5592C34.2622 32.322 30.2907 35.9997 25.5139 35.9997H23.8622L23.8367 36H22.1181C17.3413 36 13.3698 32.3222 13.0034 27.5595C12.9568 26.9532 13.396 26.4292 13.9835 26.3509C18.051 25.8086 21.907 27.8586 23.8159 31.2379ZM33.0176 25.0842C30.7944 24.9614 28.6203 25.5414 26.8485 26.4855C25.7865 27.0514 24.8138 27.7794 24.0542 28.618C23.9274 28.7581 23.7044 28.7581 23.5776 28.618C22.818 27.7794 21.8453 27.0514 20.7833 26.4856C19.016 25.5439 16.8484 24.9645 14.6312 25.0835C13.7528 23.7011 13.1514 22.1109 13.006 20.511C12.9477 19.87 13.4251 19.3115 14.0584 19.2587C17.0125 19.0125 19.4787 19.596 21.6915 21.4704C22.6892 22.3156 23.3598 23.3315 23.8159 24.1976C24.2721 23.3315 24.9427 22.3155 25.9405 21.4703C28.1542 19.5951 30.6378 19.0126 33.5906 19.2587C34.2239 19.3115 34.7012 19.87 34.643 20.511C34.4975 22.1111 33.8961 23.7016 33.0176 25.0842Z" fill="white"/>
</svg>
