<svg width="95" height="73" viewBox="0 0 95 73" fill="none" xmlns="http://www.w3.org/2000/svg">
<path d="M87.2416 40.5038C87.8746 41.5498 88.3456 42.3608 88.8506 43.1508C89.6426 44.3908 89.8666 45.6568 88.9556 46.9848C89.4996 47.6708 89.9806 48.2788 90.5676 49.0178C90.2766 49.5518 90.0206 50.1198 89.6756 50.6248C89.3636 51.0828 88.9226 51.4508 88.5966 51.9008C88.0926 52.5968 87.8906 53.3378 88.5096 54.0968C88.6096 54.2198 88.6946 54.3598 88.7666 54.5008C89.8196 56.5608 89.5206 57.6298 87.5336 58.9068C87.3386 59.0328 87.1316 59.1408 86.8486 59.3038C86.8886 59.6908 86.9046 60.0797 86.9726 60.4597C87.2196 61.8447 86.9346 62.9497 85.6156 63.7307C84.6776 64.2857 84.1236 65.0198 84.5926 66.3228C84.9426 67.2928 84.1906 68.4378 83.1956 68.8148C82.4586 69.0948 81.6556 69.2288 80.8706 69.3528C80.1646 69.4648 79.4426 69.4757 79.1436 69.4987C78.1536 70.3597 77.4166 70.9688 76.7166 71.6178C75.8746 72.3978 74.9636 72.6628 73.8606 72.2188C72.8296 71.8047 71.7756 71.4458 70.5316 70.9908C69.6686 71.3908 68.6466 71.8318 67.6546 72.3318C66.2966 73.0168 65.0706 72.8727 63.8396 71.9807C62.6196 71.0977 61.3266 70.3178 60.0846 69.5038C57.0306 70.8168 54.1316 69.9148 51.2346 69.4438C50.4336 69.3128 49.7226 68.8338 49.3606 68.0648C48.6586 66.5778 47.4806 65.9948 45.8916 65.9748C45.1806 65.9668 44.4756 65.7448 43.7626 65.6808C42.3766 65.5568 41.1236 65.0828 39.8696 64.2628C39.5646 64.4058 39.2036 64.5468 38.8716 64.7378C38.0576 65.2048 37.2756 65.2528 36.3586 64.9188C34.4836 64.2348 32.5636 63.6768 30.6576 63.0788C29.5916 62.7448 28.5076 62.4668 27.4516 62.1068C26.5476 61.7988 25.6576 61.4427 24.7866 61.0508C23.4746 60.4598 22.2046 59.7728 20.8776 59.2208C20.0786 58.8878 19.2166 58.5928 18.3636 58.5278C15.2976 58.2928 14.5396 57.9848 12.4966 55.7688C12.0906 55.6998 11.6136 55.6468 11.1516 55.5338C9.67259 55.1688 8.47459 54.3718 7.92859 52.9238C7.58559 52.0128 7.02659 51.4687 6.17859 51.1057C5.81459 50.9487 5.48058 50.7168 5.14158 50.5048C2.35958 48.7688 1.56359 46.9257 2.16159 43.6407C2.21759 43.3317 2.23058 43.0158 2.26558 42.6888C2.04458 42.4158 1.89058 42.1048 1.63958 41.9398C0.341585 41.0858 0.259585 39.9018 0.639585 38.5608C0.791585 38.0228 0.877585 37.4628 1.05859 36.9358C1.43959 35.8228 1.34858 34.8477 0.827584 33.7267C0.305584 32.6007 0.229584 31.2608 0.0115843 30.0068C-0.0384157 29.7188 0.0825841 29.3758 0.199584 29.0878C0.617584 28.0528 1.09259 27.0388 1.49959 25.9998C1.87759 25.0348 2.19458 24.0468 2.54858 23.0408C1.86058 20.6998 1.13858 18.3378 0.476584 15.9578C-0.000415534 14.2438 0.951584 11.6348 2.50858 10.7038C3.59658 10.0538 4.29958 9.23876 4.83558 8.09676C5.79458 6.04976 7.29259 4.42476 9.12159 3.05476C10.4126 2.08676 11.8136 1.35376 13.1956 0.558762C14.0836 0.0477622 14.9806 -0.13524 15.9546 0.10376C18.0046 0.60676 20.0896 0.533759 22.1596 0.411759C24.4046 0.280759 26.4086 1.00176 28.3666 1.91576C29.5236 2.45576 30.6336 3.10376 31.7276 3.76276C32.9726 4.51376 34.2666 5.03076 35.7086 5.34076C37.0936 5.63776 38.4036 6.29575 39.7406 6.80975C40.3246 7.03275 40.7726 7.28676 41.4766 6.78676C41.9256 6.46876 42.9466 6.57576 43.5126 6.87276C45.3496 7.83376 47.2536 8.58376 49.1986 9.28876C50.6136 9.80176 51.9556 10.5618 53.2586 11.3318C54.2536 11.9198 55.2576 12.2698 56.4116 12.3268C57.7076 12.3908 58.8116 12.8158 59.8506 13.7528C61.3886 15.1368 63.1766 16.1978 65.3386 16.4748C66.0206 16.5628 66.7086 16.9268 67.3046 17.3048C68.8856 18.3058 70.6296 18.8238 72.4266 19.2308C73.0476 19.3718 73.6556 19.5808 74.2556 19.7998C75.6166 20.2988 76.9896 20.5988 78.4636 20.5758C81.2136 20.5338 83.9426 21.1007 86.4126 22.1478C89.7886 23.5788 92.4916 25.9628 93.7776 29.6038C93.9616 30.1258 94.0856 30.7138 94.4156 31.1288C95.1896 32.1038 95.1146 33.0208 94.4826 33.9908C94.0906 34.5938 93.6376 35.1668 93.3276 35.8098C92.2866 37.9648 90.6826 39.3598 88.2946 39.8298C87.9436 39.9018 87.6436 40.2388 87.2416 40.5038ZM20.5666 31.6718C19.3866 31.7958 18.4196 31.2268 17.4096 30.7448C15.8986 30.0228 14.4146 29.1668 12.8206 28.7178C9.61658 27.8158 6.70659 26.4238 4.10259 24.3628C3.88159 24.1878 3.57058 24.1268 3.26558 23.9978C2.59858 25.8418 1.94959 27.5438 1.38059 29.2708C1.21459 29.7758 1.23559 30.3568 1.24159 30.9018C1.26059 32.3818 1.98659 33.6348 2.60359 34.7188C2.28359 36.0768 1.98158 37.2348 1.74458 38.4068C1.51058 39.5648 1.67659 40.6147 2.66859 41.4377C3.02559 41.7337 3.26059 42.1778 3.58259 42.5968C3.50459 42.9088 3.42459 43.2087 3.35359 43.5117C2.66359 46.4478 3.70759 49.4248 6.97159 50.3288C8.06359 50.6318 8.76258 51.2018 8.98858 52.4088C9.26958 53.9028 10.4936 54.3538 11.8256 54.5318C12.2866 54.5928 12.7636 54.5417 13.2966 54.5417C13.5356 54.8697 13.8166 55.1618 13.9876 55.5088C14.5376 56.6198 15.5746 57.0777 16.6356 57.4207C18.1376 57.9057 19.2476 57.2268 19.3706 55.6718C19.4766 54.3288 19.4546 52.9478 19.2666 51.6158C18.8596 48.7318 19.0716 45.8587 19.4246 43.0157C19.5866 41.7067 19.5986 40.4938 19.2896 39.2458C18.7716 37.1458 18.9926 35.1287 19.9156 33.1758C20.1516 32.6787 20.3196 32.1488 20.5196 31.6338C20.9616 31.0948 21.0066 30.4948 20.8176 29.8768C19.3756 28.8908 19.2906 28.6168 19.9506 27.1958C20.2036 26.6518 20.4506 26.1058 20.7786 25.3908C19.3046 24.9008 18.0256 24.4908 16.7576 24.0478C12.6736 22.6188 8.76158 20.8978 5.58458 17.8158C4.41658 16.6818 3.40758 15.5018 2.94158 13.9148C2.82158 13.5088 2.61558 13.1268 2.28258 12.3418C1.74758 13.8608 1.38959 14.9568 1.73459 16.1488C1.94959 16.8908 2.24359 17.6118 2.46759 18.2478C2.94459 18.3138 3.29059 18.3618 3.81859 18.4368C3.40159 18.9968 2.94659 19.3378 2.90859 19.7218C2.85759 20.2398 2.99759 20.8738 3.28458 21.3078C3.93758 22.2928 4.59959 23.3428 5.49259 24.0838C7.21659 25.5148 9.23559 26.6318 11.3736 27.1768C14.2726 27.9158 16.8406 29.3568 19.5766 30.4298C20.1466 30.6528 20.4766 31.0658 20.5666 31.6718ZM43.9856 41.1908L44.0376 41.2338C42.8556 40.9098 41.8696 39.9338 40.3696 40.0938C40.2536 41.8198 40.1846 43.4837 40.0186 45.1367C39.8446 46.8727 39.5776 48.5998 39.3586 50.2678C39.7676 50.6078 40.0686 50.8588 40.4086 51.1418C40.1786 51.8558 39.4886 52.4797 39.9236 53.3477C40.0106 53.5217 39.9816 53.7998 39.9126 53.9978C39.2176 56.0118 39.0166 57.4028 39.2236 58.9908C39.7956 59.4478 40.8596 58.7787 41.1966 59.8217C41.0466 59.9107 40.9166 60.0528 40.7866 60.0518C40.1066 60.0508 39.4636 60.1418 39.2746 60.9138C39.0916 61.6638 39.3186 62.2767 39.9456 62.8177C41.0626 63.7827 42.2596 64.5058 43.7586 64.6608C44.7916 64.7668 45.8216 64.9038 46.8516 65.0348C48.3606 65.2268 49.6226 65.8247 50.2726 67.2917C50.5246 67.8587 50.9296 68.1978 51.4766 68.3658C53.7126 69.0518 56.0126 69.5828 58.2986 68.8458C59.7776 68.3708 60.9496 68.7008 62.1296 69.4758C62.9966 70.0448 63.8566 70.6258 64.7096 71.2158C65.4956 71.7588 66.2996 71.9208 67.1706 71.4178C67.4466 71.2578 67.7476 71.1418 68.0246 70.9838C69.6276 70.0748 71.2116 69.5008 72.9046 70.8548C73.2396 71.1228 73.8166 71.1028 74.2876 71.1858C75.4656 71.3928 76.3406 70.8647 76.8756 69.8867C77.1026 69.4717 76.9996 68.8748 77.0546 68.2588C77.4686 68.3468 77.7686 68.4768 78.0626 68.4618C79.4076 68.3948 80.7736 68.4098 82.0846 68.1548C83.1406 67.9508 83.5376 67.2567 83.2146 66.1747C82.9346 65.2367 83.2546 64.6247 83.7806 64.0067C84.0866 63.6477 84.4686 63.3507 84.8256 63.0367C85.9636 62.0397 86.1416 61.2548 85.4856 59.8988C85.3286 59.5728 85.0856 59.2898 84.7926 58.8548C85.5746 58.5598 86.1656 58.3568 86.7416 58.1178C88.3336 57.4558 88.6466 56.4188 87.7266 54.8878C87.6036 54.6828 87.4556 54.4918 87.3086 54.3028C86.5486 53.3228 86.6506 52.3948 87.4606 51.4968C87.8336 51.0828 88.2266 50.6807 88.5476 50.2267C88.8046 49.8637 88.9666 49.4318 89.3156 48.7478C88.9446 48.5098 88.5796 48.3268 88.2776 48.0688C87.6496 47.5338 87.5416 46.8758 87.9226 46.1348C88.7826 44.4648 87.9796 43.2397 86.8246 42.1237C86.7316 42.0337 86.5296 42.0568 86.3616 42.0218C85.6606 42.2718 85.1806 42.7258 84.9916 43.6228C86.3006 44.1428 87.2416 44.9488 86.7566 46.5098C86.4466 47.5068 85.5606 47.9927 84.2226 47.9857C84.2696 47.2207 84.9576 47.0128 85.3986 46.5778C85.7076 46.2738 85.8836 45.8337 86.0996 45.4857C85.4576 44.5557 84.5156 44.5287 83.7906 44.1017C82.3646 44.7877 81.0246 45.4308 79.7976 46.0208C79.8386 46.6948 79.8666 47.1488 79.9016 47.7238C78.4786 46.7938 77.1986 47.1817 75.9316 47.5847C74.1076 48.1647 72.2756 48.7268 70.4796 49.3848C69.0036 49.9268 67.4966 49.9648 66.0016 49.7388C64.6706 49.5378 63.3246 49.2278 62.0766 48.7348C59.3326 47.6528 56.6476 46.4208 53.9326 45.2648C53.8186 45.2158 53.6416 45.3148 53.4946 45.3448C53.5936 45.8948 54.5086 46.2168 53.9676 47.0247C53.0906 46.5817 52.2886 46.0728 51.4176 45.7608C50.3286 45.3718 49.3766 45.6327 48.7976 46.7567C48.7236 46.9017 48.5516 46.9958 48.1356 47.3858C48.2046 46.6398 48.1406 46.2308 48.2896 45.9238C48.8516 44.7668 50.0556 44.6958 51.1416 44.4268C49.3246 43.5388 47.5656 42.6598 45.7866 41.8238C45.2126 41.5608 44.5866 41.4008 43.9856 41.1908ZM21.0426 33.9478C20.3726 34.5698 20.6446 35.4578 20.4026 36.1988C19.9076 37.7188 20.0226 39.1838 20.6546 40.6398C20.8066 40.9918 21.0006 41.4878 20.8676 41.7728C20.1596 43.2908 20.4896 44.9308 20.2216 46.4978C20.0216 47.6668 19.9606 48.8997 20.0936 50.0757C20.3706 52.5347 20.5426 54.9818 20.1416 57.5308C20.8686 57.9828 21.5126 58.4537 22.2166 58.8047C23.4286 59.4107 24.6696 59.9638 25.9156 60.4968C26.6466 60.8098 27.4066 61.0648 28.1656 61.3098C29.9116 61.8698 31.6676 62.3998 33.4136 62.9588C34.9006 63.4348 36.3806 63.9258 38.0196 63.9188C38.2776 62.4078 38.1576 61.0698 38.0176 59.7168C37.9286 58.8558 37.9996 57.9718 38.0596 57.1028C38.1586 55.6718 38.3976 54.2458 38.4086 52.8158C38.4226 51.1308 38.4936 49.4718 38.8406 47.8148C39.5046 44.6538 39.4486 41.4708 38.9456 38.1788C39.8116 37.0368 39.9216 35.7058 39.7846 34.1978C39.6426 32.6358 39.9826 31.0368 40.3506 29.4448C41.1886 29.0588 41.9816 28.6938 42.7736 28.3288C43.3706 28.0538 43.9386 27.7168 44.0516 27.0098C44.2046 26.0518 44.8076 25.4448 45.5396 24.9278C47.2356 23.7338 48.9536 22.5708 50.6436 21.3668C52.9196 19.7468 55.1926 18.1218 57.4306 16.4508C57.9806 16.0408 58.3916 15.4448 58.8616 14.9378C57.4316 13.5218 57.4346 13.4728 55.9456 13.3778C54.8856 13.3118 53.9126 13.1398 53.0136 12.5098C50.3626 10.6548 47.2276 9.85876 44.2986 8.61176C44.0796 8.51776 43.8206 8.51276 43.6106 8.40776C42.8016 8.00276 42.0416 8.17276 41.3376 8.62076C39.9926 9.47676 38.6456 10.3328 37.3486 11.2578C33.6346 13.9058 30.2276 16.9318 26.7896 19.9218C24.3966 22.0038 22.6226 24.5128 21.2236 27.3208C21.1296 27.5088 21.1696 27.7628 21.1516 27.9498C21.7206 28.2938 22.2366 28.6038 22.7706 28.9268C22.1446 30.7078 21.5676 32.3488 20.9906 33.9888L21.0426 33.9478ZM41.2676 30.1228C41.1726 31.1738 41.8276 31.5268 42.4836 31.8078C43.9506 32.4328 45.4426 32.9998 46.9206 33.5998C48.3976 34.1988 49.8716 34.8058 51.3446 35.4148C53.3286 36.2368 55.2816 37.1478 57.3036 37.8638C58.7986 38.3918 60.3546 38.8008 61.9806 38.7808C63.5126 38.7628 64.9656 39.0718 66.4076 39.6528C68.1386 40.3498 69.9516 40.5098 71.7856 39.8498C74.1066 39.0148 76.4506 38.2428 78.7876 37.4498C79.3146 37.2698 79.8386 37.0207 80.3816 36.9597C83.0876 36.6537 85.4216 35.4748 87.5476 33.8798C89.4336 32.4658 91.0156 30.8228 90.6686 28.1398C90.6016 27.6178 90.7626 27.0658 90.8116 26.5918C89.4696 24.9998 87.9186 23.9018 86.1126 23.1798C84.0306 22.3488 81.8776 21.6238 79.6416 21.5678C75.7966 21.4708 72.4176 19.6158 68.7366 18.9438C66.5096 17.6088 63.9016 17.3588 61.5346 16.4178C61.0286 16.2168 60.4596 16.1738 59.9036 16.0548C56.0966 18.7608 52.3346 21.4348 48.4266 24.2128C48.7076 24.4158 48.8746 24.6008 49.0816 24.6748C50.5066 25.1918 51.9306 25.7198 53.3776 26.1678C53.8926 26.3268 54.4736 26.2908 55.0246 26.3038C55.1196 26.3058 55.2186 26.1008 55.3506 25.9528C55.1566 25.4318 54.9416 24.8568 54.6796 24.1528C55.2006 24.0628 55.5956 23.8888 55.9476 23.9518C57.5096 24.2288 59.0566 24.5878 60.6156 24.8878C60.9866 24.9588 61.4146 24.9958 61.6426 24.2908C61.1906 23.8718 60.6986 23.3818 60.1696 22.9338C59.6836 22.5218 59.1266 22.1888 58.6646 21.7528C58.4056 21.5098 58.1166 21.1448 58.5606 20.7578C60.1566 21.2718 61.2456 22.4348 62.2766 23.6548C62.8236 24.3038 62.8686 24.8788 62.4846 25.3908C62.0506 25.9708 61.4806 26.1358 60.7896 25.9108C60.4866 25.8118 60.1786 25.7148 59.8656 25.6578C58.8616 25.4748 57.8536 25.3108 56.8636 25.1428C56.7946 25.4168 56.7236 25.5588 56.7306 25.6978C56.7926 27.0458 56.5976 27.3788 55.4316 27.3318C54.4906 27.2938 53.5326 27.1128 52.6296 26.8378C50.8056 26.2808 49.0136 25.6158 47.2516 25.0118C46.2236 25.6868 45.3006 26.2938 45.0036 27.4978C44.8126 28.2708 44.1306 28.6088 43.5036 28.9568C42.7486 29.3738 41.9756 29.7548 41.2676 30.1228ZM39.8036 7.93275C37.9426 7.42075 36.6226 6.51677 35.0466 6.25977C33.5136 6.01077 32.1736 5.34876 30.8706 4.55576C29.9846 4.01676 29.1056 3.43676 28.1546 3.04276C26.5426 2.37376 24.9516 1.60476 23.1446 1.53476C20.5996 1.43576 18.0566 1.28175 15.5106 1.16975C15.0436 1.14875 14.4846 1.06676 14.1176 1.27576C12.4666 2.21776 10.7206 3.08176 9.29358 4.30576C7.81458 5.57476 6.33659 6.95276 5.69959 8.97376C5.47659 9.68176 4.77358 10.2288 4.34858 10.8858C4.10158 11.2668 3.77658 11.7448 3.82258 12.1408C3.97758 13.4898 4.28958 14.8498 5.23658 15.8828C9.51058 20.5438 15.0286 22.8368 20.8996 24.1538C24.0186 21.2738 26.9336 18.4288 30.0166 15.7808C33.0696 13.1598 36.2916 10.7338 39.8036 7.93275ZM41.1416 32.5498C40.4826 33.5778 41.1036 34.5158 41.0156 35.4088C40.9256 36.3258 40.6136 37.2198 40.3686 38.2508C41.3006 38.6718 42.1516 39.0918 43.0276 39.4438C44.7996 40.1588 46.6306 40.7277 48.2306 41.8347C48.7426 42.1887 49.3806 42.3688 49.9766 42.5878C50.9446 42.9448 51.9876 43.1528 52.8896 43.6308C55.5076 45.0158 58.2716 46.0508 60.9916 47.1938C61.7246 47.5018 62.4306 47.8798 63.1776 48.1488C66.0106 49.1718 68.8326 48.7498 71.6466 48.0298C75.3866 47.0738 78.7556 45.1868 82.3046 43.7508C83.8646 43.1188 85.2936 42.0838 86.0296 40.5258C86.5026 39.5258 87.1086 38.9728 88.1236 38.8298C89.7556 38.5978 90.8896 37.7027 91.7176 36.3257C92.2916 35.3727 92.9076 34.4458 93.5726 33.3997C92.5726 32.1657 93.6096 30.3888 92.2806 29.0968C92.1756 29.4248 92.0336 29.6398 92.0546 29.8378C92.1666 30.9218 91.6536 31.6668 90.8336 32.2798C90.5796 32.4698 90.3396 32.6917 90.1356 32.9337C88.0366 35.4297 85.1296 36.5658 82.1826 37.5958C80.6846 38.1198 79.1096 38.4238 77.5976 38.9128C75.9276 39.4538 74.2966 40.1107 72.6366 40.6837C70.4496 41.4367 68.2836 41.4048 66.0756 40.6358C64.8076 40.1948 63.4576 39.9468 62.1246 39.7458C60.1526 39.4488 58.1766 39.2208 56.3136 38.4408C53.4476 37.2418 50.5896 36.0208 47.6966 34.8878C45.5626 34.0548 43.3776 33.3428 41.1416 32.5498Z" fill="black"/>
<path d="M28.5468 34.3937C27.9708 32.7017 28.5378 31.1987 28.4098 29.5867C29.2718 30.5327 29.3328 32.6987 28.5468 34.3937Z" fill="black"/>
<path d="M36.0543 44.1505C35.8223 43.6395 35.6943 43.4375 35.6353 43.2165C35.2533 41.7905 35.5943 40.4295 36.0293 39.0615C36.4293 40.7235 36.4573 41.8385 36.0543 44.1505Z" fill="black"/>
<path d="M29.2006 57.2847C28.5716 55.2617 28.8616 53.8327 29.3376 52.3877C29.8346 54.5157 29.8396 55.2407 29.2006 57.2847Z" fill="black"/>
<path d="M28.8223 36.7852C29.6493 38.1442 29.7553 39.4382 28.8223 40.7052C28.8223 39.3982 28.8223 38.0922 28.8223 36.7852Z" fill="black"/>
<path d="M38.3359 13.2293C39.0169 11.4073 40.5509 10.5053 42.0409 9.57227C42.2129 9.74627 42.3029 9.79627 42.3049 9.84927C42.3079 9.91727 42.2549 10.0083 42.1979 10.0553C40.9119 11.1163 39.6229 12.1733 38.3359 13.2293Z" fill="black"/>
<path d="M35.2276 56.8799C35.3296 57.9399 35.4446 58.9929 35.1766 60.2939C34.2776 59.4079 34.5206 58.5189 34.5356 57.6979C34.5426 57.3069 34.6296 56.9019 35.2276 56.8799Z" fill="black"/>
<path d="M44.5527 22.181C45.2877 20.889 46.2257 19.9791 47.2387 18.7061C46.7827 20.2171 46.0157 21.651 45.3617 22.228C45.2507 22.325 44.9557 22.212 44.5527 22.181Z" fill="black"/>
<path d="M32.5857 28.8337C33.0317 30.2467 33.0497 31.7208 32.9897 33.2128C32.2597 33.1778 32.1937 32.7497 32.2227 32.3707C32.3147 31.1887 32.4607 30.0127 32.5857 28.8337Z" fill="black"/>
<path d="M26.3447 50.3898C26.3447 48.9858 26.3447 47.5798 26.3447 46.1758C26.6577 47.5708 27.3777 48.9358 26.3447 50.3898Z" fill="black"/>
<path d="M55.3485 14.248C54.9555 15.58 54.0715 16.469 52.9355 17.142C53.6265 16.075 54.1465 14.882 55.3485 14.248Z" fill="black"/>
<path d="M22.8573 45.5693C22.5993 45.4473 22.3843 45.4163 22.3503 45.3193C21.8123 43.8163 22.7923 42.4303 22.6463 40.9473C22.9293 42.4733 22.9563 43.9903 22.8573 45.5693Z" fill="black"/>
<path d="M32.7608 37.0537C32.9498 38.5337 33.3448 40.0127 32.7758 41.9407C32.3688 40.0207 32.4748 38.5377 32.7608 37.0537Z" fill="black"/>
<path d="M49.4326 16.1133C49.5706 15.0933 49.8236 14.2133 50.8256 14.0243C50.9086 14.0083 51.0326 14.2083 51.2676 14.4313C50.6506 14.9973 50.0416 15.5553 49.4326 16.1133Z" fill="black"/>
<path d="M22.6587 52.1963C23.5557 53.0123 23.3397 53.7863 22.6587 54.7803C22.6587 53.7533 22.6587 52.9743 22.6587 52.1963Z" fill="black"/>
<path d="M24.5206 35.9657C24.4266 35.0277 24.2866 34.0917 24.2536 33.1527C24.2326 32.5347 24.3666 31.9117 24.5556 31.2957C25.1116 32.8447 24.5986 34.4027 24.5206 35.9657Z" fill="black"/>
<path d="M25.5525 37.3037C26.2775 38.1627 26.1345 39.0257 26.1105 39.9157C25.5005 38.8667 25.5055 38.8667 25.5525 37.3037Z" fill="black"/>
<path d="M37.0157 29.7363C37.1757 30.7093 37.5037 31.7023 36.5887 32.9403C36.4287 31.5723 36.8767 30.6733 37.0157 29.7363Z" fill="black"/>
<path d="M31.4318 58.4197C32.0868 59.0997 32.1358 59.8127 31.8648 60.7087C31.0968 59.9517 31.1058 59.1957 31.4318 58.4197Z" fill="black"/>
<path d="M35.6935 48.6227C34.7825 47.8937 35.1145 47.2157 35.5395 46.2617C35.6885 46.6617 35.8075 46.8307 35.8035 46.9967C35.7915 47.5397 35.7335 48.0807 35.6935 48.6227Z" fill="black"/>
<path d="M35.7065 19.6797C35.7785 18.8517 36.2505 18.2896 36.9165 17.7646C36.9535 18.7666 36.9535 18.7667 35.7065 19.6797Z" fill="black"/>
<path d="M25.9957 58.3798C25.8777 57.3268 25.4827 56.2618 26.1447 54.9768C26.5597 56.3108 26.1157 57.3378 25.9957 58.3798Z" fill="black"/>
<path d="M29.8857 47.0079C29.3937 45.7799 29.1057 45.0719 29.5737 44.2549C30.1917 45.1229 30.1917 45.1229 29.8857 47.0079Z" fill="black"/>
<path d="M25.9277 26.0932C25.9937 25.2342 26.2627 24.6652 26.8197 24.2002C27.1457 25.0872 27.1457 25.0872 25.9277 26.0932Z" fill="black"/>
<path d="M40.8199 24.25C41.0979 24.95 41.1509 25.509 40.4929 25.992C40.1919 25.307 40.2529 24.772 40.8199 24.25Z" fill="black"/>
<path d="M45.9747 11.6299C45.6167 12.7059 45.6167 12.7059 44.0527 13.2929C44.9357 12.5289 45.4547 12.0789 45.9747 11.6299Z" fill="black"/>
<path d="M42.0595 18.6954C41.7155 19.3384 41.3755 19.9734 40.8325 20.9894C40.6945 19.6884 41.0485 19.0534 41.6345 18.5164C41.6715 18.4834 41.8475 18.6024 42.0595 18.6954Z" fill="black"/>
<path d="M36.1316 24.1104C36.5176 25.0944 35.9446 25.6994 35.6406 26.6364C35.1776 25.5314 35.5996 24.8934 36.1316 24.1104Z" fill="black"/>
<path d="M20.9937 33.9883C21.7057 34.7953 21.2017 35.7373 21.1507 36.6273C21.1097 36.1943 21.0507 35.7623 21.0337 35.3283C21.0157 34.8693 21.0387 34.4083 21.0437 33.9473L20.9937 33.9883Z" fill="black"/>
<path d="M31.8107 25.5783C31.3547 24.9403 31.7797 24.5913 31.9827 24.2023C32.0497 24.0753 32.1687 23.9753 32.2637 23.8623C32.3007 24.0063 32.4037 24.1743 32.3627 24.2893C32.2147 24.7063 32.0187 25.1053 31.8107 25.5783Z" fill="black"/>
<path d="M32.8947 49.9358C32.8947 50.5198 32.8947 51.1028 32.8947 51.8328C32.2547 51.1958 32.5737 50.5728 32.8947 49.9358Z" fill="black"/>
<path d="M31.6896 17.8008C31.7436 17.9978 31.7956 18.0888 31.7716 18.1178C31.5546 18.3848 31.3246 18.6418 31.0906 18.8948C31.0846 18.9018 30.9536 18.8318 30.9286 18.7758C30.7316 18.3318 31.0216 18.0878 31.3286 17.8628C31.3836 17.8238 31.4736 17.8358 31.6896 17.8008Z" fill="black"/>
<path d="M44.8306 52.0977C44.8656 52.4107 44.9456 52.5947 44.8866 52.7007C44.5676 53.2707 44.2636 53.8357 44.6726 54.4797C45.0866 55.1307 45.7416 55.4797 46.4616 55.5357C47.2326 55.5947 48.0186 55.4627 48.8146 55.4127C49.2376 55.8777 48.8306 56.1787 48.5186 56.3177C47.0156 56.9917 44.9276 56.5557 43.9516 55.2967C43.5916 54.8317 43.3286 54.1457 43.3466 53.5697C43.3686 52.8467 43.8146 52.2207 44.8306 52.0977Z" fill="black"/>
<path d="M54.6925 56.7813C53.1325 57.0233 52.9165 56.9083 52.6685 55.6963C52.5885 55.3063 52.4965 54.9162 52.4635 54.5202C52.3745 53.4432 52.9195 52.7203 54.0025 52.4293C55.0915 52.1363 55.7605 52.4842 56.4385 53.7632C55.8545 53.7022 55.3325 53.5963 54.8105 53.6053C53.8885 53.6203 53.3535 54.3533 53.6875 55.2513C53.8945 55.8073 54.3475 56.2713 54.6925 56.7813Z" fill="black"/>
<path d="M48.1466 50.1248C47.5266 50.3918 47.0326 50.6208 46.5256 50.8178C45.2706 51.3038 43.9876 50.9708 43.1306 49.9598C42.7016 49.4538 42.4196 48.8918 42.6066 48.2218C42.7966 47.5398 43.3336 47.2508 44.1376 47.1328C44.1036 47.3778 44.0996 47.5718 44.0476 47.7528C43.9466 48.1078 43.6706 48.4878 43.7356 48.8018C43.8526 49.3698 44.3296 49.7068 44.9116 49.8438C45.6496 50.0168 46.3036 49.7778 46.9656 49.4758C47.4446 49.2568 47.8906 49.3128 48.1466 50.1248Z" fill="black"/>
<path d="M70.4956 61.0188C69.9536 61.7558 69.7516 62.2648 69.5526 62.2638C68.1346 62.2578 66.7026 62.2418 65.3086 62.0228C64.7656 61.9368 64.2106 61.3928 63.8366 60.9188C63.4766 60.4638 63.0286 59.8958 63.4976 59.0598C63.7576 59.2288 64.0747 59.3248 64.2037 59.5358C65.4007 61.4818 67.1797 61.6918 69.1887 61.2678C69.4087 61.2238 69.6296 61.1848 70.4956 61.0188Z" fill="black"/>
<path d="M68.0044 64.2471C68.3444 64.5771 68.6974 64.8411 68.9514 65.1791C70.3194 66.9961 71.5704 67.1781 73.5294 65.8081C73.6574 65.7181 73.7934 65.5521 73.9154 65.5611C74.1254 65.5751 74.3564 65.6631 74.5224 65.7931C74.6034 65.8571 74.5684 66.0841 74.5624 66.2351C74.5594 66.3051 74.5144 66.3871 74.4634 66.4401C72.2774 68.7081 68.5624 67.8091 67.6994 64.7971C67.6714 64.6961 67.8364 64.5401 68.0044 64.2471Z" fill="black"/>
<path d="M66.0484 66.2848C64.5734 67.3728 63.2614 68.0158 61.6724 67.2868C60.4044 66.7048 59.0744 66.1638 58.6724 64.1848C59.1954 64.4528 59.4474 64.5438 59.6544 64.6968C60.2234 65.1138 60.7344 65.6268 61.3404 65.9748C62.4114 66.5898 63.5154 66.9198 64.6424 65.9888C64.9884 65.7018 65.0544 65.7818 66.0484 66.2848Z" fill="black"/>
<path d="M51.9906 58.1684C52.6296 58.1044 52.8776 58.4744 52.9576 58.8374C53.2806 60.3014 54.3586 60.8814 55.6406 61.2364C56.3136 61.4244 57.0026 61.5554 57.7036 61.7164C57.9666 62.4364 57.3116 62.6214 56.9586 62.5474C55.7246 62.2874 54.3996 62.0874 53.3416 61.4674C52.2136 60.8064 51.9026 59.4994 51.9906 58.1684Z" fill="black"/>
<path d="M78.0516 59.7648C77.8856 61.0388 77.5996 61.7038 76.7956 61.8158C74.9736 62.0678 73.3186 61.6468 72.0696 60.2088C71.8786 59.9878 71.9546 59.5358 71.8486 58.7598C73.7736 60.6888 75.5486 61.6608 78.0516 59.7648Z" fill="black"/>
<path d="M62.1265 55.4437C61.2325 54.5827 61.0685 54.0517 61.5475 53.2987C62.0805 52.4627 62.8185 51.9157 63.8495 51.8087C65.2155 51.6667 66.0025 51.9847 67.5405 53.4697C67.1025 53.4697 66.8395 53.5268 66.6145 53.4588C65.8655 53.2338 65.1465 52.8877 64.3865 52.7367C63.6775 52.5957 62.9445 52.7317 62.4325 53.3357C61.9165 53.9437 61.8835 54.6157 62.3015 55.3057C62.3065 55.3137 62.1875 55.3957 62.1265 55.4437Z" fill="black"/>
<path d="M44.8753 57.2527C44.8753 57.5127 44.9303 57.6867 44.8673 57.7727C43.8353 59.1747 43.8853 59.7857 45.1843 60.5887C45.7143 60.9157 46.3043 61.1477 46.8543 61.4157C46.9973 62.0327 46.5763 62.2427 46.2303 62.0827C45.3873 61.6897 44.5033 61.2727 43.8303 60.6537C42.7053 59.6177 42.8503 58.6737 44.0843 57.7637C44.3223 57.5907 44.5793 57.4427 44.8753 57.2527Z" fill="black"/>
<path d="M77.6695 51.9553C77.0885 51.7343 76.5185 51.4773 75.9245 51.2983C73.9295 50.6933 73.2435 51.1933 73.0515 53.4693C72.3525 53.1933 72.0255 52.7713 72.2135 52.0503C72.5215 50.8693 73.2165 50.2333 74.4075 50.2393C75.1845 50.2443 75.9865 50.4083 76.7265 50.6533C77.1965 50.8073 77.5745 51.2413 77.9945 51.5503C77.8855 51.6853 77.7775 51.8203 77.6695 51.9553Z" fill="black"/>
<path d="M59.3684 55.9697C57.5144 57.9737 57.5054 58.0587 58.7834 60.4277C58.4074 60.8067 58.0534 60.5867 57.7304 60.3597C57.0834 59.9017 56.8244 59.2057 56.9034 58.4727C56.9784 57.7837 57.1334 57.0397 57.4844 56.4597C57.7944 55.9487 58.4254 55.6417 59.3684 55.9697Z" fill="black"/>
<path d="M55.9539 51.1964C55.8959 50.7254 55.7039 50.2964 55.8419 50.0814C56.4659 49.1174 57.4689 48.8744 58.5529 48.8914C59.6289 48.9084 60.5819 49.1534 61.1949 50.4594C60.1599 50.2124 59.3209 49.9184 58.4619 49.8304C57.4979 49.7314 57.2749 49.9254 55.9539 51.1964Z" fill="black"/>
<path d="M81.5677 63.6027C80.6607 63.5527 80.0447 63.4417 79.4447 63.5027C78.2417 63.6247 77.8897 64.4877 78.5567 65.4997C78.7477 65.7887 79.2477 65.9377 78.9817 66.5997C78.4807 66.1277 77.9937 65.7467 77.6017 65.2847C77.0667 64.6527 77.1427 63.8717 77.7967 63.3977C78.7317 62.7197 79.7687 62.3157 80.9287 62.7787C81.1377 62.8617 81.2527 63.1817 81.5677 63.6027Z" fill="black"/>
<path d="M80.8836 52.8228C80.6976 52.4858 80.4536 52.1688 80.3356 51.8098C79.8846 50.4378 80.5466 49.4068 81.9536 49.2848C83.0586 49.1878 83.9446 49.6698 84.6696 50.4638C84.7346 50.5348 84.6376 50.7538 84.5976 51.0338C83.9646 50.7358 83.3766 50.3978 82.7476 50.1758C81.5406 49.7488 80.9396 50.2488 81.0246 51.5738C81.0486 51.9588 81.1496 52.3388 81.2146 52.7208C81.1046 52.7548 80.9936 52.7888 80.8836 52.8228Z" fill="black"/>
<path d="M73.2106 54.2355C71.1476 55.4435 71.1476 55.4435 70.5566 57.5925C69.7346 56.9845 69.7806 56.2075 70.1726 55.5035C70.7296 54.5025 71.5506 53.8445 73.2106 54.2355Z" fill="black"/>
<path d="M51.2534 64.4979C51.7454 64.3959 51.9144 64.3048 52.0414 64.3448C53.1004 64.6798 54.1434 65.0668 55.2364 64.4178C55.3264 64.3638 55.7154 64.5818 55.7484 64.7248C55.7904 64.9008 55.6604 65.2019 55.5054 65.3209C55.2674 65.5039 54.9554 65.6448 54.6594 65.6858C53.4314 65.8548 52.3384 65.5779 51.2534 64.4979Z" fill="black"/>
<path d="M43.9856 41.1904C44.0736 41.4004 44.1616 41.6094 44.3036 41.9504C43.6346 42.0744 42.9896 42.0794 42.4546 42.3244C41.9326 42.5634 41.5216 43.0484 40.9746 43.4974C41.1406 42.0064 41.4326 41.4884 42.3816 41.2624C42.9056 41.1374 43.4836 41.2364 44.0376 41.2344L43.9856 41.1904Z" fill="black"/>
<path d="M82.3166 59.2352C79.4056 58.6182 79.4056 58.6182 77.9526 59.1692C78.4046 58.2292 79.1266 58.0882 79.9216 58.0692C80.7846 58.0512 81.6576 58.0042 82.3166 59.2352Z" fill="black"/>
<path d="M74.2358 30.7498C72.2398 31.6878 70.8318 29.8248 68.9528 29.7808C68.6468 30.8268 69.7068 31.4068 69.5988 32.4888C69.2088 32.8468 68.6968 33.3158 68.1958 33.7748C65.1368 32.8808 62.2018 32.0238 59.2578 31.1638C59.2598 30.6818 59.6598 30.7638 59.9298 30.7268C61.0758 30.5738 62.1278 30.9838 63.1918 31.3128C64.4838 31.7108 65.7738 32.1178 67.0728 32.4928C67.5668 32.6358 68.0288 32.5738 68.2778 31.9338C68.1858 30.9928 66.9798 30.3128 67.4858 29.0108C67.7698 28.9408 68.1408 28.7508 68.4968 28.7768C70.5758 28.9198 72.3438 29.9998 74.2358 30.7498Z" fill="black"/>
<path d="M78.0818 23.147C78.8828 22.829 79.5368 23.331 80.0478 23.688C81.9478 25.019 83.6408 26.587 84.8928 28.584C85.3028 29.238 85.4108 29.909 85.2548 30.64C85.0878 31.426 84.4748 31.904 83.6808 31.74C82.9068 31.581 82.1728 31.223 81.3978 31.062C80.8728 30.953 80.2648 30.9 79.7748 31.063C79.3018 31.221 78.9328 31.689 78.6508 31.914C78.4758 33.109 79.8558 33.659 79.3088 34.85C78.4348 34.038 77.8198 33.151 77.3408 32.21C79.0728 30.033 79.8248 29.797 82.3138 30.553C82.9088 30.735 83.5318 31.109 84.0998 30.542C84.5118 30.13 84.4138 29.364 83.8968 28.562C82.7508 26.783 81.2198 25.428 79.3868 24.374C78.9048 24.097 78.1008 24.066 78.0818 23.147Z" fill="black"/>
<path d="M53.0257 32.4554C50.4107 31.6504 48.1437 30.3344 45.9087 28.9404C48.3307 29.4204 50.3997 30.7124 52.5407 31.8314C52.7527 31.9414 52.8657 32.2424 53.0257 32.4554Z" fill="black"/>
<path d="M9.85254 10.587C11.0785 9.93603 12.2775 9.93803 13.4405 10.171C15.5475 10.595 17.6325 11.133 19.7285 11.617C20.0335 11.687 20.3465 11.755 20.6565 11.763C20.7845 11.767 20.9915 11.64 21.0325 11.527C21.1045 11.326 21.1775 10.983 21.0745 10.886C20.6165 10.456 20.1345 10.024 19.5905 9.71803C18.0345 8.84603 16.8875 7.55004 15.7425 6.42804C15.8285 5.50004 16.3855 5.29703 16.9285 5.23703C18.2025 5.09303 19.4555 5.16302 20.6845 5.65902C22.9015 6.55502 25.1525 7.36403 27.3805 8.23303C28.2715 8.58103 29.1525 8.96303 30.0065 9.39303C30.3165 9.54803 30.5315 9.89003 31.1145 10.47C30.3775 10.381 30.0445 10.433 29.8215 10.299C28.1585 9.30502 26.3285 8.74604 24.5115 8.13504C23.3045 7.72904 22.1235 7.23104 20.9685 6.69304C19.9255 6.20604 18.8905 5.90803 17.7495 6.25403C18.1715 7.54503 18.4185 7.86103 19.6455 8.69903C20.3705 9.19303 21.1195 9.65703 21.8075 10.198C22.4515 10.705 22.5405 11.234 22.2245 11.883C21.8555 12.641 21.2615 12.96 20.4795 12.799C20.2465 12.751 20.0195 12.665 19.7985 12.576C16.7935 11.371 13.6495 10.919 10.4365 10.811C10.2415 10.806 10.0485 10.665 9.85254 10.587Z" fill="black"/>
<path d="M25.7924 15.1207C26.1794 15.9527 26.5044 16.6537 26.8884 17.4787C25.4654 16.7497 25.1524 16.3397 24.4844 14.4487C24.8554 13.7347 25.5434 13.7717 26.1434 13.9177C26.8274 14.0837 27.4874 14.3947 28.1154 14.7247C28.5994 14.9797 28.7124 15.6417 28.3724 15.9447C27.9664 16.3067 27.6514 16.0277 27.3834 15.7107C27.0344 15.2967 26.7664 14.7407 25.7924 15.1207Z" fill="black"/>
<path d="M18.0795 17.0193C16.0855 17.1323 14.5115 15.9203 12.6885 15.5603C12.7275 14.8353 13.1905 14.8793 13.5465 14.9603C15.1825 15.3333 16.6535 16.1043 18.0795 17.0193Z" fill="black"/>
<path d="M8.5348 42.6697C8.3748 41.9787 8.1308 41.2926 8.0748 40.5926C7.9918 39.5626 8.4918 38.9637 9.5268 38.7577C10.7558 38.5127 11.9958 38.3236 13.4378 39.1446C12.9878 39.3676 12.7538 39.5727 12.5068 39.5897C11.6388 39.6507 10.7618 39.6017 9.8958 39.6827C9.2818 39.7407 8.9558 40.3117 9.0968 40.9097C9.2668 41.6327 9.6108 42.2267 10.2888 42.6067C10.5948 42.7777 10.8538 43.0337 11.2208 43.3177C9.9428 43.9097 9.2738 43.0527 8.4808 42.6117L8.5348 42.6697Z" fill="black"/>
<path d="M4.86528 30.5085C3.91428 29.8035 4.06528 29.1315 4.23628 28.5705C4.38828 28.0705 4.72128 27.5755 5.10428 27.2155C5.34928 26.9855 5.89128 26.8355 6.19328 26.9445C7.73628 27.5055 9.42828 27.8695 10.3163 29.4995C9.85428 30.1425 9.44028 30.3215 9.13128 29.9145C8.48028 29.0585 7.67328 28.4915 6.65028 28.1945C5.76828 27.9385 5.37128 28.1495 5.09828 29.1115C4.99328 29.4755 4.96928 29.8605 4.86528 30.5085Z" fill="black"/>
<path d="M8.48194 42.6104C8.43094 42.8394 8.37994 43.0693 8.31494 43.3683C7.78394 43.4393 7.23194 43.4594 6.71094 43.5964C5.69994 43.8624 5.24295 45.0014 5.85895 45.8404C6.26495 46.3944 6.85795 46.8104 7.39395 47.3134C7.32195 47.8354 6.94595 47.8284 6.54895 47.6734C6.25895 47.5604 5.97795 47.3984 5.72995 47.2084C4.77895 46.4834 4.25895 45.5634 4.57495 44.3344C4.84695 43.2744 5.64795 42.7354 7.11895 42.6264C7.58795 42.5924 8.06395 42.6524 8.53595 42.6694L8.48194 42.6104Z" fill="black"/>
<path d="M13.4406 51.4486C12.9826 51.2276 12.4476 51.0936 12.0816 50.7676C11.3676 50.1316 10.8756 49.3196 10.6796 48.3556C10.4106 47.0386 10.9486 46.0476 11.9776 45.3026C12.1416 45.1846 12.5026 45.3366 13.0036 45.3866C12.4166 46.4926 11.4116 47.1926 11.7146 48.4516C11.9956 49.6176 12.8866 50.2676 13.4406 51.4486Z" fill="black"/>
<path d="M10.7335 36.0398C8.52052 33.9238 7.73752 33.9748 5.42352 36.2958C4.96352 36.1328 4.77852 35.7828 5.03252 35.3838C6.22952 33.4998 7.71452 33.0658 9.73652 33.9728C10.0985 34.1348 10.4445 34.3378 10.7845 34.5428C10.9855 34.6638 11.1615 34.8258 11.4355 35.0348C11.1605 35.4278 10.9525 35.7248 10.7335 36.0398Z" fill="black"/>
<path d="M15.7778 45.406C15.0578 45.816 14.5498 45.372 14.0958 44.951C13.5468 44.442 13.3248 43.765 13.3738 43.009C13.4368 42.053 14.0088 41.407 14.7148 40.86C15.0728 40.584 15.4468 40.176 15.9218 40.695C15.9298 40.784 15.9748 40.896 15.9388 40.936C13.9858 43.103 13.9848 43.103 15.7778 45.406Z" fill="black"/>
<path d="M7.05382 39.9078C5.67082 38.5838 5.16881 38.2988 3.39081 40.4398C2.82181 40.3518 2.78881 39.9458 3.01081 39.5828C4.00081 37.9598 5.74382 37.4298 7.01982 38.3418C7.56282 38.7298 7.64782 39.2188 7.05382 39.9078Z" fill="black"/>
<path d="M14.6985 32.9543C14.1415 33.4613 13.5765 33.9743 12.9135 34.5773C12.8555 33.4383 13.3855 32.5163 14.2565 32.0093C14.7585 31.7163 15.0045 31.7983 16.5875 32.8723C15.8005 32.9063 15.2535 32.9303 14.6985 32.9543Z" fill="black"/>
<path d="M63.6937 42.6229C64.3507 42.7859 64.6577 43.3109 64.5047 43.8619C64.4037 44.2259 63.9177 44.5689 63.5247 44.7489C62.7157 45.1199 61.9597 44.8349 61.3467 44.2559C60.8417 43.7779 60.6717 42.4309 61.0297 41.7799C61.2867 41.3109 61.7767 41.1799 62.2697 41.3179C62.9807 41.5169 63.5777 41.8859 63.7537 42.6869C63.1827 42.5239 62.6107 42.3599 62.0247 42.1929C61.8227 43.6029 61.9717 43.9909 62.6947 44.0979C63.2757 44.1859 63.4707 43.8969 63.6937 42.6229Z" fill="black"/>
<path d="M83.2865 42.1428C81.7735 41.8398 81.2265 41.0908 81.0645 40.0038C80.9835 39.4598 81.4725 38.9558 82.0505 38.9338C82.5075 38.9148 82.7935 39.1758 82.8765 39.5898C83.0245 40.3278 83.1185 41.0758 83.2865 42.1428Z" fill="black"/>
<path d="M56.9938 42.8048C56.7898 42.9488 56.4388 43.3718 56.2228 43.3128C55.6378 43.1498 55.0518 42.8508 54.5828 42.4648C54.3498 42.2738 54.2288 41.7328 54.3128 41.4188C54.4458 40.9268 54.9438 40.7188 55.4538 40.7758C56.2958 40.8708 56.9828 41.7248 56.9938 42.8048Z" fill="black"/>
<path d="M9.21676 22.6908C10.2578 22.5828 10.7798 23.1728 11.2308 23.8418C11.5538 24.3218 11.2448 25.0018 10.6688 25.1628C9.49376 25.4908 8.64676 24.7018 8.91076 23.5078C8.97576 23.2168 9.12076 22.9408 9.21676 22.6908Z" fill="black"/>
</svg>
