<svg width="81" height="80" viewBox="0 0 81 80" fill="none" xmlns="http://www.w3.org/2000/svg">
<circle cx="40.3335" cy="40" r="39" stroke="white" stroke-width="2"/>
<path d="M34.3293 38.7259C35.0063 38.5906 35.4453 37.932 35.3099 37.2551C35.1746 36.5781 34.516 36.1391 33.8391 36.2745C32.3334 36.5756 31.1966 37.6272 30.5915 39.0391C29.9928 40.4362 29.904 42.1827 30.3712 44.0532C30.5386 44.7229 31.2172 45.1302 31.8869 44.9629C32.5567 44.7956 32.964 44.117 32.7967 43.4472C32.4313 41.9843 32.5508 40.8142 32.8894 40.0238C33.2218 39.2482 33.7514 38.8415 34.3293 38.7259ZM29.4528 25.7001C29.3162 28.0102 30.1033 30.3693 31.8147 32.1708C28.6855 33.0701 26.1969 35.733 25.7139 39.1974C25.1666 43.1232 25.9734 47.1183 28.0015 50.524L28.5865 51.5064C28.6082 51.5428 28.6317 51.5781 28.657 51.6121L31.0169 54.79C33.1444 57.6547 37.3359 57.9213 39.8091 55.3492C40.0954 55.0514 40.5718 55.0514 40.8581 55.3492C43.3314 57.9213 47.5229 57.6547 49.6503 54.79L52.0102 51.6121C52.0355 51.5781 52.059 51.5428 52.0807 51.5064L52.6657 50.524C54.6938 47.1183 55.5007 43.1232 54.9533 39.1974C54.2722 34.3117 49.6021 31.02 44.7718 32.0208L41.6016 32.6776L41.5965 32.6787C41.6471 31.3789 41.8499 29.9772 42.2486 28.7809C42.7308 27.3343 43.4022 26.4647 44.1477 26.154C44.785 25.8885 45.0863 25.1567 44.8208 24.5194C44.5553 23.8822 43.8234 23.5808 43.1862 23.8464C41.4317 24.5774 40.4364 26.3119 39.8769 27.9903C39.8508 28.0687 39.8254 28.1476 39.8007 28.2269C39.4011 27.4528 38.8769 26.7264 38.2281 26.0776C36.4071 24.2567 33.9746 23.4171 31.5943 23.5582C30.4391 23.6266 29.521 24.5449 29.4528 25.7001ZM31.9399 26.0453C33.5728 26.0006 35.2158 26.6009 36.4603 27.8454C37.7045 29.0896 38.3048 30.7321 38.2605 32.3647C37.9582 32.373 37.6556 32.3592 37.3552 32.3232L36.327 32.1102C35.3798 31.8278 34.488 31.3125 33.74 30.5646C32.4958 29.3204 31.8956 27.6779 31.9399 26.0453ZM35.3882 34.4688L35.7255 34.5387C36.1255 34.652 36.532 34.736 36.9415 34.7906L38.5584 35.1256C39.7295 35.3682 40.9378 35.3682 42.1088 35.1256L45.279 34.4688C48.694 33.7612 51.9957 36.0885 52.4773 39.5426C52.9461 42.9054 52.255 46.3276 50.5177 49.2449L49.9652 50.1727L47.6432 53.2995C46.4375 54.9231 44.0619 55.0742 42.6602 53.6164C41.3903 52.2957 39.2769 52.2957 38.007 53.6164C36.6053 55.0742 34.2297 54.9231 33.024 53.2995L30.702 50.1727L30.1495 49.2449C28.4123 46.3276 27.7211 42.9054 28.19 39.5426C28.6715 36.0885 31.9732 33.7612 35.3882 34.4688Z" fill="white"/>
</svg>
