<svg width="80" height="80" viewBox="0 0 80 80" fill="none" xmlns="http://www.w3.org/2000/svg">
<circle cx="40" cy="40" r="39" stroke="white" stroke-width="2"/>
<path d="M38.9827 23.8114C35.6089 26.7451 34.2929 31.0852 35.0347 35.1161C32.4977 33.6565 29.7012 33.2153 26.4877 33.4831C25.6106 33.5562 24.9496 34.3297 25.0303 35.2174C25.2917 38.0929 26.6168 40.9461 28.4636 43.1766C27.7763 43.1698 27.0815 43.2116 26.3832 43.3047C25.5656 43.4137 24.9624 44.1427 25.0267 44.9782C25.534 51.5738 31.0339 56.6669 37.6489 56.6669H41.19L41.2256 56.6665H42.3514C48.9665 56.6665 54.4663 51.5735 54.9736 44.9778C55.0379 44.1423 54.4348 43.4133 53.6171 43.3043C52.927 43.2123 52.2404 43.1704 51.561 43.176C53.4076 40.9456 54.7322 38.0927 54.9936 35.2174C55.0743 34.3297 54.4133 33.5562 53.5362 33.4831C50.3226 33.2153 47.5102 33.6562 44.9652 35.1178C45.7076 31.0864 44.3917 26.7455 41.0175 23.8114C40.4341 23.3041 39.5661 23.3041 38.9827 23.8114ZM40.0001 39.5434C36.4455 35.8545 36.4455 29.9785 40.0001 26.2897C43.5547 29.9785 43.5547 35.8545 40.0001 39.5434ZM40 48.8905C38.1885 46.586 35.7248 44.8507 32.9442 43.9264C32.8921 43.8753 32.8347 43.8282 32.7723 43.7857C30.3223 42.1175 28.24 39.0442 27.6501 35.9181C30.7653 35.8146 33.211 36.5636 35.4422 38.4536C37.1507 39.9008 37.9085 41.6669 38.4714 42.9788C38.617 43.3181 38.7495 43.6269 38.8821 43.8921C39.0938 44.3156 39.5267 44.5831 40.0001 44.5831C40.4736 44.5831 40.9064 44.3156 41.1182 43.8921C41.2508 43.6269 41.3833 43.318 41.5289 42.9787C42.0918 41.6667 42.8496 39.9006 44.5581 38.4534C46.7884 36.5641 49.2532 35.8144 52.3738 35.9182C51.7839 39.0444 49.7019 42.1175 47.2518 43.7857C47.1945 43.8247 47.1415 43.8676 47.0928 43.9138C44.2971 44.8352 41.8195 46.5757 40 48.8905ZM41.0732 51.733C43.3934 47.8485 47.7429 45.4323 52.3702 45.6953C51.5583 50.54 47.3519 54.1665 42.3514 54.1665H41.2073L41.1762 54.1669H37.6489C32.6484 54.1669 28.442 50.5404 27.6301 45.6957C32.2573 45.4327 36.6067 47.8488 38.9269 51.733C39.1525 52.1107 39.5601 52.342 40.0001 52.342C40.44 52.342 40.8476 52.1107 41.0732 51.733Z" fill="white"/>
</svg>
