<svg width="81" height="80" viewBox="0 0 81 80" fill="none" xmlns="http://www.w3.org/2000/svg">
<circle cx="40.6665" cy="40" r="39" stroke="white" stroke-width="2"/>
<path d="M40.6667 21.6667C39.0838 21.6667 38.0242 22.8034 37.4389 23.8042C36.8362 24.8349 36.5 26.0926 36.5 27.0834C36.5 27.907 36.6047 29.0393 37.2208 29.9932C37.9036 31.0501 39.0628 31.6667 40.6667 31.6667C42.2705 31.6667 43.4298 31.0501 44.1125 29.9932C44.7286 29.0393 44.8333 27.907 44.8333 27.0834C44.8333 26.0926 44.4971 24.8349 43.8944 23.8042C43.3091 22.8034 42.2495 21.6667 40.6667 21.6667ZM39 27.0834C39 26.568 39.2016 25.7424 39.597 25.0663C40.0098 24.3603 40.4086 24.1667 40.6667 24.1667C40.9248 24.1667 41.3235 24.3603 41.7363 25.0663C42.1317 25.7424 42.3333 26.568 42.3333 27.0834C42.3333 27.766 42.2297 28.3004 42.0125 28.6367C41.8619 28.8698 41.5628 29.1667 40.6667 29.1667C39.7705 29.1667 39.4714 28.8698 39.3208 28.6367C39.1036 28.3004 39 27.766 39 27.0834ZM54.8333 37.0834V50.8334H56.0833C56.7737 50.8334 57.3333 51.3931 57.3333 52.0834C57.3333 52.7738 56.7737 53.3334 56.0833 53.3334H25.25C24.5596 53.3334 24 52.7738 24 52.0834C24 51.3931 24.5596 50.8334 25.25 50.8334H26.5V37.0834C26.5 35.0123 28.1789 33.3334 30.25 33.3334H51.0833C53.1544 33.3334 54.8333 35.0123 54.8333 37.0834ZM29 37.0834V40.569L33.0789 43.2005C33.7665 43.6441 34.6502 43.6441 35.3378 43.2005L38.2501 41.3216C39.7145 40.3768 41.588 40.3443 43.0843 41.2376L46.4316 43.236C47.1369 43.6571 48.0238 43.6244 48.6962 43.1525L52.3333 40.6002V37.0834C52.3333 36.3931 51.7737 35.8334 51.0833 35.8334H30.25C29.5596 35.8334 29 36.3931 29 37.0834ZM50.1323 45.1989C48.653 46.237 46.7018 46.309 45.1501 45.3826L41.8028 43.3842C41.1226 42.9781 40.271 42.9929 39.6054 43.4223L36.6931 45.3013C35.1803 46.2772 33.2363 46.2772 31.7236 45.3013L29 43.5441V50.8334H52.3333V43.6544L50.1323 45.1989Z" fill="white"/>
</svg>
