<svg width="194" height="33" viewBox="0 0 194 33" fill="none" xmlns="http://www.w3.org/2000/svg">
<path d="M13.8 23.876H21.36V25.412H13.8V23.876ZM13.8 19.892H21.36V21.332H13.8V19.892ZM12.384 4.364H14.064V11.564C14.064 12.308 14.304 12.476 15.624 12.476C16.224 12.476 19.464 12.476 20.304 12.476C21.36 12.476 21.528 12.116 21.624 9.932C22.008 10.22 22.728 10.484 23.208 10.58C22.992 13.34 22.44 14.036 20.424 14.036C19.872 14.036 16.032 14.036 15.504 14.036C13.032 14.036 12.384 13.556 12.384 11.564V4.364ZM20.76 5.66L22.08 6.932C19.824 8.012 16.416 8.948 13.512 9.644C13.416 9.26 13.176 8.684 12.96 8.324C15.744 7.652 18.984 6.644 20.76 5.66ZM12.912 15.932H22.32V26.348H20.616V17.468H14.568V26.468H12.912V15.932ZM4.392 6.524H8.664V7.94H4.392V6.524ZM6.024 11.18H7.392V19.076H6.024V11.18ZM8.136 6.524H8.496L8.808 6.428L9.888 7.124C9.192 8.708 8.184 10.508 7.296 11.66C7.056 11.348 6.576 10.892 6.288 10.676C6.984 9.644 7.752 8.012 8.136 6.812V6.524ZM9.312 20.78L10.464 20.348C11.184 21.548 11.904 23.156 12.168 24.188L10.968 24.692C10.68 23.636 10.008 21.98 9.312 20.78ZM7.032 20.996L8.232 20.732C8.784 22.052 9.24 23.78 9.384 24.932L8.112 25.244C8.016 24.068 7.56 22.34 7.032 20.996ZM4.824 20.996L6.048 20.852C6.36 22.292 6.48 24.116 6.432 25.316L5.112 25.46C5.184 24.284 5.064 22.436 4.824 20.996ZM3.912 15.764V18.236H9.576V15.764H3.912ZM3.912 11.924V14.348H9.576V11.924H3.912ZM2.424 10.436H11.136V19.724H2.424V10.436ZM2.664 20.804L3.96 21.14C3.72 23.18 3.288 25.268 2.04 26.468L0.84 25.748C1.944 24.644 2.448 22.724 2.664 20.804ZM4.44 4.34L6.096 4.58C5.352 7.22 4.128 10.364 2.112 12.884C1.8 12.524 1.224 12.044 0.84 11.828C2.712 9.572 3.864 6.62 4.44 4.34Z" fill="#FB212F"/>
<path d="M30.251 8.73047C31.5244 7.66797 32.2822 7.13672 32.5244 7.13672H42.7549C42.6455 7.15234 42.4775 7.25781 42.251 7.45312C42.0322 7.64844 41.8447 7.81641 41.6885 7.95703C41.5322 8.08984 41.3799 8.21094 41.2314 8.32031C40.8799 8.59375 40.626 8.73047 40.4697 8.73047H34.7275V15.1055H40.4111C40.3096 15.1211 40.1455 15.2305 39.9189 15.4336C39.6924 15.6289 39.501 15.793 39.3447 15.9258C39.1885 16.0586 39.0361 16.1836 38.8877 16.3008C38.5439 16.5742 38.29 16.7109 38.126 16.7109H34.7275V19.4531C34.7275 20.8594 34.4463 21.8438 33.8838 22.4062H37.6455C37.5361 22.4219 37.3682 22.5273 37.1416 22.7227C36.9229 22.918 36.7354 23.0859 36.5791 23.2266C36.4229 23.3594 36.2705 23.4844 36.1221 23.6016C35.7705 23.8672 35.5166 24 35.3604 24H31.3877C32.0908 22.9062 32.4424 21.9727 32.4424 21.1992V16.7109H30.8018C31.3486 16.2734 31.8955 15.8438 32.4424 15.4219V8.73047H30.251ZM48.7666 22.5469C48.5088 22.75 48.2627 22.9531 48.0283 23.1562C47.7939 23.3594 47.5518 23.5391 47.3018 23.6953C46.7471 24.0547 46.1729 24.2344 45.5791 24.2344C44.7197 24.2344 44.251 23.6406 44.1729 22.4531C44.1572 22.1328 44.1494 21.8203 44.1494 21.5156V8.97656C44.1494 7.90625 43.9072 7.21094 43.4229 6.89062C43.2197 6.75 43.0244 6.67969 42.8369 6.67969C42.5869 6.67969 42.4189 6.6875 42.333 6.70312C42.2471 6.71094 42.1729 6.71875 42.1104 6.72656C43.2354 5.94531 43.9463 5.47656 44.2432 5.32031C44.6338 5.10938 45.0361 4.90234 45.4502 4.69922C45.8721 4.48828 46.1963 4.32422 46.4229 4.20703V20.3789C46.4229 20.6992 46.4229 20.9961 46.4229 21.2695C46.4307 21.543 46.4775 21.7812 46.5635 21.9844C46.7588 22.4062 47.251 22.6172 48.04 22.6172C48.29 22.6172 48.5322 22.5938 48.7666 22.5469ZM57.5439 20.5312L57.5205 21.3516C57.5205 21.9609 57.6924 22.3477 58.0361 22.5117C58.1689 22.5742 58.3213 22.6055 58.4932 22.6055C58.7666 22.6055 59.0479 22.543 59.3369 22.418C59.04 22.543 58.7822 22.707 58.5635 22.9102C58.3447 23.1133 58.1221 23.3125 57.8955 23.5078C57.333 23.9766 56.7666 24.2109 56.1963 24.2109C55.626 24.2109 55.3213 23.8828 55.2822 23.2266C55.2666 23.0547 55.2588 22.8828 55.2588 22.7109C53.8525 23.6875 52.5635 24.1758 51.3916 24.1758C50.3994 24.1758 49.7119 23.875 49.3291 23.2734C49.1885 23.0547 49.1182 22.7539 49.1182 22.3711C49.1182 21.9883 49.2354 21.6055 49.4697 21.2227C49.7041 20.832 50.001 20.4766 50.3604 20.1562C51.001 19.5625 51.7744 19.0742 52.6807 18.6914C53.3525 18.4023 54.2158 18.2383 55.2705 18.1992V17.6836C55.2705 16.4414 55.1572 15.6016 54.9307 15.1641C54.7041 14.7266 54.4111 14.4062 54.0518 14.2031C53.6924 13.9922 53.2705 13.8867 52.7861 13.8867C51.9658 13.8867 51.2432 14.0469 50.6182 14.3672C51.4775 13.6562 52.1064 13.1875 52.5049 12.9609C53.3252 12.5 54.0674 12.2695 54.7314 12.2695C55.4033 12.2695 55.9072 12.3672 56.2432 12.5625C56.5791 12.7578 56.8447 13.0156 57.04 13.3359C57.376 13.8984 57.5439 14.707 57.5439 15.7617V20.5312ZM52.0361 22.2188C52.2236 22.3516 52.4424 22.4492 52.6924 22.5117C52.9424 22.5742 53.3135 22.6055 53.8057 22.6055C54.2979 22.6055 54.7861 22.4883 55.2705 22.2539V19.793H53.3721C52.6924 19.793 52.0986 19.8398 51.5908 19.9336C51.4893 20.2695 51.4385 20.5898 51.4385 20.8945C51.4385 21.1992 51.4893 21.4609 51.5908 21.6797C51.7002 21.8984 51.8486 22.0781 52.0361 22.2188ZM71.4424 13.7578C71.4424 15.4844 70.208 18.1797 67.7393 21.8438C67.5986 22.0469 67.458 22.2578 67.3174 22.4766C67.1846 22.6875 67.0635 22.8555 66.9541 22.9805C66.8525 23.1055 66.7393 23.2148 66.6143 23.3086C66.4893 23.3945 66.3447 23.4922 66.1807 23.6016C66.0166 23.7031 65.8447 23.8086 65.665 23.918C65.4932 24.0195 65.333 24.1172 65.1846 24.2109C64.8252 24.4531 64.6416 24.5898 64.6338 24.6211C64.3135 23.3086 63.9814 22.0078 63.6377 20.7188C63.2939 19.4219 62.9736 18.4062 62.6768 17.6719C62.3799 16.9297 62.1689 16.4102 62.0439 16.1133C61.9268 15.8164 61.7822 15.5312 61.6104 15.2578C61.2119 14.6016 60.7627 14.2734 60.2627 14.2734C59.9893 14.2734 59.6729 14.3789 59.3135 14.5898C60.415 13.293 61.5205 12.6445 62.6299 12.6445C63.4502 12.6445 64.3291 14.1016 65.2666 17.0156C65.6572 18.2344 65.9541 19.25 66.1572 20.0625C66.3682 20.8672 66.5127 21.4219 66.5908 21.7266C67.7002 19.9844 68.4736 18.375 68.9111 16.8984C69.083 16.3281 69.1689 15.8008 69.1689 15.3164C69.1689 14.6055 68.8955 14.25 68.3486 14.25C68.1533 14.25 67.9229 14.2969 67.6572 14.3906C67.9229 14.2891 68.1572 14.1445 68.3604 13.957C68.5635 13.7617 68.7666 13.5703 68.9697 13.3828C69.4854 12.9062 70.0244 12.668 70.5869 12.668C71.1572 12.668 71.4424 13.0312 71.4424 13.7578ZM82.6807 13.875C83.0791 14.3281 83.3877 14.8477 83.6064 15.4336C83.833 16.0117 83.9463 16.5938 83.9463 17.1797C83.9463 17.7656 83.8604 18.3398 83.6885 18.9023C83.5166 19.457 83.2744 19.9922 82.9619 20.5078C82.6572 21.0234 82.2939 21.5078 81.8721 21.9609C81.458 22.4062 81.001 22.7969 80.501 23.1328C79.4385 23.8438 78.3643 24.1992 77.2783 24.1992C76.0049 24.1992 74.9229 23.7031 74.0322 22.7109C73.165 21.7578 72.7314 20.6406 72.7314 19.3594C72.7314 18.2656 73.0635 17.168 73.7275 16.0664C74.7197 14.3945 76.0713 13.2656 77.7822 12.6797C78.3291 12.4844 78.9072 12.3867 79.5166 12.3867C80.126 12.3867 80.7041 12.5234 81.251 12.7969C81.8057 13.0625 82.2822 13.4219 82.6807 13.875ZM77.1377 13.957C76.3564 13.957 75.7861 14.3359 75.4268 15.0938C75.1455 15.6875 75.0049 16.3594 75.0049 17.1094C75.0049 17.8594 75.1025 18.5586 75.2979 19.207C75.501 19.8477 75.7979 20.4219 76.1885 20.9297C77.0557 22.0703 78.1729 22.6406 79.54 22.6406C80.3369 22.6406 80.915 22.2422 81.2744 21.4453C81.5322 20.8516 81.6611 20.168 81.6611 19.3945C81.6611 17.8867 81.2393 16.6055 80.3955 15.5508C79.5596 14.4883 78.4736 13.957 77.1377 13.957ZM96.1572 12.6094C95.2119 14 94.0674 14.6953 92.7236 14.6953C92.5049 14.6953 92.2236 14.6094 91.8799 14.4375C91.2236 14.1094 90.7783 13.9453 90.5439 13.9453C90.3174 13.9453 90.1338 14.0195 89.9932 14.168C89.8525 14.3164 89.7354 14.5234 89.6416 14.7891C89.4307 15.3672 89.3252 16.1172 89.3252 17.0391V21.5273C89.3252 22.0273 89.4775 22.3672 89.7822 22.5469C89.8916 22.6172 90.0283 22.6523 90.1924 22.6523C90.3564 22.6523 90.5283 22.6133 90.708 22.5352C90.5518 22.6758 90.3994 22.8438 90.251 23.0391C90.1025 23.2266 89.9346 23.4102 89.7471 23.5898C89.3018 24.0195 88.7744 24.2344 88.165 24.2344C87.8525 24.2344 87.5869 24.1367 87.3682 23.9414C87.1494 23.7383 87.04 23.4922 87.04 23.2031V16.4531C87.04 16.1797 87.0439 15.9062 87.0518 15.6328C87.0596 15.3594 87.0322 15.1094 86.9697 14.8828C86.8213 14.3906 86.3955 14.1445 85.6924 14.1445C85.3564 14.1445 85.0205 14.207 84.6846 14.332C84.8877 14.2617 85.1494 14.0781 85.4697 13.7812C86.0947 13.2188 86.5283 12.8906 86.7705 12.7969C87.2705 12.6172 87.6729 12.5273 87.9775 12.5273C88.29 12.5273 88.5283 12.5742 88.6924 12.668C88.8643 12.7539 88.9971 12.875 89.0908 13.0312C89.2471 13.2891 89.3252 13.6875 89.3252 14.2266C89.5518 14.0547 89.7979 13.8633 90.0635 13.6523C90.3369 13.4336 90.6182 13.2266 90.9072 13.0312C91.6025 12.5703 92.208 12.3398 92.7236 12.3398C93.0283 12.3398 93.3486 12.4258 93.6846 12.5977C94.0205 12.7695 94.2705 12.8945 94.4346 12.9727C94.5986 13.0508 94.751 13.0898 94.8916 13.0898C95.2041 13.0898 95.626 12.9297 96.1572 12.6094ZM99.626 20.3672C99.626 21.1484 99.3799 21.8281 98.8877 22.4062H102.333C102.239 22.4766 102.087 22.6016 101.876 22.7812C101.665 22.9531 101.438 23.1328 101.196 23.3203C100.595 23.7734 100.216 24 100.06 24H96.3682C96.7588 23.6875 97.0049 23.3789 97.1064 23.0742C97.2705 22.6211 97.3525 22.125 97.3525 21.5859V13.957H95.876L97.3525 12.7969C97.3525 11.1797 97.3916 10.1133 97.4697 9.59766C97.5557 9.08203 97.6729 8.64062 97.8213 8.27344C97.9697 7.90625 98.1807 7.55078 98.4541 7.20703C98.9697 6.55078 99.8213 5.83203 101.009 5.05078C102.118 4.30859 103.173 3.9375 104.173 3.9375C104.735 3.9375 105.38 4.08594 106.106 4.38281C106.474 4.53125 106.657 4.68359 106.657 4.83984C106.657 5.05078 106.298 5.42969 105.579 5.97656C104.907 6.48437 104.423 6.75391 104.126 6.78516C104.282 6.62891 104.36 6.50391 104.36 6.41016C104.36 6.30859 104.251 6.20312 104.032 6.09375C103.813 5.98438 103.563 5.88672 103.282 5.80078C102.657 5.61328 102.216 5.51953 101.958 5.51953C101.411 5.51953 100.974 5.57031 100.646 5.67188C100.005 6.5625 99.6689 7.875 99.6377 9.60938C99.6299 10.0781 99.626 10.5273 99.626 10.957V12.3633H104.021C103.911 12.3789 103.649 12.5703 103.235 12.9375C102.454 13.6172 101.954 13.957 101.735 13.957H99.626V20.3672ZM111.743 14.2969C113.001 13.1641 113.923 12.5977 114.509 12.5977C115.095 12.5977 115.388 12.9727 115.388 13.7227V21.1641C115.388 21.6328 115.493 21.9844 115.704 22.2188C115.915 22.4531 116.267 22.5703 116.759 22.5703C117.103 22.5703 117.438 22.5078 117.767 22.3828C117.509 22.4766 117.274 22.625 117.063 22.8281C116.86 23.0234 116.642 23.2227 116.407 23.4258C115.821 23.9336 115.153 24.1875 114.403 24.1875C113.685 24.1875 113.274 23.7891 113.173 22.9922C113.149 22.7656 113.134 22.5352 113.126 22.3008C111.423 23.5898 109.911 24.2344 108.591 24.2344C107.7 24.2344 107.028 23.8438 106.575 23.0625C106.169 22.3594 105.966 21.3984 105.966 20.1797V16.2305C105.966 15.5508 105.907 15.0898 105.79 14.8477C105.571 14.3633 105.177 14.1211 104.606 14.1211C104.333 14.1211 104.056 14.1797 103.774 14.2969C104.728 13.4453 105.501 12.9062 106.095 12.6797C106.384 12.5625 106.685 12.5039 106.997 12.5039C107.849 12.5039 108.274 13.0469 108.274 14.1328C108.274 14.1328 108.274 14.3945 108.274 14.918C108.274 14.918 108.271 16.375 108.263 19.2891C108.263 20.4062 108.47 21.2266 108.884 21.75C109.337 22.3438 110.091 22.6406 111.146 22.6406C111.661 22.6406 112.196 22.418 112.751 21.9727C112.892 21.8633 113.017 21.7695 113.126 21.6914V15.5039C113.126 14.9258 112.985 14.5273 112.704 14.3086C112.587 14.2227 112.442 14.1797 112.271 14.1797C112.099 14.1797 111.923 14.2188 111.743 14.2969ZM124.118 22.5469C123.86 22.75 123.614 22.9531 123.38 23.1562C123.146 23.3594 122.903 23.5391 122.653 23.6953C122.099 24.0547 121.524 24.2344 120.931 24.2344C120.071 24.2344 119.603 23.6406 119.524 22.4531C119.509 22.1328 119.501 21.8203 119.501 21.5156V8.97656C119.501 7.90625 119.259 7.21094 118.774 6.89062C118.571 6.75 118.376 6.67969 118.188 6.67969C117.938 6.67969 117.771 6.6875 117.685 6.70312C117.599 6.71094 117.524 6.71875 117.462 6.72656C118.587 5.94531 119.298 5.47656 119.595 5.32031C119.985 5.10938 120.388 4.90234 120.802 4.69922C121.224 4.48828 121.548 4.32422 121.774 4.20703V20.3789C121.774 20.6992 121.774 20.9961 121.774 21.2695C121.782 21.543 121.829 21.7812 121.915 21.9844C122.11 22.4062 122.603 22.6172 123.392 22.6172C123.642 22.6172 123.884 22.5938 124.118 22.5469ZM124.751 8.73047C126.024 7.66797 126.782 7.13672 127.024 7.13672H137.255C137.146 7.15234 136.978 7.25781 136.751 7.45312C136.532 7.64844 136.345 7.81641 136.188 7.95703C136.032 8.08984 135.88 8.21094 135.731 8.32031C135.38 8.59375 135.126 8.73047 134.97 8.73047H129.228V15.1055H134.911C134.81 15.1211 134.646 15.2305 134.419 15.4336C134.192 15.6289 134.001 15.793 133.845 15.9258C133.688 16.0586 133.536 16.1836 133.388 16.3008C133.044 16.5742 132.79 16.7109 132.626 16.7109H129.228V19.4531C129.228 20.8594 128.946 21.8438 128.384 22.4062H132.146C132.036 22.4219 131.868 22.5273 131.642 22.7227C131.423 22.918 131.235 23.0859 131.079 23.2266C130.923 23.3594 130.771 23.4844 130.622 23.6016C130.271 23.8672 130.017 24 129.86 24H125.888C126.591 22.9062 126.942 21.9727 126.942 21.1992V16.7109H125.302C125.849 16.2734 126.396 15.8438 126.942 15.4219V8.73047H124.751ZM144.04 14.2969C145.298 13.1641 146.22 12.5977 146.806 12.5977C147.392 12.5977 147.685 12.9727 147.685 13.7227V21.1641C147.685 21.6328 147.79 21.9844 148.001 22.2188C148.212 22.4531 148.563 22.5703 149.056 22.5703C149.399 22.5703 149.735 22.5078 150.063 22.3828C149.806 22.4766 149.571 22.625 149.36 22.8281C149.157 23.0234 148.938 23.2227 148.704 23.4258C148.118 23.9336 147.45 24.1875 146.7 24.1875C145.981 24.1875 145.571 23.7891 145.47 22.9922C145.446 22.7656 145.431 22.5352 145.423 22.3008C143.72 23.5898 142.208 24.2344 140.888 24.2344C139.997 24.2344 139.325 23.8438 138.872 23.0625C138.466 22.3594 138.263 21.3984 138.263 20.1797V16.2305C138.263 15.5508 138.204 15.0898 138.087 14.8477C137.868 14.3633 137.474 14.1211 136.903 14.1211C136.63 14.1211 136.353 14.1797 136.071 14.2969C137.024 13.4453 137.798 12.9062 138.392 12.6797C138.681 12.5625 138.981 12.5039 139.294 12.5039C140.146 12.5039 140.571 13.0469 140.571 14.1328C140.571 14.1328 140.571 14.3945 140.571 14.918C140.571 14.918 140.567 16.375 140.56 19.2891C140.56 20.4062 140.767 21.2266 141.181 21.75C141.634 22.3438 142.388 22.6406 143.442 22.6406C143.958 22.6406 144.493 22.418 145.048 21.9727C145.188 21.8633 145.313 21.7695 145.423 21.6914V15.5039C145.423 14.9258 145.282 14.5273 145.001 14.3086C144.884 14.2227 144.739 14.1797 144.567 14.1797C144.396 14.1797 144.22 14.2188 144.04 14.2969ZM155.899 14.9062C156.048 14.7969 156.122 14.6797 156.122 14.5547C156.122 14.4297 156.048 14.332 155.899 14.2617C155.751 14.1914 155.579 14.1367 155.384 14.0977C155.079 14.0352 154.794 14.0039 154.528 14.0039C154.271 14.0039 154.067 14.0195 153.919 14.0508C153.778 14.0742 153.657 14.1211 153.556 14.1914C153.337 14.3398 153.228 14.6016 153.228 14.9766C153.228 15.3516 153.31 15.6602 153.474 15.9023C153.638 16.1367 153.853 16.3359 154.118 16.5C154.392 16.6641 154.7 16.8008 155.044 16.9102C155.388 17.0195 155.735 17.1289 156.087 17.2383C156.446 17.3398 156.798 17.4531 157.142 17.5781C157.485 17.7031 157.79 17.8672 158.056 18.0703C158.657 18.5078 158.958 19.1094 158.958 19.875C158.958 20.6328 158.595 21.375 157.868 22.1016C157.251 22.7188 156.438 23.2422 155.431 23.6719C154.493 24.0781 153.657 24.2812 152.923 24.2812C152.032 24.2812 151.317 24.0938 150.778 23.7188C150.583 23.5781 150.485 23.3984 150.485 23.1797C150.485 22.9531 150.587 22.75 150.79 22.5703C150.993 22.3828 151.231 22.2109 151.505 22.0547C151.778 21.8906 152.052 21.7383 152.325 21.5977C152.599 21.4492 152.806 21.293 152.946 21.1289C152.806 21.2852 152.735 21.4609 152.735 21.6562C152.735 21.8516 152.845 22.0195 153.063 22.1602C153.282 22.293 153.54 22.3984 153.837 22.4766C154.353 22.6016 154.849 22.6641 155.325 22.6641C155.802 22.6641 156.146 22.5781 156.356 22.4062C156.575 22.2266 156.685 21.9297 156.685 21.5156C156.685 21.1016 156.603 20.7656 156.438 20.5078C156.274 20.2422 156.06 20.0156 155.794 19.8281C155.528 19.6406 155.224 19.4844 154.88 19.3594C154.536 19.2266 154.185 19.1016 153.825 18.9844C153.474 18.8594 153.126 18.7344 152.782 18.6094C152.438 18.4844 152.134 18.332 151.868 18.1523C151.274 17.7539 150.978 17.2344 150.978 16.5938C150.978 15.9844 151.337 15.332 152.056 14.6367C152.681 14.043 153.333 13.5781 154.013 13.2422C155.177 12.6797 156.056 12.3984 156.649 12.3984C157.267 12.3984 157.712 12.4648 157.985 12.5977C158.259 12.7305 158.396 12.8477 158.396 12.9492C158.396 13.043 158.364 13.1289 158.302 13.207C158.239 13.2852 158.161 13.3594 158.067 13.4297C157.981 13.4922 157.892 13.5508 157.798 13.6055C157.704 13.6602 157.571 13.7422 157.399 13.8516C157.228 13.9609 156.997 14.1094 156.708 14.2969C156.419 14.4766 156.149 14.6797 155.899 14.9062ZM164.032 4.11328L164.103 5.44922V6.05859C164.103 6.43359 164.056 6.66406 163.962 6.75C163.868 6.82813 163.767 6.90625 163.657 6.98438C163.22 7.29688 162.587 7.71875 161.759 8.25C161.798 7.46875 161.817 7.06641 161.817 7.04297C161.817 7.01172 161.798 6.56641 161.759 5.70703L164.032 4.11328ZM166.481 22.5586C166.247 22.7461 166.017 22.9375 165.79 23.1328C165.571 23.3281 165.341 23.5078 165.099 23.6719C164.536 24.0391 163.997 24.2227 163.481 24.2227C162.997 24.2227 162.657 24.1484 162.462 24C162.063 23.7031 161.864 23.1562 161.864 22.3594V16.8047C161.864 15.9609 161.712 15.4141 161.407 15.1641C161.267 15.0469 161.114 14.9883 160.95 14.9883C160.786 14.9883 160.646 15 160.528 15.0234C160.419 15.0391 160.306 15.0586 160.188 15.082C160.071 15.1055 159.95 15.1289 159.825 15.1523C160.216 14.8477 160.579 14.5742 160.915 14.332C161.259 14.0898 161.552 13.8867 161.794 13.7227C162.036 13.5586 162.372 13.3281 162.802 13.0312C163.231 12.7266 163.677 12.4531 164.138 12.2109V20.4844C164.138 21.2812 164.188 21.7852 164.29 21.9961C164.509 22.4258 164.993 22.6406 165.743 22.6406C165.946 22.6406 166.192 22.6133 166.481 22.5586ZM177.251 13.875C177.649 14.3281 177.958 14.8477 178.177 15.4336C178.403 16.0117 178.517 16.5938 178.517 17.1797C178.517 17.7656 178.431 18.3398 178.259 18.9023C178.087 19.457 177.845 19.9922 177.532 20.5078C177.228 21.0234 176.864 21.5078 176.442 21.9609C176.028 22.4062 175.571 22.7969 175.071 23.1328C174.009 23.8438 172.935 24.1992 171.849 24.1992C170.575 24.1992 169.493 23.7031 168.603 22.7109C167.735 21.7578 167.302 20.6406 167.302 19.3594C167.302 18.2656 167.634 17.168 168.298 16.0664C169.29 14.3945 170.642 13.2656 172.353 12.6797C172.899 12.4844 173.478 12.3867 174.087 12.3867C174.696 12.3867 175.274 12.5234 175.821 12.7969C176.376 13.0625 176.853 13.4219 177.251 13.875ZM171.708 13.957C170.927 13.957 170.356 14.3359 169.997 15.0938C169.716 15.6875 169.575 16.3594 169.575 17.1094C169.575 17.8594 169.673 18.5586 169.868 19.207C170.071 19.8477 170.368 20.4219 170.759 20.9297C171.626 22.0703 172.743 22.6406 174.11 22.6406C174.907 22.6406 175.485 22.2422 175.845 21.4453C176.103 20.8516 176.231 20.168 176.231 19.3945C176.231 17.8867 175.81 16.6055 174.966 15.5508C174.13 14.4883 173.044 13.957 171.708 13.957ZM181.587 23.2031L181.599 15.668C181.599 15.1445 181.528 14.793 181.388 14.6133C181.146 14.3008 180.81 14.1445 180.38 14.1445C179.95 14.1445 179.567 14.207 179.231 14.332C179.435 14.2539 179.7 14.0703 180.028 13.7812C180.63 13.2266 181.056 12.9023 181.306 12.8086C181.774 12.6211 182.185 12.5273 182.536 12.5273C182.896 12.5273 183.161 12.5859 183.333 12.7031C183.513 12.8203 183.642 12.9766 183.72 13.1719C183.821 13.4141 183.872 13.875 183.872 14.5547C185.333 13.2656 186.7 12.6211 187.974 12.6211C188.669 12.6211 189.274 12.8398 189.79 13.2773C190.329 13.7461 190.599 14.3164 190.599 14.9883V20.7773C190.599 21.3555 190.661 21.7539 190.786 21.9727C191.021 22.3867 191.411 22.5938 191.958 22.5938C192.271 22.5938 192.567 22.5352 192.849 22.418C192.153 23.0195 191.673 23.4062 191.407 23.5781C190.798 23.9766 190.263 24.1758 189.802 24.1758C189.349 24.1758 189.024 24.0938 188.829 23.9297C188.642 23.7656 188.509 23.5586 188.431 23.3086C188.345 23.0352 188.302 22.4766 188.302 21.6328V17.25C188.302 15.8516 187.845 14.9297 186.931 14.4844C186.603 14.3281 186.208 14.25 185.747 14.25C184.614 14.25 184.001 15.0898 183.907 16.7695C183.884 17.1914 183.872 17.5703 183.872 17.9062V21.5273C183.872 22.0273 184.024 22.3672 184.329 22.5469C184.438 22.6172 184.575 22.6523 184.739 22.6523C184.903 22.6523 185.075 22.6133 185.255 22.5352C185.091 22.6758 184.896 22.8438 184.669 23.0391C184.442 23.2344 184.204 23.4219 183.954 23.6016C183.337 24.0234 182.845 24.2344 182.478 24.2344C181.884 24.2344 181.587 23.8906 181.587 23.2031Z" fill="black"/>
</svg>
