<svg width="279" height="84" viewBox="0 0 279 84" fill="none" xmlns="http://www.w3.org/2000/svg">
<path d="M221.643 37.28C221.643 37.28 212.543 30 201.623 30C190.703 30 179.783 37.28 181.603 51.84C181.603 51.84 167.043 44.56 161.583 57.3C161.583 57.3 152.483 53.66 147.023 60.94C147.023 60.94 128.823 53.66 123.362 64.58C117.902 75.5 130.642 80.96 130.642 80.96C130.642 80.96 121.542 66.4 134.282 68.22C147.022 70.04 143.382 79.14 161.583 82.78C179.783 86.42 185.243 75.5 185.243 75.5C185.243 75.5 192.523 84.6 201.623 82.78C210.723 80.96 214.363 75.5 214.363 75.5C214.363 75.5 219.823 82.78 230.743 80.96C241.663 79.14 245.303 71.86 245.303 71.86C245.303 71.86 252.583 75.5 261.683 75.5C270.783 75.5 278.063 71.86 278.063 62.76C278.063 62.76 271.693 72.77 264.413 67.31C257.133 61.85 257.133 58.21 248.033 60.03C248.033 60.03 246.213 50.93 238.933 50.93C238.934 50.93 237.114 32.73 221.643 37.28Z" fill="#ED1C24"/>
<path d="M194.261 44.8986C197.102 36.3766 210.596 42.0576 206.334 52.7106C202.073 63.3636 189.575 60.2496 185.383 56.6166C180.057 52.0006 177.926 37.7966 192.63 31.7536C207.334 25.7106 221.958 37.7966 221.958 37.7966C221.958 37.7966 228.1 34.2906 234.084 39.7726C240.068 45.2536 238.647 50.9356 238.647 50.9356C238.647 50.9356 237.227 61.5886 225.153 56.6176C213.08 51.6466 226.573 38.8626 230.124 47.3846" fill="#ED1C24"/>
<path d="M194.261 44.8986C197.102 36.3766 210.596 42.0576 206.334 52.7106C202.073 63.3636 189.575 60.2496 185.383 56.6166C180.057 52.0006 177.926 37.7966 192.63 31.7536C207.334 25.7106 221.958 37.7966 221.958 37.7966C221.958 37.7966 228.1 34.2906 234.084 39.7726C240.068 45.2536 238.647 50.9356 238.647 50.9356C238.647 50.9356 237.227 61.5886 225.153 56.6176C213.08 51.6466 226.573 38.8626 230.124 47.3846" stroke="white" stroke-miterlimit="10" stroke-linecap="round" stroke-linejoin="round"/>
<path d="M238.934 50.9301C238.934 50.9301 245.751 50.2251 247.881 60.1671C247.881 60.1671 253.874 57.2031 260.11 63.6561C266.346 70.1091 271.317 70.8201 277.709 63.0081C277.709 63.0081 280.787 83.3671 245.869 72.1221C245.869 72.1221 232.364 88.1781 217.047 77.7601C214.789 76.2251 213.337 73.6841 213.409 70.9551C213.459 69.0671 214.198 67.0671 216.633 65.8491C222.315 63.0081 227.996 65.1391 228.706 70.8201C229.416 76.5021 219.474 76.5021 219.474 70.8201" fill="#ED1C24"/>
<path d="M238.934 50.9301C238.934 50.9301 245.751 50.2251 247.881 60.1671C247.881 60.1671 253.874 57.2031 260.11 63.6561C266.346 70.1091 271.317 70.8201 277.709 63.0081C277.709 63.0081 280.787 83.3671 245.869 72.1221C245.869 72.1221 232.364 88.1781 217.047 77.7601C214.789 76.2251 213.337 73.6841 213.409 70.9551C213.459 69.0671 214.198 67.0671 216.633 65.8491C222.315 63.0081 227.996 65.1391 228.706 70.8201C229.416 76.5021 219.474 76.5021 219.474 70.8201" stroke="white" stroke-miterlimit="10" stroke-linecap="round" stroke-linejoin="round"/>
<path d="M181.833 52.3557C181.833 52.3557 174.83 47.3527 167.324 50.9197C167.324 50.9197 162.658 53.0657 161.238 57.3277C161.238 57.3277 152.716 53.7767 147.034 60.8787C147.034 60.8787 121.826 51.8877 122.001 71.2977C122.001 71.2977 123.597 77.9237 130.699 80.7647C130.699 80.7647 123.107 68.1507 132.23 68.0657C141.352 67.9807 147.041 78.3937 155.204 80.9997C163.368 83.6057 177.572 86.4467 185.384 75.7937C185.384 75.7937 186.094 69.4017 179.702 67.9817C173.31 66.5617 169.759 71.5327 171.89 75.7937C174.021 80.0547 179.702 78.6347 179.702 75.0837" fill="#ED1C24"/>
<path d="M181.833 52.3557C181.833 52.3557 174.83 47.3527 167.324 50.9197C167.324 50.9197 162.658 53.0657 161.238 57.3277C161.238 57.3277 152.716 53.7767 147.034 60.8787C147.034 60.8787 121.826 51.8877 122.001 71.2977C122.001 71.2977 123.597 77.9237 130.699 80.7647C130.699 80.7647 123.107 68.1507 132.23 68.0657C141.352 67.9807 147.041 78.3937 155.204 80.9997C163.368 83.6057 177.572 86.4467 185.384 75.7937C185.384 75.7937 186.094 69.4017 179.702 67.9817C173.31 66.5617 169.759 71.5327 171.89 75.7937C174.021 80.0547 179.702 78.6347 179.702 75.0837" stroke="white" stroke-miterlimit="10" stroke-linecap="round" stroke-linejoin="round"/>
<path d="M214.686 75.885C214.686 75.885 207.041 83.146 199.053 83.02C191.066 82.894 185.384 75.792 185.384 75.792" fill="#ED1C24"/>
<path d="M214.686 75.885C214.686 75.885 207.041 83.146 199.053 83.02C191.066 82.894 185.384 75.792 185.384 75.792" stroke="white" stroke-miterlimit="10" stroke-linecap="round" stroke-linejoin="round"/>
<path d="M147.034 60.8779C147.034 60.8779 146.324 65.1389 152.715 65.8489C159.107 66.5589 156.266 59.4569 153.425 60.1669C150.584 60.8769 151.294 63.0079 152.005 63.7179" fill="#ED1C24"/>
<path d="M147.034 60.8779C147.034 60.8779 146.324 65.1389 152.715 65.8489C159.107 66.5589 156.266 59.4569 153.425 60.1669C150.584 60.8769 151.294 63.0079 152.005 63.7179" stroke="white" stroke-miterlimit="10" stroke-linecap="round" stroke-linejoin="round"/>
<path d="M68.0207 5.8966C68.0207 5.8966 61.8999 1 54.555 1C47.2101 1 39.8652 5.8966 41.0894 15.6898C41.0894 15.6898 31.2962 10.7932 27.6237 19.3622C27.6237 19.3622 21.503 16.9139 17.8305 21.8105C17.8305 21.8105 5.58903 16.9139 1.91591 24.2588C-1.75654 31.6037 6.81251 35.2762 6.81251 35.2762C6.81251 35.2762 0.691751 25.483 9.2608 26.7071C17.8298 27.9313 15.3816 34.052 27.6237 36.5003C39.8652 38.9486 43.5377 31.6037 43.5377 31.6037C43.5377 31.6037 48.4343 37.7245 54.555 36.5003C60.6758 35.2762 63.1241 31.6037 63.1241 31.6037C63.1241 31.6037 66.7965 36.5004 74.1414 35.2762C81.4863 34.0521 83.9346 29.1554 83.9346 29.1554C83.9346 29.1554 88.8312 31.6037 94.952 31.6037C101.073 31.6037 105.969 29.1554 105.969 23.0347C105.969 23.0347 101.685 29.7675 96.7882 26.0951C91.8916 22.4226 91.8916 19.9743 85.7708 21.1985C85.7708 21.1985 84.5467 15.0777 79.6501 15.0777C79.6508 15.0777 78.4266 2.83622 68.0207 5.8966Z" fill="#ED1C24"/>
<path d="M49.6034 11.0206C51.5143 5.28858 60.5905 9.10967 57.7239 16.275C54.8579 23.4403 46.4516 21.3458 43.632 18.9022C40.0497 15.7974 38.6164 6.24368 48.5064 2.1791C58.3965 -1.88548 68.2327 6.24368 68.2327 6.24368C68.2327 6.24368 72.3639 3.88551 76.3888 7.57276C80.4137 11.2593 79.4579 15.0811 79.4579 15.0811C79.4579 15.0811 78.5028 22.2464 70.3817 18.9029C62.2613 15.5593 71.3368 6.96068 73.7253 12.6927" fill="#ED1C24"/>
<path d="M49.6034 11.0206C51.5143 5.28858 60.5905 9.10967 57.7239 16.275C54.8579 23.4403 46.4516 21.3458 43.632 18.9022C40.0497 15.7974 38.6164 6.24368 48.5064 2.1791C58.3965 -1.88548 68.2327 6.24368 68.2327 6.24368C68.2327 6.24368 72.3639 3.88551 76.3888 7.57276C80.4137 11.2593 79.4579 15.0811 79.4579 15.0811C79.4579 15.0811 78.5028 22.2464 70.3817 18.9029C62.2613 15.5593 71.3368 6.96068 73.7253 12.6927" stroke="white" stroke-width="0.67261" stroke-miterlimit="10" stroke-linecap="round" stroke-linejoin="round"/>
<path d="M79.651 15.0776C79.651 15.0776 84.2362 14.6034 85.6689 21.2905C85.6689 21.2905 89.6998 19.2969 93.8942 23.6373C98.0886 27.9776 101.432 28.4558 105.731 23.2014C105.731 23.2014 107.802 36.8951 84.3156 29.3316C84.3156 29.3316 75.232 40.131 64.9296 33.1238C63.4109 32.0913 62.4343 30.3822 62.4827 28.5466C62.5163 27.2768 63.0134 25.9315 64.6512 25.1123C68.4729 23.2014 72.294 24.6348 72.7716 28.4558C73.2491 32.2776 66.5621 32.2776 66.5621 28.4558" fill="#ED1C24"/>
<path d="M79.651 15.0776C79.651 15.0776 84.2362 14.6034 85.6689 21.2905C85.6689 21.2905 89.6998 19.2969 93.8942 23.6373C98.0886 27.9776 101.432 28.4558 105.731 23.2014C105.731 23.2014 107.802 36.8951 84.3156 29.3316C84.3156 29.3316 75.232 40.131 64.9296 33.1237C63.4109 32.0913 62.4343 30.3822 62.4827 28.5466C62.5163 27.2768 63.0134 25.9315 64.6512 25.1123C68.4729 23.2014 72.294 24.6348 72.7716 28.4558C73.2491 32.2776 66.5621 32.2776 66.5621 28.4558" stroke="white" stroke-width="0.67261" stroke-miterlimit="10" stroke-linecap="round" stroke-linejoin="round"/>
<path d="M41.2442 16.0366C41.2442 16.0366 36.5339 12.6715 31.4853 15.0707C31.4853 15.0707 28.3469 16.5141 27.3918 19.3808C27.3918 19.3808 21.6598 16.9923 17.838 21.7692C17.838 21.7692 0.882903 15.7218 1.00061 28.7771C1.00061 28.7771 2.07409 33.2338 6.85097 35.1447C6.85097 35.1447 1.7445 26.6604 7.88072 26.6032C14.0163 26.5461 17.8427 33.55 23.3333 35.3028C28.8244 37.0556 38.3782 38.9665 43.6326 31.8012C43.6326 31.8012 44.1102 27.5019 39.8109 26.5467C35.5115 25.5916 33.1231 28.9352 34.5564 31.8012C35.9898 34.6672 39.8109 33.7121 39.8109 31.3236" fill="#ED1C24"/>
<path d="M41.2442 16.0366C41.2442 16.0366 36.5339 12.6715 31.4853 15.0707C31.4853 15.0707 28.3469 16.5141 27.3918 19.3808C27.3918 19.3808 21.6598 16.9923 17.838 21.7692C17.838 21.7692 0.882903 15.7218 1.00061 28.7771C1.00061 28.7771 2.07409 33.2338 6.85097 35.1447C6.85097 35.1447 1.7445 26.6604 7.88072 26.6032C14.0163 26.5461 17.8427 33.55 23.3333 35.3028C28.8244 37.0556 38.3782 38.9665 43.6326 31.8012C43.6326 31.8012 44.1102 27.5019 39.8109 26.5467C35.5115 25.5916 33.1231 28.9352 34.5564 31.8012C35.9898 34.6672 39.8109 33.7121 39.8109 31.3236" stroke="white" stroke-width="0.67261" stroke-miterlimit="10" stroke-linecap="round" stroke-linejoin="round"/>
<path d="M63.3416 31.8623C63.3416 31.8623 58.1995 36.7462 52.8267 36.6614C47.4546 36.5767 43.6328 31.7998 43.6328 31.7998" fill="#ED1C24"/>
<path d="M63.3416 31.8623C63.3416 31.8623 58.1995 36.7462 52.8267 36.6614C47.4546 36.5767 43.6328 31.7998 43.6328 31.7998" stroke="white" stroke-width="0.67261" stroke-miterlimit="10" stroke-linecap="round" stroke-linejoin="round"/>
<path d="M17.838 21.7687C17.838 21.7687 17.3605 24.6347 21.6591 25.1122C25.9585 25.5898 24.0476 20.8129 22.1367 21.2904C20.2258 21.768 20.7034 23.2013 21.1816 23.6789" fill="#ED1C24"/>
<path d="M17.838 21.7687C17.838 21.7687 17.3605 24.6347 21.6591 25.1122C25.9585 25.5898 24.0476 20.8129 22.1367 21.2904C20.2258 21.768 20.7034 23.2013 21.1816 23.6789" stroke="white" stroke-width="0.67261" stroke-miterlimit="10" stroke-linecap="round" stroke-linejoin="round"/>
</svg>
