<svg width="160" height="34" viewBox="0 0 160 34" fill="none" xmlns="http://www.w3.org/2000/svg">
<path fill-rule="evenodd" clip-rule="evenodd" d="M16.7746 0C25.9972 0 33.5738 7.58186 33.5738 16.8044C33.5738 26.0454 25.9972 33.5791 16.7746 33.5791C7.53458 33.5791 0 26.0454 0 16.8044C0 7.58186 7.53458 0 16.7746 0ZM8.7813 28.3182C3.66311 27.6265 5.70916 20.8851 9.12187 21.2196C6.62231 21.4577 7.41551 26.0462 10.1121 25.5682C12.194 25.5682 12.9391 23.8382 13.4407 21.5418C13.5545 20.6768 13.9354 16.9664 13.9354 15.1944C13.8942 14.8188 13.8942 14.2698 13.8942 13.9056L13.4399 13.1299H8.86447V12.7657H15.1882L19.972 21.4568L23.5931 14.9667C23.98 14.2689 22.8533 13.129 21.9585 13.129C21.9349 12.9268 21.9349 12.7648 21.9349 12.5565H26.9217V12.9802C26.4743 13.01 26.3728 13.1833 26.3728 13.8032L26.343 23.467V23.5861C26.3728 25.5664 29.1227 25.1191 30.4176 25.2092V25.5664H23.0984L23.0564 25.2513L23.0021 25.2092C23.4609 25.2513 23.6465 25.1191 23.6465 24.212V15.5568L18.9336 23.9205L14.3285 15.802C14.2331 19.8818 14.1017 23.0975 12.8252 25.9132C11.5129 28.0432 10.5586 28.3182 8.7813 28.3182ZM8.94852 12.3954L8.91263 11.9725C9.44406 11.9725 10.4456 12.2702 10.1593 10.9403C9.99212 10.063 9.02556 9.68744 8.57293 8.98354C8.10716 8.49413 7.8629 7.6589 8.73927 7.23516C17.9268 4.66381 19.3101 4.40116 20.5568 3.06514C20.7118 2.90404 20.921 3.06514 20.921 3.11329C20.921 4.24094 19.7575 5.76169 18.1763 6.60305V6.73962C18.3856 6.55489 19.0833 6.23884 19.4651 6.23884C19.4651 7.10383 17.3831 8.86885 16.2677 9.11399C16.3456 9.11399 16.2677 9.32324 16.3159 9.24006C16.5304 9.19191 17.187 8.82244 17.3481 8.86972C16.7755 10.3616 12.5757 11.7274 11.5978 11.5181C12.391 11.5181 15.028 10.1462 15.1234 9.5675L14.5745 9.59727C14.5202 9.59727 14.5202 9.53161 14.5745 9.43618C15.2723 9.43618 17.4321 8.49325 17.4321 7.69479C16.9314 7.34809 16.0121 8.07652 15.4877 8.07652V8.02924C17.1397 7.23603 17.5932 7.05043 18.1422 5.61986C18.1781 5.19611 17.8909 5.15409 17.4321 5.19611C15.6365 5.28629 13.4407 6.19856 11.568 6.86044C11.2038 7.15286 9.89757 7.73157 10.661 9.68744C10.8037 10.1471 11.8473 12.6107 8.94852 12.3954ZM15.3914 10.8387H15.3677L15.3914 10.6951C15.7669 10.6951 17.6764 9.53248 18.1054 8.86972C18.1352 8.67886 17.6405 8.72089 17.3831 8.76817C18.2726 8.32078 20.1812 7.39625 20.2591 5.99457C20.2591 5.89301 20.2171 5.83347 20.1821 5.76168C20.1821 5.70215 22.4549 4.11574 22.8839 4.15688C22.8839 5.4395 19.7575 7.7841 19.0842 8.10016C19.5141 8.10016 19.9195 7.82612 20.4264 7.82612C20.4264 8.43547 16.6433 10.8387 15.3914 10.8387ZM64.3661 28.0888V27.6265C64.7426 27.8419 65.0823 27.9776 65.6925 27.4103L65.6488 11.8219L58.5738 25.1401L58.5187 25.0044L51.702 11.2546L51.6836 26.0226C51.6398 27.75 50.6715 32.4006 44.4414 32.5486C39.4633 32.5486 36.6442 28.453 37.3227 23.8137C37.3227 23.8137 37.8349 22.2842 37.89 22.1424C38.0564 21.976 38.9573 20.5997 38.9573 20.4947C39.5745 20.0569 39.8328 19.6314 40.5551 19.2733C41.4927 18.5143 43.4302 17.9715 44.5964 18.249L44.5412 18.3847C43.3689 18.1816 40.7783 19.9947 40.3336 21.006C39.5868 22.0977 39.3591 23.0783 39.2847 24.4055C39.3583 25.6575 39.8337 27.539 40.9009 28.3339C41.7895 29.5745 43.3996 30.0552 44.8485 30.2583C48.4696 30.6041 51.4253 27.4698 51.2397 24.0282L51.357 9.85904H51.3693C51.1714 8.76729 50.5673 7.99684 49.3215 7.99684C49.3215 8.00297 47.9767 8.13868 47.7482 7.92243L47.7727 7.74995L47.8646 7.58974H47.9758L52.3805 7.61425L52.8489 7.88566L59.8442 21.4262H59.8503L60.0105 21.315L65.0998 12.0679C66.2161 9.95797 65.7967 7.66941 63.193 7.97233L63.1991 7.60812L67.0916 7.61425C67.6957 7.60812 68.3436 7.51532 68.3436 9.91507L68.3558 26.3115C68.3926 27.3052 70.3546 28.2726 71.4831 27.4339C71.8342 27.039 71.6862 26.3973 71.7423 25.8545V15.3747C71.6066 13.5116 70.3169 13.6719 68.9047 13.7647L68.8741 13.4994L68.9047 13.3576L81.2415 13.4005V11.6118L81.575 11.6363V18.2306H81.2721C81.2546 16.2327 81.0007 13.734 76.2327 13.734L75.4369 13.6789L75.3196 13.7655C74.8634 13.6605 74.5482 13.8154 74.1481 13.9012C73.9818 14.191 73.8391 14.641 73.8391 15.1042L73.833 19.768L77.0277 19.7557V18.3304L77.3857 18.3243L77.3919 22.5801L77.0461 22.5924C77.6318 20.2049 75.2259 20.2793 73.7883 20.2793L73.8128 26.8981C73.8189 27.1879 73.9179 27.3857 74.1149 27.4164C78.5134 28.7366 81.1846 26.5777 81.2835 23.2035L81.6652 23.1728L81.6722 29.9396L81.3579 29.9028L81.3509 28.2866L64.3661 28.0888ZM86.9498 23.4933C86.9804 28.0888 87.7281 28.0581 90.077 28.1072L90.127 28.4407H83.3042L83.2665 28.0897L84.6314 28.0765L84.6244 16.1224C84.6244 14.9011 84.3898 14.346 81.8184 14.1297V13.741L86.4385 13.7288C86.9305 13.7655 86.8946 14.1114 86.9139 14.6909C88.5913 12.9697 91.9279 13.5992 93.7909 14.7338C94.9142 15.443 95.5244 16.9673 95.4807 19.4957C95.3152 24.8809 89.5474 26.3369 86.9498 23.4933ZM101.755 13.7892L101.701 13.5913L101.755 13.7393V13.7892ZM112.533 24.5605L107.357 14.9746C107.165 14.7093 106.623 14.2777 106.29 14.2777L101.774 20.3222C102.008 21.9506 107.307 26.1338 109.207 27.25C110.756 26.4787 111.199 26.0839 112.533 24.5605ZM128.232 15.64C127.01 14.5482 125.659 14.0728 123.161 15.0727C122.945 15.3992 122.784 15.8624 122.784 16.2695L122.779 21.9699C122.779 23.3444 123.993 24.1227 126.283 23.5668C129.151 22.574 130.7 18.8172 128.232 15.64ZM122.865 23.3138C122.89 26.6696 122.73 27.792 123.95 27.8296H126.079V28.2122L119.522 28.2061L119.603 28.1378L119.534 27.8235L120.516 27.8112L120.534 16.2879C120.552 15.0114 120.769 13.8636 119.38 13.8636L114.358 22.2903C112.503 25.4054 111.67 26.0033 110.282 27.6817C110.885 28.0949 111.583 28.4031 112.144 28.847C111.306 28.7358 110.632 28.4959 109.8 28.1369C106.981 31.259 103.083 29.8766 105.643 26.3176C105.735 26.3421 105.791 29.6305 108.716 27.4961C105.673 25.942 102.804 24.3933 100.405 21.8701C99.7146 22.6169 99.3933 23.2516 99.3933 23.973L99.381 26.5952C99.8687 27.9583 100.997 27.8104 102.497 27.7736L102.447 28.1746L96.1916 28.1369L96.1986 27.7911C97.4689 27.8787 97.4313 27.2553 97.4383 26.1014L97.3884 15.2872C97.3647 14.0037 95.9193 13.7629 94.304 13.8189V13.5414L100.781 13.5292L100.776 13.8189L99.6953 13.8128C99.3758 13.8373 99.3565 14.0904 99.3565 14.3985L99.3495 22.6335L104.545 15.9587C104.68 15.6873 104.784 15.6873 104.767 14.9965C104.545 13.5834 102.873 13.861 101.756 13.861V13.5834L111.177 13.5589V13.9047C110.615 13.9047 110.072 13.7016 109.776 14.2374L114.013 22.1213L118.03 15.5393C118.82 13.3497 116.001 13.9301 114.767 13.8986L114.858 13.4854H122.866L122.873 14.4537C125.321 12.8252 127.666 12.9364 130.034 14.8669C135.615 20.4518 127.312 28.9214 122.865 23.3138ZM158.878 13.9441L156.695 13.9564C155.628 13.9564 155.664 14.5544 155.664 15.0236L155.678 26.1767C155.541 28.1947 157.256 27.9224 158.688 27.9224C158.761 27.7683 158.718 28.1877 158.718 28.2183H154.048L154.025 27.9102C155.252 27.8795 155.165 27.4409 155.326 26.5523L155.295 16.1889C155.3 15.8379 155.146 15.9674 155.054 16.0471L146.344 31.0935L146.351 16.3868C146.295 14.8634 146.03 13.9135 144.222 13.9135C143.687 13.9319 142.901 14.0247 142.415 13.9319C142.212 14.1411 142.18 14.2707 142.18 14.5675V25.183C142.18 27.6817 142.885 27.8979 145.26 27.8664L145.253 28.1632H140.552L140.54 27.8857C141.669 28.0144 141.823 27.7071 141.811 26.7379V16.1338L141.681 16.0602L133.027 30.6855L132.878 30.8405V15.1593C132.317 13.629 131.089 13.8636 129.762 13.8575L129.757 13.5432L134.358 13.5309L134.365 13.9135H133.253L133.199 25.7451L140.164 13.7533L141.563 13.6114L148.43 13.6789L148.386 13.9135H146.715L146.677 25.844L146.733 25.7888L153.606 13.8645C153.649 13.7725 153.945 13.6368 154.358 13.5992H158.879L158.878 13.9441ZM154.09 10.6619C151.055 11.5995 149.243 15.696 147.712 18.0152C147.658 18.0704 149.28 13.179 150.809 11.2362C151.618 10.2679 156.078 5.4929 159.297 10.8168C159.668 11.8403 159.858 12.3463 160 13.9196L159.952 13.9328C158.767 11.3649 157.045 9.73647 154.09 10.6619ZM86.9454 16.041L86.9629 21.1119C86.9629 22.5608 87.4383 23.5545 89.2716 23.6841C90.3931 23.8636 91.7256 23.4188 92.5346 21.92C93.9967 19.1744 93.1212 14.6043 89.4379 14.5675C87.7832 14.6533 87.3385 15.2635 86.9454 16.041Z" fill="#CC2229"/>
<path fill-rule="evenodd" clip-rule="evenodd" d="M72.2538 4.61368C72.9148 4.61368 73.4138 4.75376 73.7491 5.03392C74.0845 5.31408 74.2526 5.73695 74.2526 6.3034C74.2526 6.80068 74.1098 7.23318 73.8244 7.6009C73.539 7.96861 72.9909 8.15246 72.182 8.15246H70.6516V10.5014H69.8584V4.61368H72.2538ZM70.6516 7.4862H72.0953C72.6241 7.4862 72.9813 7.37414 73.1669 7.14914C73.3517 6.92413 73.4445 6.64834 73.4445 6.32003C73.4445 5.92868 73.3228 5.65728 73.0794 5.50669C72.836 5.35611 72.5085 5.28081 72.0953 5.28081H70.6516V7.4862ZM84.3532 7.129V7.79526H81.2662V9.8343H84.7647V10.5006H80.473V4.61368H84.6693V5.27994H81.2662V7.129H84.3532ZM95.8407 8.54907C95.8113 8.84374 95.7311 9.13108 95.6034 9.39831C95.4546 9.71611 95.2068 10.005 94.8575 10.2668C94.5091 10.5286 93.9978 10.6599 93.3254 10.6599C93.2413 10.6599 93.0654 10.6468 92.7983 10.6205C92.5034 10.5861 92.2169 10.5002 91.9517 10.3666C91.5928 10.1976 91.2645 9.90697 90.9685 9.49373C90.6726 9.08049 90.5238 8.47027 90.5238 7.66043C90.5238 7.5545 90.5343 7.3505 90.5562 7.04932C90.5832 6.72035 90.6581 6.39708 90.7786 6.08977C90.9379 5.67653 91.2058 5.30007 91.5875 4.95862C91.9692 4.61718 92.5401 4.44733 93.3009 4.44733C94.0258 4.44733 94.5607 4.58303 94.9083 4.85532C95.2559 5.1276 95.4879 5.43052 95.6113 5.76409C95.6525 5.88053 95.6849 5.9961 95.705 6.10991C95.7269 6.22373 95.7427 6.33054 95.7532 6.43122H94.9442C94.9359 6.29279 94.9067 6.1564 94.8575 6.02674C94.7717 5.79911 94.6115 5.58986 94.3734 5.39988C94.1344 5.20902 93.778 5.11359 93.3009 5.11359C92.6136 5.11359 92.1189 5.35173 91.8186 5.828C91.5157 6.3034 91.3651 6.90399 91.3651 7.62891C91.3651 8.23126 91.5297 8.77757 91.8572 9.26698C92.1855 9.75726 92.6845 10.0015 93.3569 10.0015C93.8752 10.0015 94.2736 9.85357 94.5537 9.55677C94.8339 9.26085 94.9915 8.92466 95.0221 8.54907H95.8407ZM101.503 5.27994V4.61368H106.123V5.27994H104.211V10.5006H103.417V5.27994H101.503ZM114.659 10.6757C113.749 10.6704 113.053 10.3885 112.572 9.8308C112.09 9.27311 111.849 8.51579 111.849 7.55799C111.849 6.6107 112.094 5.85514 112.585 5.28869C113.074 4.72312 113.765 4.43945 114.659 4.43945C115.558 4.43945 116.25 4.72224 116.738 5.28869C117.224 5.85427 117.468 6.6107 117.468 7.55799C117.468 8.51579 117.226 9.27311 116.742 9.8308C116.257 10.3894 115.563 10.6678 114.659 10.6678V10.6757ZM114.659 10.0085C115.331 10.0085 115.827 9.78002 116.146 9.32213C116.466 8.86512 116.627 8.27678 116.627 7.55712C116.627 6.78492 116.487 6.2246 116.209 5.87528C115.933 5.52683 115.624 5.2992 115.286 5.19326C115.181 5.16185 115.073 5.1393 114.964 5.12584C114.863 5.11329 114.76 5.10687 114.658 5.10659C114.557 5.10659 114.427 5.11884 114.265 5.14248C114.09 5.17058 113.92 5.22551 113.762 5.30532C113.492 5.43227 113.246 5.66603 113.023 6.00748C112.801 6.34893 112.69 6.86547 112.69 7.55887C112.69 7.62803 112.692 7.69808 112.695 7.76899C112.705 8.34271 112.881 8.90119 113.203 9.37642C113.486 9.79753 113.972 10.0085 114.659 10.0085ZM126.194 4.61368C126.856 4.61368 127.354 4.75376 127.691 5.03392C128.026 5.31408 128.193 5.73695 128.193 6.3034C128.193 6.80068 128.051 7.23318 127.766 7.6009C127.481 7.96861 126.933 8.15246 126.123 8.15246H124.592V10.5014H123.799V4.61368H126.194ZM124.592 7.4862H126.035C126.565 7.4862 126.921 7.37414 127.108 7.14914C127.292 6.92413 127.384 6.64834 127.384 6.32003C127.384 5.92868 127.263 5.65728 127.02 5.50669C126.776 5.35611 126.449 5.28081 126.035 5.28081H124.592V7.4862ZM134.516 10.5006H133.666L135.896 4.6128H136.746L138.976 10.5006H138.126L137.563 8.97719H135.071L134.516 10.5006ZM137.348 8.31093L136.317 5.41476L135.286 8.31093H137.348ZM145.686 10.5006H144.893V4.61368H145.686V7.06509H148.646V4.61368H149.439V10.5006H148.646V7.73134H145.686V10.5006Z" fill="black"/>
</svg>
