<svg width="149" height="44" viewBox="0 0 149 44" fill="none" xmlns="http://www.w3.org/2000/svg">
<path fill-rule="evenodd" clip-rule="evenodd" d="M2.87471 4.41719C2.87471 0.720491 0 1.84971 0 0.926211C0 0.618077 0.205725 0.515672 0.410544 0.515672C1.54067 0.515672 2.56658 0.720488 3.6967 0.720488C6.05846 0.720488 8.42022 0.515672 11.5007 0.515672C17.8672 0.515672 24.1314 5.34159 24.1314 12.0163C24.1314 20.2308 20.2299 25.9811 10.269 25.9811C8.42022 25.9811 6.57232 25.8787 4.72352 25.8787C4.41538 25.8787 0.924403 25.9811 0.718678 25.9811C0.410544 25.9811 0.308134 25.8787 0.308134 25.673C0.308134 24.8519 2.87562 25.673 2.87562 22.2853L2.87471 4.41719ZM5.75033 20.7447C5.75033 21.3609 5.64792 23.1064 5.95605 23.4146C7.18859 24.5438 9.85848 25.0567 11.5016 25.0567C16.6356 25.0567 21.4624 22.2844 21.4624 13.9666C21.4624 6.06027 16.1227 1.43917 9.34553 1.43917C5.85364 1.43917 5.75123 2.05543 5.75123 3.69851V20.7447H5.75033ZM43.436 17.4585C43.1279 16.5332 42.8198 16.0212 41.8963 16.0212H33.989C33.2703 16.0212 32.6541 16.0212 32.2435 16.8422L29.9842 21.8748C29.8818 22.0805 29.676 22.5935 29.676 23.1064C29.676 25.5706 32.2435 24.5438 32.2435 25.4673C32.2435 26.0836 31.7306 25.9802 31.3191 25.9802C30.2923 25.9802 29.2655 25.8778 28.2387 25.8778C27.3143 25.8778 26.2875 25.9802 25.3631 25.9802C25.1573 25.9802 25.0549 25.7745 25.0549 25.5697C25.0549 24.851 26.8004 25.4673 27.7248 23.4137L36.2474 5.03164C38.4035 0.513854 38.5068 0 39.0198 0C39.3279 0 39.636 1.02681 39.7384 1.33495L47.2351 19.8194C47.7481 21.1543 48.1596 22.695 48.9806 23.9266C50.1099 25.5688 52.1644 24.7477 52.1644 25.6721C52.1644 25.9802 51.9587 25.9802 51.6505 25.9802C50.2132 25.9802 48.6725 25.8778 47.2351 25.8778C46.3107 25.8778 45.2839 25.9802 44.3595 25.9802C44.1538 25.9802 43.5384 25.9802 43.5384 25.6721C43.5384 24.7477 45.6945 25.1591 45.6945 23.7218C45.6945 23.0031 44.9758 21.36 44.5644 20.3332L43.436 17.4585ZM33.7842 13.8642C33.4761 14.2748 33.7842 14.4805 34.1947 14.4805H41.28C42.1011 14.4805 42.1011 14.1724 41.8963 13.7618L38.4044 5.03255C38.1987 4.62201 37.9938 4.62201 37.7881 5.03255L33.7842 13.8642ZM72.1895 22.0796C74.757 25.9811 76.5025 24.7486 76.5025 25.5706C76.5025 25.9811 74.4479 25.9811 74.1407 25.9811C71.5732 25.9811 70.1359 24.1332 68.8009 22.0796L64.7961 15.8145C63.4611 13.8642 64.0774 13.9657 59.9701 13.9657C58.84 13.9657 59.0457 14.582 59.0457 14.8901V22.4893C59.0457 25.5688 62.8449 24.4396 62.8449 25.6721C62.8449 26.0826 62.4334 25.9802 62.2286 25.9802C61.8171 25.9802 60.9961 25.8778 58.018 25.8778C56.6831 25.8778 55.3481 25.9802 54.0132 25.9802C53.7051 25.9802 53.6027 25.7745 53.6027 25.5697C53.6027 24.7486 56.2725 25.1591 56.2725 22.4902V4.21237C56.2725 0.720486 53.0888 2.15875 53.0888 1.02862C53.0888 0.720485 53.3969 0.515672 53.8075 0.515672C54.5261 0.515672 54.3204 0.720488 56.1692 0.720488C58.2229 0.720488 60.2765 0.515672 62.1244 0.515672C62.7406 0.515672 70.6479 -0.20301 70.6479 6.77985C70.6479 9.55215 68.6967 12.0172 66.1292 12.9407L72.1895 22.0796ZM59.0448 12.2211C59.0448 12.8374 61.3042 12.7341 62.9473 12.7341C64.4879 12.7341 67.9789 12.0154 67.9789 7.59913C67.9789 3.18375 64.5904 1.74639 61.0985 1.74639C59.8659 1.74639 59.0448 1.64398 59.0448 3.08134V12.2211ZM80.8145 4.41719C80.8145 0.720491 77.8374 1.84971 77.8374 0.926211C77.8374 0.618077 78.1455 0.515672 78.3504 0.515672C79.4796 0.515672 80.5064 0.720488 81.535 0.720488C83.8959 0.720488 86.2576 0.515672 89.339 0.515672C95.7038 0.515672 101.969 5.34159 101.969 12.0163C101.969 20.2308 98.0673 25.9811 88.1055 25.9811C86.2576 25.9811 84.4097 25.8787 82.5618 25.8787C82.2537 25.8787 78.8642 25.9811 78.5561 25.9811C78.2479 25.9811 78.2479 25.8787 78.2479 25.673C78.2479 24.8519 80.8145 25.673 80.8145 22.2853V4.41719ZM83.5877 20.7447C83.5877 21.3609 83.4853 23.1064 83.7935 23.4146C85.0251 24.5438 87.7974 25.0567 89.339 25.0567C94.4721 25.0567 99.2989 22.2844 99.2989 13.9666C99.2989 6.06027 93.9583 1.43917 87.1811 1.43917C83.7935 1.43917 83.5877 2.05543 83.5877 3.69851V20.7447ZM109.157 10.9895C109.157 12.222 109.054 12.222 110.491 12.222H114.395C118.193 12.222 117.167 9.34643 118.091 9.34643C118.296 9.34643 118.399 9.75788 118.399 10.0651V16.5332C118.399 16.8413 118.296 16.9447 118.091 16.9447C116.961 16.9447 118.193 13.8642 115.113 13.8642H109.773C109.054 13.8642 109.157 14.3772 109.157 14.9934V21.5658C109.157 23.7218 108.848 24.5429 111.931 24.5429C120.248 24.5429 121.378 20.8462 121.891 20.8462C122.096 20.8462 122.199 21.2576 122.199 21.2576C122.199 22.5926 121.274 23.8251 120.351 24.7486C119.22 26.0836 118.399 25.9802 116.858 25.9802C114.086 25.9802 111.415 25.7745 108.644 25.8778C107.206 25.8778 105.769 25.9802 104.332 25.9802C103.919 25.9802 103.713 25.8778 103.713 25.6721C103.816 25.1591 104.124 25.2616 105.357 24.7477C106.282 24.2347 106.282 23.3103 106.282 21.5649V5.23828C106.282 3.5952 106.282 1.84971 104.434 1.54157C104.124 1.43916 103.303 1.43916 103.303 1.02862C103.303 0.720485 103.509 0.515672 104.535 0.515672C111.313 0.515672 113.265 0.720488 114.702 0.720488C115.421 0.720488 118.808 0.515672 119.837 0.515672C120.145 0.515672 120.248 0.926214 120.248 1.33676C120.248 5.34159 119.735 5.64973 119.527 5.64973C118.706 5.64973 119.219 3.90334 118.706 3.08225C117.679 1.84971 113.983 2.05543 112.546 2.05543C109.053 2.05543 109.157 1.95302 109.157 4.31478V10.9895ZM126.716 7.60003C126.716 0.206626 122.404 2.26025 122.404 0.925305C122.404 0.71958 122.712 0.514766 122.917 0.514766C123.429 0.514766 124.046 0.719583 124.559 0.719583C125.072 0.719583 125.688 0.514766 126.201 0.514766C126.611 0.514766 126.92 1.13103 127.126 1.33585L144.275 20.4356C144.48 20.7438 144.685 20.8462 144.788 20.8462C144.788 20.8462 144.89 20.7438 144.89 20.4356V5.444C144.89 0.720487 140.884 2.05543 140.884 0.926211C140.884 0.618077 140.987 0.515672 141.295 0.515672C142.324 0.515672 143.35 0.720488 144.48 0.720488C145.711 0.720488 147.252 0.515672 148.175 0.515672C148.381 0.515672 148.484 0.618077 148.484 0.926211C148.484 1.85061 146.43 1.13194 146.43 3.80093V24.5438C146.43 25.673 146.327 26.186 146.019 26.186C145.814 26.186 145.506 25.9802 144.684 25.1591L129.281 7.70245C129.179 7.70245 128.768 7.08618 128.46 7.08618C128.358 7.08618 128.255 7.18859 128.255 7.90726V22.5926C128.255 25.7754 131.437 24.5429 131.437 25.5697C131.437 25.6721 131.335 25.9802 131.027 25.9802C130.102 25.9802 129.179 25.8778 127.433 25.8778C126.097 25.8778 124.249 25.9802 124.044 25.9802C123.531 25.9802 123.531 25.7745 123.531 25.5697C123.531 24.3381 126.714 25.8778 126.714 20.8462V7.60003H126.716Z" fill="#AB1447"/>
<path fill-rule="evenodd" clip-rule="evenodd" d="M2.7724 31.5281C3.49108 31.5281 4.72271 31.5281 5.33989 31.6305C6.67483 31.8362 7.39351 32.5549 7.39351 33.889C7.39351 35.223 6.3667 36.1492 5.03175 36.355C4.10735 36.5607 2.97813 36.5607 2.77331 36.4574L2.7724 31.5281ZM1.12842 43.2354C1.43655 43.133 1.64228 43.133 1.95041 43.133C2.15614 43.133 2.46336 43.133 2.7724 43.2354V37.176H3.38867L4.82603 38.9215L6.98297 41.5905C7.39351 42.1035 7.70164 42.6173 8.11219 43.2345C8.42032 43.1321 8.83086 43.1321 9.139 43.1321C9.44713 43.1321 9.75527 43.1321 10.1667 43.2345L9.85858 42.7197L8.93327 41.6929L5.23657 37.0727C7.08538 36.6622 8.93327 35.7378 8.93327 33.5799C8.93327 31.8344 7.70164 30.9109 4.92844 30.9109H1.12932V43.2354H1.12842ZM16.6348 36.2525H19.408C19.9219 36.2525 20.4348 36.1501 21.0511 36.1501C20.9487 36.3559 20.9487 36.4583 20.9487 36.6631C20.9487 36.7655 20.9487 36.9712 21.0511 37.176C20.4348 37.176 19.9219 37.0736 19.408 37.0736H16.6348V42.3092C17.7649 42.3092 18.7918 42.2068 19.921 42.2068C20.4339 42.2068 20.9478 42.1044 21.5631 42.1044C21.5631 42.2068 21.4607 42.4125 21.4607 42.6173C21.4607 42.8221 21.5631 42.9255 21.5631 43.1321H14.9917V30.9128H21.4607C21.3583 31.1185 21.3583 31.2209 21.3583 31.4257C21.3583 31.6305 21.3583 31.8363 21.4607 31.9387C20.8445 31.8363 20.3306 31.8363 19.8177 31.8363L17.9698 31.7338H16.6339L16.6348 36.2525ZM26.6981 40.7694C27.4168 41.8986 28.2388 42.6173 29.5737 42.6173C31.1135 42.6173 32.1412 41.4881 32.1412 40.0507C32.1412 36.6631 26.4933 38.2028 26.4933 34.0947C26.4933 31.8363 28.3421 30.707 30.4981 30.707C31.3192 30.707 32.3469 30.9128 33.0656 31.5281C32.8608 32.0411 32.7575 32.4525 32.5527 32.9655H32.3469C32.0388 32.0411 31.2168 31.4257 30.1909 31.4257C28.9584 31.4257 27.9316 32.2468 27.9316 33.5817C27.9316 36.8688 33.5795 35.532 33.5795 39.333C33.5795 41.8995 31.5249 43.4411 29.1641 43.4411C28.2397 43.4411 26.8023 43.0288 26.1861 42.4125C26.3918 41.8996 26.4942 41.2833 26.4942 40.7703L26.6981 40.7694ZM43.2313 43.2354C42.9232 43.2354 42.6151 43.133 42.4093 43.133C42.1012 43.133 41.8964 43.2354 41.5882 43.2354V31.7338C39.8428 31.7338 38.7126 31.8363 37.6858 32.042C37.6858 31.8363 37.7882 31.6314 37.7882 31.4257C37.7882 31.3233 37.6858 31.1176 37.6858 30.9128H46.928V32.042C46.106 31.8363 44.772 31.7338 43.2313 31.7338V43.2354ZM57.9157 37.5875H54.0133L55.9645 32.9655L57.9157 37.5875ZM56.5808 30.707H56.1702L50.5223 43.2354C50.728 43.133 50.9329 43.133 51.1386 43.133C51.3443 43.133 51.5491 43.133 51.8573 43.2354C52.3702 41.4881 52.9865 39.9483 53.6028 38.3062H58.2239C58.8401 39.9483 59.5588 41.6938 60.0727 43.2354C60.3808 43.133 60.6889 43.133 60.9971 43.133C61.3052 43.133 61.6133 43.133 61.9215 43.2354L56.5808 30.707ZM68.4929 37.7923C68.4929 40.9751 69.314 42.6173 72.3953 42.6173C75.2709 42.6173 76.2977 40.5637 76.2977 37.5866V30.9118C76.5035 30.9118 76.6059 31.0143 76.8107 31.0143C77.0155 31.0143 77.1188 30.9118 77.3237 30.9118V38.1004C77.3237 41.5914 75.27 43.4411 72.0863 43.4411C70.3408 43.4411 69.1082 43.0288 68.1838 42.2077C67.0537 41.1809 66.8489 39.5387 66.8489 38.1013V30.9128C67.157 30.9128 67.3619 31.0152 67.67 31.0152C67.8757 31.0152 68.1829 30.9128 68.4911 30.9128V37.7923H68.4929ZM85.3333 31.5281C86.052 31.5281 87.2836 31.5281 88.0023 31.6305C89.3391 31.8362 89.9544 32.5549 89.9544 33.889C89.9544 35.223 88.9258 36.1492 87.5918 36.355C86.7707 36.5607 85.5381 36.5607 85.3333 36.4574V31.5281ZM83.6911 43.2354C83.9993 43.133 84.3074 43.133 84.5122 43.133C84.8204 43.133 85.0252 43.133 85.3333 43.2354V37.176H85.9496L87.4894 38.9215L89.5448 41.5905C89.9553 42.1035 90.2635 42.6173 90.674 43.2345C90.9821 43.1321 91.3927 43.1321 91.7008 43.1321C92.009 43.1321 92.4195 43.1321 92.7276 43.2345L92.4195 42.7197L91.5984 41.6929L87.9008 37.0727C89.6481 36.6622 91.496 35.7378 91.496 33.5799C91.496 31.8344 90.3668 30.9109 87.5927 30.9109H83.6911V43.2354ZM103.714 37.5875H99.7096L101.66 32.9655L103.714 37.5875ZM102.379 30.707H101.969L96.321 43.2354C96.5267 43.133 96.7316 43.133 96.9391 43.133C97.1448 43.133 97.3496 43.133 97.6578 43.2354C98.1707 41.4881 98.787 39.9483 99.4033 38.3062H103.92C104.641 39.9483 105.359 41.6938 105.872 43.2354C106.18 43.133 106.489 43.133 106.797 43.133C107.105 43.133 107.413 43.133 107.721 43.2354L102.379 30.707ZM123.226 43.2354H122.713C122.507 42.9255 122.096 42.5149 121.788 42.1044L113.984 33.4784H113.779V43.2354C113.573 43.133 113.471 43.133 113.266 43.133C113.061 43.133 112.958 43.133 112.753 43.2354V30.9128H113.471L121.994 40.1541H122.2V30.9128C122.405 30.9128 122.508 31.0152 122.713 31.0152C122.918 31.0152 123.021 30.9128 123.226 30.9128V43.2354ZM133.801 43.2354C133.493 43.2354 133.288 43.133 132.98 43.133C132.774 43.133 132.467 43.2354 132.159 43.2354V31.7338C130.413 31.7338 129.284 31.8363 128.257 32.042C128.257 31.8363 128.36 31.6314 128.36 31.4257C128.36 31.3233 128.257 31.1176 128.257 30.9128H137.499V32.042C136.678 31.8363 135.343 31.7338 133.801 31.7338V43.2354ZM142.222 40.7694C142.84 41.8986 143.661 42.6173 145.099 42.6173C146.536 42.6173 147.563 41.4881 147.563 40.0507C147.563 36.6631 141.915 38.2028 141.915 34.0947C141.915 31.8363 143.765 30.707 145.921 30.707C146.845 30.707 147.871 30.9128 148.487 31.5281C148.303 31.9924 148.165 32.4739 148.077 32.9655H147.871C147.46 32.0411 146.639 31.4257 145.613 31.4257C144.381 31.4257 143.354 32.2468 143.354 33.5817C143.354 36.8688 149 35.532 149 39.333C149 41.8995 147.05 43.4411 144.586 43.4411C143.661 43.4411 142.223 43.0288 141.709 42.4125C141.812 41.8996 141.915 41.2833 142.019 40.7703L142.222 40.7694Z" fill="black"/>
</svg>
