<svg width="139" height="57" viewBox="0 0 139 57" fill="none" xmlns="http://www.w3.org/2000/svg">
<path fill-rule="evenodd" clip-rule="evenodd" d="M1.14297 30.4417L1.76145 30.5366L2.37994 30.6077L2.99922 30.6789L3.61771 30.7264L4.23699 30.7746L4.83175 30.7984H6.06951L6.688 30.7746L7.30728 30.7501L7.90204 30.7034L8.52132 30.6552L9.1398 30.584L9.75829 30.4883L10.3538 30.4171L10.9723 30.2985L11.5671 30.1799L12.1864 30.0604L12.7819 29.9181L13.4004 29.7512L13.9952 29.608L14.5907 29.4182L15.2092 29.2513L15.804 29.0362L16.3995 28.8464L16.9943 28.6083L17.589 28.3948L18.1846 28.1559L18.7794 27.8942L19.3504 27.6324L19.9459 27.3706L20.5407 27.1088L21.1117 26.8233L21.7073 26.514L22.2783 26.2048L22.8494 25.9185L23.4204 25.5855L23.9914 25.2525L24.587 24.9196L25.1343 24.5621L25.7053 24.2054L26.2526 23.8487L26.8007 23.4675L27.3717 23.0862L27.9191 22.6821L28.4426 22.2771L28.9899 21.873L29.5135 21.4443L30.0371 21.0157L30.5615 20.5878L31.085 20.1591L31.5841 19.683L32.0847 19.2306L32.5846 18.7545L33.0599 18.2783L33.5598 17.803L34.0359 17.3024L34.4883 16.8025L34.9636 16.2789L35.4168 15.7553L35.8684 15.2318L36.2971 14.6845L36.7258 14.1609L37.1537 13.5898L36.4157 15.0419L35.7024 16.4221L35.3449 17.0888L35.0119 17.731L34.6544 18.374L34.2977 18.9925L33.9402 19.611L33.5835 20.2066L33.2031 20.8013L32.8219 21.3731L32.4414 21.9434L32.0365 22.5152L31.6078 23.0625L31.2037 23.6098L30.7513 24.1342L30.2752 24.657L29.7998 25.1813L29.2992 25.7041L28.7519 26.2048L28.2046 26.7046L27.6335 27.2045L27.015 27.7043L26.372 28.1797L25.7053 28.6795L25.0148 29.1556L24.2777 29.6555L23.4924 30.1316L22.6833 30.6077L21.8496 31.1076L20.9456 31.5837L20.3264 31.893L19.7316 32.2022L19.1123 32.5122L18.4938 32.797L17.8746 33.0825L17.2561 33.3451L16.6376 33.5823L16.0183 33.8204L15.3753 34.0593L14.7568 34.2728L14.1138 34.4642L13.4953 34.654L12.8523 34.8446L12.2101 34.987L11.5671 35.1294L10.9249 35.2725L10.2581 35.3682L9.61593 35.4876L8.9492 35.558L8.30619 35.6063L7.64025 35.6529L6.97352 35.6774L6.30757 35.7012L5.61711 35.6774L4.95038 35.6529L4.26071 35.6063L3.57025 35.558L2.87979 35.4631L2.18933 35.3445L1.49966 35.2251L0.785476 35.0827L0.0712891 34.9158V34.0593L0.0958072 33.7975L0.118744 33.5112L0.143262 33.2256L0.166198 32.9639L0.214443 32.6791L0.285624 32.3928L0.356806 32.1073L0.452506 31.8455L0.547414 31.56L0.666841 31.2737L0.809204 30.989L0.976084 30.7034L1.14297 30.4417Z" fill="#5D7A56"/>
<path fill-rule="evenodd" clip-rule="evenodd" d="M34.5356 23.6105L34.7263 23.2063L34.9406 22.8014L35.1549 22.3727L35.3447 21.9686L35.5591 21.5644L35.7734 21.1357L35.964 20.7308L36.1784 20.3266L36.3919 19.898L36.607 19.493L36.7968 19.0651L37.0112 18.6602L37.2018 18.2553L37.4153 17.8266L37.6305 17.4224L37.844 16.9938L37.9397 16.8751L38.0346 16.7557L38.1295 16.6371L38.2244 16.5176L38.3201 16.4465L38.415 16.3753L38.5107 16.3041L38.5819 16.2796H38.6294L38.6531 16.2559L38.7013 16.2796H38.7488L38.7725 16.3041L38.82 16.3278L38.8437 16.3516L38.8912 16.399L38.9157 16.4465L38.9394 16.4939L38.9631 16.5414L39.0106 16.6133L39.058 16.8032L39.1055 16.9938L39.2012 17.4699L39.2961 17.9223L39.391 18.3984L39.4867 18.85L39.5816 19.3032L39.6765 19.7785L39.7722 20.2309L39.8671 20.7071L39.8434 21.778L39.796 22.8726L39.7485 23.9442L39.701 25.0389L39.6765 26.1097L39.6291 27.2051L39.5816 28.276L39.5342 29.3706L39.4867 30.4423L39.463 31.5361L39.4147 32.6078L39.3673 33.7032L39.3198 34.7733L39.2724 35.8687L39.2479 36.9396L39.2012 38.0342L39.1775 38.1291L39.1529 38.2486L39.1292 38.3443L39.0818 38.4392L39.0106 38.6527L38.8912 38.8908L38.7963 39.0814L38.6531 39.2957L38.487 39.51L38.3201 39.7244L38.1295 39.9379L37.9397 40.1531L37.7254 40.3666L37.4873 40.5809L37.2492 40.7953L37.0112 41.0096L36.7494 41.2232L36.4639 41.4383L36.2258 40.7241L35.9877 40.0344L35.7497 39.3194L35.4879 38.6053L35.2498 37.9156L35.0118 37.2014L34.7737 36.4872L34.5356 35.7738V23.6105Z" fill="#4C4543"/>
<path fill-rule="evenodd" clip-rule="evenodd" d="M51.9347 11.6627L52.3626 11.5915L52.7675 11.5203L53.1717 11.4721L53.5766 11.4009L53.9816 11.3534L54.3865 11.2823L54.7906 11.2348L55.1956 11.1628L55.5997 11.1154L56.0284 11.0442L56.4326 10.9967L56.8375 10.9248L57.2417 10.8536L57.6466 10.8061L58.0515 10.735L58.4565 10.6875L58.2896 11.5915L58.099 12.4718L57.8609 13.3291L57.6229 14.1619L57.3374 14.9948L57.0518 15.7809L56.7189 16.5418L56.3614 17.3034L55.9564 18.0413L55.5523 18.7318L55.1236 19.4223L54.6475 20.0653L54.1722 20.6837L53.6478 21.3022L53.1005 21.897L52.5294 22.4451L51.9347 22.9924L51.2917 23.516L50.6487 23.9921L49.959 24.4682L49.2448 24.8961L48.5069 25.3248L47.7453 25.7297L46.9599 26.0864L46.1271 26.4439L45.2935 26.7769L44.4132 27.0624L43.5084 27.3487L42.5569 27.586L41.6047 27.824L40.605 28.0146L39.5815 28.2053L40.2245 27.824L40.843 27.4436L41.4615 27.0624L42.0571 26.6575L42.6281 26.2533L43.1754 25.8484L43.7235 25.4205L44.2471 24.9918L44.7699 24.5631L45.2705 24.087L45.7459 23.6346L46.1983 23.1593L46.6507 22.6832L47.103 22.207L47.5072 21.7072L47.9121 21.1836L48.2926 20.66L48.6501 20.1364L49.0068 19.6121L49.3405 19.0418L49.6498 18.4937L49.9353 17.9227L50.2208 17.3517L50.4826 16.7561L50.7207 16.1376L50.9587 15.5429L51.173 14.9236L51.3637 14.2814L51.5297 13.6384L51.6966 12.9962L51.8153 12.3294L51.9347 11.6627Z" fill="#5D7A56"/>
<path fill-rule="evenodd" clip-rule="evenodd" d="M42.0327 29.3717L42.1995 29.2768L42.3902 29.1811L42.6045 29.1099L42.8188 29.015L43.2704 28.8481L43.7466 28.6812L44.199 28.5389L44.6513 28.3965L44.8657 28.3483L45.0792 28.3008L45.2706 28.2526L45.4367 28.2296L45.6036 28.2059L45.7934 28.1814H46.2941L46.4839 28.2059L46.6508 28.2296L46.8176 28.2771L46.9837 28.3483L47.1261 28.4194L47.2692 28.4914L47.4124 28.5863L47.5548 28.705L47.6742 28.8481L47.7454 28.9193L47.7928 28.9913L47.8648 29.0632L47.9123 29.1574L48.1503 29.5615L48.4121 29.9665L48.6976 30.3714L48.9594 30.7763L49.2449 31.1805L49.5542 31.5617L49.8405 31.9659L50.1497 32.3471L50.459 32.7275L50.7919 33.1087L51.1257 33.4891L51.4587 33.8704L51.7916 34.2508L52.1254 34.632L52.4821 34.9887L52.8388 35.3699L53.1963 35.7266L53.5767 36.1078L53.9579 36.4645L54.3146 36.8212L55.1 37.5599L55.8616 38.2733L56.6707 38.9875L57.4806 39.7017L58.3134 40.4159L59.1463 41.1293L59.0751 41.2487L59.0031 41.3436L58.8845 41.4393L58.7658 41.5342L58.6227 41.6054L58.4321 41.7011L58.2652 41.7723L58.0517 41.8197L57.8373 41.8909L57.623 41.9392L57.3849 41.9858L57.1231 42.0104L56.8851 42.0578L56.5996 42.0815L56.3378 42.1061L56.076 42.1298H55.8142L55.5524 42.1527L55.2906 42.1298H54.767L54.5044 42.1061L54.2672 42.0815L54.0291 42.0578L53.8148 42.0104L53.6004 41.9629L53.4106 41.9154L53.2437 41.8672L53.0769 41.796L52.9345 41.7486L52.8388 41.6774L52.7439 41.5825L42.0327 31.1805L41.9623 31.1093L41.8666 31.0136L41.8191 30.895L41.7479 30.8001L41.6997 30.6569L41.6522 30.5383L41.6285 30.3951L41.5811 30.2765V30.0147L41.6048 29.9435V29.8715L41.6285 29.8241L41.6522 29.7529L41.676 29.7047L41.7234 29.6335L41.7479 29.586L41.7954 29.5386L41.8428 29.4911L41.8903 29.4429L41.9623 29.3954L42.0327 29.3717ZM64.4303 10.5924L64.5015 10.5213L64.5972 10.4738L64.6921 10.4264L64.787 10.3789L64.9064 10.3544L65.0251 10.3069H65.1208L65.2394 10.2832H65.3588L65.4775 10.3069H65.5732L65.6681 10.3544L65.763 10.4018L65.8587 10.4493L65.8824 10.4738L65.9053 10.5213L65.9536 10.545L65.9773 10.5924L66.2391 11.0686L66.5246 11.5684L66.7864 12.092L67.0482 12.6156L67.31 13.1392L67.5488 13.6865L67.7861 14.2338L68.0242 14.7819L68.2385 15.3529L68.4291 15.9002L68.6197 16.472L68.7858 17.0431L68.929 17.5904L69.0713 18.1614L69.1433 18.4469L69.1908 18.7087L69.2382 18.9705L69.2857 19.256V19.4229L69.2619 19.4704L69.2382 19.5178L69.2145 19.5661L69.167 19.589L69.1433 19.6372L69.0713 19.661L69.0239 19.7084L68.9764 19.7321L68.9044 19.7559L68.7858 19.8033L68.6427 19.8278L68.5003 19.8516L68.3334 19.8745H67.7149L67.5718 19.8516L67.4531 19.8278L67.0956 19.7321L66.7627 19.6372L66.406 19.5415L66.0485 19.4466L65.7155 19.3272L65.3588 19.2086L65.0251 19.0899L64.6921 18.9468L64.3583 18.8044L64.0261 18.6613L63.6924 18.4944L63.3831 18.3275L63.0731 18.1614L62.7639 17.9708L62.4546 17.7802L62.1691 17.5659L62.0497 17.4709L61.931 17.3523L61.8361 17.2566L61.7404 17.1143L61.6455 16.9948L61.5736 16.8525L61.5032 16.6856L61.4549 16.5424L61.3837 16.3763L61.36 16.2332L61.3118 16.0671V15.6147L61.36 15.4486L61.3837 15.3054L61.5032 14.9954L61.6455 14.6862L61.7879 14.3532L61.931 14.044L62.0979 13.7102L62.264 13.401L62.4546 13.0917L62.6452 12.7825L62.8358 12.4724L63.0494 12.1632L63.2645 11.8777L63.4781 11.5921L63.7161 11.3304L63.9542 11.0686L64.1922 10.8305L64.4303 10.5924Z" fill="#4C4543"/>
<path fill-rule="evenodd" clip-rule="evenodd" d="M60.9075 18.2559L61.503 18.5414L62.1215 18.8277L62.74 19.1124L63.3593 19.3987L63.9778 19.6842L64.597 19.9698L65.2155 20.2553L65.8348 20.5171L65.8103 21.1126V21.6836L65.7866 22.2784L65.7628 22.8502V23.445L65.7391 24.016V24.6116L65.7154 25.1826L65.6917 25.7774V26.3484L65.6679 26.9202L65.6205 27.515L65.573 28.086L65.5256 28.6808L65.4773 29.2526L65.4061 29.8236L65.3342 30.4666L65.2393 31.1089L65.1206 31.7036L65.0012 32.2754L64.8826 32.8465L64.7394 33.3938L64.597 33.8936L64.4539 34.3935L64.2878 34.8688L64.1209 35.3457L63.954 35.7744L63.7634 36.2023L63.5728 36.5827L63.383 36.9877L63.1687 37.3443L62.9543 37.6781L62.74 38.0111L62.5265 38.3211L62.3121 38.6304L62.0741 38.8914L61.836 39.1531L61.5979 39.4149L61.3599 39.6301L61.1218 39.8436L60.86 40.0579L60.622 40.2248L60.3602 40.4154L60.0984 40.5586L59.8366 40.7002L59.5748 40.8433L59.313 40.939L59.0512 41.0576L58.8606 40.8916L58.67 40.7484L58.5039 40.5815L58.3133 40.4384L58.1464 40.2723L57.9558 40.1299L57.7897 39.963L57.5991 39.7969L57.9084 39.2014L58.2176 38.6058L58.5039 37.9874L58.742 37.3681L59.003 36.7496L59.2173 36.1311L59.4316 35.4889L59.6223 34.8459L59.8129 34.2037L59.979 33.5369L60.1221 32.8939L60.2653 32.2272L60.3839 31.5613L60.5025 30.8945L60.5982 30.2041L60.6931 29.5144L60.7643 28.8477L60.8363 28.1572L60.8837 27.4675L60.9312 26.7533L60.9549 26.0629L61.0024 25.3724L61.0269 24.6582V21.8268L61.0024 21.1363L60.9549 19.708L60.9075 18.2559Z" fill="#5D7A56"/>
<path fill-rule="evenodd" clip-rule="evenodd" d="M82.3049 24.5871L82.4006 24.8014L82.4473 25.0157L82.4956 25.2064L82.5201 25.3962L82.543 25.6105V25.9443L82.5201 26.1104L82.4956 26.2772L82.4473 26.4204L82.4006 26.5628L82.3532 26.6822L82.282 26.8245L82.2092 26.9202L82.1151 27.0389L82.0439 27.1338L81.9253 27.2058L81.8296 27.2769L81.7102 27.3489L81.5915 27.3956L81.4729 27.4193L81.3535 27.4675H80.9493L80.8054 27.4193L80.663 27.3956L80.5199 27.3244L80.3775 27.2769L80.2106 27.182L80.0683 27.0863L79.9251 26.9906L79.8302 26.8957L79.7345 26.7771L79.6388 26.6577L79.5676 26.539L79.4261 26.2772L79.3066 25.9917L79.2346 25.8486L79.188 25.7299L79.1152 25.5868L79.044 25.4681L78.9729 25.3487L78.8772 25.2301L78.783 25.1344L78.6644 25.0395L78.5916 24.9683L78.5205 24.9438L78.4263 24.8963L78.3536 24.8734H78.2595L78.1867 24.8489H78.1155L78.0451 24.8734H77.974L77.9028 24.8963L77.83 24.9438L77.7588 24.992L77.6876 25.0395L77.6172 25.0869L77.569 25.1344L77.4978 25.2064L77.4504 25.2775L77.3792 25.3487L77.3547 25.3962L77.2835 25.4919L77.2123 25.658L77.1411 25.8248L77.0937 26.0154L77.0454 26.1823V26.539L77.0684 26.8008L77.0937 27.0152L77.1641 27.2524L77.2123 27.4913L77.2835 27.7285L77.3547 27.9429L77.4504 28.1809L77.5461 28.3716L77.6631 28.5859L77.7588 28.7994L77.8782 29.0146L77.9969 29.2044L78.1408 29.4195L78.2595 29.6093L78.4018 29.7999L78.5687 29.9897L78.8542 30.371L79.1635 30.7514L79.4735 31.1089L79.7827 31.4893L80.092 31.8468L80.3775 32.2035L80.663 32.5847L80.924 32.9414L81.2103 33.3938L81.4247 33.8462L81.6145 34.2986L81.7584 34.7502L81.8525 35.2026L81.9008 35.6787L81.9253 36.1311L81.9008 36.5827L81.8525 37.0359L81.7584 37.4646L81.6398 37.8925L81.4958 38.3211L81.306 38.7253L81.0909 39.1065L80.8782 39.4869L80.6156 39.8199L80.3293 40.1537L80.0208 40.4629L79.6871 40.7484L79.3533 41.0102L78.9966 41.2238L78.6162 41.4152L78.212 41.582L77.83 41.7007L77.4021 41.7719L76.9972 41.8193L76.5448 41.8438L76.1169 41.7956L75.6645 41.7244L75.2366 41.582L74.7842 41.4152L74.331 41.1771L74.1412 41.0822L73.9285 40.9628L73.7133 40.8671L73.4753 40.7722L73.2609 40.6772L73.0458 40.5586L72.8085 40.4629L72.595 40.3672L72.4036 40.2486L72.2138 40.1054L72.0944 40.058L72.0232 39.9868L71.9275 39.9156L71.8563 39.8436L71.7859 39.7487L71.7131 39.6768L71.6665 39.5818L71.5937 39.5107L71.5478 39.415L71.4996 39.3201L71.4751 39.2251L71.4521 39.1065L71.4039 38.8447L71.381 38.6059L71.3564 38.3449V37.7968L71.381 37.535L71.4039 37.2495L71.4284 36.9877L71.4751 36.4166L71.5233 35.8693L71.5478 35.5838L71.5708 35.322V34.679L71.5937 34.5604L71.619 34.4655L71.642 34.369L71.6894 34.2986L71.7377 34.2037L71.7606 34.1317L71.8334 34.0605L71.88 34.0123L71.9528 33.9648L72.0232 33.9174L72.0944 33.8699L72.1655 33.8217H72.2612L72.3324 33.7987L72.4281 33.775H72.595L72.6662 33.7987L72.7619 33.8217L72.8331 33.8462L72.9272 33.8937L72.9999 33.9411L73.0711 33.9886L73.1415 34.0605L73.2127 34.1317L73.2839 34.2037L73.3566 34.2986L73.4025 34.3935L73.4508 34.5121L73.4753 34.6316L73.5235 34.7739L73.5694 34.9645L73.6176 35.1789L73.6888 35.3924L73.7845 35.6075L73.8557 35.7974L73.9514 36.0125L74.07 36.2023L74.1895 36.3929L74.331 36.5827L74.4979 36.7741L74.6893 36.9639L74.8799 37.1308L74.9986 37.2257L75.0927 37.2977L75.2366 37.3926L75.3553 37.4646L75.4747 37.5595L75.6163 37.6307L75.7602 37.7019L75.9026 37.7968L76.0694 37.868L76.2126 37.9162L76.355 37.9629L76.4973 38.0111L76.6405 38.0593L76.7828 38.0831H76.9015L77.0209 38.1068H77.1411L77.2352 38.0831H77.3547L77.4504 38.0348L77.5215 38.0111L77.6172 37.9629L77.6876 37.9162L77.7588 37.868L77.8071 37.7968L77.8545 37.7256L77.9028 37.6307L77.9494 37.5595L77.974 37.4646L77.9969 37.3681V37.0359L77.974 36.8928L77.9494 36.7741L77.9257 36.631L77.8782 36.4878L77.8071 36.3455L77.7588 36.1794L77.6631 36.0125L77.5215 35.7507L77.3547 35.4644L77.1878 35.1789L76.9972 34.8934L76.6175 34.2986L76.2126 33.7038L75.8084 33.1083L75.4264 32.5135L75.2366 32.2035L75.0697 31.8705L74.8799 31.5613L74.736 31.2512L74.5691 30.942L74.4267 30.609L74.3081 30.2761L74.1895 29.9431L74.1183 29.6093L74.0226 29.2526L73.9743 28.9189L73.9514 28.5622V27.848L73.9989 27.4913L74.07 27.1338L74.1642 26.7534L74.2852 26.3721L74.4505 25.9917L74.6648 25.6105L74.7842 25.3724L74.9029 25.1581L75.0468 24.9438L75.2121 24.7302L75.379 24.5159L75.5451 24.3016L75.712 24.0872L75.9026 23.8966L76.094 23.6831L76.2838 23.4925L76.4973 23.3019L76.7117 23.112L76.9268 22.9452L77.1166 22.7783L77.3547 22.6114L77.569 22.4453L77.7841 22.3021L77.9969 22.1835L78.2349 22.0404L78.4493 21.9447L78.6644 21.8498L78.8772 21.7548L79.0923 21.6837L79.3066 21.6354L79.5202 21.588L79.7116 21.565L79.9251 21.5405L80.1149 21.565L80.2818 21.588L80.4732 21.6354L80.6401 21.6837L80.8054 21.7786L80.8782 21.8023L80.9493 21.8743L81.0197 21.9217L81.0909 21.9692L81.2103 22.1115L81.329 22.2547L81.4247 22.4216L81.5433 22.6114L81.6145 22.7783L81.7102 22.9926L81.8771 23.3968L82.0439 23.8017L82.1863 24.2066L82.3049 24.5871ZM84.5187 22.5165V22.2784L84.5416 22.1835L84.5899 22.0641L84.6381 21.9692L84.7085 21.8743L84.7567 21.8023L84.8525 21.7311L84.9466 21.6599L85.0423 21.6125L85.138 21.5405L85.2329 21.4931L85.3515 21.4693L85.4701 21.4219L85.6141 21.3981L85.7327 21.3744L85.8522 21.3507H85.9937L86.1132 21.3262H86.3757L86.5181 21.3507L86.6612 21.3744H86.7807L86.8993 21.3981L87.0179 21.4219L87.1374 21.4693L87.2315 21.5168L87.3272 21.5405L87.4229 21.6125L87.517 21.6599L87.5898 21.7074L87.6609 21.7786L87.7321 21.8268L87.7796 21.8972L87.8278 21.9692L87.8753 22.0641L87.9219 22.1361L87.9465 22.231L87.9694 22.3259L87.9947 22.4216L88.0177 22.5165L88.0406 22.6114V23.0875L87.9219 23.8966L87.8278 24.7302L87.7084 25.5393L87.5898 26.3721L87.4711 27.2058L87.3517 28.0149L87.2315 28.8477L87.0891 29.6568L86.9476 30.4667L86.8036 31.275L86.6367 32.1086L86.4944 32.9185L86.3275 33.7268L86.1377 34.5359L85.9708 35.3458L85.781 36.1549L85.7565 36.2498L85.7327 36.3455V36.7022L85.7565 36.7741L85.781 36.8208L85.8268 36.8928L85.8522 36.9402L85.8996 36.9877L85.9479 37.0359L85.9937 37.0826L86.042 37.1063L86.0902 37.1308L86.1606 37.1546L86.2088 37.1783H86.28L86.3512 37.202H86.5426L86.6842 37.1546L86.8281 37.1308L86.9705 37.0596L87.0891 36.9877L87.2086 36.8928L87.6609 36.5361L88.0659 36.1794L88.4455 35.7974L88.8022 35.4169L89.1605 35.0357L89.4927 34.6316L89.779 34.2266L90.0645 33.8217L90.3271 33.4175L90.5652 33.0134L90.8024 32.6084L91.016 32.1798L91.2074 31.7748L91.3972 31.3469L91.5641 30.9183L91.7309 30.4896L91.8978 30.0617L92.0402 29.633L92.1826 29.2044L92.3012 28.7528L92.4198 28.3241L92.5408 27.8954L92.6595 27.4438L92.7536 27.0152L92.9687 26.1341L93.1831 25.2538L93.3966 24.3965L93.6347 23.5162L93.6592 23.3968L93.7051 23.2781L93.7533 23.1832L93.8015 23.0875L93.8719 22.9926L93.9202 22.8977L93.9914 22.8265L94.0641 22.7308L94.1345 22.6834L94.2057 22.6114L94.3014 22.5402L94.3726 22.5165L94.4683 22.469L94.5624 22.4216L94.6336 22.3979L94.7293 22.3733H94.825L94.9199 22.3496H95.0156L95.1113 22.3733H95.2054L95.3011 22.3979L95.4197 22.4216L95.5154 22.4453L95.6103 22.469L95.706 22.5165L95.8002 22.5639L95.8959 22.6114L95.9916 22.6834L96.0857 22.7545L96.1814 22.8265L96.2526 22.8977L96.3237 22.9452L96.372 23.0163L96.4194 23.0638L96.4424 23.135L96.4906 23.2069L96.5381 23.2781L96.5634 23.3493L96.5863 23.4213L96.6346 23.4925V23.5636L96.6575 23.6585V23.9686L96.6346 24.016L96.4906 24.6345L96.3483 25.2301L96.2051 25.8486L96.0627 26.4441L95.9188 27.0389L95.7772 27.6336L95.6578 28.2292L95.5154 28.8477L95.3968 29.4195L95.2766 30.0143L95.1571 30.6327L95.0385 31.2046L94.9444 31.7985L94.825 32.3941L94.7293 32.9889L94.6336 33.5836L94.6106 33.7038V33.8462L94.5877 33.9648V34.3453L94.6106 34.4655V34.5841L94.6589 34.8222L94.7063 35.0602L94.7775 35.2975L94.8716 35.5356L94.9673 35.7744L95.063 36.0125L95.1825 36.2498L95.3011 36.4878L95.5866 36.9639L95.8729 37.4646L95.9188 37.5595L95.9433 37.6781L95.967 37.8213L95.9916 38.0111V38.6533L95.967 38.8914L95.9433 39.1532L95.8959 39.4395L95.8476 39.7013L95.8002 39.9868L95.7535 40.2723L95.6807 40.5341L95.6103 40.7959L95.5154 41.0577L95.4435 41.3202L95.3493 41.5338L95.2299 41.7481L95.1113 41.9387L94.9918 42.1293L94.8716 42.248L94.7293 42.3674L94.5877 42.4623L94.4438 42.486L94.2769 42.509L94.11 42.4623L93.9447 42.3903L93.7533 42.248L93.5864 42.0811L93.3966 41.8438L93.1831 41.5575L92.8975 41.1289L92.612 40.7002L92.3494 40.2723L92.0631 39.8199L91.9445 39.6064L91.8021 39.3683L91.6835 39.1532L91.5641 38.9159L91.4684 38.6778L91.3497 38.4398L91.254 38.2017L91.1829 37.9629L91.1346 37.868L91.0887 37.7968L91.0642 37.7019L91.016 37.6307L90.9693 37.5824L90.9219 37.535L90.8736 37.4646L90.8262 37.4393L90.755 37.3926L90.7067 37.3681L90.6363 37.3444H90.5881L90.5169 37.3214H90.3271L90.1831 37.3444L90.0645 37.3926L89.9221 37.4646L89.779 37.535L89.6596 37.6307L89.5409 37.7493L89.4215 37.8442L89.2799 37.9629L88.9462 38.3678L88.5642 38.749L88.2075 39.1294L87.8278 39.4869L87.6364 39.6538L87.4229 39.8199L87.2315 39.9868L87.0179 40.1537L86.8036 40.296L86.5901 40.4629L86.3757 40.6053L86.1377 40.7247L85.9479 40.8433L85.7327 40.939L85.5429 41.0102L85.3515 41.0822L85.1617 41.1289L84.9711 41.1534H84.5899L84.423 41.1289L84.2332 41.1051L84.0663 41.0339L83.8994 40.9865L83.757 40.9153L83.5902 40.8196L83.4486 40.7247L83.3292 40.6053L83.186 40.4629L83.0666 40.3435L82.9709 40.2011L82.8523 40.035L82.7811 39.8681L82.687 39.7013L82.6142 39.4869L82.543 39.2963L82.4956 39.1065L82.4718 38.8914L82.4473 38.6778L82.4244 38.4398V38.2017L82.4473 37.9629L82.4718 37.7256L82.5201 37.4646L82.687 36.559L82.8768 35.6075L83.0666 34.679L83.2817 33.7505L83.4715 32.822L83.6613 31.8705L83.8527 30.942L84.018 29.9897L84.0908 29.5144L84.162 29.0375L84.2332 28.5859L84.3044 28.1098L84.3518 27.6336L84.4001 27.182L84.4712 26.7059L84.4957 26.229L84.5416 25.7774L84.5669 25.3013V24.8251L84.5899 24.3727L84.5669 23.8966V23.445L84.5416 22.9926L84.5187 22.5165ZM108.082 24.5871L108.153 24.8014L108.202 25.0157L108.249 25.2064L108.272 25.3962L108.297 25.6105L108.32 25.7774L108.297 25.9443L108.272 26.1104L108.249 26.2772L108.202 26.4204L108.178 26.5628L108.105 26.6822L108.035 26.8245L107.963 26.9202L107.868 27.0389L107.774 27.1338L107.677 27.2058L107.581 27.2769L107.463 27.3489L107.344 27.3956L107.225 27.4193L107.106 27.4675H106.701L106.559 27.4193L106.416 27.3956L106.273 27.3244L106.131 27.2769L105.988 27.182L105.821 27.0863L105.679 26.9906L105.583 26.8957L105.489 26.7771L105.393 26.6577L105.322 26.539L105.178 26.2772L105.059 25.9917L105.011 25.8486L104.941 25.7299L104.869 25.5868L104.798 25.4681L104.726 25.3487L104.631 25.2301L104.536 25.1344L104.442 25.0395L104.346 24.9683L104.275 24.9438L104.179 24.8963L104.108 24.8734H104.037L103.941 24.8489H103.87L103.799 24.8734H103.726L103.655 24.8963L103.584 24.9438L103.513 24.992L103.44 25.0395L103.394 25.0869L103.322 25.1344L103.25 25.2064L103.202 25.2775L103.155 25.3487L103.084 25.3962L103.061 25.4919L102.964 25.658L102.894 25.8248L102.846 26.0154L102.823 26.1823L102.798 26.2772V26.539L102.823 26.8008L102.846 27.0152L102.917 27.2524L102.964 27.4913L103.037 27.7285L103.131 27.9429L103.202 28.1809L103.298 28.3716L103.417 28.5859L103.513 28.7994L103.632 29.0146L103.774 29.2044L103.893 29.4195L104.037 29.6093L104.179 29.7999L104.321 29.9897L104.607 30.371L104.917 30.7514L105.226 31.1089L105.535 31.4893L105.845 31.8468L106.131 32.2035L106.416 32.5847L106.701 32.9414L106.964 33.3938L107.202 33.8462L107.369 34.2986L107.511 34.7502L107.607 35.2026L107.677 35.6787V36.5827L107.607 37.0359L107.536 37.4646L107.392 37.8925L107.249 38.3211L107.058 38.7253L106.868 39.1065L106.63 39.4869L106.369 39.8199L106.083 40.1537L105.773 40.4629L105.441 40.7484L105.107 41.0102L104.75 41.2238L104.369 41.4152L103.964 41.582L103.559 41.7007L103.155 41.7719L102.727 41.8193L102.299 41.8438L101.871 41.7956L101.442 41.7244L100.988 41.582L100.538 41.4152L100.085 41.1771L99.8955 41.0822L99.6803 40.9628L99.466 40.8671L99.2525 40.7722L99.0144 40.6772L98.8001 40.5586L98.562 40.4629L98.3477 40.3672L98.1325 40.2486L97.9427 40.1054L97.8715 40.058L97.7758 39.9868L97.7047 39.9156L97.609 39.8436L97.5378 39.7487L97.4666 39.6768L97.4191 39.5818L97.348 39.5107L97.2997 39.415L97.2523 39.3201L97.2293 39.2251L97.204 39.1065L97.1581 38.8447L97.1328 38.6059L97.1099 38.3449V37.7968L97.1328 37.535L97.1581 37.2495V36.9877L97.2293 36.4166L97.2768 35.8693L97.2997 35.5838L97.325 35.322V34.679L97.348 34.5604L97.3709 34.4655L97.3954 34.369L97.4437 34.2986L97.4666 34.2037L97.5378 34.1317L97.586 34.0605L97.6335 34.0123L97.7047 33.9648L97.7758 33.9174L97.8486 33.8699L97.9427 33.8217H98.0139L98.0859 33.7987L98.1808 33.775H98.3477L98.418 33.7987L98.5137 33.8217L98.5849 33.8462L98.6806 33.8937L98.7518 33.9411L98.823 33.9886L98.9187 34.0605L98.9669 34.1317L99.0381 34.2037L99.1085 34.2986L99.1568 34.3935L99.205 34.5121L99.2525 34.6316L99.2754 34.7739L99.3236 34.9645L99.3948 35.1789L99.4423 35.3924L99.5135 35.6075L99.6092 35.7974L99.7033 36.0125L99.8227 36.2023L99.9658 36.3929L100.085 36.5827L100.252 36.7741L100.442 36.9639L100.632 37.1308L100.751 37.2257L100.87 37.2977L100.966 37.3926L101.108 37.4646L101.227 37.5595L101.37 37.6307L101.513 37.7019L101.656 37.7968L101.823 37.868L101.965 37.9162L102.108 37.9629L102.251 38.0111L102.393 38.0593L102.536 38.0831H102.656L102.774 38.1068H102.894L102.989 38.0831H103.108L103.202 38.0348L103.298 38.0111L103.369 37.9629L103.44 37.9162L103.513 37.868L103.559 37.7968L103.632 37.7256L103.655 37.6307L103.703 37.5595L103.726 37.4646L103.751 37.3681L103.774 37.2495V37.1308L103.751 37.0359L103.726 36.8928L103.703 36.7741L103.678 36.631L103.632 36.4878L103.559 36.3455L103.489 36.1794L103.417 36.0125L103.275 35.7507L103.108 35.4644L102.941 35.1789L102.751 34.8934L102.37 34.2986L101.965 33.7038L101.585 33.1083L101.181 32.5135L100.988 32.2035L100.822 31.8705L100.632 31.5613L100.465 31.2512L100.323 30.942L100.181 30.609L100.061 30.2761L99.9658 29.9431L99.8472 29.6093L99.7998 29.2526L99.7286 28.9189L99.7033 28.5622L99.6803 28.2055L99.7033 27.848L99.7515 27.4913L99.8227 27.1338L99.9184 26.7534L100.061 26.3721L100.204 25.9917L100.419 25.6105L100.538 25.3724L100.656 25.1581L100.799 24.9438L100.966 24.7302L101.132 24.5159L101.299 24.3016L101.466 24.0872L101.656 23.8966L101.846 23.6831L102.036 23.4925L102.251 23.3019L102.466 23.112L102.679 22.9452L102.894 22.7783L103.108 22.6114L103.322 22.4453L103.536 22.3021L103.774 22.1835L103.988 22.0404L104.204 21.9447L104.416 21.8498L104.631 21.7548L104.844 21.6837L105.059 21.6354L105.274 21.588L105.489 21.565L105.679 21.5405L105.868 21.565L106.059 21.588L106.225 21.6354L106.392 21.6837L106.559 21.7786L106.63 21.8023L106.701 21.8743L106.772 21.9217L106.82 21.9692L106.964 22.1115L107.058 22.2547L107.177 22.4216L107.273 22.6114L107.369 22.7783L107.463 22.9926L107.63 23.3968L107.797 23.8017L107.939 24.2066L108.082 24.5871ZM127.576 22.9926L127.838 22.7071L128.075 22.469L128.313 22.2547L128.529 22.0641L128.718 21.9217L128.931 21.7786L129.098 21.6599L129.265 21.588L129.409 21.5168L129.551 21.4693L129.67 21.4456L129.789 21.4219H129.908L130.004 21.4456L130.075 21.4931L130.146 21.5405L130.216 21.588L130.265 21.6599L130.336 21.7311L130.383 21.8268L130.409 21.9217L130.432 22.0166L130.456 22.1115L130.48 22.2072V22.8265L130.432 22.9926L130.193 23.8966L130.004 24.8014L129.766 25.7054L129.574 26.6102L129.384 27.515L129.195 28.419L129.004 29.3238L128.813 30.2286L128.646 31.1326L128.503 32.0366L128.362 32.9651L128.218 33.8699L128.075 34.7739L127.957 35.6787L127.861 36.6072L127.765 37.5113L127.742 37.7019L127.719 37.8925L127.671 38.0831L127.623 38.2492L127.576 38.4398L127.504 38.6059L127.456 38.7965L127.385 38.9871L127.315 39.1532L127.218 39.3201L127.122 39.4869L127.028 39.6538L126.933 39.8199L126.838 39.9631L126.718 40.1299L126.599 40.2723L126.528 40.3435L126.433 40.4629L126.313 40.5586L126.195 40.6772L126.052 40.7959L125.91 40.8916L125.767 40.9865L125.624 41.0822L125.48 41.1534L125.362 41.2008L125.291 41.2238H125.124L125.076 41.2008L125.028 41.1771L124.981 41.1534L124.957 41.1051L124.934 41.0577L124.911 41.0102L124.886 40.939V40.8433L124.863 40.2011V39.5344L124.838 38.8914V38.2492L124.863 37.5824L124.886 36.9402V36.2735L124.911 35.6075L124.934 34.9645L124.957 34.2986V33.6556L124.981 32.9889L125.005 32.3229V31.6799L125.028 31.0132V30.371L125.005 29.9194V29.4662L125.028 29.0146V28.5622L125.053 28.3478L125.076 28.1098L125.101 27.8954L125.148 27.6811L125.195 27.4675L125.242 27.2524L125.291 27.0389L125.386 26.8245L125.576 26.301L125.791 25.8011L125.933 25.5393L126.029 25.2775L126.171 25.0395L126.29 24.8014L126.433 24.5396L126.576 24.3016L126.718 24.0635L126.885 23.85L127.028 23.6111L127.218 23.3968L127.385 23.1832L127.576 22.9926Z" fill="#4C4543"/>
<path fill-rule="evenodd" clip-rule="evenodd" d="M70.9287 10.9961L139 12.4711V13.043L71.0244 13.2328L70.9287 10.9961ZM71.1913 16.6843L133.265 15.2322L133.288 15.804L71.404 18.898L71.1913 16.6843Z" fill="#5D7A56"/>
<path fill-rule="evenodd" clip-rule="evenodd" d="M113.104 1.57153L113.127 1.38092L113.175 1.19031L113.223 1.02343L113.318 0.881067L113.438 0.737913L113.556 0.619276L113.699 0.499852L113.866 0.404941L114.056 0.310033L114.247 0.238061L114.437 0.16688L114.652 0.119424L114.865 0.0711786L115.08 0.0474524L115.318 0.0245167L115.532 0H115.983L116.198 0.0245167L116.412 0.0474524L116.603 0.0956982L116.817 0.143154L117.007 0.190606L117.174 0.261788L117.316 0.332969L117.46 0.404941L117.579 0.499852L117.698 0.59476L117.769 0.714187L117.84 0.809885L117.865 0.928522V1.04795L117.84 1.71389L117.817 2.40435L117.769 3.04656L117.721 3.7133L117.698 4.38003L117.65 5.02225L117.602 5.68898L117.531 6.33119L117.483 6.9742L117.435 7.64093L117.364 8.28315L117.294 8.92615L117.222 9.56837L117.15 10.2114L117.078 10.8773L117.007 11.5203L112.747 11.4254L112.795 10.8061L112.818 10.1869L112.866 9.56837L112.889 8.94988L112.937 8.3306L112.962 7.71132L112.985 7.11656L113.008 6.49807L113.033 5.87959L113.056 5.26031L113.08 4.64182V4.02254L113.104 3.40406V1.57153ZM112.581 13.5909H116.722L116.699 13.7815L116.673 13.9713L116.651 14.1619L116.626 14.3526L116.603 14.5669L116.579 14.7575L116.532 14.9473L116.507 15.1379L112.438 15.2328L112.461 15.043L112.485 14.8279V14.6381L112.509 14.4237L112.532 14.2094L112.557 14.0196V13.8052L112.581 13.5909ZM112.223 17.3517L116.198 17.1611L116.127 17.6609L116.031 18.1845L115.937 18.7081L115.864 19.2079L115.77 19.7552L115.675 20.2551L115.579 20.7787L115.485 21.3022L115.388 21.8266L115.294 22.3494L115.175 22.873L115.08 23.4211L114.984 23.9447L114.865 24.4682L114.746 25.0155L114.652 25.5391L114.579 25.8966L114.532 26.2058L114.485 26.4914V26.7286L114.461 26.92L114.485 27.0861V27.2293L114.508 27.3242L114.532 27.3716L114.556 27.3954L114.579 27.4191H114.604L114.627 27.4436H114.675L114.723 27.4191L114.771 27.3954L114.842 27.3487L114.913 27.2522L114.984 27.1818L115.341 26.5863L115.746 25.967L116.175 25.3248L116.626 24.658L116.866 24.3251L117.078 23.9921L117.341 23.6829L117.579 23.3728L117.817 23.0873L118.078 22.8018L118.316 22.5163L118.579 22.2782L118.769 22.1113L118.983 21.969L119.174 21.8266L119.388 21.7309L119.601 21.6352L119.84 21.5648L120.078 21.5166L120.292 21.4928L120.529 21.4691H120.767L121.007 21.4928L121.245 21.5166L121.458 21.5648L121.696 21.6352L121.911 21.7072L122.148 21.8021L122.363 21.9215L122.578 22.0401L122.791 22.1833L122.981 22.3257L123.172 22.4925L123.339 22.6832L123.505 22.85L123.671 23.0636L123.815 23.2779L123.934 23.516L124.053 23.754L124.148 23.9921L124.243 24.2539L124.314 24.5157L124.362 24.8012L124.385 25.0867L124.41 25.6103L124.433 26.0864V26.5863L124.41 27.0861L124.385 27.586L124.339 28.0858L124.291 28.5857L124.243 29.0626L124.172 29.5609L124.076 30.0378L123.982 30.5376L123.887 31.013L123.767 31.5136L123.671 31.9897L123.529 32.4651L123.41 32.9649L123.125 33.9172L122.839 34.8686L122.553 35.8454L122.219 36.7976L121.911 37.7491L121.602 38.7251L121.291 39.6765L121.007 40.6296L120.959 40.7245L120.911 40.8431L120.863 40.9388L120.815 41.0337L120.767 41.1049L120.696 41.2006L120.649 41.2718L120.577 41.343L120.506 41.415L120.435 41.4861L120.363 41.5336L120.268 41.6048L120.198 41.6522L120.101 41.7005L120.006 41.7479L119.911 41.7716L119.816 41.8191L119.722 41.8436L119.626 41.8666L119.53 41.8903H119.411L119.317 41.9148H119.007L118.887 41.8903H118.793L118.674 41.8666L118.579 41.8436L118.459 41.8191L118.364 41.7716L118.245 41.7242L118.151 41.6767L118.055 41.6048L117.959 41.5336L117.888 41.4387L117.817 41.343L117.746 41.2236L117.673 41.1049L117.627 40.9863L117.602 40.8669L117.555 40.7245L117.531 40.6051V40.2246L117.579 40.1052L117.602 39.9866L117.769 39.5342L117.911 39.0818L118.078 38.6302L118.221 38.1778L118.341 37.7491L118.483 37.2975L118.602 36.8443L118.72 36.4164L118.84 35.9878L118.935 35.5591L119.031 35.1067L119.125 34.6788L119.198 34.2501L119.292 33.8215L119.363 33.3936L119.411 32.9649L119.482 32.537L119.53 32.1084L119.578 31.6797L119.626 31.251L119.649 30.8232L119.697 30.4182L119.722 29.9895V29.5609L119.745 29.133L119.768 28.7043V27.8478L119.745 27.4191V26.9904L119.722 26.5625L119.697 26.1101V26.0152L119.673 25.9441V25.8484L119.649 25.7772L119.626 25.7297L119.601 25.6578L119.578 25.6103L119.555 25.5866L119.53 25.5391L119.482 25.5154L119.459 25.4917L119.411 25.4679H119.244L119.15 25.4917L119.054 25.5391L118.96 25.6103L118.864 25.6823L118.769 25.7772L118.674 25.8966L118.579 25.9915L118.508 26.1101L118.221 26.5151L117.936 26.9438L117.673 27.3487L117.412 27.7529L117.15 28.1807L116.889 28.6094L116.651 29.0144L116.412 29.4422L116.175 29.8709L115.937 30.2996L115.699 30.7275L115.485 31.1798L115.247 31.6085L115.057 32.0609L114.842 32.5133L114.627 32.9412L114.222 33.846L113.842 34.75L113.461 35.654L113.104 36.5825L112.747 37.511L112.414 38.4396L112.104 39.3681L111.771 40.2958L111.723 40.4627L111.652 40.6051L111.581 40.7245L111.485 40.8431L111.366 40.9626L111.272 41.0575L111.153 41.1286L111.034 41.2236L110.89 41.2718L110.772 41.32L110.629 41.3667L110.485 41.3904L110.344 41.415H109.939L109.795 41.3904L109.676 41.343L109.557 41.32L109.415 41.2718L109.32 41.2006L109.2 41.1532L109.106 41.082L109.01 40.9863L108.939 40.9151L108.866 40.7957L108.821 40.7L108.772 40.6051L108.725 40.4864V40.2246L108.748 40.0815L109.01 38.6531L109.271 37.2255L109.534 35.8209L109.795 34.3933L110.033 32.9649L110.273 31.5365L110.51 30.1327L110.748 28.7043L110.962 27.2767L111.176 25.8484L111.366 24.4445L111.556 23.0161L111.748 21.6123L111.915 20.1839L112.081 18.78L112.223 17.3517ZM131.289 9.94959L131.36 9.97331H131.455L131.55 9.99704L131.668 10.0208L131.765 10.0682L131.883 10.1157L131.979 10.1639L132.098 10.2114L132.193 10.2588L132.263 10.33L132.359 10.4012L132.43 10.4732L132.478 10.5443L132.503 10.6155L132.526 10.663V11.0205L132.503 11.2823L132.478 11.5678L132.455 11.8533L127.646 11.7339L127.718 11.6152L127.79 11.4966L127.861 11.4009L127.957 11.2823L128.028 11.1866L128.123 11.0916L128.195 10.9967L128.289 10.901L128.384 10.8299L128.48 10.735L128.6 10.663L128.694 10.5918L128.812 10.5206L128.931 10.4486L129.027 10.4012L129.146 10.3537L129.409 10.2588L129.647 10.1639L129.908 10.0919L130.17 10.0445L130.431 9.99704L130.717 9.97331L131.003 9.94959H131.289ZM127.218 13.5427H132.359V13.8527L132.336 14.1619L132.311 14.4712L132.288 14.7812L127.122 14.8999V14.733L127.147 14.5669V14.4L127.17 14.2331V14.067L127.195 13.8764L127.218 13.7095V13.5427ZM127.099 16.6137L132.146 16.352L132.121 16.59L132.098 16.8281L132.05 17.0424L132.002 17.256L131.979 17.4703L131.931 17.6609L131.883 17.8515L131.835 18.0413L131.765 18.2557L131.668 18.4463L131.55 18.6132L131.431 18.7318L131.289 18.8749L131.145 18.9699L130.979 19.0656L130.812 19.1122L130.621 19.1605L130.431 19.2079H130.052L129.836 19.1842L129.647 19.1367L129.432 19.1122L129.217 19.0418L129.027 18.9699L128.812 18.8749L128.622 18.78L128.456 18.6843L128.266 18.5657L128.075 18.4463L127.909 18.3031L127.765 18.1608L127.623 17.9939L127.504 17.8515L127.385 17.6846L127.289 17.5178L127.218 17.3517L127.17 17.1848L127.122 16.9942L127.099 16.8281V16.6137ZM1.35634 42.8671L1.33261 42.962L1.30888 43.0569L1.28516 43.1288V43.2238L1.30888 43.2949L1.33261 43.3661L1.35634 43.4373L1.40458 43.5093L1.47576 43.5804L1.54695 43.6287L1.61813 43.6754L1.71304 43.7236L1.80874 43.7711L1.90443 43.8185L2.02307 43.8422L2.14171 43.8905L2.28486 43.9134L2.4035 43.9371H2.54665L2.6898 43.9609H3.33202L3.4989 43.9371L3.66499 43.9134L3.83187 43.8905L3.99875 43.866L4.16563 43.8422L4.33172 43.794L4.4986 43.7473L4.66469 43.6991L4.76039 43.6754L4.87903 43.6287L4.97394 43.5804L5.06964 43.5322L5.16534 43.4618L5.26024 43.4144L5.35515 43.3424L5.45085 43.2949L5.61694 43.1288L5.78382 42.9857L5.97364 42.7951L6.14052 42.6053L6.28368 42.4139L6.45056 42.2003L6.59292 41.9623L6.7598 41.7242L6.90216 41.4861L7.04532 41.2481L7.16395 40.9863L7.30711 40.7245L7.59262 40.1535L7.87814 39.6299L8.13993 39.0581L8.42545 38.5107L8.71096 37.9627L8.99648 37.4161L9.28279 36.8688L9.54458 36.2978L9.13963 36.3452L8.4729 36.4164L7.78323 36.4639L7.1165 36.4876H5.73558L5.04591 36.4639L4.54527 36.4164L4.33172 36.8206L4.14111 37.2255L3.92678 37.6305L3.73696 38.0346L3.52263 38.4396L3.33202 38.8445L3.14141 39.2487L2.92787 39.6536L2.73726 40.0578L2.54665 40.4627L2.33231 40.8669L2.14171 41.2718L1.9511 41.6767L1.73755 42.0572L1.54695 42.4621L1.35634 42.8671ZM7.75951 30.1809H8.06875L8.66351 30.1327L9.25827 30.0615L9.85382 29.9895L10.4723 29.8946L11.0679 29.7997L11.6626 29.6811L12.2574 29.5609L12.8521 29.4422L13.0902 29.3711L13.4002 28.7992L13.6858 28.2053L13.995 27.6334L14.2805 27.0387L14.5906 26.4676L14.8753 25.8721L15.1853 25.3011L15.4708 24.7063L15.7801 24.1353L16.0893 23.5634L16.3748 22.9687L16.6849 22.3731L16.9941 21.8021L17.2796 21.2311L17.5889 20.6363L17.8989 20.0653L17.9938 19.8739L18.1125 19.684L18.1599 19.6121L18.2319 19.5409L18.2793 19.4697L18.3513 19.4223L18.4217 19.374L18.4699 19.3266L18.5174 19.2791L18.5886 19.2554L18.636 19.2316L18.708 19.2079L18.7792 19.1842H19.0172L19.0647 19.2079L19.1359 19.2316L19.1833 19.2554L19.2553 19.2791L19.3028 19.3266L19.3502 19.374L19.4222 19.4223L19.4696 19.4934L19.5171 19.5654L19.5646 19.6366L19.612 19.7078L19.6603 19.8027L19.7069 19.8984L20.0407 20.6363L20.3736 21.3742L20.7074 22.1359L21.0404 22.873L21.3496 23.6109L21.6826 24.3725L21.9926 25.1104L22.3256 25.8721L22.8492 25.5866L23.4202 25.2773L23.9912 24.9681L24.5393 24.6343L25.1104 24.3013L25.6814 23.9447L26.2287 23.5879L26.4913 23.4211L26.205 22.8263L25.9195 22.207L25.6102 21.6123L25.3247 20.993L25.0392 20.3982L24.7292 19.7789L24.4444 19.1842L24.1344 18.5657L23.8252 17.9702L23.5396 17.3754L23.2296 16.7798L22.9204 16.1614L22.6111 15.5666L22.3256 14.971L22.0164 14.3763L21.6826 13.7815L21.564 13.5672L21.4453 13.3766L21.3022 13.186L21.159 13.0199L20.9921 12.853L20.826 12.7106L20.6592 12.5675L20.4931 12.4488L20.3025 12.3531L20.1356 12.2582L19.922 12.1871L19.7314 12.1151L19.5408 12.0676L19.3502 12.0439L19.1596 12.0202L18.9453 11.9957L18.7555 12.0202L18.5411 12.0439L18.3513 12.0676L18.1599 12.1151L17.9701 12.1625L17.7795 12.2582L17.6126 12.3294L17.4228 12.4488L17.2322 12.5675L17.0661 12.6861L16.9229 12.853L16.756 12.9962L16.6129 13.186L16.4943 13.3528L16.3511 13.5672L16.2325 13.7815L15.7089 14.805L15.209 15.8047L14.6855 16.8281L14.1619 17.8515L13.6383 18.8749L13.1139 19.8984L12.5674 20.9218L12.043 21.969L11.4957 22.9924L10.9722 24.0158L10.4249 25.0393L9.90128 26.0627L9.35397 27.1099L8.8296 28.1333L8.28308 29.1567L7.75951 30.1809ZM28.5374 27.7766L28.3238 27.9427L27.7283 28.4425L27.0853 28.9424L26.4193 29.4193L25.7297 29.8946L24.9917 30.3708L24.3487 30.7757L24.5393 31.2044L24.7062 31.6322L24.896 32.0846L25.0867 32.5133L25.2773 32.9649L25.4433 33.3936L25.634 33.8215L25.8246 34.2739L26.0389 34.5602L26.2524 34.8686L26.4913 35.1549L26.7048 35.4167L27.1572 35.964L27.6334 36.4876L28.0858 36.9875L28.5619 37.4873L29.0135 37.9397L29.4904 38.4158L29.9657 38.8445L30.4656 39.2732L30.9417 39.7011L31.4178 40.1052L31.9177 40.5102L32.4175 40.9151L32.9174 41.32L33.441 41.7242L33.5359 41.7954L33.6308 41.8666L33.7265 41.9148L33.8214 41.9623L33.9171 42.0097L33.9883 42.0334L34.0595 42.0572L34.1314 42.0809H34.2738L34.3213 42.0572L34.3687 42.0334L34.417 42.0097L34.4644 41.9623L34.4881 41.9148L34.5119 41.8666L34.5356 41.7954L34.5593 41.7242V41.6522L34.583 41.5573L34.5593 41.4616V41.343L34.5356 41.2481L34.5119 41.1049L34.4881 40.9863L34.4644 40.8431L34.417 40.7L34.3687 40.5584L34.2501 40.2484L34.0832 39.8909L33.7265 39.1292L33.3935 38.3676L33.036 37.6305L32.7031 36.8688L32.3456 36.1072L32.0126 35.3455L31.6559 34.6076L31.3221 33.8215L30.9654 33.0836L30.6088 32.3227L30.275 31.5611L29.9183 30.7994L29.5853 30.0615L29.2278 29.2999L28.8703 28.5382L28.5374 27.7766Z" fill="#4C4543"/>
<path fill-rule="evenodd" clip-rule="evenodd" d="M1.18952 46.4846V55.7667H0V56.647H1.11913L1.21404 56.6233L1.30974 56.6003L1.40544 56.5766L1.50035 56.5283L1.57153 56.4809L1.66723 56.4326L1.76214 56.3844L1.83332 56.3369L1.92823 56.265L1.99941 56.1938L2.07059 56.1218L2.14177 56.0269L2.18923 55.9557L2.26041 55.86L2.30865 55.7889L2.35611 55.6932L2.37983 55.5982L2.42808 55.5033L2.45181 55.4084L2.47553 55.3135V46.4846H1.18952ZM8.13999 52.6007H6.90223V49.721H8.13999V52.6007ZM7.16402 48.8407H7.09284L6.99714 48.8637H6.90144L6.80653 48.8874L6.71083 48.9111L6.63965 48.9594L6.54474 48.9823L6.44983 49.0543L6.35413 49.1017L6.28295 49.15L6.18804 49.222L6.11607 49.2931L6.04489 49.3651L5.97291 49.4363L5.90173 49.5075L5.85349 49.6032L5.78231 49.6744L5.73406 49.7701L5.71033 49.8642L5.66288 49.9362L5.63915 50.0311L5.61543 50.1268V52.1499L5.63915 52.2448L5.66288 52.3397L5.68661 52.4354L5.73406 52.5303L5.78231 52.6252L5.82976 52.6972L5.87722 52.7921L5.9484 52.887L6.01958 52.959L6.09076 53.0302L6.13821 53.1021L6.23312 53.1733L6.30509 53.2445L6.4 53.2928L6.4957 53.341L6.5914 53.3885L6.68631 53.4122L6.75749 53.4604L6.8524 53.4842H6.9481L7.06674 53.5071H10.0176V52.6023H9.39912V46.51H7.47089L7.28028 46.5329H7.11419L6.9481 46.5566L6.87692 46.6049H6.80574L6.73456 46.6286L6.66338 46.676L6.61592 46.6998L6.54474 46.748L6.47356 46.7955L6.4261 46.8437L6.37786 46.8674L6.30668 46.9386L6.25843 47.0098L6.21098 47.0581L6.18725 47.13L6.13901 47.2012L6.11528 47.2961L6.06782 47.3918H8.13841V48.8668L7.16402 48.8407ZM14.067 47.3886H15.3048V52.6007H14.067V47.3886ZM16.5892 48.0554V47.9597L16.5655 47.8648V47.7699L16.5181 47.675L16.4943 47.5793L16.4469 47.4843L16.4231 47.4124L16.352 47.2937L16.3045 47.2226L16.2571 47.1276L16.1859 47.0557L16.1147 46.9608L16.0435 46.8896L15.9478 46.8413L15.8766 46.7694L15.7809 46.6982L15.6852 46.6499L15.614 46.6025L15.5183 46.5542L15.4234 46.5305L15.3277 46.5076H15.2328L15.1379 46.4838H14.2094L14.1382 46.5076H14.0425L13.9468 46.5305L13.8519 46.5542L13.7562 46.6025L13.6613 46.6499L13.5901 46.6982L13.4944 46.7694L13.4232 46.8176L13.3513 46.8896L13.2801 46.9608L13.2089 47.0327L13.1615 47.1039L13.0895 47.1988L13.042 47.2708L12.9938 47.3657L12.9463 47.4606L12.9226 47.5555L12.8751 47.6512L12.8514 47.7461V47.913L12.8277 48.0079V56.6478H14.0655V53.4826H15.1363L15.2312 53.4588H15.3262L15.4219 53.4351L15.5168 53.3869L15.6125 53.3631L15.7074 53.3157L15.7786 53.2674L15.8743 53.1963L15.9692 53.148L16.0403 53.0768L16.1115 53.0049L16.1827 52.9337L16.2539 52.8625L16.3013 52.7668L16.3725 52.6956L16.42 52.5999L16.4674 52.505L16.4912 52.4338L16.5149 52.3152L16.5623 52.2195V52.1483L16.5861 52.0534V48.0554H16.5892ZM22.1825 52.6007H20.921V49.721H22.1825V52.6007ZM21.2065 48.8407H21.1116L21.0404 48.8637H20.9455L20.8498 48.8874L20.7541 48.9111L20.6592 48.9594L20.588 48.9823L20.4923 49.0543L20.3974 49.1017L20.3017 49.15L20.2306 49.222L20.1594 49.2931L20.0882 49.3651L20.017 49.4363L19.9458 49.5075L19.8976 49.6032L19.8264 49.6744L19.779 49.7701L19.7307 49.8642L19.707 49.9362L19.6833 50.0311L19.6595 50.1268V52.1499L19.6833 52.2448L19.707 52.3397L19.7307 52.4354L19.779 52.5303L19.8264 52.6252L19.8501 52.6972L19.9221 52.7921L19.9933 52.887L20.0407 52.959L20.1119 53.0302L20.2076 53.1021L20.2788 53.1733L20.35 53.2445L20.4449 53.2928L20.5406 53.341L20.6355 53.3885L20.7067 53.4122L20.8024 53.4604L20.8973 53.4842H21.0159L21.1116 53.5071H24.0396V52.6023H23.4448V46.51H21.5166L21.326 46.5329H21.1599L20.993 46.5566L20.9218 46.6049H20.8506L20.7794 46.6286L20.7083 46.676L20.6371 46.6998L20.5896 46.748L20.5184 46.7955L20.4702 46.8437L20.399 46.8674L20.3516 46.9386L20.3033 47.0098L20.2559 47.0581L20.2321 47.13L20.1847 47.2012L20.1372 47.2961L20.1135 47.3918H22.1841V48.8668L21.2065 48.8407ZM26.3008 46.4846V47.3894H26.8006V53.4826H28.0858V47.3657H29.3236V53.4826H30.6088V48.0079L30.5851 47.913V47.8173L30.5614 47.7224L30.5376 47.6275L30.5139 47.5326L30.4657 47.4369L30.4182 47.342L30.3708 47.2708L30.3225 47.1751L30.2513 47.1039L30.1793 47.0082L30.1082 46.937L30.0362 46.8659L29.965 46.7939L29.8693 46.7464L29.7981 46.6982L29.7024 46.6499L29.6067 46.6025L29.5118 46.5542L29.4161 46.5305L29.3212 46.5076H29.2263L29.1306 46.4838L26.3008 46.4846ZM37.4873 50.2921V47.9597L37.4636 47.8648L37.4399 47.7699L37.4153 47.675L37.3916 47.5793L37.3442 47.4843L37.2967 47.4124L37.2485 47.2937L37.201 47.2226L37.1298 47.1276L37.0824 47.0557L37.0112 46.9608L36.9155 46.8896L36.8443 46.8413L36.7731 46.7694L36.6774 46.6982L36.5825 46.6499L36.4868 46.6025L36.3911 46.5542L36.2962 46.5305L36.2013 46.5076H36.1056L36.0107 46.4838H35.1051L35.0102 46.5076H34.9153L34.8196 46.5305L34.7484 46.5542L34.6527 46.6025L34.5578 46.6499L34.4621 46.6982L34.3672 46.7694L34.296 46.8176L34.2003 46.8896L34.1291 46.9608L34.0572 47.0327L33.986 47.1039L33.9377 47.1988L33.8666 47.2708L33.8183 47.3657L33.7709 47.4606L33.7234 47.5555L33.6997 47.6512L33.6759 47.7461L33.6522 47.8173V52.0542L33.6759 52.1491L33.6997 52.244L33.7234 52.3389L33.7709 52.4346L33.7946 52.5295L33.8428 52.6244L33.914 52.7193L33.9615 52.815L34.0097 52.8862L34.0809 52.9819L34.1521 53.0531L34.2478 53.1243L34.3189 53.1963L34.4146 53.2437L34.4858 53.292L34.5815 53.3402L34.6772 53.3877L34.7721 53.4114L34.867 53.4351L34.962 53.4588L35.0577 53.4826H36.0107L36.1056 53.4588H36.2013L36.2962 53.4351L36.3911 53.4114L36.4868 53.3631L36.5825 53.3157L36.6774 53.2674L36.7731 53.22L36.8443 53.148L36.9155 53.1006L37.0112 53.0286L37.0586 52.9574L37.1298 52.8625L37.1773 52.7905L37.2485 52.6956L37.2967 52.6236L37.3442 52.5287L37.3679 52.4338L37.3916 52.3381L37.4153 52.2432L37.4399 52.1483V51.4579H36.2021V52.577H34.9169V50.2913L37.4873 50.2921ZM34.9169 49.4118V47.3886H36.2021V49.4118H34.9169ZM44.3184 51.007V50.9113L44.2946 50.8164L44.2709 50.6978V50.6266L44.2235 50.5317L44.1997 50.436L44.1523 50.3411L44.1048 50.2462L44.0328 50.1505L43.9854 50.0793L43.9134 49.9844L43.8422 49.9124L43.7703 49.8412L43.6991 49.7701L43.6034 49.6981L43.5322 49.6498L43.4373 49.6024L43.3416 49.5304L43.2467 49.5067L43.151 49.4592L43.0561 49.4355H42.9604L42.8647 49.4118H41.7938V47.3886H43.0553V48.3884H44.3168V46.5084H42.0326L41.9377 46.5313L41.8191 46.555L41.7234 46.5788L41.6285 46.6025L41.5099 46.6499L41.4142 46.6982L41.3185 46.7464L41.2236 46.7939L41.1286 46.8659L41.0575 46.937L40.9618 47.0082L40.8906 47.0802L40.8194 47.1522L40.7482 47.2471L40.7008 47.3183L40.6533 47.4132L40.6051 47.5089L40.5813 47.6038L40.5339 47.6987V47.8173L40.5102 47.936V48.7213L40.5339 48.8407V48.9594L40.5576 49.0543L40.6051 49.1729L40.6296 49.2678L40.677 49.3635L40.7253 49.4822L40.7727 49.5534L40.8439 49.672L40.9151 49.7432L40.9863 49.8389L41.0575 49.8863L41.1286 49.9583L41.2236 50.0295L41.3185 50.1015L41.4142 50.1489L41.5099 50.1971L41.6048 50.2454L41.7234 50.2683L41.8191 50.2921L41.914 50.3158L42.0326 50.3395H43.0569V52.5999H41.7954V51.6247H40.5102V53.5047H42.939L43.0339 53.4818L43.1288 53.458L43.2245 53.4343L43.3195 53.3861L43.4144 53.3386L43.5093 53.2904L43.605 53.2421L43.6761 53.171L43.7473 53.1227L43.843 53.0515L43.9142 52.9803L43.9862 52.8846L44.0336 52.8135L44.1056 52.7178L44.1531 52.6466L44.2005 52.5517L44.2242 52.4568L44.2717 52.3611V52.2662L44.2954 52.1712L44.3192 52.0755L44.3184 51.007ZM51.1486 50.2921V47.8648L51.1249 47.7699L51.1012 47.675L51.0774 47.5793L51.0292 47.4843L50.9817 47.4124L50.9343 47.2937L50.886 47.2226L50.8149 47.1276L50.7429 47.0557L50.6717 46.9608L50.6005 46.8896L50.5056 46.8413L50.4344 46.7694L50.3387 46.6982L50.243 46.6499L50.1719 46.6025L50.0762 46.5542L49.9804 46.5305L49.8855 46.5076H49.7906L49.6949 46.4838H48.7901L48.6944 46.5076H48.5995L48.5046 46.5305L48.4089 46.5542L48.3132 46.6025L48.2183 46.6499L48.1471 46.6982L48.0514 46.7694L47.9565 46.8176L47.8853 46.8896L47.8142 46.9608L47.743 47.0327L47.6718 47.1039L47.6006 47.1988L47.5524 47.2708L47.5049 47.3657L47.4337 47.4606L47.41 47.5555L47.3863 47.6512L47.3626 47.7461L47.3388 47.8173L47.3151 47.913V51.9356L47.3388 52.0542V52.1491L47.3863 52.244L47.41 52.3389L47.4337 52.4346L47.4812 52.5295L47.5286 52.6244L47.5769 52.7193L47.6243 52.815L47.6955 52.8862L47.7667 52.9819L47.8379 53.0531L47.9091 53.1243L47.9803 53.1963L48.076 53.2437L48.1717 53.292L48.2428 53.3402L48.3623 53.3877L48.4572 53.4114L48.5521 53.4351L48.6478 53.4588L48.7435 53.4826H49.6949L49.7906 53.4588H49.8855L49.9804 53.4351L50.0762 53.4114L50.1719 53.3631L50.2668 53.3157L50.3379 53.2674L50.4336 53.22L50.5285 53.148L50.5997 53.1006L50.6709 53.0286L50.7421 52.9574L50.8141 52.8625L50.8615 52.7905L50.909 52.6956L50.9572 52.6236L51.0047 52.5287L51.0521 52.4338L51.0759 52.3381L51.0996 52.2432L51.1233 52.1483V51.4579H49.8855V52.577H48.6003V50.2913L51.1486 50.2921ZM48.6027 49.4118V47.3886H49.8879V49.4118H48.6027ZM66.5966 46.4846H64.2642L64.1456 46.5084H64.0744L63.9787 46.5313L63.8838 46.555L63.7889 46.6033L63.6932 46.6507L63.5975 46.699L63.5026 46.7702L63.4314 46.8184L63.3602 46.8904L63.289 46.9616L63.2178 47.0335L63.1466 47.1047L63.0755 47.1996L63.0043 47.2716L62.956 47.3665L62.9086 47.4614L62.8849 47.5563L62.8374 47.652L62.8137 47.7469V47.8181L62.7899 47.9138V53.5063H64.0752V47.3902H65.3604V48.8423H66.5982V46.4846H66.5966ZM73.3794 50.2921V47.9597L73.3564 47.8648V47.7699L73.3319 47.675L73.2837 47.5793L73.2607 47.4843L73.2125 47.4124L73.1643 47.2937L73.0931 47.2226L73.0448 47.1276L72.9736 47.0557L72.9025 46.9608L72.8313 46.8896L72.7356 46.8413L72.6644 46.7694L72.5687 46.6982L72.4746 46.6499L72.3789 46.6025L72.3077 46.5542L72.212 46.5305L72.0934 46.5076H71.9977L71.9035 46.4838H71.0233L70.9276 46.5076H70.8319L70.7378 46.5305L70.6421 46.5542L70.5463 46.6025L70.4522 46.6499L70.3565 46.6982L70.2854 46.7694L70.1897 46.8176L70.1185 46.8896L70.0473 46.9608L69.9761 47.0327L69.9049 47.1039L69.833 47.1988L69.7847 47.2708L69.7135 47.3657L69.6653 47.4606L69.6416 47.5555L69.6178 47.6512L69.5704 47.7461V47.8173L69.5466 47.913V51.9356L69.5704 52.0542V52.1491L69.5941 52.244L69.6178 52.3389L69.6653 52.4346L69.7135 52.5295L69.7373 52.6244L69.8084 52.7193L69.8567 52.815L69.9279 52.8862L69.9761 52.9819L70.071 53.0531L70.1422 53.1243L70.215 53.1963L70.3091 53.2437L70.3818 53.292L70.476 53.3402L70.5717 53.3877L70.6674 53.4114L70.7615 53.4351L70.8572 53.4588L70.9758 53.4826H71.9273L72.023 53.4588H72.1171L72.2128 53.4351L72.3085 53.4114L72.4026 53.3631L72.4983 53.3157L72.5695 53.2674L72.6652 53.22L72.7364 53.148L72.8321 53.1006L72.9033 53.0286L72.9744 52.9574L73.0227 52.8625L73.0939 52.7905L73.1421 52.6956L73.1903 52.6236L73.2386 52.5287L73.2615 52.4338L73.3098 52.3381V52.2432L73.3327 52.1483L73.3572 52.0534V51.4579H72.1187V52.577H70.8335V50.2913L73.3794 50.2921ZM70.8319 49.4118V47.3886H72.1171V49.4118H70.8319ZM80.2104 51.007V50.8164L80.1875 50.6978L80.163 50.6266L80.14 50.5317L80.0918 50.436L80.0435 50.3411L79.9953 50.2462L79.9486 50.1505L79.8759 50.0793L79.8047 49.9844L79.7564 49.9124L79.6853 49.8412L79.5911 49.7701L79.5184 49.6981L79.4243 49.6498L79.3286 49.6024L79.2329 49.5304L79.1617 49.5067L79.0676 49.4592L78.9719 49.4355H78.8762L78.7821 49.4118H77.6866V47.3886H78.9473V48.3884H80.2096V46.5084H77.9484L77.8298 46.5313L77.7357 46.555L77.617 46.5788L77.5213 46.6025L77.4257 46.6499L77.307 46.6982L77.2129 46.7464L77.1172 46.7939L77.0215 46.8659L76.9503 46.937L76.8562 47.0082L76.7834 47.0802L76.7122 47.1522L76.664 47.2471L76.5928 47.3183L76.5446 47.4132L76.5216 47.5089L76.4734 47.6038L76.4505 47.6987L76.4259 47.8173L76.403 47.936V48.7213L76.4259 48.8407L76.4505 48.9594L76.4734 49.0543L76.4963 49.1729L76.5446 49.2678L76.5691 49.3635L76.6173 49.4822L76.6885 49.5534L76.7368 49.672L76.8079 49.7432L76.8791 49.8389L76.9503 49.8863L77.046 49.9583L77.1172 50.0295L77.2129 50.1015L77.307 50.1489L77.4027 50.1971L77.5213 50.2454L77.617 50.2683L77.7357 50.2921L77.8298 50.3158L77.9484 50.3395H78.9473V52.5999H77.6866V51.6247H76.4014V53.5047H78.8524L78.9466 53.4818L79.0423 53.458L79.138 53.4343L79.2091 53.3861L79.3048 53.3386L79.3989 53.2904L79.4947 53.2421L79.5658 53.171L79.6615 53.1227L79.7327 53.0515L79.8039 52.9803L79.8751 52.8846L79.9478 52.8135L79.9945 52.7178L80.0428 52.6466L80.091 52.5517L80.1392 52.4568L80.1622 52.3611L80.1867 52.2662L80.2096 52.1712L80.2104 51.007ZM83.5196 43.2949V46.4846H82.996V47.3894H83.5196V52.1491L83.5425 52.2677L83.567 52.3627L83.59 52.4583L83.6382 52.5533L83.6865 52.6244L83.7347 52.7193L83.7814 52.815L83.8541 52.8862L83.9008 52.9819L83.9735 53.0531L84.0447 53.1243L84.1388 53.1725L84.2116 53.2437L84.3057 53.292L84.4014 53.3402L84.4726 53.3877L84.5683 53.4359L84.664 53.4596L84.7826 53.4834L84.8768 53.5063H86.7567V52.6015H84.7581V47.3894H86.0433V46.5092H84.7581V43.2957L83.5196 43.2949ZM92.04 52.6007H90.803V49.721H92.04V52.6007ZM91.0885 48.8407H90.9928L90.8971 48.8637H90.803L90.7318 48.8874L90.6361 48.9111L90.5404 48.9594L90.4463 48.9823L90.3506 49.0543L90.2794 49.1017L90.1837 49.15L90.1126 49.222L90.0169 49.2931L89.9457 49.3651L89.8745 49.4363L89.8262 49.5075L89.7551 49.6032L89.7068 49.6744L89.6586 49.7701L89.6103 49.8642L89.5874 49.9362L89.5391 50.0311V50.1268L89.5162 50.1979V52.055L89.5391 52.1499V52.2448L89.5637 52.3397L89.6103 52.4354L89.6348 52.5303L89.6831 52.6252L89.7298 52.6972L89.778 52.7921L89.8492 52.887L89.9219 52.959L89.9931 53.0302L90.0643 53.1021L90.1355 53.1733L90.2312 53.2445L90.3269 53.2928L90.3981 53.341L90.4922 53.3885L90.5879 53.4122L90.6836 53.4604L90.7777 53.4842H90.8734L90.9691 53.5071H93.9192V52.6023H93.3015V46.51H91.397L91.2072 46.5329H91.0403L90.8734 46.5566L90.8022 46.6049H90.731L90.6583 46.6286L90.5871 46.676L90.5159 46.6998L90.4447 46.748L90.3965 46.7955L90.3253 46.8437L90.2771 46.8674L90.2288 46.9386L90.1806 47.0098L90.1323 47.0581L90.0841 47.13L90.0611 47.2012L90.0129 47.2961L89.99 47.3918H92.0368V48.8668L91.0885 48.8407ZM100.988 53.4826V52.6015H100.489V46.4854H99.2269V52.6015H97.9662V46.4854H96.681V51.983L96.704 52.1262L96.7269 52.2693L96.7514 52.4125L96.7997 52.5311L96.8463 52.6743L96.942 52.7929L97.0377 52.9115L97.1318 53.0302L97.2505 53.1251L97.3691 53.2208L97.4877 53.292L97.6064 53.3631L97.7503 53.4114L97.8927 53.4596H98.0366L98.179 53.4834L100.988 53.4826ZM107.581 46.4846H105.249L105.155 46.5084H105.059L104.965 46.5313L104.869 46.555L104.774 46.6033L104.702 46.6507L104.607 46.699L104.513 46.7702L104.441 46.8184L104.346 46.8904L104.274 46.9616L104.203 47.0335L104.131 47.1047L104.059 47.1996L104.011 47.2716L103.963 47.3665L103.916 47.4614L103.868 47.5563L103.843 47.652L103.821 47.7469L103.798 47.8181V53.5063H105.058V47.3902H106.344V48.8423H107.58L107.581 46.4846ZM112.485 52.6007H111.224V49.721H112.485V52.6007ZM111.51 48.8407H111.414L111.32 48.8637H111.247L111.153 48.8874L111.057 48.9111L110.962 48.9594L110.867 48.9823L110.795 49.0543L110.701 49.1017L110.605 49.15L110.534 49.222L110.438 49.2931L110.367 49.3651L110.296 49.4363L110.247 49.5075L110.176 49.6032L110.128 49.6744L110.08 49.7701L110.031 49.8642L110.009 49.9362L109.986 50.0311L109.961 50.1268L109.938 50.1979V52.055L109.961 52.1499V52.2448L109.986 52.3397L110.032 52.4354L110.057 52.5303L110.105 52.6252L110.153 52.6972L110.224 52.7921L110.273 52.887L110.344 52.959L110.415 53.0302L110.486 53.1021L110.557 53.1733L110.653 53.2445L110.749 53.2928L110.843 53.341L110.916 53.3885L111.01 53.4122L111.106 53.4604L111.2 53.4842H111.295L111.391 53.5071H114.341V52.6023H113.723V46.51H111.819L111.629 46.5329H111.462L111.295 46.5566L111.224 46.6049H111.153L111.08 46.6286L111.009 46.676L110.938 46.6998L110.867 46.748L110.818 46.7955L110.77 46.8437L110.699 46.8674L110.651 46.9386L110.603 47.0098L110.554 47.0581L110.508 47.13L110.483 47.2012L110.435 47.2961L110.412 47.3918H112.482V48.8668L111.51 48.8407ZM116.603 46.4846V47.3894H117.104V53.4826H118.364V47.3657H119.601V53.4826H120.888V47.913L120.864 47.8173V47.7224L120.841 47.6275L120.816 47.5326L120.768 47.4369L120.721 47.342L120.673 47.2708L120.602 47.1751L120.554 47.1039L120.483 47.0082L120.41 46.937L120.339 46.8659L120.267 46.7939L120.172 46.7464L120.078 46.6982L120.005 46.6499L119.911 46.6025L119.815 46.5542L119.721 46.5305L119.625 46.5076H119.529L119.435 46.4838L116.603 46.4846ZM124.243 43.2949V46.4846H123.72V47.3894H124.243V52.1491L124.266 52.2677L124.291 52.3627L124.314 52.4583L124.362 52.5533L124.385 52.6244L124.433 52.7193L124.506 52.815L124.553 52.8862L124.625 52.9819L124.696 53.0531L124.768 53.1243L124.839 53.1725L124.935 53.2437L125.029 53.292L125.101 53.3402L125.196 53.3877L125.291 53.4359L125.387 53.4596L125.481 53.4834L125.6 53.5063H127.456V52.6015H125.48V47.3894H126.765V46.5092H125.48V43.2957L124.243 43.2949Z" fill="#5D7A56"/>
</svg>
