<svg width="152" height="64" viewBox="0 0 152 64" fill="none" xmlns="http://www.w3.org/2000/svg">
<path fill-rule="evenodd" clip-rule="evenodd" d="M60.0879 52.6356H128.094C128.094 52.6356 132.286 53.1018 135.08 50.3065C137.759 47.513 137.293 45.8827 137.526 44.6001C137.759 43.436 137.409 37.7305 137.409 37.7305H60.0879V52.6356Z" fill="black"/>
<path fill-rule="evenodd" clip-rule="evenodd" d="M72.6641 41.3394V48.5593H75.4585C76.274 48.5593 76.6234 48.4426 77.0896 48.2099C77.554 47.7455 77.7876 47.1626 77.7876 46.4629C77.7876 45.6491 77.4381 45.0661 76.6234 44.8326C77.3214 44.5991 77.6708 44.0188 77.6708 43.2023C77.6708 42.6194 77.3214 42.0382 76.857 41.6888C76.3899 41.4553 76.0414 41.3394 75.109 41.3394H72.6641ZM74.0617 44.3665V42.2717H74.9932C75.3426 42.2717 75.5752 42.3868 75.692 42.3868C76.0414 42.5035 76.274 42.8529 76.274 43.3191C76.274 43.6685 76.1573 44.0188 75.8079 44.1347C75.5743 44.2514 75.4585 44.3665 74.8764 44.3665H74.0617ZM74.0617 47.5111V45.2979H74.9932C75.4585 45.2979 75.692 45.2979 75.9246 45.4147C76.274 45.5314 76.5067 45.9959 76.5067 46.462C76.5067 46.8114 76.274 47.1617 76.0405 47.3944C75.8079 47.5111 75.6911 47.5111 74.9932 47.5111H74.0617ZM81.9804 41.3394V48.6752H83.2605V45.4147H84.3095L85.5896 48.6752H86.9863L85.4728 45.182C86.2884 44.8326 86.7528 44.2514 86.7528 43.435C86.7528 42.6186 86.2884 41.9215 85.5887 41.5721C85.1225 41.3385 85.0058 41.3385 84.0752 41.3385L81.9804 41.3394ZM83.2605 44.3665V42.3868H84.076C84.4254 42.3868 84.7757 42.5035 84.8899 42.5035C85.2393 42.6203 85.4728 42.9697 85.4728 43.4359C85.4728 43.7853 85.2393 44.1355 85.0066 44.2514C84.8899 44.3665 84.6589 44.3665 84.1928 44.3665H83.2605ZM92.5768 46.8123H94.79L95.373 48.6752H96.7697L94.6733 41.4553H92.8104L90.7139 48.6752H92.1107L92.5768 46.8123ZM92.8095 45.765L93.6251 43.0856V42.7362C93.6251 42.6203 93.7418 42.6194 93.7418 42.3868C93.7418 42.6203 93.7418 42.6203 93.8586 42.9697L94.5565 45.765H92.8095ZM110.628 41.3394V48.6752H112.375C113.422 48.6752 113.888 48.5585 114.353 48.2091C115.168 47.6279 115.634 46.462 115.634 45.0653C115.634 43.5518 115.168 42.3859 114.353 41.8047C113.771 41.4553 113.655 41.3385 112.258 41.3385L110.628 41.3394ZM111.792 42.3859H112.258C112.839 42.3859 113.305 42.5027 113.538 42.7353C114.121 43.0847 114.352 43.7844 114.352 44.9485C114.352 46.8114 113.77 47.6279 112.374 47.6279H111.791L111.792 42.3859ZM124.368 43.0856C124.134 41.9215 123.32 41.2227 122.155 41.2227C120.641 41.2227 119.71 42.155 119.71 43.4359C119.71 44.1355 119.944 44.7159 120.524 45.0661C120.874 45.2997 121.107 45.2997 121.921 45.5323C122.853 45.7658 123.203 46.1135 123.203 46.6964C123.203 47.2793 122.737 47.6287 122.037 47.6287C121.456 47.6287 120.99 47.1626 120.873 46.4629L119.476 46.6964C119.593 47.9764 120.523 48.6761 122.037 48.6761C123.552 48.6761 124.6 47.7455 124.6 46.4629C124.6 45.6491 124.25 45.0661 123.552 44.7159C123.203 44.4823 122.852 44.3665 122.27 44.1347C121.223 43.9012 121.106 43.7853 121.106 43.2023C121.106 42.6194 121.456 42.2717 122.037 42.2717C122.62 42.2717 123.086 42.6194 123.086 43.3191L124.368 43.0856ZM106.202 41.3394H104.922V45.0661C104.922 45.5323 105.039 46.1135 105.039 46.6964C104.922 45.9967 104.805 45.6491 104.573 45.1829L102.71 41.3403H100.847V48.6761H102.011V43.902V42.7362C102.128 43.0856 102.128 43.2023 102.36 43.6685L104.923 48.6752H106.203V41.3394H106.202Z" fill="white"/>
<path fill-rule="evenodd" clip-rule="evenodd" d="M148.123 38.0794C148.123 38.0794 152.898 14.3231 151.85 8.61757C151.268 5.47376 149.755 3.60997 148.706 2.6785C147.426 1.63028 146.26 0 138.226 0C130.191 0 68.3559 3.02791 68.3559 3.02791L0 6.05496V37.9626L148.123 38.0794Z" fill="#CC2131"/>
<path fill-rule="evenodd" clip-rule="evenodd" d="M20.0297 15.4877H21.8927C24.105 15.4877 25.0365 15.8371 24.6871 17.7001C24.3376 19.6798 23.4062 20.0283 21.5424 20.0283H19.2142L20.0297 15.4877ZM13.2751 26.4335C13.1592 27.0156 12.8098 27.4818 12.2277 27.4818H10.7142L10.248 29.5773L17.5847 29.6941C17.5847 29.6941 17.9341 26.8997 18.05 26.3168L18.7489 22.2415H20.7285C22.7082 22.2415 22.9417 22.5909 22.7082 23.9885L22.2421 26.085C21.66 28.9961 23.0576 30.1603 25.3859 30.1603C28.5305 30.1603 29.6947 28.2973 30.1608 25.8515L30.3943 25.0368H28.7641L28.5314 26.085C28.4146 26.7838 28.0652 27.5985 27.3664 27.5985C26.7844 27.5985 26.6676 27.2491 26.7844 26.7838L27.2497 24.1053C27.5991 22.1256 26.6676 21.5436 25.0373 20.9606C27.1338 20.6112 28.9967 19.5639 29.4629 17.2348C29.929 14.673 28.182 13.2754 24.6879 13.2754H13.3919L13.0424 15.4877H14.556C15.138 15.4877 15.2548 15.9539 15.138 16.5351L13.2751 26.4335Z" fill="white"/>
<path fill-rule="evenodd" clip-rule="evenodd" d="M41.2222 24.6888C42.0378 20.7295 40.2907 17.8183 36.0987 17.8183C32.4896 17.8183 29.2282 20.1466 28.5302 24.1068C27.7155 28.0662 29.3449 30.3953 33.6537 30.3953C36.4481 30.3953 39.7096 29.1144 40.641 26.0865H39.0107C38.5446 27.6 36.6816 28.1829 35.7502 28.1829C33.8872 28.1829 32.7231 26.4359 33.0717 24.6888H41.2222ZM33.3043 22.7092L33.4202 22.0095C33.6529 20.7286 34.5843 19.7971 35.7493 19.7971C37.0302 19.7971 37.4963 20.7286 37.2628 22.0095L37.1461 22.7083L33.3043 22.7092ZM70.5681 26.2024C70.4514 27.2497 69.4031 28.1821 68.239 28.0653C67.5402 27.9485 67.0749 27.5991 67.3076 26.6677C67.5411 25.0374 69.6367 24.688 70.9175 23.9892L70.5681 26.2024ZM75.1096 27.8327C74.7602 27.8327 74.1781 27.7159 74.2949 27.0179L74.9937 22.243C75.6925 18.7498 73.9454 17.9351 70.569 17.9351C68.7061 17.9351 64.9793 18.2845 64.3964 20.9621C64.2805 22.1271 65.0952 22.8251 66.1435 22.8251C67.1908 22.8251 68.239 22.3598 68.3558 21.3115C68.5893 20.3801 67.8896 20.0307 67.1908 19.9139C67.7729 19.5645 68.4717 19.4477 69.1705 19.4477C70.4514 19.4477 71.3837 19.9139 71.0334 21.5442C70.4514 24.8047 63.8135 22.1262 62.882 26.7844C62.4159 29.2303 63.6967 30.1618 66.0258 30.1618C67.5394 30.1618 69.1696 29.6956 70.4514 28.5315C70.3346 29.6965 70.4514 29.6965 70.4514 29.6965C70.3346 29.6965 75.2255 29.8132 75.1087 29.6965C75.1096 29.6956 75.2255 27.8327 75.1096 27.8327ZM41.5725 25.3868L40.7578 29.5788H42.6207L43.086 28.7641C44.1342 29.6956 45.6478 29.8123 47.1613 29.8123C49.723 29.8123 52.5183 28.8809 53.1003 25.853C54.0318 21.078 46.2298 22.5924 46.5784 20.4968C46.8119 19.6821 48.0927 19.5654 48.6748 19.5654C49.3736 19.5654 50.0724 19.6821 50.5377 20.0307C51.0039 20.3801 51.3524 20.8462 51.4692 21.545H53.3321L54.0309 17.8183H52.2839L51.9345 18.633C50.8871 17.9342 49.6054 17.5848 48.3245 17.5848C45.8787 17.5848 42.7349 18.5163 42.1528 21.4274C41.2213 25.9689 49.0233 24.688 48.6739 26.7836C48.4404 27.9485 47.0437 27.9485 46.3448 27.9485C45.064 27.9485 43.4337 26.7836 43.5504 25.3868H41.5725ZM58.69 13.7422C58.1079 15.7219 57.0597 18.2836 54.6147 18.2836L54.2653 20.2633H55.8956L54.7315 26.435C54.2653 28.8809 55.3135 30.1618 57.8753 30.1618C61.3685 30.1618 62.1832 28.5315 62.6494 26.0865H60.9023C60.7856 27.2506 60.0876 27.9494 59.1553 27.9494C58.6891 27.9494 58.4565 27.4832 58.5732 27.0179L59.8541 20.2633H62.7653L63.2314 18.2836H60.2035L61.135 13.7422H58.69ZM88.6171 29.8123L88.9665 27.7159L88.5004 27.8327C87.8024 27.8327 87.9192 27.4832 88.0359 26.7844L89.3159 18.1677H83.3769L83.0275 20.1474H84.0765C84.7762 20.1474 84.7762 20.4968 84.6595 21.1956L83.8439 25.7371C83.7271 26.7853 82.7965 27.9503 81.7474 27.9503C80.0004 27.9503 80.1172 27.2515 80.4674 25.5044L81.7474 18.1686H76.3904L76.041 20.1483H76.7407C77.4387 20.1483 77.5546 20.4977 77.4387 21.1965L76.5072 26.2041C76.041 28.8826 76.624 30.1635 79.3016 30.1635C81.1645 30.1635 82.3304 29.4647 83.6104 27.8344H83.7271L83.3777 29.8141H88.6171V29.8123ZM90.8295 20.1466H91.7618C92.4597 20.1466 92.2262 20.6127 92.1095 21.3115L91.1789 26.6677C91.0621 27.3665 91.0621 27.8327 90.4792 27.8327H89.5486L89.1992 29.8123H96.1856L96.535 27.8327H95.6044C95.0215 27.8327 94.9047 27.3665 95.0215 26.6677L95.8371 22.3598C96.0688 21.0789 97.0012 19.4486 98.1644 19.4486C98.5138 19.4486 98.6306 19.4486 98.8641 19.6821C98.0485 19.9148 97.4673 20.3809 97.2338 21.3124C97.1171 22.3606 97.9318 22.8259 98.8641 22.8259C99.9115 22.8259 100.961 22.1271 101.193 21.0789C101.425 19.216 100.261 18.1677 98.6306 18.1677C97.3506 18.1677 96.6509 18.9824 96.068 20.1474L96.4174 18.1677H91.1771L90.8295 20.1466ZM107.832 26.3183C107.714 26.8479 107.419 27.3213 106.996 27.6603C106.572 27.9993 106.045 28.1834 105.503 28.1821C104.805 28.0653 104.223 27.7159 104.455 26.6677C104.805 25.1542 106.901 24.8047 108.182 24.1059L107.832 26.3183ZM112.488 27.9494C112.141 27.9494 111.441 27.8327 111.558 27.1347L112.257 22.3598C112.955 18.7498 111.092 17.9351 107.832 17.9351C105.852 17.9351 102.126 18.4004 101.659 21.0789C101.426 22.2439 102.242 22.9418 103.406 22.9418C104.339 22.9418 105.386 22.4765 105.62 21.3115C105.736 20.4968 105.038 20.1465 104.34 20.0307V19.9148C104.954 19.6082 105.632 19.4486 106.319 19.4486C107.716 19.4486 108.532 20.0307 108.299 21.6609C107.599 24.9215 101.079 22.1271 100.147 26.7844C99.6805 29.3462 100.962 30.2785 103.175 30.2785C104.806 30.2785 106.436 29.8123 107.599 28.5315C107.483 29.6965 107.599 29.8123 107.599 29.8123H112.258L112.488 27.9494ZM114.818 18.2836L114.469 20.2633H115.052C115.752 20.2633 115.867 20.8454 115.752 21.5442L114.819 26.7844C114.702 27.4832 114.702 27.8327 114.005 27.8327H113.073L112.724 29.8123H118.313C118.313 29.8123 118.779 27.4832 118.896 26.7844L119.712 22.243C119.945 21.1948 120.759 20.1466 121.923 20.1466C123.439 20.1466 123.555 21.078 123.205 22.4756L122.622 26.435C122.505 27.1338 122.156 29.8123 122.156 29.8123H127.512L127.861 27.8327H126.931C126.348 27.8327 126.348 27.1338 126.465 26.435L127.164 22.1262C127.629 19.5645 127.048 17.9342 124.369 17.9342C122.506 17.9342 121.342 18.5163 119.945 20.1466L120.293 18.2836H114.818ZM132.636 13.9748C132.053 15.9545 131.005 18.5163 128.559 18.5163L128.21 20.496H129.84L128.676 26.6677C128.093 29.1135 129.257 30.3944 131.703 30.3944C135.313 30.3944 136.595 28.4147 136.943 25.0374H135.196C134.963 26.2024 134.849 28.1821 133.683 28.1821C133.1 28.298 132.636 27.8327 132.752 27.2497L133.8 20.496H136.712L137.059 18.5163H134.149L135.08 13.9748H132.636Z" fill="white"/>
<path fill-rule="evenodd" clip-rule="evenodd" d="M6.63706 58.6914L8.15145 61.952V58.6914H9.08291V63.6981H8.03469L6.17176 59.622V63.6981H5.12354V58.6914H6.63706ZM18.5161 59.5052H16.5364V60.6711H18.1658V61.6017H16.5364V62.7658H18.6319V63.6981H15.4881V58.6914H18.5161V59.5052ZM28.9957 63.6981H27.9475L27.3654 60.2049L26.6666 63.6981H25.6184L24.571 58.6914H25.6184L26.2013 62.1846L26.7833 58.6914H27.8316L28.5304 62.1846L29.1124 58.6914H30.1598L28.9957 63.6981ZM48.9085 59.5052L46.9288 62.7658H48.9085V63.6981H45.7647V62.8826L47.8602 59.5052H45.7647V58.6914H48.9085V59.5052ZM58.2248 59.5052H56.1284V60.6711H57.8754V61.6017H56.1284V62.7658H58.3407V63.6981H55.1969V58.6914H58.2248V59.5052ZM66.9583 61.6017H65.7942L66.3762 59.5052L66.9583 61.6017ZM67.0751 58.6914H65.6774L64.2798 63.6981H65.3272L65.6766 62.4181H67.0742L67.4236 63.6981H68.4718L67.0751 58.6914ZM75.4582 62.7658H77.4379V63.6981H74.4109V58.6914H75.4582V62.7658ZM86.987 61.6017H85.8229L86.4058 59.5052L86.987 61.6017ZM87.1037 58.6914H85.707L84.3102 63.6981H85.3576L85.707 62.4181H87.1037L87.4531 63.6981H88.5005L87.1037 58.6914ZM95.9531 58.6914L97.3516 61.952V58.6914H98.3989V63.6981H97.3516L95.4886 59.622V63.6981H94.4396V58.6914H95.9531ZM105.736 62.7658V59.5052H106.085C107.016 59.5052 107.482 59.9714 107.482 61.0188C107.482 62.3005 107.016 62.7658 106.202 62.7658H105.736ZM104.805 58.6914V63.6981H106.319C107.832 63.6981 108.532 62.534 108.532 61.1355C108.532 59.7388 107.832 58.6914 105.969 58.6914H104.805ZM125.066 62.7658H127.046V63.6981H124.017V58.6914H125.066V62.7658ZM136.129 59.5052H134.849V63.6981H133.8V59.5052H132.52V58.6914H136.129V59.5052ZM143.232 62.7658V59.5052H143.581C144.512 59.5052 144.978 59.9714 144.978 61.0188C144.978 62.3005 144.512 62.7658 143.698 62.7658H143.232ZM142.185 58.6914V63.6981H143.815C145.212 63.6981 145.911 62.534 145.911 61.1355C145.911 59.7388 145.329 58.6914 143.466 58.6914H142.185Z" fill="black"/>
</svg>
