<svg width="152" height="40" viewBox="0 0 152 40" fill="none" xmlns="http://www.w3.org/2000/svg">
<path fill-rule="evenodd" clip-rule="evenodd" d="M51.7323 27.7545C52.4764 28.0206 53.0615 28.4458 53.593 28.9781C54.1245 29.5088 54.6032 30.1474 54.8693 30.8387C55.1427 30.14 55.5592 29.5062 56.0922 28.9781C56.6205 28.4453 57.2542 28.0285 57.9528 27.7545C58.7505 27.4883 59.4418 27.3301 60.2394 27.3301C61.0371 27.3301 61.8347 27.4883 62.5788 27.7545C63.2701 28.0206 63.9079 28.4458 64.493 28.9781C65.0245 29.5088 65.5032 30.1474 65.7694 30.8387C66.043 30.1402 66.4595 29.5064 66.9922 28.9781C67.5206 28.4449 68.1546 28.0281 68.8536 27.7545C69.5837 27.4759 70.3581 27.3322 71.1395 27.3301C71.9371 27.3301 72.7347 27.4883 73.4788 27.7545C74.1775 28.0283 74.8112 28.4451 75.3395 28.9781C75.8724 29.5062 76.2889 30.14 76.5623 30.8387C76.8359 30.14 77.2528 29.5062 77.7859 28.9781C78.4229 28.4458 79.0615 28.0206 79.7529 27.7545C80.4442 27.4883 81.241 27.3301 82.0395 27.3301C82.8363 27.3301 83.5812 27.4883 84.3789 27.7545C85.0776 28.0281 85.7114 28.4449 86.2395 28.9781C86.6655 29.4569 87.0907 29.9875 87.3568 30.5726C87.6293 29.9907 87.9879 29.4531 88.4206 28.9781C89.0576 28.4458 89.6962 28.0206 90.3876 27.7545C91.0789 27.4883 91.8774 27.3301 92.6742 27.3301C93.471 27.3301 94.2159 27.4883 95.0136 27.7545C95.7123 28.0281 96.3461 28.4449 96.8742 28.9781C97.4065 29.6151 97.8317 30.2537 98.0978 30.945C98.4703 31.6364 98.6301 32.4332 98.6301 33.2317C98.6301 34.0285 98.4703 34.7734 98.0978 35.571L97.4065 36.7947L96.8742 37.4317C96.3461 37.9648 95.7123 38.3817 95.0136 38.6553C94.2167 38.9215 93.4718 39.0797 92.6742 39.0797C91.8765 39.0797 91.0781 38.9215 90.3876 38.6553C89.697 38.3891 89.0576 37.964 88.4206 37.4317L87.9946 36.7947L87.3577 35.8372L86.7726 36.7947L86.2403 37.4317C85.7122 37.9648 85.0784 38.3817 84.3797 38.6553C83.5828 38.9215 82.8379 39.0797 82.0403 39.0797C81.2419 39.0797 80.4442 38.9215 79.7537 38.6553C79.0631 38.3891 78.4237 37.964 77.7868 37.4317L77.3607 36.7947L76.5639 35.571C76.4041 35.9954 76.1387 36.4222 75.8726 36.7947L75.3411 37.4317C74.8129 37.9647 74.1791 38.3815 73.4805 38.6553C72.7364 38.9215 71.9387 39.0797 71.1411 39.0797C70.3597 39.0777 69.5853 38.9339 68.8553 38.6553C68.1562 38.3817 67.5222 37.9649 66.9938 37.4317L66.4623 36.7947C66.1962 36.4222 65.9309 35.9962 65.771 35.571C65.5049 35.9954 65.2395 36.4222 64.9734 36.7947L64.4946 37.4317C63.9096 37.964 63.2718 38.3891 62.5804 38.6553C61.8363 38.9215 61.0387 39.0797 60.2411 39.0797C59.4434 39.0797 58.7521 38.9215 57.9544 38.6553C57.2558 38.3815 56.622 37.9647 56.0938 37.4317L55.5623 36.7947C55.2962 36.4222 55.0308 35.9962 54.871 35.571C54.6576 35.9954 54.3922 36.4222 54.1261 36.7947L53.5946 37.4317C53.0631 37.964 52.478 38.3891 51.734 38.6553C50.9363 38.9215 50.245 39.0797 49.4473 39.0797C48.666 39.0776 47.8915 38.9338 47.1615 38.6553C46.418 38.4089 45.7436 37.9896 45.1938 37.4317L44.6623 36.7947C44.3961 36.4222 44.1308 35.9962 43.9709 35.571C43.7544 35.9972 43.5056 36.4063 43.2269 36.7947L42.6954 37.4317C42.1639 37.964 41.5788 38.3891 40.8347 38.6553C40.1434 38.9215 39.3466 39.0797 38.5489 39.0797C37.7513 39.0797 36.9536 38.9215 36.2623 38.6553C35.6237 38.3891 35.0922 38.1246 34.667 37.6978L34.4009 37.4317C33.7631 36.901 33.3906 36.2624 33.1253 35.571C32.8056 36.2624 32.3276 36.901 31.7961 37.4317C31.2647 37.964 30.6796 38.3891 29.9355 38.6553C29.2052 38.9338 28.4305 39.0776 27.6489 39.0797C26.8521 39.0797 26.1607 38.9215 25.3631 38.6553C24.619 38.3891 24.0331 37.964 23.5025 37.4317C22.971 36.901 22.4922 36.2624 22.2261 35.571C21.9524 36.2696 21.5359 36.9033 21.0032 37.4317C20.4537 37.9895 19.7796 38.4089 19.0363 38.6553C18.345 38.9215 17.5473 39.0797 16.7497 39.0797C15.952 39.0797 15.2607 38.9215 14.463 38.6553C13.719 38.3891 13.1339 37.964 12.6024 37.4317C12.0709 36.901 11.5922 36.2624 11.326 35.571C11.0524 36.2696 10.6359 36.9033 10.1032 37.4317C9.57455 37.9645 8.94057 38.3813 8.24176 38.6553C7.44412 38.9215 6.75278 39.0797 5.95513 39.0797C5.15749 39.0797 4.35985 38.9215 3.61576 38.6553C2.9171 38.3815 2.28335 37.9647 1.75514 37.4317C1.17009 36.901 0.691344 36.2624 0.425193 35.571C0.159853 34.7742 0 34.0293 0 33.2317C0 32.4332 0.159853 31.6356 0.425193 30.945C0.691344 30.2537 1.16928 29.6151 1.75514 28.9781C2.28335 28.4451 2.9171 28.0283 3.61576 27.7545C4.35985 27.4883 5.15749 27.3301 5.95513 27.3301C6.75278 27.3301 7.44412 27.4883 8.24176 27.7545C8.94057 28.0285 9.57455 28.4452 10.1032 28.9781C10.6359 29.5064 11.0524 30.1402 11.326 30.8387C11.5922 30.1474 12.0701 29.5088 12.6024 28.9781C13.1339 28.4458 13.719 28.0206 14.463 27.7545C15.2607 27.4883 15.952 27.3301 16.7497 27.3301C17.5473 27.3301 18.345 27.4883 19.0363 27.7545C19.7796 28.0009 20.4537 28.4202 21.0032 28.9781C21.5362 29.5062 21.9527 30.14 22.2261 30.8387C22.4922 30.1474 22.9702 29.5088 23.5025 28.9781C24.0339 28.4458 24.619 28.0206 25.3631 27.7545C26.1607 27.4883 26.8521 27.3301 27.6489 27.3301C28.4465 27.3301 29.2442 27.4883 29.9355 27.7545C30.6796 28.0206 31.2647 28.4458 31.7961 28.9781C32.3276 29.5088 32.8064 30.1474 33.1253 30.8387C33.3914 30.1474 33.7631 29.5088 34.4009 28.9781C34.9332 28.4458 35.5174 28.0206 36.2623 27.7545C36.9536 27.4883 37.7513 27.3301 38.5489 27.3301C39.3466 27.3301 40.1442 27.4883 40.8347 27.7545C41.5788 28.0206 42.1639 28.4458 42.6954 28.9781C43.2269 29.5088 43.7064 30.1474 43.9718 30.8387C44.2454 30.1402 44.6619 29.5064 45.1946 28.9781C45.7443 28.42 46.4187 28.0006 47.1623 27.7545C47.8924 27.476 48.6668 27.3322 49.4481 27.3301C50.2434 27.3301 50.9347 27.4883 51.7323 27.7545Z" fill="#E5A430"/>
<path fill-rule="evenodd" clip-rule="evenodd" d="M51.1476 30.6802H47.7444C47.3192 30.6802 47.0531 30.8401 47.0531 31.3188L47.1594 31.8495L47.6908 32.0094H48.6483V34.8275C48.6483 35.0936 48.7546 35.3598 48.8074 35.5724L49.4452 35.7322C49.7113 35.7322 49.8704 35.6243 49.9767 35.5724C50.1365 35.3598 50.2428 35.0936 50.2428 34.8275V32.0094H51.1468C51.4129 32.0094 51.572 31.9031 51.6782 31.8495C51.7318 31.7432 51.8381 31.585 51.8381 31.3188C51.8389 30.8401 51.5728 30.6802 51.1476 30.6802ZM57.8476 33.7637C57.8476 34.5086 58.1138 35.0393 58.5917 35.3598C59.0835 35.6746 59.6558 35.8408 60.2397 35.8385C61.0374 35.8385 61.5689 35.6243 62.0476 35.3598C62.4728 35.0393 62.6326 34.5086 62.6326 33.7637V31.4787L62.4736 30.8401C62.3907 30.7549 62.2913 30.6873 62.1816 30.6416C62.0718 30.5958 61.9539 30.5728 61.835 30.5739C61.5689 30.5739 61.4098 30.6802 61.3035 30.8401L61.0374 31.4787V33.7637C61.0374 34.0299 60.9846 34.2424 60.8783 34.4023C60.772 34.5086 60.5059 34.5622 60.2397 34.5622C59.9736 34.5622 59.8145 34.5086 59.7082 34.4023C59.623 34.3193 59.5555 34.22 59.5098 34.1102C59.4641 34.0005 59.441 33.8826 59.4421 33.7637V31.4787L59.2822 30.8401C59.1995 30.7548 59.1003 30.6873 58.9906 30.6416C58.881 30.5958 58.7632 30.5728 58.6444 30.5739C58.3783 30.5739 58.2192 30.6802 58.1129 30.8401L57.8468 31.4787L57.8476 33.7637ZM68.7476 31.4787V35.0401C68.7476 35.3062 68.8547 35.4661 69.0138 35.5724C69.1201 35.7322 69.2799 35.8385 69.5453 35.8385C69.8106 35.8385 70.024 35.7322 70.0768 35.5724C70.2894 35.4661 70.3421 35.3062 70.3421 35.0401V32.9669L71.6721 35.1999C71.7784 35.4661 71.9382 35.5724 72.1508 35.6243C72.2035 35.7322 72.417 35.8385 72.6823 35.8385C72.9476 35.8385 73.1075 35.7322 73.2673 35.6243C73.4799 35.5724 73.5335 35.3054 73.5335 35.0393V31.3708C73.5335 31.1062 73.4807 30.9464 73.2673 30.8401C73.2146 30.6802 73.0012 30.5739 72.7358 30.5739C72.4705 30.5739 72.3106 30.6802 72.2044 30.8401C72.0453 30.9464 71.9382 31.1062 71.9382 31.3708V33.4975L70.5555 31.1062C70.3421 30.7857 70.0768 30.5739 69.7579 30.5739C69.4925 30.5739 69.2264 30.6802 69.0138 30.8401C68.8547 30.9464 68.7476 31.2125 68.7476 31.4787ZM83.3713 30.6802H80.8186C80.5524 30.6802 80.2879 30.7865 80.18 30.9464C80.0217 31.1062 79.9154 31.3708 79.9154 31.6377V34.7756C79.9154 35.0401 80.0217 35.3062 80.18 35.4669C80.2879 35.6251 80.5524 35.7331 80.8186 35.7331H83.4776C83.6315 35.7216 83.7788 35.6661 83.902 35.5732C83.9676 35.5116 84.0202 35.4375 84.0567 35.3553C84.0932 35.2731 84.1129 35.1844 84.1146 35.0945L83.902 34.6701L83.4776 34.5638H81.5091V33.7653H83.0508C83.208 33.7702 83.3609 33.7134 83.4768 33.6071C83.5828 33.4909 83.6395 33.3382 83.6351 33.1811L83.4768 32.7023C83.3705 32.6504 83.2107 32.5441 83.0508 32.5441H81.5091V31.9055H83.3713C83.6359 31.9055 83.8485 31.852 83.902 31.7457C84.0083 31.6394 84.0083 31.4811 84.0083 31.3213L83.902 30.8425C83.8485 30.7857 83.6359 30.6802 83.3713 30.6802ZM92.6217 31.6369L93.0477 31.7432L93.3139 32.0094L93.5784 32.1692C93.6847 32.2755 93.7383 32.2755 93.8446 32.2755C94.1107 32.2755 94.2689 32.1692 94.3769 32.1157C94.4832 32.0094 94.5351 31.8495 94.5351 31.6369C94.5351 31.318 94.2689 31.0519 93.8437 30.8401C93.4238 30.6596 92.9708 30.5689 92.5138 30.5739C91.8768 30.5739 91.3445 30.7865 91.0256 31.1062C90.7595 31.3708 90.5469 31.7432 90.5469 32.17C90.5469 32.9149 91.0256 33.3393 91.8225 33.6063L92.8862 33.8708L93.1524 34.0307L93.2043 34.2968C93.2056 34.3515 93.1914 34.4055 93.1634 34.4526C93.1354 34.4996 93.0948 34.5379 93.0461 34.563L92.6737 34.6693L92.1413 34.563L91.6107 34.0307L91.2918 33.9771C91.0256 33.9771 90.813 34.0307 90.7595 34.137L90.5469 34.563L90.6532 35.0401L91.0256 35.3606C91.45 35.6251 91.9831 35.8394 92.78 35.8394C93.3123 35.8394 93.7374 35.6251 94.2162 35.3606C94.6406 35.0945 94.8012 34.6693 94.8012 34.137C94.8012 33.7126 94.7477 33.4456 94.4823 33.1795L93.7374 32.7007L93.4186 32.6488L92.6201 32.4346L92.1413 32.2763L92.0894 32.0102L92.2493 31.744L92.6217 31.6369ZM3.55762 31.4787V35.0401C3.55762 35.3062 3.61036 35.4661 3.71747 35.5724C3.87732 35.7322 4.08911 35.8385 4.35526 35.8385C4.62141 35.8385 4.78045 35.7322 4.88675 35.5724C5.0466 35.4661 5.1529 35.3062 5.1529 35.0401V32.9669L6.48204 35.1999C6.53559 35.4661 6.74819 35.5724 6.90723 35.6243L7.33242 35.8385C7.59857 35.8385 7.86391 35.7322 8.07651 35.6243C8.23555 35.5724 8.34185 35.3054 8.34185 35.0393V31.3708C8.34185 31.1062 8.23555 30.9464 8.07651 30.8401C7.97021 30.6802 7.81036 30.5739 7.54502 30.5739L6.90642 30.8401C6.80012 30.9464 6.74656 31.1062 6.74656 31.3708V33.4975L5.31113 31.1062C5.15128 30.7857 4.88594 30.5739 4.51349 30.5739C4.24734 30.5739 3.982 30.6802 3.82215 30.8401C3.61117 30.9464 3.55762 31.2125 3.55762 31.4787ZM14.7238 31.6369V34.7748C14.7238 35.0393 14.7765 35.3054 14.8837 35.4661C15.0427 35.6243 15.3088 35.7322 15.575 35.7322H18.1805C18.4467 35.7322 18.6057 35.6243 18.712 35.5724C18.7648 35.4661 18.8719 35.3062 18.8719 35.0936L18.712 34.6693L18.1805 34.563H16.3199V33.7645H17.7026C17.9687 33.7645 18.1805 33.7126 18.2341 33.6063C18.3404 33.4984 18.4467 33.3401 18.4467 33.1803L18.2341 32.7015C18.1813 32.6496 17.9687 32.5433 17.7026 32.5433H16.3199V31.9047H18.1805C18.3404 31.9047 18.5002 31.8511 18.6057 31.7448C18.7112 31.6385 18.7648 31.4803 18.7648 31.3205L18.6057 30.8417C18.4994 30.7882 18.3396 30.6819 18.1805 30.6819H15.575C15.3097 30.6819 15.0435 30.7882 14.8837 30.948C14.7774 31.1062 14.7238 31.3708 14.7238 31.6369ZM24.7207 30.8401L24.5608 31.3188L24.7207 32.2763L25.412 35.0945C25.5183 35.5732 25.7845 35.8394 26.2097 35.8394H26.4758C26.5718 35.8399 26.6662 35.8156 26.7501 35.769C26.834 35.7224 26.9044 35.655 26.9546 35.5732C27.1136 35.4669 27.2207 35.307 27.2207 35.0409L27.6459 32.7015L28.0711 35.0409C28.1774 35.307 28.2837 35.4669 28.3373 35.5732C28.4436 35.7331 28.6034 35.8394 28.8688 35.8394H29.1349C29.6137 35.8394 29.879 35.5732 29.9326 35.0945L30.6766 32.2763C30.7294 31.8503 30.8365 31.4795 30.8365 31.3188L30.6766 30.8401L30.1452 30.6802C29.6672 30.6802 29.4011 30.8401 29.3483 31.3188L28.8696 33.9763L28.4444 31.3708C28.3381 31.1062 28.3381 30.9464 28.2845 30.8401C28.0854 30.7421 27.8677 30.6876 27.6459 30.6802C27.3806 30.6802 27.2207 30.7865 27.1144 30.8401C27.0081 30.9464 26.9554 31.1062 26.8491 31.3708L26.4239 33.9763L25.9452 31.3188C25.8924 30.8401 25.679 30.6802 25.2538 30.6802C24.986 30.6802 24.827 30.7857 24.7207 30.8401ZM36.8444 32.2755L36.6853 32.5417L36.579 32.8062L36.7916 32.9661L37.0578 33.1787L37.2168 33.0724L37.3767 32.8062L37.7491 32.3818L38.1208 32.8062L38.2806 33.0724L38.4397 33.1787L38.8121 32.9661L38.9184 32.8062L38.8121 32.5417L38.6523 32.2755L38.3861 31.9031L39.0774 31.7432C39.1837 31.6369 39.2373 31.585 39.2373 31.3708C39.2373 31.1062 39.1846 30.9464 38.9184 30.9464L38.6523 31.0527L38.1208 31.2125V30.6802C38.1208 30.4141 38.0145 30.2559 37.7491 30.2559C37.483 30.2559 37.3767 30.4141 37.3767 30.6802V31.2125L36.8452 31.0527L36.579 30.9464C36.3129 30.9464 36.2601 31.1062 36.2601 31.3708C36.2601 31.585 36.3129 31.6369 36.4192 31.7432L37.2168 31.9031L36.8444 32.2755Z" fill="#FFF35F"/>
<path fill-rule="evenodd" clip-rule="evenodd" d="M127.877 16.9617C128.408 16.4837 129.046 16.0577 129.631 15.7924C130.287 15.514 130.992 15.3695 131.705 15.3672C132.398 15.3672 133.088 15.527 133.832 15.7924C134.417 16.0585 135.055 16.4837 135.587 16.9617C136.012 17.3869 136.491 18.0255 136.757 18.6105C137.023 19.3546 137.181 20.0459 137.181 20.8428V26.32H133.724V20.8428C133.724 20.2058 133.566 19.779 133.194 19.4073C132.768 18.9821 132.289 18.8223 131.704 18.8223C131.173 18.8223 130.694 18.9821 130.269 19.4073C129.843 19.779 129.631 20.2058 129.631 20.8428V26.32H126.28V20.8428C126.28 20.0459 126.44 19.3546 126.706 18.6105C126.972 18.0255 127.344 17.3877 127.877 16.9617Z" fill="#D35B3E"/>
<path fill-rule="evenodd" clip-rule="evenodd" d="M129.631 10.6355L131.704 10.4756C133.088 10.4756 134.416 10.7418 135.745 11.2733C137.022 11.8047 138.086 12.4961 139.041 13.5063C139.999 14.4638 140.744 15.5268 141.276 16.7496C141.804 18.0128 142.075 19.3687 142.073 20.7379V26.2686H138.616V20.7379C138.616 19.8867 138.404 18.9835 138.085 18.0796C137.819 17.2819 137.287 16.4843 136.649 15.8993C136.011 15.2615 135.213 14.8355 134.415 14.4638C133.573 14.0404 132.644 13.8216 131.703 13.8252C130.639 13.8252 129.576 14.0914 128.566 14.6229C127.609 15.1016 126.918 15.793 126.28 16.5906V9.30552H124.792V26.2686H121.335V5.84961H129.63L129.631 10.6355Z" fill="#E5A76D"/>
<path fill-rule="evenodd" clip-rule="evenodd" d="M105.543 10.37L105.649 13.8259H110.169C111.081 13.8326 111.983 14.0129 112.828 14.3574C113.664 14.7522 114.434 15.272 115.113 15.8991C115.752 16.4841 116.178 17.2282 116.549 18.0267C116.87 18.8771 117.082 19.781 117.082 20.7377C117.082 21.8015 116.815 22.8645 116.337 23.8755C115.912 24.7267 115.221 25.5235 114.423 26.2684H118.997C120.006 24.566 120.538 22.7054 120.538 20.7377C120.538 19.355 120.272 18.0267 119.74 16.6967C119.209 15.5274 118.464 14.4636 117.507 13.5062C116.549 12.4959 115.38 11.8046 114.211 11.2731C112.881 10.7408 111.553 10.4754 110.17 10.3691L105.543 10.37Z" fill="#D35B3E"/>
<path fill-rule="evenodd" clip-rule="evenodd" d="M103.043 6.32641L103.309 6.22012L105.543 5.79492H117.134V9.30439H105.543L104.32 9.57054L103.416 10.2083L102.779 11.1658L102.513 12.3351C102.513 12.7603 102.619 13.1327 102.779 13.5052C102.885 13.8241 103.15 14.0902 103.416 14.3556L104.32 15.0997L105.543 15.2595H110.169L112.189 15.6847C112.828 15.9509 113.413 16.4296 113.943 16.8548C114.422 17.28 114.742 17.7587 115.007 18.2902L115.221 18.6099C115.486 19.2477 115.54 19.9391 115.54 20.7367C115.54 21.4816 115.487 22.173 115.221 22.8635C114.955 23.5021 114.476 24.1407 114.052 24.6722C113.52 25.0966 112.881 25.5234 112.296 25.7895C111.659 26.0541 110.968 26.2683 110.223 26.2683H109.532C108.733 26.2683 108.042 26.0541 107.298 25.7895L106.605 25.469C105.809 24.832 105.117 24.1407 104.639 23.2359H102.991C103.415 24.4052 104.214 25.469 105.17 26.2675H100.652C99.5882 24.5651 99.0559 22.8108 99.0559 20.7367V19.7792H107.405L107.511 20.7367C107.405 21.3753 107.563 21.8005 108.042 22.2785L108.733 22.7045L109.532 22.8627L110.169 22.8108C110.701 22.8108 111.126 22.5982 111.552 22.2785C112.031 21.7997 112.189 21.3753 112.189 20.7367L112.031 19.9399L111.552 19.3548C111.126 18.8769 110.701 18.7171 110.169 18.7171H105.543C104.746 18.7171 104.054 18.558 103.309 18.2919L103.043 18.1856L102.724 18.0265C102.087 17.7604 101.555 17.2816 101.022 16.7501C100.385 16.1651 99.9582 15.5273 99.6937 14.7297C99.2677 13.9328 99.0551 13.1344 99.0551 12.2304C99.0551 11.38 99.2677 10.5824 99.6937 9.78476C99.8519 9.14616 100.224 8.50837 100.651 7.97688L101.022 7.65798C101.448 7.17923 102.087 6.75404 102.724 6.48789L103.043 6.32641ZM92.4094 18.0785C92.1432 18.7162 91.8244 19.354 91.2937 19.8855L89.485 21.0029C88.8999 21.269 88.155 21.4816 87.4645 21.4816C86.6677 21.4816 85.9747 21.269 85.3377 21.0029L83.6353 19.8855C83.1157 19.3672 82.7008 18.7537 82.4133 18.0785C82.1472 17.4934 81.9873 16.7485 81.9873 15.9509V10.4737H85.444V15.9509C85.3377 16.4832 85.4976 16.9611 85.9747 17.3871C86.4007 17.8123 86.8259 18.0257 87.4645 18.0257C87.9952 18.0257 88.422 17.8123 88.9007 17.3871C89.2196 16.9619 89.4314 16.4832 89.4314 15.9509V10.4737H92.8882V15.9509C92.8798 16.6858 92.7167 17.4108 92.4094 18.0785Z" fill="#E5A76D"/>
<path fill-rule="evenodd" clip-rule="evenodd" d="M94.3777 10.4754H97.7265V12.6022H94.3777V10.4754ZM94.3777 12.6022V15.9518C94.2698 16.9621 94.1116 17.8124 93.7391 18.6109C93.473 19.4077 92.9423 20.2062 92.3572 20.8432C91.7179 21.4816 90.9591 21.9878 90.1242 22.333C89.2194 22.5991 88.3682 22.8117 87.3588 22.8636C86.4013 22.8117 85.4982 22.5991 84.6997 22.333C83.8667 22.0136 83.1202 21.5034 82.5202 20.8432C81.8816 20.2062 81.3509 19.4077 80.9785 18.6109C80.6579 17.8133 80.4462 16.9621 80.4462 15.9518V10.4746H76.9894V15.9518C76.9894 17.281 77.2556 18.6109 77.7879 19.94C78.3186 21.2156 79.1162 22.2794 80.1273 23.2361C81.0848 24.1936 82.1477 24.9385 83.3714 25.4692C84.647 26.0015 85.9753 26.2676 87.3588 26.2676C88.795 26.2676 90.1242 26.0015 91.4525 25.4692C92.6761 24.9385 93.7391 24.1936 94.7485 23.2361C95.706 22.2786 96.3966 21.2156 96.9297 19.94C97.462 18.6109 97.7265 17.281 97.7265 15.9518V12.6022H94.3777ZM65.8233 10.3691H61.25L61.3027 13.8251H65.8224C66.8327 13.8251 67.6831 14.0376 68.4807 14.3565C69.2784 14.7282 70.076 15.2605 70.8201 15.8983C71.4184 16.508 71.8885 17.2315 72.2028 18.0259C72.5752 18.8762 72.7343 19.7802 72.7343 20.7369C72.7343 21.8007 72.4681 22.8636 72.0429 23.8747C71.6177 24.7259 70.8728 25.5227 70.0752 26.2676H74.5949C75.6587 24.5652 76.1902 22.7046 76.1902 20.7369C76.1902 19.3542 75.924 18.0259 75.3925 16.6959C74.861 15.5266 74.1697 14.4628 73.2122 13.5053C72.202 12.4951 71.0854 11.8038 69.809 11.2723C68.5886 10.7408 67.2587 10.4754 65.8233 10.3691Z" fill="#D35B3E"/>
<path fill-rule="evenodd" clip-rule="evenodd" d="M72.8416 9.30472H61.2502L59.9738 9.57087L59.1234 10.2087L58.4857 11.1662L58.2195 12.3354C58.2195 12.7606 58.3258 13.1331 58.4857 13.5055L59.1234 14.3559L59.9738 15.1L61.2502 15.2599H65.7699L67.8967 15.685L69.6518 16.8551C70.077 17.2803 70.4495 17.7591 70.7156 18.2906L70.8755 18.6103C71.1416 19.2481 71.2471 19.9394 71.2471 20.737C71.2471 21.4819 71.1408 22.1733 70.8755 22.8638C70.6093 23.5024 70.1841 24.141 69.7589 24.6725C69.2275 25.0969 68.5897 25.5237 67.9511 25.7899C67.366 26.0544 66.6211 26.2686 65.9306 26.2686H65.2384C64.4408 26.2686 63.6967 26.0544 63.0045 25.7899L62.3132 25.4693C61.4093 24.8324 60.7715 24.141 60.3455 23.2363H58.6439C59.1337 24.4116 59.8997 25.4515 60.877 26.2678H56.3573C55.2935 24.5654 54.762 22.8111 54.762 20.737V19.7796H63.11L63.1628 20.737C63.11 21.3756 63.2691 21.8008 63.6951 22.2788L64.4392 22.7048L65.2368 22.863L65.7683 22.8111C66.3533 22.8111 66.8321 22.5985 67.2573 22.2788C67.6825 21.8 67.8951 21.3756 67.8951 20.737L67.6825 19.9402L67.2573 19.3552C66.8321 18.8772 66.3533 18.7174 65.7683 18.7174H61.2486L59.0155 18.2922L58.7494 18.1859L58.3769 18.0268C57.7919 17.7607 57.2612 17.2819 56.7289 16.7505C56.0911 16.1654 55.6659 15.5276 55.2935 14.73C54.9218 13.9332 54.762 13.1347 54.762 12.2308C54.754 11.386 54.9356 10.5503 55.2935 9.78509C55.5636 9.13659 55.9215 8.52828 56.3573 7.97721L56.7289 7.65831L58.3769 6.48822L58.9092 6.22207L61.2486 5.79688H72.8416V9.30472ZM146.859 13.9307V26.2678H143.455V10.4748H151.804V26.2678H148.347V13.9307H146.859Z" fill="#E5A76D"/>
<path fill-rule="evenodd" clip-rule="evenodd" d="M143.456 5.84961H151.804V9.25249H143.456V5.84961Z" fill="#D35B3E"/>
<path fill-rule="evenodd" clip-rule="evenodd" d="M85.4979 3.03072L86.2947 3.18976C86.6671 3.29606 86.9317 3.45591 87.0915 3.72125L87.6238 4.51889L87.8364 5.52913L87.6238 6.48662L87.0915 7.28427L86.2947 7.81576L85.338 8.08191L84.3805 7.81576C84.0807 7.6962 83.8092 7.51515 83.5837 7.28427L82.9451 6.48662L82.8388 5.52913L82.9451 4.51889L83.5837 3.72125L86.2411 1.06298L85.338 0.105485L82.5726 2.87086C82.2537 3.18976 81.9876 3.6685 81.7758 4.0937L81.5097 5.52913C81.5097 6.06143 81.616 6.48662 81.7758 6.91182C81.9884 7.44331 82.2546 7.92206 82.5726 8.24095C83.0514 8.61259 83.4774 8.87874 83.9026 9.03859L85.3388 9.30475C85.7632 9.30475 86.2963 9.252 86.7751 9.03859L87.9971 8.24095C88.4231 7.92124 88.6901 7.44331 88.9018 6.91182C89.0601 6.48662 89.168 6.06143 89.168 5.52913C89.168 5.05038 89.0601 4.51889 88.9018 4.0937L87.9971 2.87086C87.6263 2.39212 87.2003 2.12677 86.5625 1.96692L85.4979 3.03072ZM94.2703 0.105485C94.9089 0.105485 95.5475 0.211782 96.1326 0.477934L97.5688 1.43543C97.9932 1.86062 98.2601 2.39211 98.5263 2.92441C98.7908 3.5622 99.005 4.0937 99.005 4.7323C99.005 5.31735 98.7908 5.95514 98.5263 6.48744C98.2601 7.12523 97.994 7.55123 97.5688 7.97642L96.1326 8.98666C95.5475 9.25281 94.9089 9.30637 94.2703 9.30637C93.6853 9.30637 93.1546 9.25362 92.516 8.98666C91.9853 8.72051 91.5585 8.45517 91.0797 7.97642C90.6554 7.55123 90.3884 7.12523 90.1239 6.48744C89.8577 5.95595 89.7514 5.31735 89.7514 4.7323C89.7514 4.09451 89.8577 3.56302 90.1239 2.92441L91.0797 1.43543L92.516 0.477934C93.1546 0.212594 93.6853 0.105485 94.2703 0.105485ZM94.2703 1.43543L95.6003 1.70158L96.664 2.33937L97.4089 3.45591C97.5688 3.93466 97.6751 4.25355 97.6751 4.7323C97.6751 5.15749 97.5688 5.58268 97.4089 6.06224C97.1964 6.48744 96.9302 6.85907 96.664 7.12522L95.6003 7.81657C95.1759 7.97642 94.7491 8.08272 94.2703 8.08272L93.0483 7.81657C92.6497 7.66255 92.2876 7.42694 91.9854 7.12483C91.6831 6.82273 91.4473 6.4608 91.2931 6.06224C91.0789 5.5835 91.027 5.1583 91.027 4.7323L91.2931 3.45591L91.9845 2.33937C92.2506 2.07322 92.6215 1.80788 93.0483 1.70158L94.2703 1.43543ZM76.8301 0L78.16 0L79.1159 0.212597L80.0207 0.797644L80.5513 1.59528L80.7112 2.60552C80.7112 3.03071 80.6576 3.40316 80.4451 3.72206L79.86 4.626L80.4451 5.52994C80.6576 5.84884 80.7112 6.22129 80.7112 6.64648L80.5513 7.71027L80.0207 8.50791L79.2222 9.0394L78.2663 9.30556H76.7246V8.08191H78.1609C78.5317 8.08191 78.8522 7.92205 79.1167 7.65671C79.3829 7.39056 79.4892 7.12442 79.4892 6.64648C79.4892 6.32677 79.3829 5.95514 79.1167 5.68898C78.8522 5.42283 78.586 5.31653 78.1609 5.31653H76.9372V3.9874H78.1609C78.5317 3.9874 78.7978 3.82836 79.064 3.56221C79.3301 3.29606 79.4884 2.92442 79.4884 2.60471C79.4884 2.23226 79.3301 1.96611 79.064 1.70077C78.7978 1.43462 78.5317 1.27558 78.1609 1.27558H76.8309L76.8301 0Z" fill="#72A4D0"/>
<path fill-rule="evenodd" clip-rule="evenodd" d="M127.185 24.9375H128.567C129.098 24.9894 129.631 25.202 130.109 25.4682C130.533 25.7343 130.96 26.0005 131.332 26.3194L132.288 27.6493C132.554 28.1281 132.661 28.6587 132.767 29.191C132.821 29.6857 132.821 30.1846 132.767 30.6792C132.661 31.2115 132.554 31.743 132.288 32.169C132.554 32.6478 132.661 33.1784 132.767 33.7108C132.821 34.2054 132.821 34.7043 132.767 35.1989C132.661 35.7312 132.554 36.2627 132.288 36.6887C132.018 37.1643 131.697 37.6096 131.332 38.017C130.96 38.3895 130.534 38.6557 130.109 38.9218C129.63 39.1863 129.098 39.3462 128.567 39.4525H127.185L125.643 39.08L124.26 39.4525H122.718C122.188 39.3462 121.761 39.1863 121.336 38.9218L120.006 38.017C119.634 37.5927 119.369 37.1658 119.103 36.6887C118.837 36.2627 118.677 35.7312 118.571 35.1989C118.465 34.7745 118.465 34.2414 118.571 33.7108L119.103 32.169C118.837 31.743 118.677 31.2115 118.571 30.6792C118.465 30.2548 118.465 29.7217 118.571 29.191L119.103 27.6493L120.006 26.3194L121.336 25.4682C121.761 25.202 122.188 24.9894 122.718 24.9375H124.26L125.643 25.3619L127.185 24.9375Z" fill="#E4ABC3"/>
<path fill-rule="evenodd" clip-rule="evenodd" d="M124.314 27.5956L124.047 28.1807L122.293 35.891C122.189 36.1444 122.135 36.4155 122.133 36.6894C122.133 36.9539 122.187 37.1665 122.399 37.3264C122.559 37.4327 122.824 37.4862 123.091 37.4862C123.358 37.4862 123.623 37.4327 123.729 37.3264C123.888 37.2201 123.994 36.9539 124.048 36.6351L124.421 34.7744H126.814L127.078 36.2626C127.186 36.6886 127.344 37.0594 127.504 37.2201L127.77 37.4862H128.249C128.514 37.4862 128.78 37.4327 128.94 37.3264C129.099 37.1665 129.205 36.902 129.205 36.6351L129.047 35.8382L127.238 28.1799L126.972 27.5948L126.707 27.1161L126.281 26.9579L125.644 26.8516L125.059 26.9579L124.581 27.1161L124.314 27.5956ZM124.792 33.2327L125.644 28.9791L126.44 33.2327H124.792Z" fill="#FFFEF4"/>
<path fill-rule="evenodd" clip-rule="evenodd" d="M136.224 25.4701C136.65 25.204 137.075 24.9914 137.607 24.9395H139.149L140.531 25.2583L142.073 24.9395H143.561L144.997 25.4701C145.423 25.7363 145.848 26.0024 146.221 26.3213C146.645 26.8001 146.912 27.2245 147.178 27.6513C147.444 28.13 147.551 28.6607 147.657 29.193V30.6812C147.551 31.2135 147.444 31.745 147.178 32.171C147.444 32.6497 147.551 33.1804 147.657 33.7127C147.709 34.2074 147.709 34.7062 147.657 35.2009C147.551 35.7332 147.444 36.2647 147.178 36.6907C146.912 37.1678 146.646 37.5938 146.221 38.019C145.848 38.3914 145.424 38.6576 144.997 38.9238L143.561 39.4544H142.073C141.54 39.3481 141.009 39.2962 140.531 39.0301C140.106 39.2962 139.573 39.3489 139.149 39.4544H137.607C137.075 39.3481 136.65 39.1883 136.224 38.9238L134.895 38.019C134.523 37.5946 134.257 37.1678 133.991 36.6907C133.724 36.2647 133.566 35.7332 133.46 35.2009V33.7127L133.991 32.171C133.724 31.745 133.566 31.2135 133.46 30.6812V29.193L133.991 27.6513L134.895 26.3213L136.224 25.4701Z" fill="#A5A4B8"/>
<path fill-rule="evenodd" clip-rule="evenodd" d="M137.553 27.9157V36.4228C137.553 36.6889 137.607 36.9535 137.819 37.166C138.086 37.3259 138.244 37.4322 138.511 37.4322C138.778 37.4322 138.935 37.3259 139.149 37.166C139.414 36.9535 139.468 36.6889 139.468 36.4228V32.6999H140.265C140.638 32.6999 140.904 32.8062 141.17 32.9661C141.328 33.1786 141.434 33.4448 141.434 33.7629L141.541 36.422C141.541 37.0589 141.861 37.4314 142.658 37.4314C142.924 37.4314 143.189 37.3251 143.403 37.2188C143.495 37.0954 143.55 36.9481 143.561 36.7944V35.996L143.455 35.1991V34.1353L143.403 33.3385L143.297 32.6999L142.871 32.2755C142.764 32.1157 142.498 32.0094 142.234 31.9031C142.658 31.7432 143.03 31.4787 143.189 31.1062C143.456 30.7857 143.562 30.255 143.562 29.6164C143.562 28.8196 143.404 28.1802 143.031 27.7558C142.605 27.2235 141.967 26.959 141.171 26.959H138.618C138.245 26.959 137.979 27.0653 137.821 27.2235C137.608 27.3834 137.553 27.6495 137.553 27.9157ZM139.468 28.3944H140.265C140.744 28.3944 141.062 28.4464 141.276 28.7133C141.434 28.9795 141.541 29.3519 141.541 29.8826C141.541 30.4133 141.434 30.7857 141.17 31.0519C140.884 31.234 140.551 31.3267 140.212 31.318H139.467L139.468 28.3944Z" fill="#FFFEF4"/>
<path fill-rule="evenodd" clip-rule="evenodd" d="M112.35 24.9392C112.858 24.8328 113.383 24.8328 113.891 24.9392L115.273 25.3635C115.752 25.6297 116.178 25.8958 116.549 26.321C116.975 26.6935 117.242 27.1179 117.506 27.651C117.773 28.1297 117.879 28.6604 117.932 29.0872C118.039 29.6134 118.039 30.1555 117.932 30.6817C117.879 31.214 117.773 31.7455 117.506 32.1715C117.773 32.6502 117.879 33.1809 117.932 33.6077C118.039 34.1339 118.039 34.676 117.932 35.2022C117.879 35.7345 117.773 36.266 117.506 36.692C117.242 37.1691 116.976 37.5951 116.549 37.9676C116.178 38.392 115.752 38.6589 115.273 38.9251C114.849 39.1896 114.316 39.2975 113.891 39.3495C113.359 39.4558 112.828 39.5621 112.35 39.4558C111.817 39.3495 111.286 39.2975 110.86 39.0314C110.435 39.2975 109.957 39.3503 109.425 39.4558C108.999 39.5621 108.468 39.4558 107.935 39.3495C107.511 39.2975 106.978 39.1896 106.499 38.9251C106.075 38.6589 105.648 38.3928 105.277 37.9676C104.851 37.5951 104.584 37.1691 104.32 36.692C104.054 36.266 103.947 35.7345 103.841 35.2022C103.787 34.6721 103.787 34.1379 103.841 33.6077L104.32 32.1715C104.054 31.7455 103.947 31.214 103.841 30.6817C103.787 30.1515 103.787 29.6174 103.841 29.0872L104.32 27.651C104.584 27.1187 104.85 26.6935 105.277 26.321C105.648 25.8966 106.074 25.6297 106.499 25.3635L107.935 24.9392C108.468 24.8329 108.999 24.8329 109.425 24.9392C109.915 24.9819 110.398 25.0891 110.86 25.258L112.35 24.9392Z" fill="#788CC0"/>
<path fill-rule="evenodd" clip-rule="evenodd" d="M108.096 27.2232C107.936 27.383 107.83 27.6492 107.83 28.0216V36.2626C107.83 36.635 107.936 36.9012 108.096 37.0594C108.203 37.2193 108.469 37.3256 108.84 37.3256H111.287C112.296 37.3256 112.881 36.9531 113.36 36.3681C113.786 35.7311 113.945 35.0381 113.945 34.135C113.945 33.4964 113.893 33.0712 113.681 32.6987C113.414 32.2744 113.095 32.0074 112.617 31.7412C112.881 31.6349 113.147 31.3688 113.414 31.0499C113.626 30.5712 113.68 30.1468 113.68 29.72C113.68 27.9129 112.881 27.0625 111.393 27.0625H108.84C108.469 27.0649 108.203 27.1169 108.096 27.2232ZM110.595 31.2122H109.691V28.4468H110.754C111.021 28.4468 111.287 28.5531 111.499 28.713C111.659 28.9791 111.766 29.3516 111.766 29.7768C111.765 30.7854 111.392 31.2122 110.595 31.2122ZM109.69 32.6476H110.859C111.285 32.6476 111.552 32.8058 111.764 33.072C111.922 33.3382 112.03 33.7106 112.03 34.1358C112.03 34.7744 111.922 35.1996 111.658 35.4657C111.498 35.7319 111.232 35.8382 110.859 35.8382H109.69V32.6476Z" fill="#FFFEF4"/>
</svg>
