<svg width="88" height="16" viewBox="0 0 88 16" fill="none" xmlns="http://www.w3.org/2000/svg">
<path d="M7.08155 2.13274C7.42863 1.32678 8.57137 1.32678 8.91845 2.13274L9.92819 4.47746C10.073 4.81363 10.3898 5.04385 10.7543 5.07765L13.2963 5.31342C14.17 5.39446 14.5232 6.48127 13.8639 7.06042L11.946 8.74529C11.671 8.98686 11.55 9.35937 11.6304 9.71644L12.1917 12.2069C12.3847 13.0629 11.4602 13.7346 10.7056 13.2866L8.51056 11.9832C8.19584 11.7963 7.80416 11.7963 7.48944 11.9832L5.29436 13.2866C4.53983 13.7346 3.61533 13.0629 3.80827 12.2069L4.36956 9.71644C4.45004 9.35937 4.329 8.98686 4.05402 8.74529L2.13609 7.06042C1.47683 6.48127 1.82995 5.39446 2.70372 5.31342L5.24571 5.07765C5.61016 5.04385 5.92704 4.81363 6.07181 4.47746L7.08155 2.13274Z" fill="#FFCC00"/>
<path d="M25.0815 2.13274C25.4286 1.32678 26.5714 1.32678 26.9185 2.13274L27.9282 4.47746C28.073 4.81363 28.3898 5.04385 28.7543 5.07765L31.2963 5.31342C32.17 5.39446 32.5232 6.48127 31.8639 7.06042L29.946 8.74529C29.671 8.98686 29.55 9.35937 29.6304 9.71644L30.1917 12.2069C30.3847 13.0629 29.4602 13.7346 28.7056 13.2866L26.5106 11.9832C26.1958 11.7963 25.8042 11.7963 25.4894 11.9832L23.2944 13.2866C22.5398 13.7346 21.6153 13.0629 21.8083 12.2069L22.3696 9.71644C22.45 9.35937 22.329 8.98686 22.054 8.74529L20.1361 7.06042C19.4768 6.48127 19.83 5.39446 20.7037 5.31342L23.2457 5.07765C23.6102 5.04385 23.927 4.81363 24.0718 4.47746L25.0815 2.13274Z" fill="#FFCC00"/>
<path d="M43.0815 2.13274C43.4286 1.32678 44.5714 1.32678 44.9185 2.13274L45.9282 4.47746C46.073 4.81363 46.3898 5.04385 46.7543 5.07765L49.2963 5.31342C50.17 5.39446 50.5232 6.48127 49.8639 7.06042L47.946 8.74529C47.671 8.98686 47.55 9.35937 47.6304 9.71644L48.1917 12.2069C48.3847 13.0629 47.4602 13.7346 46.7056 13.2866L44.5106 11.9832C44.1958 11.7963 43.8042 11.7963 43.4894 11.9832L41.2944 13.2866C40.5398 13.7346 39.6153 13.0629 39.8083 12.2069L40.3696 9.71644C40.45 9.35937 40.329 8.98686 40.054 8.74529L38.1361 7.06042C37.4768 6.48127 37.83 5.39446 38.7037 5.31342L41.2457 5.07765C41.6102 5.04385 41.927 4.81363 42.0718 4.47746L43.0815 2.13274Z" fill="#FFCC00"/>
<path d="M61.0815 2.13274C61.4286 1.32678 62.5714 1.32678 62.9185 2.13274L63.9282 4.47746C64.073 4.81363 64.3898 5.04385 64.7543 5.07765L67.2963 5.31342C68.17 5.39446 68.5232 6.48127 67.8639 7.06042L65.946 8.74529C65.671 8.98686 65.55 9.35937 65.6304 9.71644L66.1917 12.2069C66.3847 13.0629 65.4602 13.7346 64.7056 13.2866L62.5106 11.9832C62.1958 11.7963 61.8042 11.7963 61.4894 11.9832L59.2944 13.2866C58.5398 13.7346 57.6153 13.0629 57.8083 12.2069L58.3696 9.71644C58.45 9.35937 58.329 8.98686 58.054 8.74529L56.1361 7.06042C55.4768 6.48127 55.83 5.39446 56.7037 5.31342L59.2457 5.07765C59.6102 5.04385 59.927 4.81363 60.0718 4.47746L61.0815 2.13274Z" fill="#FFCC00"/>
<path d="M79.0815 2.13274C79.4286 1.32678 80.5714 1.32678 80.9185 2.13274L81.9282 4.47746C82.073 4.81363 82.3898 5.04385 82.7543 5.07765L85.2963 5.31342C86.17 5.39446 86.5232 6.48127 85.8639 7.06042L83.946 8.74529C83.671 8.98686 83.55 9.35937 83.6304 9.71644L84.1917 12.2069C84.3847 13.0629 83.4602 13.7346 82.7056 13.2866L80.5106 11.9832C80.1958 11.7963 79.8042 11.7963 79.4894 11.9832L77.2944 13.2866C76.5398 13.7346 75.6153 13.0629 75.8083 12.2069L76.3696 9.71644C76.45 9.35937 76.329 8.98686 76.054 8.74529L74.1361 7.06042C73.4768 6.48127 73.83 5.39446 74.7037 5.31342L77.2457 5.07765C77.6102 5.04385 77.927 4.81363 78.0718 4.47746L79.0815 2.13274Z" fill="white"/>
<path d="M79.0815 2.13274C79.4286 1.32678 80.5714 1.32678 80.9185 2.13274L81.9282 4.47746C82.073 4.81363 82.3898 5.04385 82.7543 5.07765L85.2963 5.31342C86.17 5.39446 86.5232 6.48127 85.8639 7.06042L83.946 8.74529C83.671 8.98686 83.55 9.35937 83.6304 9.71644L84.1917 12.2069C84.3847 13.0629 83.4602 13.7346 82.7056 13.2866L80.5106 11.9832C80.1958 11.7963 79.8042 11.7963 79.4894 11.9832L77.2944 13.2866C76.5398 13.7346 75.6153 13.0629 75.8083 12.2069L76.3696 9.71644C76.45 9.35937 76.329 8.98686 76.054 8.74529L74.1361 7.06042C73.4768 6.48127 73.83 5.39446 74.7037 5.31342L77.2457 5.07765C77.6102 5.04385 77.927 4.81363 78.0718 4.47746L79.0815 2.13274Z" fill="#CFCFCF"/>
</svg>
