<svg width="144" height="143" viewBox="0 0 144 143" fill="none" xmlns="http://www.w3.org/2000/svg">
<path fill-rule="evenodd" clip-rule="evenodd" d="M109.575 88.3577C109.575 95.0427 107.25 100.856 103.181 104.925C99.1118 108.994 93.2988 111.028 86.9045 111.028H55.2236C48.8293 111.028 43.0163 108.994 38.9472 104.925C34.5874 100.856 32.5528 95.0427 32.5528 88.3577V56.3862C32.5528 43.0163 41.563 33.7154 55.2236 33.7154H87.1951C93.8801 33.7154 99.4024 36.0407 103.472 40.1098C107.541 44.1789 109.575 49.7012 109.575 56.3862V88.3577ZM86.9041 40.6918H54.9325C50.2821 40.6918 46.213 42.145 43.5971 44.7609C40.9813 47.3767 39.528 51.4458 39.528 56.0963V88.0678C39.528 92.7182 40.9813 96.7873 43.8878 99.6938C46.7943 102.31 50.5728 103.763 55.2232 103.763H86.9041C91.5545 103.763 95.6236 102.31 98.2394 99.6938C101.146 97.078 102.599 93.0088 102.599 88.3584V56.3869C102.599 51.7365 101.146 47.958 98.5301 45.0515C95.6236 42.145 91.8451 40.6918 86.9041 40.6918Z" fill="white"/>
<path fill-rule="evenodd" clip-rule="evenodd" d="M51.1541 72.082C51.1541 82.8361 59.8736 91.8463 70.9183 91.8463C81.963 91.8463 90.9732 83.1267 90.9732 72.082C90.9732 61.0373 81.6723 52.3178 70.9183 52.3178C60.1642 52.3178 51.1541 61.0373 51.1541 72.082ZM70.9181 84.8693C77.981 84.8693 83.7067 79.1436 83.7067 72.0807C83.7067 65.0177 77.981 59.292 70.9181 59.292C63.8551 59.292 58.1295 65.0177 58.1295 72.0807C58.1295 79.1436 63.8551 84.8693 70.9181 84.8693Z" fill="white"/>
<path d="M86.9041 51.4458C86.9041 54.0617 88.9386 56.0963 91.5545 56.0963C94.1703 56.0963 96.2049 54.0617 96.2049 51.4458C96.2049 48.83 94.1703 46.7954 91.5545 46.7954C88.9386 46.7954 86.9041 48.83 86.9041 51.4458Z" fill="white"/>
</svg>
