<svg width="1144" height="559" viewBox="0 0 1144 559" fill="none" xmlns="http://www.w3.org/2000/svg">
<path d="M458.473 210.566L464.456 208.265L471.359 198.139V191.236L478.263 187.094L487.468 180.65L497.133 184.793L511.4 176.048L521.065 174.667L532.11 176.048L541.775 171.906L545.917 180.65L541.775 184.793L552.361 191.236H558.344L565.247 198.139L574.452 201.361L579.054 198.139V191.236H589.179L601.145 198.139H613.112H624.157L630.14 210.566L632.902 217.469L637.964 227.134L641.646 236.339V243.703L648.089 249.225L651.771 260.271L659.135 265.334L665.578 273.158L668.34 280.521L673.402 283.743L681.686 285.584L697.334 280.521V292.027L690.431 303.533L683.988 313.658L675.243 321.942L665.578 332.988L657.294 342.193L651.771 352.318L654.533 364.744L659.135 370.727V380.852V390.057L654.533 397.881L645.788 400.182L641.646 406.165L635.663 413.069L637.964 424.575L635.663 429.637L629.22 434.239L625.998 438.382V442.984L624.617 448.507L613.572 461.854L603.447 468.757L594.702 472.899L590.1 468.757L584.117 472.899H576.293L573.071 468.757V461.854L569.389 453.569L562.026 444.825V438.382L559.264 424.575L555.122 413.069L549.139 403.864V395.58L552.361 387.756L555.122 378.551V370.727V364.744L552.361 357.841L549.139 347.715L545.917 344.034L541.775 337.59V330.227V319.181V313.658L535.332 308.596H526.588L522.906 303.533L516.923 300.311L509.099 303.533L499.434 306.294H487.468L475.502 308.596L467.678 306.294L456.172 297.09L452.95 292.027L448.808 285.584L445.126 280.521L442.825 277.3V271.317L439.603 266.714L442.825 261.191V251.527V246.924V241.401V234.958L448.808 227.134L452.95 217.469L458.473 210.566Z" stroke="#E0DDDD" stroke-width="3" stroke-dasharray="2 2"/>
<path d="M688.59 384.074L679.845 393.739L671.101 398.801V410.767L666.959 419.512V428.716L671.101 433.779H679.845L684.908 428.716V419.512L690.891 404.784L693.652 393.739V384.074L690.891 379.471L688.59 384.074Z" stroke="#E0DDDD" stroke-width="3" stroke-dasharray="2 2"/>
<path d="M1013.98 507.417L1017.2 499.593H1024.56L1028.24 502.354L1024.56 507.417L1017.2 510.178L1013.98 507.417Z" stroke="#E0DDDD" stroke-width="3" stroke-dasharray="2 2"/>
<path d="M969.333 463.234L957.827 468.297H942.639L936.196 471.978L929.292 475.66L926.071 471.978V468.297L929.292 458.171V444.364V430.097L933.895 421.813L950.463 412.148H957.827L969.333 400.642L972.554 396.5L978.537 390.057L988.202 386.835L994.645 390.057L997.867 385.454L1003.85 381.312L1014.9 378.091C1024.84 376.618 1023.95 380.852 1022.26 383.153L1017.2 390.057L1022.26 393.739L1034.23 400.642L1042.51 390.057V383.153L1047.57 375.79L1049.87 383.153L1055.86 390.057V402.483L1060 408.006L1066.9 421.813L1073.81 430.097V438.381L1070.12 453.569L1063.22 463.234L1055.86 468.297L1049.87 479.802L1042.51 485.786H1035.61L1032.38 489.007L1027.78 491.769L1022.26 489.007H1014.9L1009.37 485.786V479.802L1007.07 475.66L1002.47 468.297L997.867 471.978L992.344 463.234L986.361 460.933H981.299L969.333 463.234Z" stroke="#E0DDDD" stroke-width="3" stroke-dasharray="2 2"/>
<path d="M1089.91 522.604H1079.79C1079.79 519.291 1083.47 515.087 1085.31 513.4L1096.82 507.417L1106.94 504.195L1115.69 498.212V504.195L1110.16 507.417L1106.94 513.4H1102.34L1096.82 518.922L1089.91 522.604Z" stroke="#E0DDDD" stroke-width="3" stroke-dasharray="2 2"/>
<path d="M1128.57 501.434H1122.59L1124.89 494.99V489.928L1131.34 487.166L1134.1 477.501L1136.86 484.405L1141 489.928L1134.1 494.99L1128.57 501.434Z" stroke="#E0DDDD" stroke-width="3" stroke-dasharray="2 2"/>
<path d="M300.612 554.821L288.186 547.917H279.442L267.476 542.855L261.493 533.19L253.669 522.144L256.89 518.002V512.019L253.669 506.036L247.225 497.752V489.468L244.924 467.376L241.702 447.586V429.177V412.148L232.498 401.563L220.992 394.199L213.628 384.074L206.264 372.108L199.821 356.92L194.759 354.619V344.034L199.821 339.891L194.759 333.908L199.821 324.243L206.264 314.118L209.486 309.516V303.073L206.264 292.027V288.805L209.486 292.027L213.628 288.805L218.23 283.283H223.293L227.895 277.3H232.498L234.799 285.584L232.498 292.027L227.895 285.584L238.021 279.601H244.924L249.066 283.283L256.43 285.584L265.174 283.283L270.697 285.584L281.283 298.47L285.885 303.073H293.249L303.834 306.294L308.436 314.118L311.658 321.022V326.545L317.181 329.766L322.243 333.908H328.687L331.908 336.21L338.352 339.891H348.017L355.841 344.034L364.585 349.096L369.648 351.397V356.92V364.744L362.284 376.71L355.841 384.074V394.199V408.466L348.017 421.813L341.573 424.114L331.908 429.177L325.005 435.62V442.063L322.243 454.49L314.419 467.376L308.436 472.899H302.914H297.851L300.612 477.962V485.325L294.629 489.468H288.186V497.752H279.442V502.814L283.124 506.036L279.442 514.32V518.002V522.144L283.124 527.667V533.19L279.442 538.713L283.124 542.855L279.442 554.821H285.885L291.408 557.122L300.612 554.821Z" stroke="#E0DDDD" stroke-width="3" stroke-dasharray="2 2"/>
<path d="M1070.58 362.903L1080.71 372.568L1077.49 375.79L1070.58 372.568L1062.76 365.664L1058.16 362.903H1053.1L1049.87 367.966L1040.67 365.664L1035.61 362.903H1031L1035.61 356L1031 351.857L1018.12 346.795L1011.21 344.494V339.891L1006.61 332.067H1018.12V335.749L1023.18 344.494L1027.78 339.891L1035.61 335.749L1043.89 339.891L1058.16 344.494L1067.82 351.857L1070.58 362.903Z" stroke="#E0DDDD" stroke-width="3" stroke-dasharray="2 2"/>
<path d="M940.338 310.897L931.133 317.8L921.928 322.402L923.769 332.988L928.372 340.352L940.338 344.954H949.543V340.352L956.446 330.687L959.207 327.005V320.561L956.446 315.039L959.207 307.215L956.446 302.612H949.543L940.338 310.897Z" stroke="#E0DDDD" stroke-width="3" stroke-dasharray="2 2"/>
<path d="M933.434 356L943.56 361.983L938.497 364.744L928.372 361.983H920.548H911.343L909.042 356H916.866H924.69H933.434Z" stroke="#E0DDDD" stroke-width="3" stroke-dasharray="2 2"/>
<path d="M909.502 341.732V348.636C909.502 354.159 903.059 353.392 899.837 352.318L893.394 345.414L887.411 332.528L878.206 319.181L870.382 311.817V305.374L885.57 311.817L890.172 319.181L899.837 326.084V330.687L909.502 341.732Z" stroke="#E0DDDD" stroke-width="3" stroke-dasharray="2 2"/>
<path d="M959.208 263.493L961.509 254.288C962.429 250.606 965.267 252.754 966.571 254.288V263.493L971.634 267.635L977.157 276.379L984.981 285.584L988.202 294.328V304.453H981.759L977.157 299.391L971.634 287.885L966.571 276.379L959.208 263.493Z" stroke="#E0DDDD" stroke-width="3" stroke-dasharray="2 2"/>
<path d="M891.553 315.499L887.411 303.073L879.587 291.107V276.839L885.11 282.362V288.345L887.411 293.408L891.553 298.47L899.377 303.073L902.599 310.897V321.942H899.377L891.553 315.499Z" stroke="#E0DDDD"/>
<path d="M851.973 242.782L847.831 234.958L833.564 237.259L830.342 246.464L822.978 251.526L809.171 264.413L806.87 271.777V286.044C805.766 294.881 799.66 293.408 796.745 291.567L788.461 274.998L778.336 251.526V240.021H772.353H765.909V232.657H759.006L751.182 221.611L746.119 225.753L733.233 221.611H721.727L714.823 216.088L698.715 214.247L691.351 205.503L686.289 201.361L683.067 205.503L688.59 211.946L691.351 221.611H698.715L703.778 228.055L712.062 221.611L716.664 225.753L726.329 232.657V240.021L718.965 251.526L709.3 256.129L698.715 262.112L688.59 267.635L680.766 274.998H671.101L666.499 267.635V259.35L661.436 251.526L652.692 242.782V234.958L638.885 218.85L634.742 207.804L629.68 211.946L624.157 196.759H632.441L634.742 185.713V175.588L626.919 178.349L616.793 175.588H605.748L599.765 163.622V159.48H594.242L588.719 163.622L591.48 170.065L588.719 175.588L582.276 172.366L584.577 167.764L576.753 163.622L573.531 151.656L565.247 146.593L553.281 138.309C548.126 133.522 549.599 138.769 550.98 141.991L556.963 148.894C561.719 152.423 570.494 159.48 567.548 159.48C564.603 159.48 564.787 166.537 565.247 170.065L556.963 159.48L544.076 148.894L537.633 144.292L526.127 148.894H519.684L515.542 156.258L505.877 163.622V172.366L494.371 175.588H483.786L475.501 170.065L478.723 148.894H497.593L501.735 144.292V134.627L494.371 126.343L505.877 124.042L515.542 118.519L528.428 108.394H533.491L537.633 104.252V95.5071L542.696 91.365V97.348L548.679 95.5071V89.0638L544.076 85.8422L537.633 89.0638L530.73 85.8422V73.8761L550.98 58.6884L565.247 48.103L576.753 41.6597H596.543L608.509 48.103L626.919 50.4041C632.81 55.1906 629.373 57.9213 626.919 58.6884H619.555L608.509 55.0065L619.555 64.2112H626.919L632.441 58.6884L638.885 55.0065L641.646 50.4041L649.47 55.0065L661.436 50.4041H677.084L693.192 48.103H703.317L697.795 41.6597L700.096 37.0574H709.761L716.204 41.6597L725.869 37.0574L733.233 32.455H743.358V27.3924L758.545 23.7106H768.21L773.273 20.0287H782.017L790.762 23.7106H803.648L806.87 27.3924L803.648 32.455L820.677 34.7562H824.359H832.643H840.467H855.195L871.763 41.6597H881.428H889.252L891.553 34.7562L906.741 37.0574L924.69 41.6597H940.338H950.923L962.889 48.103H985.441L989.583 45.3416H1000.63L1017.66 48.103L1032.85 52.7053L1042.51 56.3872H1053.1L1059.54 63.2907H1046.19L1039.29 58.6884L1032.85 63.2907L1042.51 67.893V72.9556L1032.85 79.8591H1023.18C1013.61 82.4364 1015.51 86.7626 1017.66 88.6036L1025.48 91.8252L1027.78 103.791V116.218H1023.18L1011.21 103.791L1003.39 91.8252L1007.07 76.6375L1003.39 72.9556L997.867 76.6375H991.884H985.441V84.4615H974.395H957.827L950.923 88.6036L946.321 99.6492L953.685 103.791H961.049L971.174 107.933H976.696L985.441 116.218L991.884 122.661V127.723L994.646 136.928L989.583 134.167L985.441 127.723L978.998 118.519H976.696L978.998 127.723V136.928L974.395 147.974H967.032L962.889 151.656L961.049 157.178V161.321L962.889 165.923L971.174 171.906L974.395 178.349L971.174 183.412H962.889L961.049 175.128L950.923 168.224L946.321 161.321C940.43 164.634 938.344 162.701 938.037 161.321L932.514 157.178L924.69 165.923L932.514 171.906H938.037L946.321 175.128L935.736 182.031L946.321 191.696L950.923 198.6L953.685 208.264L950.923 220.691L946.321 229.895L935.736 234.958L924.69 237.259L918.707 242.782L912.724 237.259L906.741 241.401L903.979 248.765L912.724 259.35L918.707 269.476V280.981L912.724 286.044L908.582 291.567H903.979V286.044L896.155 280.981L886.951 274.998H883.729V280.981L879.127 274.998L875.445 264.413L871.763 259.35L867.161 262.112H862.558V256.129L859.337 248.765L851.973 242.782Z" stroke="#E0DDDD" stroke-width="3" stroke-dasharray="2 2"/>
<path d="M982.219 194.918L979.918 188.474L981.299 184.332L985.441 180.19H990.964L997.407 176.048L1003.85 168.684L1001.09 162.701L996.026 153.036V147.053V140.15L1002.01 144.292L1010.29 147.053L1007.99 151.656H1002.01V158.559H1006.15L1010.29 165.003V170.065L1012.13 176.048V183.412H1003.85L998.788 188.474L993.265 187.554H989.123L985.441 185.713L983.14 187.554L986.821 191.696L985.441 197.219L982.219 194.918Z" stroke="#E0DDDD" stroke-width="3" stroke-dasharray="2 2"/>
<path d="M693.192 177.889L682.146 170.525V159.48L670.641 147.974V141.53L682.146 130.945L690.891 137.849L687.209 141.53H682.146V147.974L690.891 152.116H696.874L700.096 157.178L693.192 159.48L696.874 165.923L700.096 172.826L693.192 177.889Z" stroke="#E0DDDD" stroke-width="3" stroke-dasharray="2 2"/>
<path d="M621.856 154.877L611.27 158.559L604.827 149.355L607.589 141.07L616.793 133.707L621.856 141.07H629.22V133.707H637.964V141.07L645.788 146.133L653.152 154.877L645.788 158.559L634.282 154.877H621.856Z" stroke="#E0DDDD" stroke-width="3" stroke-dasharray="2 2"/>
<path d="M504.496 98.2685L512.32 109.774L515.542 112.536L512.32 116.678L501.274 119.9H492.53L495.291 112.536V109.774L501.274 103.331L495.291 98.2685V94.1264V89.524H501.274L504.496 98.2685Z" stroke="#E0DDDD" stroke-width="3" stroke-dasharray="2 2"/>
<path d="M479.183 104.712L486.547 101.49C492.438 98.9129 491.149 102.564 489.768 104.712L486.547 111.615L479.183 115.297V104.712Z" stroke="#E0DDDD" stroke-width="3" stroke-dasharray="2 2"/>
<path d="M446.967 63.2906L457.092 60.069H468.598L473.66 63.2906L463.535 69.2737H452.49L446.967 63.2906Z" stroke="#E0DDDD" stroke-width="3" stroke-dasharray="2 2"/>
<path d="M362.744 59.6088L367.346 52.245C373.606 49.6677 373.636 44.421 372.869 42.1199L367.346 31.9947L357.221 23.7105H349.397L341.573 20.4889V15.4263H357.221L367.346 10.3637L381.614 7.60232L404.165 10.3637L417.972 5.30115H444.666H463.535L474.581 10.3637L467.677 20.4889L463.535 28.3129L454.791 31.9947L447.887 36.1368L454.791 42.1199L447.887 45.8018L435.001 49.9439L425.796 52.245L417.972 55.4667L404.165 59.6088L391.279 66.5123L381.614 79.8591H372.869L362.744 72.4953V59.6088Z" stroke="#E0DDDD" stroke-width="3" stroke-dasharray="2 2"/>
<path d="M313.039 12.6649L304.294 20.4889L315.34 24.631L324.084 20.4889L335.13 16.807L355.38 12.6649L368.727 3L344.795 5.7614H328.687V12.6649H324.084H313.039Z" stroke="#E0DDDD" stroke-width="3" stroke-dasharray="2 2"/>
<path d="M291.408 32.9152H282.203L272.999 37.9777L282.203 43.5005H291.408H301.993L310.278 53.6257V56.8473H301.993L296.47 63.2906L301.993 70.1941L313.039 73.4158L319.942 66.9725V60.069H323.624C333.934 62.6463 333.749 58.9951 332.369 56.8473L326.846 49.4836L319.942 41.1994L313.039 37.9777H307.516L301.993 35.2163L291.408 32.9152Z" stroke="#E0DDDD" stroke-width="3" stroke-dasharray="3 3"/>
<path d="M193.378 29.6936L186.474 32.9152L178.19 36.1369L180.952 41.1995L186.474 36.1369H195.679L199.361 41.1995L193.378 48.5632H201.662H207.185H214.549L222.833 46.7223L232.498 45.3416V41.1995V36.1369H229.276H225.134L220.992 32.9152L216.39 36.1369L210.407 32.9152L201.662 29.6936H193.378Z" stroke="#E0DDDD" stroke-width="3" stroke-dasharray="2 2"/>
<path d="M323.624 122.201L332.369 127.723L323.624 130.485H314.88L310.738 127.723L314.88 124.502L323.624 116.678V122.201Z" stroke="#E0DDDD" stroke-width="3" stroke-dasharray="3 3"/>
<path d="M234.799 169.144L250.907 156.718L261.032 153.497L267.476 145.673L278.521 139.689H282.663V145.673H289.567L300.152 139.689L289.567 135.087L293.249 125.422H285.425L289.567 118.058H302.453H312.579L322.704 112.996L329.607 106.553L322.704 104.251L317.641 96.8877L314.88 81.2397L302.453 88.1432L297.851 81.2397V76.1772L282.663 71.5748L274.839 76.1772L270.237 85.8421V92.2854L261.032 100.57L253.208 104.251V110.234L246.305 115.757L241.702 110.234L244.464 99.1889L234.799 96.8877L228.816 92.2854L219.611 85.8421L225.594 76.1772L238.021 71.5748L246.305 66.9725L256.89 63.7508L263.333 60.069L274.839 63.7508L272.078 69.7339L261.032 66.9725L267.476 56.3871H278.521L285.425 51.3245V46.2619H278.521L267.476 51.3245L263.333 46.2619L261.032 38.8982L253.208 42.1198V46.2619L246.305 51.3245V46.2619H241.702V51.3245H234.799L225.594 53.6257L219.611 51.3245L208.566 53.6257V56.3871L196.139 53.6257L183.253 46.2619H168.525H156.559L137.69 51.3245L124.803 46.2619L93.0468 42.1198H79.7L61.7509 46.2619L55.7679 49.0233C52.853 49.0233 47.5757 50.4961 49.7848 56.3871L42.4211 60.069H33.2164C32.2959 61.4497 31.6516 64.7634 36.438 66.9725L29.5345 71.5748H21.2503L17.1082 78.9386L11.1252 81.2397L17.1082 85.8421L1 99.1889L29.5345 88.1432L45.1825 81.2397H49.7848L64.5123 76.1772L77.3989 81.2397L87.0638 88.1432L91.6661 94.1263C90.132 99.6491 87.0638 112.167 87.0638 118.058C95.348 118.058 100.871 126.803 96.2685 128.644C92.5866 130.117 83.6887 140.61 79.7 145.673L69.1147 159.94L72.3363 183.872L79.7 193.997V202.742L82.9217 215.628L87.0638 225.293L91.6661 230.816V215.628L87.0638 206.884V199.98H91.6661V210.566L99.0299 222.071L107.774 235.878V246.464L128.025 259.35H146.434L153.337 267.635L165.304 272.237H169.906L174.048 280.061L182.332 290.646L193.838 296.629L202.583 290.646H193.838L184.633 280.061V262.572H174.048L169.906 259.35L174.048 244.163C175.736 241.708 176.809 237.535 167.605 240.481L161.161 249.225L150.576 252.907L143.212 246.464L138.15 235.878L143.212 218.85L146.434 210.566L161.161 202.742L174.048 206.884L184.633 199.98L191.537 202.742L199.821 206.884V218.85L202.583 222.071L208.566 218.85V210.566L204.884 199.98L213.628 193.997L220.992 188.014L232.498 183.872V173.747L234.799 169.144Z" stroke="#E0DDDD" stroke-width="3" stroke-dasharray="2 2"/>
<path d="M238.021 252.447H225.134L228.816 245.083H233.418L246.305 247.845L238.021 252.447Z" stroke="#E0DDDD" stroke-width="3" stroke-dasharray="2 2"/>
<path d="M206.264 231.736H191.077L195.219 234.958L203.043 239.1L209.946 244.163L224.214 241.861L219.611 239.1L206.264 231.736Z" stroke="#E0DDDD" stroke-width="3" stroke-dasharray="2 2"/>
<path d="M199.821 135.087H212.708L204.424 141.991L199.821 152.116L202.122 156.258L207.645 152.116L212.708 139.69H220.992V147.053L230.657 141.991V135.087H225.594L220.992 132.326L216.39 127.263H204.424L199.821 135.087Z" stroke="#E0DDDD" stroke-width="3" stroke-dasharray="2 2"/>
<path d="M280.362 26.4719L302.914 30.614L307.976 26.4719H294.629L286.345 22.3298L280.362 26.4719Z" stroke="#E0DDDD" stroke-width="3" stroke-dasharray="2 2"/>
<path d="M305.215 8.52283L301.993 14.9661H295.55L289.107 12.6649L295.55 8.52283H305.215Z" stroke="#E0DDDD" stroke-width="3" stroke-dasharray="2 2"/>
<path d="M559.264 98.7288L563.406 90.9048L566.168 85.382L568.469 81.2399L563.406 75.717V70.6545L573.071 67.4328L579.054 58.2281L585.497 63.2907L576.753 70.6545L579.054 78.9387H594.702L600.685 81.2399L594.702 85.382H585.497V90.9048H579.054V98.7288L573.071 102.871H568.469L559.264 106.093L554.662 102.871H544.997L550.98 98.7288H559.264Z" stroke="#E0DDDD" stroke-width="3" stroke-dasharray="2 2"/>
<path d="M959.208 341.272L963.35 330.687C961.141 327.373 964.27 324.09 966.111 322.863C966.111 320.654 978.077 321.942 984.06 322.863C984.06 330.227 975.469 327.772 971.174 325.624L967.952 328.846L969.333 333.448H976.236L971.174 337.59L973.935 344.034L971.174 347.255L967.952 341.272L966.111 344.034V352.318L959.208 350.937V341.272Z" stroke="#E0DDDD" stroke-width="3" stroke-dasharray="2 2"/>
<path d="M117 231.5C117.967 231.5 118.792 231.158 119.475 230.475C120.158 229.792 120.5 228.967 120.5 228C120.5 227.033 120.158 226.208 119.475 225.525C118.792 224.842 117.967 224.5 117 224.5C116.033 224.5 115.208 224.842 114.525 225.525C113.842 226.208 113.5 227.033 113.5 228C113.5 228.967 113.842 229.792 114.525 230.475C115.208 231.158 116.033 231.5 117 231.5ZM117.05 251.4C116.817 251.4 116.6 251.367 116.4 251.3C116.2 251.233 116.017 251.133 115.85 251C110.883 246.633 107.167 242.583 104.7 238.85C102.233 235.117 101 231.633 101 228.4C101 223.4 102.608 219.417 105.825 216.45C109.042 213.483 112.767 212 117 212C121.233 212 124.958 213.483 128.175 216.45C131.392 219.417 133 223.4 133 228.4C133 231.633 131.767 235.117 129.3 238.85C126.833 242.583 123.117 246.633 118.15 251C117.983 251.133 117.808 251.233 117.625 251.3C117.442 251.367 117.25 251.4 117.05 251.4Z" fill="#ED1C24"/>
<path d="M286 440.5C286.967 440.5 287.792 440.158 288.475 439.475C289.158 438.792 289.5 437.967 289.5 437C289.5 436.033 289.158 435.208 288.475 434.525C287.792 433.842 286.967 433.5 286 433.5C285.033 433.5 284.208 433.842 283.525 434.525C282.842 435.208 282.5 436.033 282.5 437C282.5 437.967 282.842 438.792 283.525 439.475C284.208 440.158 285.033 440.5 286 440.5ZM286.05 460.4C285.817 460.4 285.6 460.367 285.4 460.3C285.2 460.233 285.017 460.133 284.85 460C279.883 455.633 276.167 451.583 273.7 447.85C271.233 444.117 270 440.633 270 437.4C270 432.4 271.608 428.417 274.825 425.45C278.042 422.483 281.767 421 286 421C290.233 421 293.958 422.483 297.175 425.45C300.392 428.417 302 432.4 302 437.4C302 440.633 300.767 444.117 298.3 447.85C295.833 451.583 292.117 455.633 287.15 460C286.983 460.133 286.808 460.233 286.625 460.3C286.442 460.367 286.25 460.4 286.05 460.4Z" fill="#ED1C24"/>
<path d="M867 256.5C867.967 256.5 868.792 256.158 869.475 255.475C870.158 254.792 870.5 253.967 870.5 253C870.5 252.033 870.158 251.208 869.475 250.525C868.792 249.842 867.967 249.5 867 249.5C866.033 249.5 865.208 249.842 864.525 250.525C863.842 251.208 863.5 252.033 863.5 253C863.5 253.967 863.842 254.792 864.525 255.475C865.208 256.158 866.033 256.5 867 256.5ZM867.05 276.4C866.817 276.4 866.6 276.367 866.4 276.3C866.2 276.233 866.017 276.133 865.85 276C860.883 271.633 857.167 267.583 854.7 263.85C852.233 260.117 851 256.633 851 253.4C851 248.4 852.608 244.417 855.825 241.45C859.042 238.483 862.767 237 867 237C871.233 237 874.958 238.483 878.175 241.45C881.392 244.417 883 248.4 883 253.4C883 256.633 881.767 260.117 879.3 263.85C876.833 267.583 873.117 271.633 868.15 276C867.983 276.133 867.808 276.233 867.625 276.3C867.442 276.367 867.25 276.4 867.05 276.4Z" fill="#ED1C24"/>
<path d="M89 244C89 244 225.544 209.233 311.545 224C357.359 231.866 425 260 425 260" stroke="white" stroke-dasharray="2 5"/>
<path d="M645.07 286.664C645.07 286.664 808.307 340.413 892.628 406.296C937.547 441.392 995.534 507.641 995.534 507.641" stroke="white" stroke-dasharray="2 5"/>
<path d="M432 280.86C432 280.86 523.03 245.79 580.364 260.685C610.906 268.621 656 297 656 297" stroke="white" stroke-dasharray="2 5"/>
<path d="M274.534 432.428C274.534 432.428 315.861 344.062 367.519 315.071C395.038 299.627 447.215 288.839 447.215 288.839" stroke="white" stroke-dasharray="2 5"/>
<path d="M451.873 279.612C451.873 279.612 533.307 195.824 602.16 175.599C638.839 164.826 700.905 163.584 700.905 163.584" stroke="white" stroke-dasharray="2 5"/>
<path d="M608 249.86C608 249.86 699.03 214.79 756.364 229.685C786.906 237.621 832 266 832 266" stroke="white" stroke-dasharray="2 5"/>
<path d="M443 269.5C443.967 269.5 444.792 269.158 445.475 268.475C446.158 267.792 446.5 266.967 446.5 266C446.5 265.033 446.158 264.208 445.475 263.525C444.792 262.842 443.967 262.5 443 262.5C442.033 262.5 441.208 262.842 440.525 263.525C439.842 264.208 439.5 265.033 439.5 266C439.5 266.967 439.842 267.792 440.525 268.475C441.208 269.158 442.033 269.5 443 269.5ZM443.05 289.4C442.817 289.4 442.6 289.367 442.4 289.3C442.2 289.233 442.017 289.133 441.85 289C436.883 284.633 433.167 280.583 430.7 276.85C428.233 273.117 427 269.633 427 266.4C427 261.4 428.608 257.417 431.825 254.45C435.042 251.483 438.767 250 443 250C447.233 250 450.958 251.483 454.175 254.45C457.392 257.417 459 261.4 459 266.4C459 269.633 457.767 273.117 455.3 276.85C452.833 280.583 449.117 284.633 444.15 289C443.983 289.133 443.808 289.233 443.625 289.3C443.442 289.367 443.25 289.4 443.05 289.4Z" fill="#ED1C24"/>
<path d="M701 157.5C701.967 157.5 702.792 157.158 703.475 156.475C704.158 155.792 704.5 154.967 704.5 154C704.5 153.033 704.158 152.208 703.475 151.525C702.792 150.842 701.967 150.5 701 150.5C700.033 150.5 699.208 150.842 698.525 151.525C697.842 152.208 697.5 153.033 697.5 154C697.5 154.967 697.842 155.792 698.525 156.475C699.208 157.158 700.033 157.5 701 157.5ZM701.05 177.4C700.817 177.4 700.6 177.367 700.4 177.3C700.2 177.233 700.017 177.133 699.85 177C694.883 172.633 691.167 168.583 688.7 164.85C686.233 161.117 685 157.633 685 154.4C685 149.4 686.608 145.417 689.825 142.45C693.042 139.483 696.767 138 701 138C705.233 138 708.958 139.483 712.175 142.45C715.392 145.417 717 149.4 717 154.4C717 157.633 715.767 161.117 713.3 164.85C710.833 168.583 707.117 172.633 702.15 177C701.983 177.133 701.808 177.233 701.625 177.3C701.442 177.367 701.25 177.4 701.05 177.4Z" fill="#ED1C24"/>
<path d="M993 485.5C993.967 485.5 994.792 485.158 995.475 484.475C996.158 483.792 996.5 482.967 996.5 482C996.5 481.033 996.158 480.208 995.475 479.525C994.792 478.842 993.967 478.5 993 478.5C992.033 478.5 991.208 478.842 990.525 479.525C989.842 480.208 989.5 481.033 989.5 482C989.5 482.967 989.842 483.792 990.525 484.475C991.208 485.158 992.033 485.5 993 485.5ZM993.05 505.4C992.817 505.4 992.6 505.367 992.4 505.3C992.2 505.233 992.017 505.133 991.85 505C986.883 500.633 983.167 496.583 980.7 492.85C978.233 489.117 977 485.633 977 482.4C977 477.4 978.608 473.417 981.825 470.45C985.042 467.483 988.767 466 993 466C997.233 466 1000.96 467.483 1004.17 470.45C1007.39 473.417 1009 477.4 1009 482.4C1009 485.633 1007.77 489.117 1005.3 492.85C1002.83 496.583 999.117 500.633 994.15 505C993.983 505.133 993.808 505.233 993.625 505.3C993.442 505.367 993.25 505.4 993.05 505.4Z" fill="#ED1C24"/>
<path d="M608 253.5C608.967 253.5 609.792 253.158 610.475 252.475C611.158 251.792 611.5 250.967 611.5 250C611.5 249.033 611.158 248.208 610.475 247.525C609.792 246.842 608.967 246.5 608 246.5C607.033 246.5 606.208 246.842 605.525 247.525C604.842 248.208 604.5 249.033 604.5 250C604.5 250.967 604.842 251.792 605.525 252.475C606.208 253.158 607.033 253.5 608 253.5ZM608.05 273.4C607.817 273.4 607.6 273.367 607.4 273.3C607.2 273.233 607.017 273.133 606.85 273C601.883 268.633 598.167 264.583 595.7 260.85C593.233 257.117 592 253.633 592 250.4C592 245.4 593.608 241.417 596.825 238.45C600.042 235.483 603.767 234 608 234C612.233 234 615.958 235.483 619.175 238.45C622.392 241.417 624 245.4 624 250.4C624 253.633 622.767 257.117 620.3 260.85C617.833 264.583 614.117 268.633 609.15 273C608.983 273.133 608.808 273.233 608.625 273.3C608.442 273.367 608.25 273.4 608.05 273.4Z" fill="#ED1C24"/>
</svg>
