<svg width="116" height="149" viewBox="0 0 116 149" fill="none" xmlns="http://www.w3.org/2000/svg">
<path d="M56.6642 143.224C56.439 143.882 56.2149 144.542 55.961 145.189C55.6997 145.856 55.5876 146.487 55.8677 147.205C56.4464 148.698 57.4296 149.026 58.5771 148.002C59.7172 146.985 60.3582 145.656 60.9493 144.264C62.5835 140.421 64.296 136.613 65.9849 132.793C66.3857 131.882 66.9358 131.018 67.2022 130.072C68.3708 125.939 70.3074 122.116 71.9914 118.199C73.7525 114.094 75.5111 109.998 77.0593 105.805C79.9829 97.8872 83.0558 90.0252 86.0067 82.117C87.5313 78.031 89.0684 73.9537 90.2682 69.742C91.5153 65.3636 92.9191 61.0038 95.1955 57.0037C95.4369 56.5768 95.5589 56.0827 95.7419 55.6222C96.7301 53.1342 97.6598 50.6214 98.7251 48.1658C99.8714 45.5223 101.172 42.9473 102.353 40.3174C103.98 36.6982 105.584 33.069 107.146 29.4211C109.142 24.7688 111.134 20.1128 113.035 15.4219C114.041 12.9402 114.902 10.3975 115.728 7.84858C116.168 6.487 116.006 5.10425 115.365 3.78125C114.228 1.43147 112.372 0.678495 109.965 1.60945C107.895 2.41096 106.479 3.90819 105.579 5.86593C104.583 8.03276 103.601 10.2195 102.83 12.4722C101.091 17.5489 99.5503 22.694 97.8091 27.7707C95.9062 33.3191 93.9024 38.8351 91.8725 44.3375C90.7013 47.5075 89.2961 50.5916 88.1673 53.7765C86.6091 58.1786 85.1927 62.6317 83.7515 67.0749C81.7875 73.1261 79.8572 79.1885 77.9119 85.2459C77.5484 86.3797 77.2074 87.521 76.8154 88.6449C75.3405 92.8703 73.8582 97.0907 72.3585 101.307C71.5296 103.638 70.6596 105.955 69.7361 108.474C67.7398 105.034 65.3664 102.294 62.6009 99.8661C60.9481 98.4149 59.3251 96.9451 57.2131 96.2033C55.1495 95.4765 53.0823 94.7596 50.9901 94.1236C45.55 92.4708 40.0477 92.1534 34.5005 93.5473C32.4519 94.0626 30.4096 93.7975 28.005 93.8224C28.6721 92.7185 29.1363 91.8696 29.6765 91.0718C32.4084 87.0394 35.134 83.0007 37.9132 79.0006C40.2394 75.6539 42.6265 72.3482 45.0061 69.0388C46.6303 66.7787 48.3018 64.5533 49.9285 62.2957C51.9597 59.4717 53.8352 56.5257 56.0108 53.82C59.2617 49.7738 62.0894 45.4439 64.8511 41.0754C67.4523 36.9608 69.8009 32.6881 72.2801 28.4963C72.8364 27.5554 73.4463 26.6432 74.0872 25.757C76.9436 21.8104 79.8111 17.8725 82.6923 13.9446C84.3576 11.6757 85.5437 9.16036 86.4796 6.53179C86.8767 5.41414 87.2724 4.06254 86.5306 3.06438C85.3109 1.42277 84.0576 -0.327143 81.4776 0.0524572C80.3077 0.225455 79.4527 0.471898 78.8254 1.58332C77.8646 3.28716 77.2908 5.27723 75.4787 6.4235C75.2024 6.59899 75.1788 7.13914 74.9846 7.48016C73.9031 9.37318 72.8401 11.2799 71.7026 13.1393C68.4878 18.3965 65.0527 23.5279 62.0695 28.9108C59.8989 32.8263 57.5528 36.5912 54.9815 40.2416C52.9802 43.083 51.0636 45.989 49.234 48.9449C47.2999 52.0676 45.5836 55.3247 43.6458 58.4449C41.4976 61.9011 38.9823 65.147 37.0208 68.7004C32.6473 76.6234 27.4151 84.0026 22.7391 91.7315C18.7838 98.2718 14.368 104.525 10.3741 111.051C7.78539 115.283 5.09335 119.453 2.61661 123.754C1.77651 125.212 1.11691 126.775 0.39505 128.3C0.227028 128.655 0.0963135 129.043 0.031601 129.428C-0.16629 130.6 0.57177 131.657 1.87984 132.137C2.70998 132.442 3.32353 132.172 4.05411 131.08C5.4381 129.014 6.7661 126.909 8.16751 124.855C9.44073 122.989 10.7799 121.17 12.3319 118.989C12.6393 120.336 12.9828 121.269 13.0388 122.221C13.1284 123.771 13.6412 125.123 14.4676 126.4C15.5977 128.146 16.7763 129.866 17.8069 131.669C19.3066 134.298 21.1884 136.528 23.6726 138.293C25.4797 139.575 27.333 140.687 29.5073 141.195C31.6392 141.692 33.7837 142.134 35.902 142.686C38.8653 143.46 41.8312 143.297 44.7634 142.679C45.8599 142.447 46.9016 142.411 47.9981 142.444C49.585 142.488 51.2017 142.549 52.7575 142.303C54.1912 142.075 55.564 141.453 57.4495 140.848C57.0911 141.933 56.8858 142.58 56.6642 143.224ZM61.1037 100.349C61.4559 100.42 61.7857 100.744 62.0645 101.019C64.4516 103.375 66.9483 105.644 68.2576 108.86C68.3982 109.207 68.7417 109.472 69.0703 109.874C68.9247 110.455 68.7591 111.11 68.5799 111.822C68.102 111.686 67.6826 111.567 67.181 111.423C66.8039 112.511 67.476 113.359 67.6427 114.282C67.7062 114.636 67.6291 115.031 67.5382 115.389C67.5059 115.519 67.247 115.594 66.9844 115.762C66.6247 113.792 66.2737 111.869 65.9227 109.949C66.3459 109.645 66.728 109.369 67.1088 109.095C67.0329 108.95 66.9582 108.805 66.8811 108.659C66.4766 108.71 66.0721 108.762 65.6664 108.813C64.0509 106.095 64.0509 106.095 64.2799 104.556C61.8977 104.754 60.6917 103.027 59.3861 101.488C59.2928 101.377 59.5517 100.966 59.6463 100.695C59.0924 100.693 58.4353 100.882 58.0059 100.65C57.0003 100.109 56.1054 99.3658 54.9293 98.5394C55.6026 98.1162 56.0867 97.5549 56.4825 97.6109C57.8453 97.8038 59.0837 98.3863 59.823 99.6483C59.9338 99.8375 59.7632 100.191 59.7247 100.47C60.1864 100.417 60.6693 100.263 61.1037 100.349ZM63.324 30.6246L63.2518 30.708C64.1965 27.6363 65.9986 24.9978 67.5805 22.2559C68.6198 20.455 69.8494 18.7649 71.0616 16.9229C73.2247 16.6889 75.2808 16.9814 77.0145 18.679C76.951 19.829 76.2229 20.5932 75.6181 21.2976C73.1413 24.1888 71.4649 27.5815 69.476 30.7789C66.0671 36.2626 62.693 41.7699 59.1559 47.1714C57.1471 50.2393 54.8297 53.1069 52.6765 56.0814C51.2229 58.0902 49.8277 60.1425 48.3753 62.1538C46.6901 64.4874 44.9315 66.7675 43.2774 69.1223C40.4248 73.1896 37.6419 77.303 34.8042 81.3827C32.4233 84.8066 29.9428 88.1633 27.6217 91.6282C25.1362 95.3408 22.7367 99.1131 20.3894 102.913C16.6319 108.991 13.004 115.15 9.21046 121.203C7.36846 124.142 5.27508 126.925 3.28497 129.771C3.07464 130.072 2.79089 130.323 2.57308 130.564C1.50522 130.202 1.56618 129.434 1.82879 128.803C2.58923 126.973 3.30739 125.096 4.31675 123.403C7.31746 118.376 10.4177 113.407 13.5429 108.454C16.4042 103.916 19.3638 99.4405 22.2488 94.9176C24.28 91.7365 26.2589 88.5229 28.2589 85.3231C28.6273 84.7319 28.9186 84.0797 29.3629 83.552C31.9429 80.4841 33.5746 76.8263 35.6929 73.4708C37.0706 71.2866 38.4745 69.121 39.8436 66.9305C42.3153 62.9715 44.8481 59.0486 47.2116 55.026C50.4873 49.4515 53.8963 43.9766 57.9561 38.931C58.0208 38.7754 58.1179 38.646 58.2473 38.5402C59.645 35.715 61.2928 33.0478 63.324 30.6246ZM64.1791 109.914C65.105 112.69 65.5581 115.425 65.0963 118.299C65.0216 118.757 64.7205 119.178 64.5238 119.617L64.5761 119.541C64.9009 121.006 64.4504 122.236 63.5742 123.424C62.642 124.688 61.375 125.077 59.9375 125.063C58.368 125.048 57.3288 124.041 57.2716 122.46C57.2392 121.578 57.4122 120.687 57.4993 119.799C57.5429 119.359 57.6002 118.92 57.7047 118.021C56.4365 120.124 55.9249 122.055 56.1365 123.422C56.358 124.859 57.2044 125.766 58.5946 126.091C59.5504 126.314 60.5386 126.396 61.7384 126.575C61.3513 127.383 61.0551 128.091 60.6855 128.757C59.5317 130.839 58.3208 132.889 57.1869 134.981C56.2174 136.772 54.6617 137.851 52.7786 138.228C49.5688 138.872 46.3167 139.342 43.0621 139.724C41.9108 139.859 40.6924 139.593 39.5262 139.386C36.7943 138.9 34.0662 138.377 31.3555 137.788C30.6 137.622 29.8806 137.214 29.1924 136.832C27.8918 136.109 26.6571 135.262 25.3366 134.577C23.3341 133.535 21.8568 131.97 20.6358 130.126C19.8679 128.967 19.207 127.728 18.3532 126.636C17.3588 125.36 17.0377 124.012 17.3862 122.397C17.7757 122.397 18.1491 122.397 18.642 122.397C18.642 121.054 18.642 119.724 18.642 118.121C18.52 118.03 18.1416 117.745 17.7396 117.443C17.5343 116.111 18.0259 114.868 18.6295 113.768C19.7733 111.685 21.0951 109.696 22.4007 107.705C23.2134 106.465 24.1132 105.331 24.504 103.813C24.7591 102.823 25.537 101.93 26.2029 101.092C28.8576 97.7478 32.5079 96.8231 36.5603 96.9836C40.329 97.133 44.0988 97.3023 47.865 97.5076C48.5458 97.5437 49.2663 97.6931 49.8787 97.9806C51.9435 98.9514 54.002 99.947 55.9884 101.065C56.6319 101.426 57.0463 102.19 57.5653 102.77L57.6674 102.823C60.9157 104.201 63.039 106.495 64.1791 109.914ZM95.5042 48.528C96.2708 46.9872 96.2248 46.2902 95.1395 44.7196C94.6068 44.8303 94.0517 44.9473 93.4991 45.0618C93.4369 44.8229 93.3025 44.6051 93.3572 44.4594C93.8128 43.2572 94.3031 42.0673 94.7674 40.9123C95.5701 40.4867 95.4855 41.3368 95.8228 41.5496C97.0474 42.325 98.1228 42.1345 98.9156 41.0045C99.9075 39.5906 100.017 38.1021 99.4482 36.6024C97.6685 35.8058 97.0947 37.4499 96.0318 38.0349C96.1725 36.1991 96.9217 34.1256 98.0593 32.4131C98.7264 32.255 98.7027 32.9968 99.0674 33.232C99.8453 33.7323 100.738 33.7883 101.249 33.2494C102.217 32.2301 103 31.0876 103.148 29.6289C103.234 28.7888 102.512 27.9972 101.67 28.2038C100.745 28.4316 99.8826 28.9145 99.0139 29.2792C99.4146 26.1316 100.927 23.1309 101.914 19.9759C102.413 18.379 103.913 17.7891 105.531 18.328C106.911 18.7885 107.958 19.6523 108.775 21.1645C108.371 22.307 107.982 23.635 107.44 24.8982C104.809 31.0154 102.124 37.1126 99.4781 43.2248C97.5826 47.6045 95.7157 51.9979 93.8364 56.3839C92.7026 59.0323 91.5102 61.6584 90.4573 64.3405C89.8786 65.8166 89.5786 67.3972 89.0783 68.9057C87.7603 72.866 86.5033 76.8511 85.0346 80.7554C82.7272 86.8937 80.2442 92.9661 77.8832 99.0845C77.1676 100.936 76.6897 102.882 75.9591 104.726C74.0188 109.622 71.9976 114.486 70.0174 119.366C68.5612 122.956 67.1225 126.553 65.6638 130.142C65.3651 130.876 65.0129 131.59 64.6893 132.314C63.1087 135.853 61.5355 139.394 59.945 142.929C59.4981 143.926 59.0302 144.917 58.5161 145.88C58.3631 146.166 58.0196 146.352 57.3462 146.961C57.5404 145.953 57.5852 145.485 57.7234 145.044C58.8236 141.536 59.8703 138.009 61.085 134.54C61.6401 132.957 62.586 131.515 63.2705 129.972C64.1517 127.98 64.9482 125.95 65.7821 123.938C66.087 123.203 66.3919 122.469 66.7093 121.74C68.331 118.007 70.0162 114.301 70.7443 110.247C70.9347 109.183 71.4026 108.164 71.7723 107.135C72.3709 105.462 73.0132 103.803 73.6043 102.126C75.4874 96.7957 77.3742 91.4664 79.2187 86.1209C79.9306 84.0561 80.5156 81.9478 81.1864 79.8693C82.131 76.942 83.1006 74.0234 84.0601 71.0999C84.1224 70.912 84.1274 70.673 84.2481 70.5386C85.9731 68.6132 86.5394 66.1502 87.255 63.7967C88.349 60.1998 89.6869 56.6676 90.2582 52.9202C90.3752 52.151 90.7486 51.4217 91.0784 50.4534C93.1618 50.8056 94.6242 50.2953 95.5042 48.528ZM106.444 8.22943C107.078 6.12233 107.955 4.4297 109.674 3.27347C110.704 2.58024 111.826 2.14711 112.969 2.90756C114.209 3.73023 114.863 4.97357 114.57 6.45837C114.326 7.68927 113.811 8.86789 113.293 10.4435C111.083 8.74717 108.828 8.55551 106.444 8.22943ZM80.762 2.2616C81.3308 1.66171 82.3563 1.5522 82.9437 2.09235C83.7378 2.82417 84.436 3.67298 85.0869 4.53922C85.2873 4.80681 85.3109 5.32329 85.2164 5.67302C84.9413 6.71101 84.6289 7.75773 83.6532 8.59409C81.9568 7.74279 80.2878 6.90643 78.4246 5.97174C78.8378 4.27537 79.8124 3.26598 80.762 2.2616ZM81.2946 12.6751C81.0432 13.9869 80.4956 15.0635 79.2162 15.7729C77.4924 14.7772 75.8023 13.8014 73.9366 12.7236C74.5465 11.6496 75.0692 10.7298 75.7251 9.57854C77.9007 10.517 79.8086 11.077 81.2946 12.6751ZM104.089 14.6527C104.072 12.7298 104.344 12.3216 105.753 12.2743C107.359 12.2208 108.891 12.5419 110.272 13.392C111.842 14.3578 111.874 14.8929 110.58 16.5097C108.393 15.8849 106.235 15.2676 104.089 14.6527ZM36.5305 140.068C38.5666 140.407 40.6227 140.619 42.6265 140.882C42.8692 141.432 42.6451 141.723 42.2182 141.831C40.4335 142.287 38.599 142.18 37.0072 141.388C35.8833 140.828 34.8366 140.59 33.6306 140.56C32.7594 140.538 31.8819 140.329 31.0319 140.104C30.7158 140.02 30.4743 139.653 30.1992 139.415C30.2951 139.228 30.3922 139.038 30.4892 138.852C32.503 139.262 34.5068 139.73 36.5305 140.068ZM48.364 95.4988C47.5202 96.4696 46.4785 95.6943 45.6023 95.871C44.3975 96.1112 44.008 94.8529 43.0521 94.3762C41.7938 95.1889 40.5057 96.5767 38.9263 94.431C42.7235 93.5959 46.4075 94.0228 48.364 95.4988ZM55.4458 139.226C56.9443 136.769 58.4315 134.655 59.996 132.573C60.2001 135.125 58.9281 137.107 57.8752 139.116C57.07 139.153 56.4153 139.181 55.4458 139.226ZM112.68 12.3515C112.428 12.4784 112.116 12.7634 111.956 12.695C109.921 11.8113 107.94 10.792 105.39 10.6103C108.179 9.0048 110.866 9.73038 112.68 12.3515ZM46.3777 140.92C47.1779 140.345 47.3758 140.09 47.5998 140.063C49.2527 139.856 50.9067 139.631 52.5683 139.554C53.2055 139.525 53.8601 139.864 54.8695 140.13C52.0443 141.676 49.5377 141.131 46.3777 140.92ZM77.2485 7.64572C79.1403 7.52748 80.6997 8.38126 82.1808 9.41427C82.65 9.7416 82.6612 10.1959 82.3227 11.3023C80.4857 10.3315 78.6723 9.37193 76.6648 8.31154C77.0021 7.91452 77.1178 7.65319 77.2485 7.64572ZM30.9622 95.0334C32.7992 94.8504 34.6524 94.8318 36.5504 94.7434C36.7371 95.3906 36.2617 95.6544 35.8273 95.6581C33.7239 95.6731 31.6977 96.1137 29.6653 96.5841C29.3193 96.6638 28.8675 96.2867 28.4145 96.0987C29.1252 95.0097 30.1246 95.1168 30.9622 95.0334ZM16.6208 112.7C17.136 114.372 16.4104 115.511 15.8977 116.902C15.35 116.622 14.8982 116.392 14.3867 116.13C14.8372 114.769 15.4359 113.735 16.6208 112.7ZM54.2497 97.1168C53.7345 97.3346 53.3723 97.6383 53.1184 97.5661C51.9323 97.2288 50.557 97.1143 49.8937 95.1665C51.6199 95.7938 53.0499 95.8225 54.2497 97.1168ZM13.9922 118.21C14.1204 118.739 14.1465 119.222 14.3556 119.603C14.5846 120.02 15.0165 120.32 15.2978 120.716C15.6811 121.256 15.3973 121.61 13.9922 122.096C13.9922 120.684 13.9922 119.508 13.9922 118.21ZM109.948 18.1625C110.067 18.2832 109.994 18.7686 109.843 18.9304C109.699 19.086 109.243 19.1694 109.086 19.0586C108.295 18.4911 107.557 17.8501 106.58 17.0585C108.165 16.7076 109.115 17.3162 109.948 18.1625ZM72.2751 14.6789C74.6324 14.3603 75.9678 15.285 77.1751 16.5358C75.6243 16.1438 74.0536 15.7978 72.2751 14.6789ZM26.2215 97.0185C26.3846 96.9351 26.7256 97.1977 27.2073 97.3894C26.5178 98.4013 26.0883 99.4454 24.6869 99.9669C24.5948 98.5132 25.1039 97.591 26.2215 97.0185ZM22.5151 102.561C22.8263 104.311 22.8263 104.311 21.4187 106.107C20.662 104.276 21.6427 103.559 22.5151 102.561ZM26.5576 138.559C25.6528 138.007 24.7293 137.571 25.4798 136.158C26.2651 136.645 26.9733 137.082 27.893 137.651C27.3006 138.054 26.9285 138.308 26.5576 138.559ZM17.6077 112.122C17.0265 111.298 17.0265 111.298 18.3171 109.431C19.0701 110.886 18.1989 111.425 17.6077 112.122ZM19.8828 106.796C19.95 106.716 20.2612 106.751 20.3844 106.838C20.52 106.933 20.6806 107.191 20.6383 107.308C20.3707 108.046 19.909 108.596 18.6955 108.337C19.085 107.819 19.4609 107.288 19.8828 106.796ZM100.79 30.1591C101 29.9289 101.391 29.8641 101.703 29.7247C101.703 30.0533 101.81 30.4342 101.676 30.6918C101.524 30.9855 101.157 31.1672 100.882 31.3962C100.734 31.3016 100.585 31.207 100.435 31.1125C100.546 30.7889 100.577 30.3931 100.79 30.1591ZM22.6184 134.465C22.7466 134.651 22.7641 134.915 22.83 135.145C22.5724 135.169 22.2488 135.295 22.0758 135.185C21.8754 135.058 21.7895 134.728 21.7036 134.471C21.6912 134.436 21.97 134.304 22.1144 134.218C22.2874 134.296 22.5263 134.33 22.6184 134.465ZM97.162 39.8768C97.4793 39.3616 97.7954 38.8476 98.2945 38.0349C98.4215 39.2035 98.2124 39.7785 97.162 39.8768Z" fill="black" fill-opacity="0.1"/>
</svg>
