<svg width="101" height="46" viewBox="0 0 101 46" fill="none" xmlns="http://www.w3.org/2000/svg">
<path d="M91.797 37.0113C93.691 39.0793 96.176 39.7713 98.909 40.1853C98.573 40.3383 98.247 40.6003 97.901 40.6273C95.718 40.8023 93.783 40.1033 92.153 38.6893C91.112 37.7863 90.148 36.7733 89.265 35.7133C88.206 34.4403 87.272 33.0623 86.274 31.7373C86.154 31.5773 85.972 31.4643 85.727 31.2483C85.117 32.0163 84.525 32.7603 83.902 33.5443C84.05 34.2213 84.247 34.8813 84.327 35.5553C84.391 36.1053 84.305 36.6493 83.766 37.0243C82.917 37.6173 82.107 38.2633 81.26 38.8583C80.923 39.0943 80.552 39.3133 80.163 39.4403C78.596 39.9513 77.016 40.4043 75.593 41.2963C75.232 41.5223 74.641 41.4873 74.178 41.4213C73.108 41.2663 72.116 41.4943 71.133 41.8573C69.331 42.5213 67.49 42.6673 65.629 42.1833C64.775 41.9613 63.982 42.0373 63.205 42.3953C62.087 42.9103 60.92 43.0033 59.755 42.6873C58.757 42.4153 57.828 42.5433 56.924 42.9443C55.892 43.4013 54.841 43.6543 53.702 43.5783C52.723 43.5133 51.823 43.7403 50.925 44.2233C49.158 45.1723 47.275 45.5713 45.338 44.6903C44.519 44.3173 43.719 44.4793 42.894 44.5823C41.001 44.8193 39.192 44.6803 37.534 43.5513C37.054 43.2243 36.375 43.1703 35.778 43.0383C34.7 42.8013 33.474 42.8473 32.562 42.3303C30.96 41.4213 29.327 40.8953 27.511 40.7923C26.491 40.7343 25.652 40.2153 25.004 39.4623C24.468 38.8393 23.836 38.6053 23.047 38.4613C22.174 38.3013 21.347 37.8983 20.5 37.6013C19.614 37.2903 18.946 36.7173 18.453 35.9243C18.115 35.3803 17.676 35.0063 17.024 34.8113C15.185 34.2613 13.611 33.3213 12.623 31.5803C12.424 31.2293 12.093 30.9533 11.814 30.6333C11.065 30.8593 10.734 31.4963 10.324 32.0293C9.14999 33.5573 7.648 34.3953 5.689 34.3443C5.344 34.3353 4.997 34.3783 4.653 34.4203C2.785 34.6493 1.244 34.0863 0 32.4603C0.239 32.1763 0.446002 31.8243 0.746002 31.5913C1.86 30.7283 2.743 29.6793 3.411 28.4463C4.531 26.3833 5.65499 24.3483 6.39799 22.0803C7.10199 19.9313 8.14 17.8703 9.78 16.1883C10.793 15.1493 11.675 13.9843 12.648 12.9063C15.135 10.1503 18.175 8.09932 21.332 6.21432C24.078 4.57432 27.149 3.67031 30.072 2.42731C32.035 1.59231 34.036 1.28732 36.129 1.24932C36.882 1.23532 37.681 1.20832 38.377 0.958317C40.032 0.364317 41.761 0.259315 43.469 0.0523147C44.489 -0.0706853 45.542 0.0553167 46.578 0.104317C47.751 0.160317 48.922 0.320315 50.094 0.322315C52.093 0.325315 54.092 0.226317 56.091 0.200317C56.641 0.193317 57.197 0.261317 57.74 0.354317C60.117 0.760317 62.523 0.838314 64.888 1.49731C71.521 3.34231 77.483 6.45031 82.911 10.6143C83.99 11.4413 84.911 12.5273 85.736 13.6213C87.193 15.5523 88.498 17.5973 89.912 19.5613C90.475 20.3443 91.089 21.1173 91.799 21.7633C93.87 23.6483 95.129 25.9383 95.606 28.6953C95.758 29.5763 96.058 30.4333 96.313 31.2953C96.588 32.2223 96.986 33.1243 97.158 34.0683C97.484 35.8523 98.236 37.3393 99.709 38.4343C99.815 38.5133 99.887 38.6423 99.961 38.7553C99.994 38.8073 99.994 38.8803 100.012 38.9513C99.817 39.4073 99.442 39.6423 99.047 39.3093C97.988 38.4163 96.967 37.4793 96.665 36.0153C96.512 35.2713 96.293 34.5393 96.065 33.8133C95.843 33.1083 95.771 32.3373 95.21 31.6043C94.179 32.3963 93.681 33.4313 93.267 34.5173C93.095 34.9683 92.968 35.4383 92.853 35.9083C92.704 36.5103 92.294 36.8403 91.753 37.0533C92.026 34.9903 92.539 33.0223 93.909 31.3693C94.212 31.0033 94.465 30.5813 94.663 30.1493C94.761 29.9373 94.681 29.6433 94.681 29.3313C93.567 29.8653 93.357 29.9473 92.928 30.7313C92.338 31.8083 91.84 32.9383 91.34 34.0623C91.092 34.6223 90.763 34.9863 90.108 34.9243C90.895 32.1753 91.8 29.5003 94.547 28.0073C93.916 25.8983 92.967 24.0833 91.413 22.6253C90.66 21.9193 89.871 21.2533 89.061 20.5363C88.28 21.0493 88.006 21.9463 87.524 22.6843C86.301 24.5563 85.965 26.6443 86.082 28.8293C86.103 29.2293 86.128 29.6913 86.332 30.0093C87.445 31.7523 88.496 33.5533 90.154 34.8703C90.703 35.5853 91.25 36.2983 91.797 37.0113ZM66.248 25.9833C66.78 26.1053 66.968 26.4083 66.624 26.8703C66.112 27.5573 65.393 27.9513 64.593 28.2453C62.31 29.0883 60.415 27.9913 58.479 27.0743C57.994 26.0013 57.046 26.1793 56.155 26.2223C54.708 26.2913 53.263 26.3773 51.816 26.4443C50.848 26.4893 49.879 26.5113 48.911 26.5483C48.367 26.5693 47.824 26.6003 47.242 26.6293C46.014 28.8363 44.088 28.9253 41.991 28.3953C41.393 28.2443 40.823 27.9713 40.256 27.7183C40.079 27.6393 39.898 27.4703 39.821 27.2973C39.753 27.1463 39.791 26.9173 39.855 26.7503C39.886 26.6683 40.109 26.5803 40.201 26.6153C40.652 26.7843 41.073 27.0443 41.532 27.1753C42.325 27.4013 43.131 27.6313 43.947 27.7183C44.702 27.7993 45.351 27.5003 45.783 26.5823C44.101 26.4423 42.594 26.2043 41.088 26.2183C39.123 26.2373 37.228 25.9493 35.367 25.3783C33.185 24.7093 31.024 23.9723 28.838 23.3163C26.882 22.7303 25.065 23.0883 23.358 24.1663C24.135 25.8353 25.731 25.0883 27.052 25.5873C26.775 25.9063 26.649 26.1873 26.448 26.2603C25.422 26.6343 24.429 26.5973 23.475 25.9653C22.914 25.5933 22.288 25.3203 21.735 25.0263C20.901 25.5233 20.118 25.8083 19.441 26.5743C19.911 26.8573 20.276 27.1593 20.696 27.3073C21.145 27.4663 21.65 27.4553 22.12 27.5643C22.466 27.6453 22.761 27.8243 22.659 28.2723C21.234 28.6823 20.691 28.5583 17.846 27.1233C16.468 28.3023 14.285 28.2093 12.871 29.9233C13.222 30.1943 13.502 30.5833 13.832 30.6323C14.644 30.7523 15.479 30.6953 16.302 30.7543C16.518 30.7693 16.724 30.9433 16.96 31.0573C16.424 32.0413 15.39 31.7173 14.683 32.2393C15.122 32.9893 15.854 33.2523 16.54 33.5273C17.303 33.8333 18.105 34.0423 18.756 34.2503C20.079 37.1013 22.48 37.4863 25.172 37.4293C25.828 39.4223 27.379 39.9833 29.258 39.9293C30.264 39.9013 31.153 40.0413 31.903 40.8353C32.487 41.4543 33.325 41.6843 34.163 41.7833C34.918 41.8723 35.68 41.9323 36.44 41.9533C37.012 41.9683 37.514 42.0683 37.976 42.4503C39.622 43.8123 41.536 43.8653 43.481 43.3963C44.208 43.2213 44.827 43.2183 45.471 43.5623C47.413 44.5983 49.223 44.1373 50.95 43.0263C51.198 42.8673 51.345 42.5523 51.51 42.3463C50.822 41.3253 49.358 41.3713 49.024 39.9853C49.361 39.9663 49.652 39.8673 49.863 39.9573C50.304 40.1443 50.693 40.4503 51.121 40.6743C52.239 41.2593 53.362 41.8123 54.658 41.1373C54.8 41.0633 55.045 41.1883 55.297 41.2303C55.25 41.5913 55.208 41.9103 55.154 42.3263C55.439 42.2993 55.766 42.3663 55.954 42.2353C57.325 41.2743 58.806 41.3263 60.331 41.6833C61.248 41.8973 62.14 41.7883 62.954 41.3493C63.996 40.7863 64.972 40.7253 66.105 41.1913C67.644 41.8223 69.372 41.7903 70.722 40.9303C71.784 40.2543 72.69 40.1503 73.802 40.3493C74.722 40.5143 75.599 40.4083 76.312 39.7053C76.835 39.1893 77.503 39.0933 78.196 38.9553C78.925 38.8083 79.779 38.6123 80.273 38.1273C80.934 37.4763 81.64 37.0183 82.461 36.6503C83.039 36.3923 83.225 35.8603 83.122 35.2633C83.065 34.9293 82.93 34.6013 82.782 34.2933C82.469 33.6393 82.593 33.0903 83.109 32.6063C83.31 32.4173 83.533 32.2463 83.712 32.0363C84.461 31.1543 84.401 30.0563 83.532 29.2903C83.224 29.0203 82.839 28.8363 82.477 28.6323C80.536 27.5333 78.425 26.8533 76.31 26.1943C75.193 25.8453 74.069 25.4333 72.918 25.2913C71.138 25.0723 69.332 24.9753 67.539 24.9843C65.746 24.9933 63.952 25.1593 62.165 25.3283C61.277 25.4123 60.404 25.6533 59.524 25.8283C59.46 25.8413 59.379 25.8773 59.35 25.9283C59.32 25.9803 59.343 26.0633 59.343 26.1283C62.021 28.0013 63.476 27.9713 66.248 25.9833ZM54.556 25.1603C55.951 25.3583 57.17 25.1043 58.399 24.9153C59.955 24.6773 61.46 24.1053 63.091 24.3103C63.581 24.3713 64.12 24.0463 64.668 23.8893C64.416 21.4523 64.128 19.1353 63.95 16.8103C63.77 14.4553 63.926 12.1043 64.488 9.80432C65.04 7.54632 65.66 5.30531 66.242 3.08731C63.659 1.61331 57.77 0.780316 54.788 1.47432C53.894 3.35532 53.411 5.43332 53.138 7.55432C52.901 9.40132 52.828 11.2463 52.996 13.1303C53.204 15.4633 53.075 17.8243 53.112 20.1733C53.14 21.9273 53.442 23.6113 54.556 25.1603ZM51.716 25.1443C51.741 25.0843 51.795 25.0213 51.787 24.9663C51.743 24.6283 51.729 24.2783 51.625 23.9583C50.584 20.7773 50.22 17.4943 50.034 14.1703C49.84 10.7163 49.66 7.27831 50.635 3.89231C50.858 3.11731 50.911 2.29332 51.05 1.44532C50.697 1.35332 50.439 1.24132 50.174 1.22532C48.382 1.11832 46.589 0.973317 44.795 0.957317C43.628 0.947317 42.456 1.12031 41.29 1.24031C40.752 1.29631 40.396 1.62032 40.346 2.17532C40.27 3.00032 40.353 3.85932 40.155 4.65132C39.46 7.43132 39.604 10.2763 39.387 13.0913C39.116 16.6093 39.878 19.9533 41.258 23.1733C41.552 23.8573 41.854 24.5363 42.112 25.1263C44.148 25.5263 49.988 25.5173 51.716 25.1443ZM36.418 2.40932C35.404 2.40932 34.453 2.20432 33.647 2.45932C32.555 2.80532 31.412 2.94331 30.345 3.37231C29.45 3.73131 28.542 4.09632 27.606 4.31232C26.635 4.53732 26.193 5.12032 26.082 6.02632C25.939 7.19132 25.753 8.35932 25.73 9.52932C25.688 11.6783 26.037 13.7943 26.409 15.9103C26.699 17.5583 27.179 19.1263 27.771 20.6833C28.151 21.6813 28.791 22.3223 29.768 22.6183C32.611 23.4803 35.462 24.3173 38.318 25.1353C38.612 25.2203 38.96 25.1133 39.453 25.0853C39.224 24.4993 39.11 24.0353 38.88 23.6393C35.858 18.4463 35.394 12.7873 35.85 6.96931C35.967 5.47531 36.217 3.98932 36.418 2.40932ZM77.081 25.2383C77.173 24.7403 77.318 24.3413 77.306 23.9463C77.266 22.7033 77.122 21.4643 77.103 20.2213C77.078 18.6383 77.013 17.0393 77.189 15.4733C77.429 13.3283 78.303 11.3823 79.724 9.56932C76.894 7.43932 73.913 5.77932 70.576 4.57732C70.341 4.83932 70.085 5.06532 69.9 5.34032C68.847 6.90532 68.162 8.64032 67.683 10.4493C66.771 13.8953 66.703 17.4223 66.798 20.9553C66.826 21.9793 67.026 22.9843 67.361 23.9953C69.032 24.0453 70.629 23.9723 72.191 24.1743C73.81 24.3843 75.395 24.8603 77.081 25.2383ZM25.435 22.0373C24.573 19.5763 23.719 17.1873 22.9 14.7873C22.038 12.2593 22.531 9.61232 22.375 6.91632C21.995 6.98932 21.689 6.96332 21.496 7.09932C19.405 8.56132 17.314 10.0243 15.261 11.5383C14.076 12.4113 13.798 13.5843 14.222 15.0153C14.894 17.2813 15.789 19.4473 17.064 21.4253C17.912 22.7403 18.879 24.0153 20.339 24.4543C22.123 23.6083 23.736 22.8433 25.435 22.0373ZM83.368 27.8383C83.806 25.7383 84.007 23.8623 84.611 22.1283C85.215 20.3943 86.22 18.8013 87.061 17.1253C86.209 15.1873 84.626 13.7963 83.306 12.2103C83.15 12.0223 82.844 11.9603 82.479 11.7743C82.097 12.4213 81.687 12.9753 81.421 13.5913C80.339 16.0993 79.864 18.7333 79.877 21.4633C79.884 22.9643 79.838 24.4663 79.814 26.1413C80.843 26.6333 82.015 27.1923 83.368 27.8383ZM17.208 26.1423C16.996 25.8713 16.928 25.7423 16.824 25.6593C14.14 23.5163 12.374 20.7703 11.411 17.4853C11.324 17.1893 11.089 16.9373 10.867 16.5743C9.24799 17.8943 8.59199 19.6563 7.79799 21.3233C7.71999 21.4873 7.748 21.7293 7.791 21.9203C8.235 23.8663 9.113 25.5473 10.838 26.6653C11.583 27.1473 12.366 27.5693 13.028 27.9583C14.599 27.6543 15.944 27.1713 17.208 26.1423ZM37.603 2.18032C37.399 3.42332 37.206 4.64231 36.998 5.85831C36.324 9.79832 36.448 13.7073 37.42 17.5893C38.031 20.0293 39.198 22.2313 40.316 24.4553C40.42 24.6623 40.649 24.8063 40.846 25.0053C41.249 24.3593 40.798 23.9943 40.603 23.5853C39.311 20.8693 38.419 18.0693 38.535 15.0043C38.671 11.4143 38.492 7.80732 39.276 4.25832C39.434 3.54232 39.462 2.76432 38.943 2.01632C38.517 2.06832 38.12 2.11732 37.603 2.18032ZM5.88199 26.0583C5.18899 27.2503 4.629 28.3583 3.931 29.3713C3.233 30.3853 2.39699 31.3053 1.56999 32.3293C2.92499 33.9923 4.801 33.2693 6.39 33.1683C8.192 33.0533 9.499 31.8403 10.314 30.0873C9.51 29.4743 8.703 28.9373 7.991 28.2923C7.284 27.6523 6.67199 26.9053 5.88199 26.0583ZM67.793 3.42731C66.645 4.50931 66.398 5.92332 66.039 7.20832C64.99 10.9503 64.439 14.7833 64.917 18.6683C65.129 20.3903 65.155 22.2043 66.137 23.7643C66.06 22.4093 65.774 21.0773 65.735 19.7383C65.696 18.3683 65.866 16.9883 66.005 15.6173C66.137 14.3153 66.283 13.0083 66.541 11.7263C66.811 10.3843 66.983 9.01132 67.637 7.76031C68.264 6.56231 68.807 5.32132 69.442 3.98532C68.789 3.76532 68.293 3.59731 67.793 3.42731ZM52.009 20.3463C52.077 19.9663 52.213 19.5853 52.202 19.2073C52.14 16.9293 52.084 14.6483 51.951 12.3733C51.768 9.22532 52.225 6.16932 53.092 3.15532C53.257 2.57832 53.366 1.98632 53.489 1.45032C52.84 0.973317 52.406 1.22531 52.26 1.74031C51.825 3.26431 51.363 4.79632 51.132 6.35732C50.923 7.77732 50.538 9.19832 50.821 10.6813C51 11.6213 51.058 12.6013 51.033 13.5603C50.975 15.8503 51.278 18.0943 52.009 20.3463ZM78.177 25.4863C78.872 25.4603 78.948 25.0183 78.957 24.6123C78.984 23.4433 79.011 22.2693 78.953 21.1023C78.859 19.2163 79.118 17.3943 79.745 15.6193C80.312 14.0143 80.881 12.4093 81.488 10.6943C81.196 10.5253 80.862 10.3323 80.586 10.1723C78.915 11.9273 78.142 13.9903 78.079 16.2293C77.994 19.3103 78.134 22.3983 78.177 25.4863ZM26.915 21.6763C26.082 19.1483 25.344 16.6303 25.13 14.0133C24.912 11.3343 24.877 8.64031 24.759 5.88631C24.525 5.88631 24.27 5.88631 23.888 5.88631C23.681 7.35331 23.293 8.78232 23.319 10.2043C23.361 12.5563 23.829 14.8793 24.625 17.1063C25.201 18.7153 25.791 20.3313 26.915 21.6763ZM18.741 25.3443C18.812 25.2073 18.883 25.0703 18.954 24.9333C17.416 23.6123 16.088 22.1403 15.303 20.2563C14.515 18.3643 13.691 16.4873 12.883 14.6053C12.004 15.0273 11.9 15.1223 12.069 15.8973C12.498 17.8613 13.148 19.7433 14.22 21.4663C15.151 22.9633 16.371 24.1593 17.841 25.1043C18.09 25.2643 18.439 25.2673 18.741 25.3443ZM84.731 28.5383C85.357 28.2423 85.267 27.7723 85.224 27.4023C85.022 25.6603 85.529 24.1293 86.481 22.6993C86.903 22.0663 87.29 21.4073 87.656 20.7413C88.017 20.0843 88.382 19.4083 87.992 18.6173C87.007 18.6123 86.867 19.4163 86.558 19.9783C85.105 22.6263 84.468 25.4483 84.731 28.5383ZM12.2 28.7183C11.2 28.0303 10.554 27.6383 9.96899 27.1703C9.43599 26.7433 8.95099 26.2513 8.47699 25.7563C7.99599 25.2553 7.713 24.5503 7.019 24.1633C6.603 25.5973 7.52099 26.3863 8.21399 27.1443C9.07799 28.0883 10.077 28.9773 11.465 29.1103C11.629 29.1263 11.814 28.9323 12.2 28.7183Z" fill="black" fill-opacity="0.1"/>
<path d="M48.4578 41.5912C46.0128 43.1542 44.8388 42.9912 41.9958 40.7822C39.9368 41.1012 37.9038 41.1642 36.3428 39.3922C36.4838 38.8702 36.8648 38.7892 37.1498 39.0112C38.6718 40.1952 40.3088 40.2342 41.9508 39.5612C42.7128 40.0842 43.3598 40.6032 44.0728 41.0012C45.0658 41.5572 46.1238 41.8212 47.2448 41.3122C47.6268 41.1392 48.0198 41.0502 48.4578 41.5912Z" fill="black" fill-opacity="0.1"/>
<path d="M74.9178 33.4722C77.9158 35.4972 79.3638 35.3182 81.4728 33.8102C81.6768 34.0102 81.8978 34.2242 82.1628 34.4842C81.9028 34.6842 81.7518 34.8052 81.5958 34.9192C79.6968 36.3042 77.6768 36.2342 75.7718 35.0982C74.9078 34.5832 74.1348 34.4942 73.2418 34.6112C72.2578 34.7402 71.3118 34.6522 70.4138 34.2022C70.2898 34.1402 70.1598 34.0922 70.0378 34.0272C69.7138 33.8542 69.4248 33.5982 69.6518 33.2312C69.7428 33.0852 70.1408 33.0362 70.3688 33.0842C71.1058 33.2402 71.8198 33.5622 72.5598 33.6302C73.2998 33.6992 74.0598 33.5402 74.9178 33.4722Z" fill="black" fill-opacity="0.1"/>
<path d="M58.8097 34.999C59.2077 34.999 59.6127 34.951 60.0007 35.01C60.6297 35.106 61.2067 35.044 61.8197 34.842C62.5937 34.587 63.4487 34.423 64.2147 34.823C65.6197 35.557 66.8607 35.332 68.0497 34.38C68.1397 34.307 68.2987 34.319 68.4277 34.292C68.8217 34.567 68.6927 34.897 68.4487 35.148C67.4447 36.177 66.2087 36.45 64.8457 36.101C64.2487 35.948 63.6827 35.676 62.9677 35.407C61.6417 35.896 60.1727 36.686 58.7607 35.491C58.7767 35.327 58.7927 35.163 58.8097 34.999Z" fill="black" fill-opacity="0.1"/>
<path d="M26.015 36.3581C24.895 36.4221 24.213 36.517 23.536 36.49C21.799 36.42 20.05 35.019 19.587 33.353C19.551 33.223 19.72 32.998 19.85 32.876C19.915 32.814 20.145 32.8341 20.229 32.9031C20.432 33.0731 20.629 33.2711 20.765 33.4971C21.542 34.7931 22.646 35.455 24.183 35.364C24.518 35.344 24.882 35.3821 25.192 35.4991C25.401 35.5781 25.539 35.8441 26.015 36.3581Z" fill="black" fill-opacity="0.1"/>
<path d="M53.9812 28.6963C54.5962 29.2743 54.6962 29.6273 54.3262 30.0363C53.5052 30.9443 52.4522 31.4773 51.2422 31.4603C49.9372 31.4413 48.6622 31.1643 47.6572 30.2523C47.7422 29.6943 48.0882 29.7133 48.4302 29.8033C48.8282 29.9073 49.2062 30.0843 49.6052 30.1803C51.3702 30.6073 53.0162 30.6373 53.9812 28.6963Z" fill="black" fill-opacity="0.1"/>
<path d="M74.559 27.8654C74.565 28.1264 74.678 28.4764 74.553 28.6804C74.386 28.9514 74.055 29.1464 73.758 29.3084C71.863 30.3444 69.316 29.8904 67.793 28.2554C67.921 27.8104 68.265 27.8334 68.604 27.9184C68.799 27.9674 68.977 28.0884 69.16 28.1814C70.752 28.9954 72.309 29.1044 73.817 27.9754C73.922 27.8964 74.063 27.8594 74.193 27.8234C74.254 27.8064 74.329 27.8354 74.559 27.8654Z" fill="black" fill-opacity="0.1"/>
<path d="M74.2161 38.6103C72.5471 38.6103 71.1581 37.9603 70.0161 36.7723C69.9111 36.6623 69.8821 36.3532 69.9611 36.2272C70.0411 36.1002 70.3271 35.9953 70.4741 36.0393C70.7231 36.1153 70.9511 36.2973 71.1581 36.4703C72.4151 37.5163 73.8161 37.8243 75.3861 37.3323C75.5781 37.2723 75.7851 37.2212 75.9821 37.2282C76.0851 37.2322 76.2301 37.3533 76.2701 37.4553C76.3121 37.5603 76.2971 37.7483 76.2271 37.8303C75.7041 38.4473 75.2681 38.6063 74.2161 38.6103Z" fill="black" fill-opacity="0.1"/>
<path d="M69.3039 37.7402C69.2479 38.2032 69.3079 38.5242 69.1769 38.6562C68.2579 39.5852 67.1449 40.1052 65.8279 39.8022C64.8959 39.5882 63.9909 39.2392 63.0989 38.8872C62.9369 38.8232 62.8939 38.4572 62.7959 38.2302C63.0349 38.1742 63.2869 38.0402 63.5089 38.0792C63.9099 38.1512 64.3039 38.2992 64.6799 38.4632C65.8979 38.9962 67.0639 38.9952 68.1989 38.2312C68.4599 38.0552 68.7809 37.9682 69.3039 37.7402Z" fill="black" fill-opacity="0.1"/>
<path d="M23.4178 30.7353C22.1578 31.8243 21.0598 31.6363 20.0408 31.3403C18.9478 31.0223 18.1558 30.2223 17.7158 29.1613C17.6328 28.9613 17.8828 28.6243 18.0008 28.2883C18.8408 29.0143 19.4658 29.8113 20.2858 30.1913C21.0978 30.5713 22.1048 30.5313 23.4178 30.7353Z" fill="black" fill-opacity="0.1"/>
<path d="M27.5239 27.1532C27.7899 27.1182 28.0709 26.9982 28.2869 27.0702C28.7399 27.2222 29.1699 27.4552 29.5879 27.6922C30.5959 28.2632 31.6169 28.5192 32.7479 28.0352C32.9379 27.9542 33.3569 28.0332 33.4499 28.1782C33.6649 28.5182 33.4479 28.8422 33.1229 29.0252C32.2219 29.5322 31.2349 29.5632 30.3309 29.1722C29.3929 28.7662 28.5389 28.1642 27.6599 27.6282C27.5789 27.5792 27.5859 27.3842 27.5239 27.1532Z" fill="black" fill-opacity="0.1"/>
<path d="M74.7598 30.1004C75.0108 29.8724 75.0938 29.7474 75.2078 29.7074C75.3248 29.6654 75.5078 29.6524 75.5998 29.7164C77.3578 30.9344 79.1878 30.7994 81.0028 29.9564C81.6168 30.5784 81.1858 30.9294 80.7468 31.0914C78.9418 31.7624 77.1448 31.8884 75.4558 30.7304C75.2348 30.5804 75.0538 30.3704 74.7598 30.1004Z" fill="black" fill-opacity="0.1"/>
<path d="M59.2451 37.5753C56.9841 39.4113 54.9651 39.4213 52.8101 37.5553C53.1081 37.4423 53.3441 37.2643 53.5511 37.2933C53.8831 37.3383 54.1891 37.5483 54.5191 37.6403C55.7421 37.9813 56.9511 38.1783 58.0831 37.3273C58.4281 37.0673 58.8311 36.9693 59.2451 37.5753Z" fill="black" fill-opacity="0.1"/>
<path d="M50.5911 33.3296C50.5231 33.6426 50.5571 34.0516 50.3741 34.2066C50.0211 34.5066 49.5691 34.7516 49.1201 34.8626C47.5731 35.2436 45.4591 34.3726 44.5741 33.0366C44.5191 32.9536 44.5461 32.7576 44.6101 32.6696C44.6781 32.5766 44.8701 32.4736 44.9501 32.5076C45.3221 32.6706 45.6981 32.8446 46.0301 33.0766C47.3301 33.9846 48.6431 34.2936 50.0411 33.2856C50.1211 33.2276 50.2971 33.3016 50.5911 33.3296Z" fill="black" fill-opacity="0.1"/>
<path d="M61.2619 29.7434C61.3519 30.3204 61.478 30.5934 61.414 30.8114C61.19 31.5764 60.675 32.1174 59.957 32.4664C58.732 33.0624 56.8489 32.9404 55.4189 32.1664C55.4619 31.7074 55.7839 31.6244 56.1479 31.6754C56.5549 31.7324 56.951 31.8894 57.358 31.9254C58.674 32.0414 59.826 31.7404 60.582 30.5324C60.687 30.3644 60.8419 30.2264 61.2619 29.7434Z" fill="black" fill-opacity="0.1"/>
<path d="M42.5203 36.5957C42.8813 36.6757 43.3393 36.6427 43.5843 36.8557C44.9323 38.0287 46.4653 38.4117 48.3603 38.0247C48.3633 38.3297 48.4433 38.6957 48.3543 38.7417C46.4463 39.7457 43.6033 38.8667 42.4533 36.9407C42.4283 36.9007 42.4743 36.8187 42.5203 36.5957Z" fill="black" fill-opacity="0.1"/>
<path d="M41.2093 30.872C41.2553 31.134 41.4023 31.421 41.3163 31.577C40.9933 32.152 40.4373 32.487 39.7943 32.512C38.2513 32.574 36.7663 32.336 35.5203 31.324C35.4183 31.241 35.4423 30.948 35.4843 30.771C35.5033 30.69 35.7303 30.58 35.8263 30.608C36.2833 30.742 36.7263 30.924 37.1763 31.081C39.0303 31.725 39.3473 31.712 41.2093 30.872Z" fill="black" fill-opacity="0.1"/>
<path d="M33.4039 31.699C33.1819 32.049 33.1179 32.285 32.9709 32.359C31.5109 33.098 28.8899 32.447 27.9229 31.113C27.8619 31.029 27.8819 30.832 27.9399 30.73C27.9979 30.626 28.1409 30.539 28.2619 30.511C28.3849 30.483 28.5409 30.506 28.6569 30.56C30.9719 31.643 30.9709 31.644 33.4039 31.699Z" fill="black" fill-opacity="0.1"/>
<path d="M30.9307 25.3999C31.0977 25.2989 31.3437 25.0809 31.4057 25.1249C33.0187 26.2469 34.9927 26.2199 36.7617 26.8339C35.2887 28.0289 32.5217 27.3679 30.9307 25.3999Z" fill="black" fill-opacity="0.1"/>
<path d="M68.3992 31.0183C68.4372 31.4573 68.0942 31.5783 67.7762 31.6863C66.6032 32.0843 65.4642 31.8223 64.3452 31.4473C63.3462 31.1133 62.8332 30.6423 63.1112 30.3853C63.6352 29.8993 64.1332 30.3813 64.6472 30.4543C65.4552 30.5693 66.2682 30.6493 67.0802 30.7393C67.4822 30.7833 67.8862 30.8113 68.2872 30.8583C68.3262 30.8633 68.3552 30.9533 68.3992 31.0183Z" fill="black" fill-opacity="0.1"/>
<path d="M44.2091 34.6584C43.3141 35.5274 42.2841 35.4254 41.3131 35.3764C40.1651 35.3174 39.0021 35.1824 38.2451 33.8854C38.5701 33.8074 38.8531 33.6384 39.0241 33.7164C40.5631 34.4214 42.1741 34.4784 43.8171 34.3384C43.8641 34.3334 43.9201 34.4184 44.2091 34.6584Z" fill="black" fill-opacity="0.1"/>
<path d="M25.9509 32.0488C26.7389 32.7538 27.3669 33.3528 28.0339 33.9038C28.6979 34.4508 29.7929 34.0838 30.5119 35.0448C30.1379 35.1488 29.9039 35.2888 29.6949 35.2578C28.9539 35.1488 28.2149 35.0098 27.4879 34.8288C26.7079 34.6348 26.2039 34.0618 25.8249 33.3978C25.5799 32.9708 25.5549 32.5038 25.9509 32.0488Z" fill="black" fill-opacity="0.1"/>
<path d="M28.292 37.2506C28.525 37.1246 28.668 36.9836 28.748 37.0126C30.13 37.5216 31.506 38.0506 32.97 38.6096C32.787 38.8466 32.687 39.1066 32.562 39.1196C30.804 39.2966 29.365 38.7546 28.292 37.2506Z" fill="black" fill-opacity="0.1"/>
<path d="M37.0928 35.2682C35.4958 35.2662 34.5378 35.7002 33.7278 36.5082C33.5708 36.6652 33.1818 36.5892 32.5898 36.6552C33.2698 35.5712 33.8618 34.8772 34.7958 34.5602C35.3308 34.3782 35.8228 34.5352 37.0928 35.2682Z" fill="black" fill-opacity="0.1"/>
</svg>
