<svg width="9" height="18" viewBox="0 0 9 18" fill="none" xmlns="http://www.w3.org/2000/svg">
<path d="M4.79374 16.7803C4.84222 16.7227 4.86949 16.6863 4.90282 16.653C5.97844 15.5774 7.05406 14.4987 8.13271 13.4262C8.19937 13.3595 8.29027 13.305 8.38116 13.2807C8.52054 13.2413 8.67204 13.3262 8.74475 13.4534C8.81747 13.5807 8.80838 13.7413 8.71445 13.8594C8.68719 13.8958 8.65386 13.9261 8.62053 13.9594C7.45098 15.129 6.28143 16.2985 5.11188 17.4711C4.88464 17.6983 4.70285 17.6983 4.47863 17.4741C3.29696 16.2925 2.11833 15.1108 0.936659 13.9321C0.824552 13.82 0.760924 13.6958 0.809402 13.5352C0.88212 13.2898 1.17299 13.1959 1.376 13.3504C1.41236 13.3777 1.44265 13.411 1.47598 13.4443C2.54857 14.5169 3.62419 15.5925 4.69678 16.6651C4.72708 16.6924 4.75132 16.7288 4.79374 16.7803Z" fill="#616161"/>
<path d="M4.79374 1.82105C4.84222 1.87862 4.86949 1.91498 4.90282 1.94831C5.97844 3.02393 7.05406 4.10258 8.13271 5.17517C8.19937 5.24182 8.29027 5.29636 8.38116 5.3206C8.52054 5.35999 8.67204 5.27515 8.74475 5.1479C8.81747 5.02064 8.80838 4.86005 8.71445 4.74189C8.68719 4.70553 8.65386 4.67523 8.62053 4.6419C7.45098 3.47235 6.28143 2.30281 5.11188 1.13023C4.88464 0.902984 4.70285 0.902984 4.47863 1.1272C3.29696 2.30886 2.11833 3.49053 0.936659 4.66917C0.824552 4.78128 0.760924 4.9055 0.809402 5.06609C0.88212 5.31151 1.17299 5.40544 1.376 5.25091C1.41236 5.22364 1.44265 5.19031 1.47598 5.15699C2.54857 4.0844 3.62419 3.00878 4.69678 1.93619C4.72708 1.90892 4.75132 1.87256 4.79374 1.82105Z" fill="#616161"/>
</svg>
