<svg width="263" height="92" viewBox="0 0 263 92" fill="none" xmlns="http://www.w3.org/2000/svg">
<path d="M167.663 13.1766C167.663 13.1766 152.443 1 134.178 1C115.913 1 97.648 13.1766 100.692 37.5298C100.692 37.5298 76.3389 25.3532 67.2065 46.6623C67.2065 46.6623 51.9857 40.574 42.8532 52.7506C42.8532 52.7506 12.4118 40.574 3.27765 58.8389C-5.8548 77.1038 15.4543 86.2362 15.4543 86.2362C15.4543 86.2362 0.233476 61.883 21.5425 64.9272C42.8516 67.9713 36.7633 83.192 67.2065 89.2803C97.648 95.3686 106.78 77.1037 106.78 77.1037C106.78 77.1037 118.957 92.3245 134.178 89.2803C149.398 86.2362 155.487 77.1037 155.487 77.1037C155.487 77.1037 164.619 89.2804 182.884 86.2362C201.149 83.1921 207.237 71.0154 207.237 71.0154C207.237 71.0154 219.414 77.1037 234.635 77.1037C249.855 77.1037 262.032 71.0154 262.032 55.7947C262.032 55.7947 251.378 72.5375 239.201 63.4051C227.024 54.2726 227.024 48.1843 211.804 51.2285C211.804 51.2285 208.759 36.0077 196.583 36.0077C196.584 36.0077 193.54 5.56622 167.663 13.1766Z" fill="#ED1C24"/>
<path d="M121.864 25.9191C126.616 11.6651 149.186 21.1672 142.058 38.9855C134.931 56.8039 114.026 51.5954 107.015 45.5188C98.1064 37.798 94.5421 14.0402 119.136 3.93266C143.73 -6.17492 168.19 14.0402 168.19 14.0402C168.19 14.0402 178.464 8.17608 188.472 17.3453C198.481 26.5129 196.105 36.0167 196.105 36.0167C196.105 36.0167 193.73 53.835 173.534 45.5204C153.341 37.2059 175.91 15.8233 181.849 30.0772" fill="#ED1C24"/>
<path d="M121.864 25.9191C126.616 11.6651 149.186 21.1672 142.058 38.9855C134.931 56.8039 114.026 51.5954 107.015 45.5188C98.1064 37.798 94.5421 14.0402 119.136 3.93266C143.73 -6.17492 168.19 14.0402 168.19 14.0402C168.19 14.0402 178.464 8.17608 188.472 17.3453C198.481 26.5129 196.105 36.0167 196.105 36.0167C196.105 36.0167 193.73 53.835 173.534 45.5204C153.341 37.2059 175.91 15.8233 181.849 30.0772" stroke="white" stroke-width="1.67261" stroke-miterlimit="10" stroke-linecap="round" stroke-linejoin="round"/>
<path d="M196.585 36.0074C196.585 36.0074 207.987 34.8283 211.55 51.4574C211.55 51.4574 221.574 46.4998 232.004 57.2931C242.434 68.0865 250.749 69.2757 261.44 56.2092C261.44 56.2092 266.589 90.2619 208.184 71.4534C208.184 71.4534 185.596 98.3088 159.976 80.8836C156.2 78.3161 153.771 74.066 153.891 69.5015C153.975 66.3436 155.211 62.9984 159.284 60.9611C168.788 56.2092 178.29 59.7736 179.477 69.2757C180.665 78.7794 164.036 78.7794 164.036 69.2757" fill="#ED1C24"/>
<path d="M196.585 36.0074C196.585 36.0074 207.987 34.8283 211.55 51.4574C211.55 51.4574 221.574 46.4998 232.004 57.2931C242.434 68.0865 250.749 69.2757 261.44 56.2092C261.44 56.2092 266.589 90.2619 208.184 71.4534C208.184 71.4534 185.596 98.3088 159.976 80.8836C156.2 78.3161 153.771 74.066 153.891 69.5015C153.975 66.3436 155.211 62.9984 159.284 60.9611C168.788 56.2092 178.29 59.7736 179.477 69.2757C180.665 78.7795 164.036 78.7795 164.036 69.2757" stroke="white" stroke-width="1.67261" stroke-miterlimit="10" stroke-linecap="round" stroke-linejoin="round"/>
<path d="M101.077 38.3923C101.077 38.3923 89.3638 30.0242 76.8092 35.9904C76.8092 35.9904 69.0048 39.5798 66.6297 46.7085C66.6297 46.7085 52.3757 40.769 42.8719 52.6479C42.8719 52.6479 0.70881 37.6095 1.00152 70.0749C1.00152 70.0749 3.671 81.1576 15.5499 85.9094C15.5499 85.9094 2.85138 64.8111 18.1106 64.669C33.3681 64.5268 42.8836 81.9437 56.5371 86.3025C70.1923 90.6613 93.9501 95.4132 107.017 77.5949C107.017 77.5949 108.204 66.9036 97.5128 64.5285C86.8214 62.1534 80.882 70.4679 84.4463 77.5949C88.0106 84.7219 97.5128 82.3468 97.5128 76.4073" fill="#ED1C24"/>
<path d="M101.077 38.3923C101.077 38.3923 89.3638 30.0242 76.8092 35.9904C76.8092 35.9904 69.0048 39.5798 66.6297 46.7085C66.6297 46.7085 52.3757 40.769 42.8719 52.6479C42.8719 52.6479 0.70881 37.6095 1.00152 70.0749C1.00152 70.0749 3.671 81.1576 15.5499 85.9094C15.5499 85.9094 2.85138 64.8111 18.1106 64.669C33.3681 64.5268 42.8836 81.9437 56.5371 86.3025C70.1923 90.6613 93.9501 95.4132 107.017 77.5949C107.017 77.5949 108.204 66.9036 97.5128 64.5285C86.8214 62.1534 80.882 70.4679 84.4463 77.5949C88.0106 84.7219 97.5128 82.3468 97.5128 76.4073" stroke="white" stroke-width="1.67261" stroke-miterlimit="10" stroke-linecap="round" stroke-linejoin="round"/>
<path d="M156.027 77.7473C156.027 77.7473 143.24 89.8922 129.879 89.6814C116.52 89.4707 107.017 77.5918 107.017 77.5918" fill="#ED1C24"/>
<path d="M156.027 77.7473C156.027 77.7473 143.24 89.8922 129.879 89.6814C116.52 89.4707 107.017 77.5918 107.017 77.5918" stroke="white" stroke-width="1.67261" stroke-miterlimit="10" stroke-linecap="round" stroke-linejoin="round"/>
<path d="M42.8723 52.6468C42.8723 52.6468 41.6847 59.7738 52.3744 60.9614C63.0657 62.1489 58.3138 50.2701 53.5619 51.4576C48.81 52.6452 49.9976 56.2095 51.1868 57.397" fill="#ED1C24"/>
<path d="M42.8723 52.6468C42.8723 52.6468 41.6847 59.7738 52.3744 60.9614C63.0657 62.1489 58.3138 50.2701 53.5619 51.4576C48.81 52.6452 49.9976 56.2095 51.1868 57.397" stroke="white" stroke-width="1.67261" stroke-miterlimit="10" stroke-linecap="round" stroke-linejoin="round"/>
</svg>
