<svg width="21" height="25" viewBox="0 0 21 25" fill="none" xmlns="http://www.w3.org/2000/svg">
<path d="M4.71616 0.451781L19.428 9.58048C19.906 9.87715 20.3029 10.3038 20.5788 10.8174C20.8547 11.3311 21 11.9138 21 12.5069C21 13.1 20.8547 13.6827 20.5788 14.1964C20.3029 14.7101 19.906 15.1367 19.428 15.4334L4.71616 24.5482C4.2381 24.8444 3.69593 25.0002 3.1441 25C2.59227 24.9998 2.05021 24.8436 1.57233 24.5471C1.09446 24.2505 0.697608 23.8241 0.421619 23.3107C0.14563 22.7972 0.000223246 22.2147 0 21.6218V3.37822C0.000223246 2.78527 0.14563 2.20281 0.421619 1.68934C0.697608 1.17587 1.09446 0.749463 1.57233 0.452937C2.05021 0.156411 2.59227 0.000202942 3.1441 1.97611e-07C3.69593 -0.000202547 4.2381 0.155606 4.71616 0.451781Z" fill="white"/>
</svg>
