<svg width="83" height="65" viewBox="0 0 83 65" fill="none" xmlns="http://www.w3.org/2000/svg">
<path d="M22.0707 57.5162C19.1837 57.6332 17.3177 56.1652 15.6537 54.1792C13.5697 54.6632 11.9607 53.7242 10.5097 52.3182C10.1657 51.9842 9.75274 51.7012 9.32774 51.4742C8.39574 50.9792 7.41174 50.5772 6.49574 50.0552C5.91074 49.7222 5.36674 49.2852 4.87674 48.8202C3.75274 47.7492 3.15175 46.2912 2.21475 45.0672C1.47675 44.1042 1.31974 42.7612 1.78274 41.4902C1.93074 41.0832 2.02574 40.6572 2.16174 40.1802C1.93674 39.7022 1.69874 39.1982 1.46274 38.6942C0.806737 37.2902 0.58474 35.8282 1.08174 34.3442C1.37774 33.4552 1.29575 32.6682 0.95175 31.8212C0.62375 31.0142 0.471742 30.1622 0.717742 29.2682C0.885742 28.6572 0.717748 28.0802 0.470748 27.4712C-0.248252 25.7002 -0.191262 23.9422 0.973738 22.3432C1.27974 21.9232 1.43574 21.5672 1.41774 21.0072C1.38474 19.9852 1.75175 19.0682 2.69675 18.4752C2.93875 18.3232 3.10375 18.0462 3.40375 17.7192C3.04775 17.5282 2.80775 17.3322 2.53775 17.2692C1.91375 17.1232 1.32974 16.9612 1.04774 16.1782C2.21474 14.4782 3.87374 13.2972 5.73874 12.4472C7.26674 11.7502 8.81574 11.1552 10.1657 10.0962C10.9857 9.45219 11.9987 9.0532 12.9277 8.5482C13.6877 8.1352 14.4617 7.7452 15.2107 7.3132C15.9657 6.8772 16.6937 6.7502 17.4977 7.2182C17.8607 7.4302 18.2937 7.5512 18.7117 7.6342C20.9647 8.0792 23.2297 8.46521 25.4747 8.94721C26.3307 9.13121 27.1787 9.1212 28.0287 9.1982C28.7747 9.2662 29.4457 9.9302 30.2037 10.1362C31.2727 10.4242 32.3907 10.5322 33.5547 10.7302C34.3607 9.8162 35.2367 8.8592 36.0697 7.8672C37.1227 6.6122 38.3907 5.6372 39.7797 4.7862C40.8917 4.1052 41.9768 3.3772 43.0358 2.6172C44.0048 1.9222 45.0488 1.4332 46.1628 1.0022C48.6707 0.0301987 51.2788 -0.228795 53.8528 0.199205C56.6458 0.665205 59.5167 1.0882 61.9547 2.7832C62.5117 3.1712 63.1488 3.45319 63.7708 3.73419C66.8838 5.14119 70.0107 6.5162 73.1198 7.9332C76.0168 9.2522 78.3937 11.2012 80.0607 13.9402C80.4047 14.5042 80.7837 15.1052 80.5547 15.8582C80.4887 16.0752 80.5407 16.3482 80.5997 16.5812C81.3787 19.6422 81.0687 22.7632 81.1057 25.8632C81.1097 26.2312 81.0217 26.6052 80.9397 26.9662C80.8227 27.4702 80.9047 27.8822 81.1387 28.3752C82.0508 30.3032 82.6617 32.3482 82.2287 34.4862C81.9667 35.7802 81.2537 36.9902 81.7527 38.3712C81.2547 39.7072 80.8507 41.1022 79.6847 42.0512C79.3647 42.3122 78.9417 42.5902 78.5577 42.6012C77.8197 42.6232 77.2327 42.8662 76.7067 43.3422C75.7347 44.2252 74.5688 44.6082 73.2838 44.5442C72.5788 44.5102 72.0937 44.7812 71.6747 45.2822C71.4747 45.5212 71.2837 45.7672 71.0707 45.9942C70.1227 47.0052 69.1087 47.8962 67.6207 47.9882C67.3177 48.0062 67.0028 48.1062 66.7278 48.2392C65.4648 48.8522 64.1428 49.0112 62.7448 49.0212C61.6418 49.0282 60.5418 49.3292 59.4648 49.4962C58.7768 50.2222 58.9167 51.0572 59.1267 51.8162C59.3867 52.7582 59.4997 53.6392 58.9557 54.5022C58.2388 55.6412 57.7977 57.0052 56.3537 57.5362C55.2907 57.9272 54.3747 58.5652 53.5777 59.3732C52.7787 60.1822 51.7847 60.4312 50.6827 60.3802C50.3117 60.3632 49.9337 60.4172 49.5697 60.3652C48.3337 60.1892 47.2557 60.3452 46.4117 61.4242C46.0147 61.9332 45.3327 61.9922 44.6947 62.0022C43.8297 62.0172 42.9647 62.0432 42.0727 62.0662C41.6647 62.6762 41.2887 63.2402 40.9027 63.8192C40.6117 63.8452 40.2567 63.7802 40.0117 63.9152C38.3488 64.8342 36.7737 64.4942 35.2907 63.5582C34.6767 63.1692 34.0827 62.9762 33.3777 62.9802C32.8817 62.9822 32.3857 62.9142 31.8887 62.8772C30.7987 62.7992 29.8187 62.4532 29.0517 61.6452C28.3887 60.9482 27.6617 60.5332 26.6367 60.4632C24.6697 60.3302 23.0447 59.4772 22.0707 57.5162ZM34.4287 15.7992C33.9967 15.8272 33.5607 15.9132 33.1348 15.8742C31.5907 15.7322 30.8557 16.7052 30.1047 17.9082C31.1337 18.3352 32.0327 18.7422 32.9587 19.0782C33.5167 19.2802 34.0737 18.8482 33.8717 18.3382C33.5387 17.5002 33.8707 16.9152 34.2997 16.2862C34.3917 16.1522 34.3627 15.9352 34.3887 15.7572C35.0877 15.7912 35.6258 15.4102 36.2878 15.1132C36.0747 14.6522 35.8387 14.2922 35.7417 13.8962C35.6377 13.4762 35.6657 13.0232 35.6207 12.3582C35.0067 12.9382 34.5807 13.3402 34.3457 13.5622C34.3797 14.4822 34.4047 15.1402 34.4287 15.7992ZM68.7487 32.6462C67.8527 29.5832 69.1697 26.8642 70.1247 24.0822C69.2497 25.0072 68.9738 26.2222 68.4088 27.2852C67.5667 28.8692 67.6348 30.4872 68.0638 32.1442C68.1588 32.5142 68.4947 32.5372 68.7927 32.6032C69.3867 33.1392 69.9707 33.6872 70.5797 34.2082C70.9847 34.5552 71.3617 35.0112 72.0387 34.8242C72.0907 33.6492 72.0257 32.4652 72.2257 31.3272C72.4247 30.1892 72.8877 29.0972 73.2858 27.8232C71.8997 27.4142 70.8527 26.7102 71.0027 25.1042C72.4997 24.1002 72.6728 24.1492 74.4948 25.7302C74.6468 25.5442 74.8158 25.3732 74.9447 25.1762C76.5947 22.6262 77.9827 19.9462 79.0488 17.0952C79.7777 15.1462 79.4667 14.0222 77.6767 12.6862C77.5837 12.8392 77.4367 12.9802 77.4117 13.1402C77.1707 14.6982 76.5157 16.0842 75.6827 17.3972C74.2937 19.5912 72.8838 21.7722 71.5058 23.9722C71.2878 24.3212 71.1917 24.7462 71.0387 25.1362C70.7637 25.5922 70.4177 26.0202 70.2257 26.5092C69.6427 27.9962 69.2868 29.5342 69.4778 31.1522C69.5578 31.8112 69.4357 32.3652 68.7487 32.6462ZM62.7867 28.9002C62.6997 28.1032 62.4387 27.2782 62.5597 26.5142C62.8947 24.3842 63.2847 22.2822 64.6427 20.4472C66.2947 18.2122 67.7737 15.8422 68.6097 13.1462C68.6797 12.9212 68.6517 12.6662 68.6967 12.0342C68.2807 12.7702 68.0327 13.1292 67.8657 13.5202C67.1267 15.2472 66.0557 16.7642 64.8477 18.1742C63.7447 19.4602 63.0187 20.9552 62.2377 22.4262C61.2747 24.2392 61.4818 26.1392 61.9277 28.0202C62.0067 28.3532 62.5177 28.5832 62.8288 28.8622C63.4168 29.4052 63.9458 30.0402 64.6087 30.4652C65.2838 30.8972 65.8057 31.7042 66.8067 31.6742C66.8757 30.6442 66.8467 29.7012 67.0277 28.8012C67.2057 27.9122 67.5947 27.0672 67.8958 26.1892C65.3628 25.7182 65.1637 25.4612 65.4857 23.1082C65.8167 23.0722 66.2277 22.8992 66.5167 23.0192C67.2817 23.3362 67.9938 23.7812 68.7838 24.2062C68.8908 23.9992 68.9958 23.7922 69.1588 23.4762C68.8098 23.3502 68.5277 23.2752 68.2697 23.1512C67.4867 22.7742 67.0057 22.1522 66.9157 21.2822C66.7957 20.1312 67.7497 19.3732 68.8307 19.7722C69.1628 19.8952 69.4727 20.1362 69.7307 20.3862C69.9907 20.6382 70.1727 20.9682 70.4607 21.3642C72.6747 17.8872 74.7027 14.4622 75.1097 10.3082C73.7407 9.3702 72.5847 8.21721 70.7787 8.21221C70.6257 8.78821 70.4497 9.25419 70.3817 9.73619C69.8277 13.6432 68.1567 17.0522 65.8617 20.2192C64.1837 22.5352 63.1007 25.0592 63.6707 28.0342C63.7747 28.5772 63.6247 28.6762 62.7867 28.9002ZM42.6127 12.8482C42.7207 12.3022 42.8927 11.7592 42.9227 11.2082C42.9797 10.1752 43.3617 9.27719 43.9427 8.46019C44.6937 7.40119 45.4638 6.3542 46.2728 5.3382C47.0218 4.3962 47.4437 3.2962 47.8017 2.1852C47.9697 1.6642 47.4877 1.63319 47.0597 1.76419C46.3527 3.46919 45.4787 5.0932 44.3487 6.5782C43.1647 8.1332 42.4668 9.90319 42.0918 11.8162C41.9868 12.3542 42.1907 12.6382 42.6557 12.8142C42.5477 13.2282 42.4468 13.6442 42.3288 14.0562C42.2057 14.4852 41.5017 14.5432 41.5257 15.2792C42.2957 15.0472 42.9387 14.8592 43.5737 14.6522C43.6537 14.6272 43.6997 14.4962 43.7467 14.4342C43.5838 14.1862 43.4328 13.9562 43.2558 13.6872C43.5508 13.5552 43.7208 13.4112 43.8828 13.4192C44.4998 13.4522 45.1128 13.5582 45.7298 13.5952C47.1128 13.6782 47.9567 14.8582 49.2417 15.3702C49.6807 14.2852 50.5317 13.5042 50.7157 12.3402C50.7657 12.0242 51.0657 11.6042 51.3507 11.4962C52.0107 11.2482 52.2487 10.7032 52.5967 10.1952C53.2537 9.23919 53.7857 8.15919 54.8327 7.57019C55.1457 7.71519 55.3907 7.8282 55.6537 7.9502C55.7037 6.3472 55.6817 6.33021 56.7777 4.90621C57.4537 4.02821 57.6727 3.0662 57.6667 1.9772C54.9377 1.2312 52.3247 0.4192 49.4207 1.1812C48.5157 3.6202 47.1117 5.8732 45.4437 7.9642C44.3667 9.3162 43.6557 10.7912 43.7027 12.5662C43.7057 12.6642 43.5767 12.7642 43.4437 12.9612C43.2017 12.9292 42.9077 12.8892 42.6127 12.8482ZM24.8157 14.5572C24.9287 14.6092 25.0437 14.6572 25.1547 14.7112C25.5217 14.8892 25.7477 15.1762 25.6937 15.5882C25.6367 16.0192 25.2877 16.2312 24.9077 16.2602C24.4247 16.2962 23.9267 16.2712 23.4477 16.1922C22.8007 16.0852 22.3368 16.3202 22.0487 16.8632C21.4097 18.0682 20.7697 19.2752 20.1997 20.5132C19.7497 21.4912 19.6207 22.5312 19.9857 23.6612C21.3197 24.1622 22.3627 25.2872 23.9137 25.7032C24.1487 24.6802 24.3537 23.7902 24.5757 22.8282C24.0567 22.6972 23.6387 22.6202 23.2417 22.4822C22.9527 22.3822 22.6587 22.2432 22.4267 22.0492C22.0537 21.7372 22.0227 21.2962 22.1567 20.8552C22.2837 20.4362 22.6247 20.2922 23.0247 20.3042C23.3947 20.3152 23.8037 20.2812 24.1217 20.4272C24.4827 20.5922 24.7617 20.9372 25.1117 21.2332C26.1687 20.3462 26.6127 19.2332 26.8577 17.9962C26.4237 17.7002 26.0417 17.4382 25.6277 17.1552C26.3307 16.5872 27.3837 17.4752 27.8377 16.3452C27.6527 16.1832 27.4697 16.0272 27.2927 15.8652C27.0637 15.6562 26.8197 15.4602 26.6187 15.2262C26.2537 14.8022 26.3487 14.2672 26.8127 13.9482C27.1917 13.6862 27.6007 13.5832 28.0467 13.7282C28.3947 13.8412 28.7367 13.9742 29.1178 14.1112C30.1128 13.2682 31.4057 12.8342 32.0827 11.4962C31.4577 11.3542 30.9347 11.2352 30.2947 11.0902C29.7487 12.3152 28.7507 12.4642 27.6197 12.2902C26.2977 12.0862 26.2227 10.8882 25.8297 9.9332C23.7807 9.5232 21.7797 9.12221 19.8097 8.72721C18.4127 10.1052 17.8117 10.2362 16.0087 9.5112C15.5057 9.3082 15.0397 9.01121 14.6017 8.78121C12.6647 9.55021 12.6647 9.5502 11.7617 10.4932C12.8267 11.5032 14.6777 12.3682 16.3787 12.6342C16.5117 12.2432 16.5817 11.8012 16.7997 11.4542C17.0647 11.0352 17.4727 10.6812 18.0267 10.7412C18.9247 10.8392 19.9107 11.5222 19.9197 12.4812C19.9247 13.0332 19.9837 13.5852 20.0257 14.2442C20.7137 14.4942 21.3927 14.7402 22.0787 14.9892C22.3847 14.3262 22.6357 13.7822 22.8997 13.2092C22.6787 12.8612 22.4017 12.5192 22.2267 12.1302C21.8277 11.2432 22.1417 10.6772 23.0737 10.5122C24.0927 10.3312 25.2607 10.9072 25.7207 11.8152C26.0567 12.4782 25.8257 13.1202 25.0947 13.4822C24.8837 13.5872 24.6387 13.6232 24.3717 13.7012C24.5607 14.0552 24.7027 14.3212 24.8457 14.5882C24.4157 14.3752 23.9877 14.1322 23.4287 14.5572C23.5307 14.8532 23.5807 15.2142 23.7667 15.4822C23.9907 15.8032 24.3807 15.8572 24.7327 15.6672C25.0447 15.5002 25.0557 15.1942 24.9597 14.8862C24.9247 14.7722 24.8647 14.6662 24.8157 14.5572ZM59.0707 17.3072C58.2237 17.5312 57.9357 18.2552 57.7517 18.9592C57.5367 19.7852 57.3707 20.6652 57.7547 21.5012C58.4277 22.9612 59.1167 24.4142 59.8297 25.8562C59.9327 26.0632 60.2057 26.1872 60.4227 26.3692C60.5197 26.1812 60.5737 26.1272 60.5727 26.0732C60.4987 23.1092 61.8387 20.6152 63.5977 18.4692C65.2298 16.4802 66.5617 14.3562 67.5887 12.0532C68.2857 10.4922 68.6298 8.77019 68.4368 7.03819C67.6398 6.27519 66.7598 5.86721 65.7598 5.69721L65.8008 5.7272C64.8857 4.9902 63.8688 4.4972 62.5918 4.3062C62.6458 5.2032 63.2157 5.9762 62.6227 6.7412C61.6587 7.3952 60.6677 7.34521 59.6807 6.75321C59.6277 6.91521 59.5747 7.0272 59.5557 7.1462C59.3477 8.4502 59.1337 8.6812 57.9897 8.7442C57.4977 8.7712 57.0037 8.74919 56.4807 8.74919C55.6947 9.17719 55.3537 10.0102 54.8737 10.7222C54.4958 11.2832 54.6447 11.9002 54.6857 12.5242C54.7327 13.2402 54.3658 13.6782 53.6868 13.9062C53.2228 14.0602 52.7457 14.1772 52.2077 14.3292C52.0177 15.0692 51.8347 15.7762 51.6677 16.4272C53.5657 17.9762 54.4818 18.4142 55.7728 18.4162C55.8507 18.2592 55.9697 18.1022 56.0087 17.9272C56.4547 15.9322 57.4727 14.2762 58.8577 12.7862C59.4357 12.1652 59.8048 11.3492 60.2728 10.6262C60.5387 10.2162 60.7347 9.6992 61.1087 9.4382C61.4647 9.1892 62.0097 9.2112 62.5857 9.0902C63.0047 7.8892 63.4417 6.6352 63.8707 5.4072C64.4777 5.4772 64.5628 5.8792 64.4778 6.2332C64.3348 6.8332 64.0658 7.4002 63.8737 7.9892C63.5597 8.9552 62.9707 9.8472 63.5607 10.9742C63.8587 11.5402 63.3747 12.3282 62.7497 12.3862C61.7937 12.4772 61.3617 13.0542 60.9597 13.7852C60.3077 14.9722 59.3747 16.0062 59.0307 17.3592L59.0707 17.3072ZM24.7607 27.7742L24.7987 27.8202C23.3617 26.6282 21.7917 25.6422 20.1097 24.8392C19.7197 24.6522 19.2977 24.4852 18.8747 24.4272C16.6047 24.1232 14.5777 23.2852 12.8177 21.8092C12.6297 21.6522 12.3897 21.5572 12.1807 21.4232C10.2397 20.1692 8.05774 19.4242 5.96274 18.4962C5.51474 18.2982 5.03975 18.1622 4.58475 18.0002C4.05575 18.4352 3.57975 18.8232 3.10675 19.2162C2.48375 19.7332 2.07174 20.4042 2.41174 21.1762C2.69274 21.8152 2.27674 22.2192 2.17474 22.6962C2.45074 22.9442 2.70474 23.1712 2.97874 23.4172C2.26174 23.9752 1.80674 24.6672 0.978743 24.8192C0.757743 25.6742 0.82475 26.4842 1.24475 27.2022C1.64675 27.8872 1.77574 28.5392 1.58774 29.3282C1.38374 30.1872 1.46975 31.0862 1.86775 31.8852C2.31575 32.7852 2.32574 33.5972 1.92874 34.5462C1.40574 35.7952 1.39274 37.1962 2.14674 38.3202C2.99674 39.5892 3.12875 40.7652 2.55075 42.1282C2.14775 43.0792 2.57875 43.9482 2.97475 44.8002C4.03875 45.3002 4.19975 46.4502 4.78575 47.2962C5.06475 47.6992 5.41174 48.0672 5.77574 48.3992C6.89074 49.4162 8.23275 50.0872 9.57374 50.7332C10.3127 51.0882 10.9697 51.4672 11.5217 52.1092C12.3657 53.0882 13.4697 53.6312 14.8127 53.5732C15.3037 53.5522 15.7957 53.5692 16.2457 53.5692C18.3647 56.0982 19.0027 56.4142 22.5117 56.6872C22.6167 56.8082 22.7628 56.9322 22.8528 57.0882C23.8878 58.8782 25.4427 59.7072 27.4977 59.6152C28.1817 59.5842 28.6957 59.8932 29.1017 60.4092C29.6167 61.0632 30.2637 61.5092 31.0547 61.7822C32.2097 62.1802 33.3517 62.2512 34.5067 61.7022C34.8127 61.9962 35.0798 62.2492 35.3418 62.5062C36.3628 63.5092 37.6197 63.7102 38.9697 63.5492C39.8337 63.4452 40.4707 63.0122 40.7947 62.1692C40.9907 61.6582 41.2117 61.1572 41.4397 60.6082C41.1947 59.9122 40.7087 59.2562 41.0157 58.3522C41.1427 57.9782 40.8007 57.4122 40.5987 56.9662C40.4277 56.5872 40.1507 56.2572 39.8937 55.8642C40.5577 55.8642 41.1447 55.8642 41.8307 55.8642C41.6397 56.3092 41.4967 56.6412 41.3887 56.8912C41.5727 57.4882 41.7248 58.0132 41.8978 58.5312C42.0747 59.0582 42.2077 59.6152 42.4757 60.0952C42.9117 60.8732 43.6457 61.1822 44.5287 61.0782C45.3987 60.9762 46.2277 60.7932 46.5237 59.7802C44.5897 58.8522 43.9907 58.2292 44.2027 57.2542C44.4767 57.4812 44.7277 57.6462 44.9258 57.8592C45.4958 58.4802 46.1717 58.8632 47.0217 58.9562C47.3887 58.9972 47.7637 59.0872 48.1037 59.2292C49.1237 59.6552 50.1917 59.5142 51.2397 59.4992C52.0837 59.4862 52.7867 59.0652 53.2997 58.3772C53.5207 58.0792 53.7127 57.7602 53.9277 57.4362C54.1777 57.3762 54.4137 57.2972 54.6567 57.2672C56.2437 57.0702 57.1138 55.9992 57.9258 54.7532C58.6618 53.6252 58.6038 52.5452 58.1178 51.3962C57.8838 50.8412 57.9327 50.3102 58.1987 49.7782C58.3357 49.5042 58.4367 49.2112 58.5467 48.9482C58.0087 48.2632 57.2528 48.2132 56.5618 47.9652C55.7618 48.8342 55.0207 49.6392 54.3507 50.3662C54.4957 51.1642 55.5857 50.5612 55.5217 51.4352C54.7817 51.9622 54.0887 51.3902 53.3857 51.3462C52.7797 51.6802 52.1737 51.9942 51.5857 52.3402C50.8237 52.7882 50.1727 52.6342 49.5627 52.0462C49.2997 51.7922 49.0357 51.4752 48.7107 51.3622C47.3477 50.8912 46.6637 49.7932 46.0707 48.6142C45.7647 48.0052 45.5048 47.3632 45.3118 46.7102C45.0928 45.9692 44.7238 45.3372 44.1738 44.8152C43.0288 43.7272 42.1857 42.4382 41.5397 41.0072C41.5088 40.9392 41.3757 40.9162 41.2887 40.8712C41.1717 41.1462 41.0607 41.4072 40.8907 41.8072C40.2457 41.0602 40.3527 40.2642 40.1937 39.5712C39.9587 38.5482 39.8137 37.4952 40.1247 36.4752C39.7337 35.9432 39.3747 35.4382 38.9987 34.9482C38.2738 34.0042 37.4097 33.2302 36.4197 32.5482C35.0467 31.6012 33.4787 31.2382 31.9307 30.8132C30.4867 30.4162 29.0837 29.9582 27.7637 29.2332C26.7897 28.6962 25.7637 28.2562 24.7607 27.7742ZM71.3517 41.0872C72.2857 41.0872 72.9397 41.0532 73.5877 41.1002C74.0107 41.1302 74.4977 41.1682 74.8277 41.3932C75.7367 42.0102 76.7108 41.8862 77.7038 41.8472C78.7698 41.8062 79.3877 41.2932 79.6387 40.3412C78.9917 39.9002 78.4357 39.5222 77.8487 39.1222C77.6397 39.1972 77.4037 39.2682 77.1777 39.3652C75.9287 39.8962 74.8577 39.5652 73.9557 38.6422C73.4827 38.1592 73.1048 37.5842 72.6797 37.0552C72.4128 36.7232 72.2027 36.2472 71.8537 36.0962C70.7317 35.6122 69.9067 34.7892 69.0677 33.9592C68.9017 33.7952 68.6488 33.7182 68.3717 33.5662C67.6058 34.5122 66.7337 35.0522 65.3347 34.1932C65.8677 34.0182 66.1947 33.9032 66.5277 33.8062C66.8087 33.7232 67.1617 33.7452 67.1547 33.1852C65.4117 32.2782 63.9687 30.7562 61.9827 30.3102C61.5267 29.1692 61.5267 29.1692 60.5157 28.6132C60.4847 28.8782 60.4297 29.1002 60.4357 29.3212C60.4877 31.2432 60.6487 33.1682 60.5867 35.0862C60.5077 37.5132 60.1817 39.9142 58.7897 42.0222C58.6917 42.1702 58.6437 42.3672 58.6227 42.5462C58.6127 42.6332 58.7237 42.7342 58.7787 42.8272C59.0337 42.6822 59.2887 42.5382 59.5788 42.3742C59.9827 42.8542 60.6647 42.9872 60.9377 43.7592C60.4117 43.8782 59.9897 43.9732 59.4077 44.1042C60.5357 45.4852 59.8887 46.9282 59.8507 48.4542C61.0647 48.2702 62.1457 48.1112 63.2237 47.9312C63.2897 47.9202 63.3287 47.7482 63.3787 47.6522C63.1877 47.1822 62.4397 47.0612 62.5007 46.1902C63.5197 46.7542 64.3928 47.2382 65.4088 47.8012C65.6978 47.6982 66.1507 47.4522 66.6287 47.3822C68.5297 47.1052 69.9497 46.0832 71.0867 44.6072C71.5367 44.0232 72.0788 43.7572 72.8347 43.7362C73.7327 43.7122 74.6627 43.6432 75.4177 42.8742C74.9507 42.4452 74.5447 42.0742 74.0447 41.6162C73.1437 42.1022 72.2277 42.1952 71.3517 41.0872ZM73.6478 36.8012C74.1107 37.3342 74.3838 37.7632 74.7598 38.0612C75.9098 38.9742 77.5687 38.5502 78.1897 37.2032C78.3417 36.8712 78.4197 36.4982 78.4917 36.1372C78.6977 35.1072 78.7897 34.0412 79.1068 33.0492C79.3948 32.1492 79.5598 31.2622 79.6048 30.3252C79.6387 29.5862 79.7477 28.8442 79.9037 28.1202C80.3647 25.9812 80.3917 23.8162 80.3607 21.6462C80.3568 21.3782 80.4427 21.0042 79.9017 20.9302C78.3797 23.5682 76.2967 25.9222 75.5717 29.0332C75.4187 29.6882 75.0777 30.3032 74.7927 30.9222C74.4737 31.6142 74.3407 32.3312 74.3747 33.0902C74.4307 34.3342 74.3958 35.5702 73.6478 36.8012ZM58.7347 27.0272C58.8317 26.9232 58.9287 26.8192 59.0267 26.7152C58.6838 25.7992 58.2887 24.8982 58.0087 23.9622C57.6147 22.6472 56.6317 22.0142 55.4177 21.8592C54.2597 21.7112 53.0577 21.7712 51.8887 21.8802C50.0347 22.0512 48.1898 22.3192 46.3457 22.5832C45.3027 22.7322 44.2647 22.9292 43.2377 23.1612C42.9217 23.2322 42.6467 23.4902 42.3357 23.6732C43.5937 25.2142 43.6327 25.2442 45.1317 25.8982C47.3407 25.0412 49.6137 25.0862 51.9227 25.3432C54.2647 25.6022 56.5427 26.1142 58.7347 27.0272ZM47.5827 28.2302C47.5827 28.3672 47.5417 28.5072 47.5887 28.6072C48.3137 30.1362 49.4097 31.1622 51.1547 31.4812C53.2377 31.8632 55.2047 32.6132 57.1097 33.5552C57.8567 33.9252 58.6697 34.2852 59.5497 34.2792C59.9257 32.5392 59.8797 31.8052 59.2667 29.8012C56.1217 28.0272 52.6637 27.5692 49.0737 27.7412C48.5277 27.7672 47.9357 27.6542 47.5827 28.2302ZM35.5577 21.1752C34.6467 22.7952 33.7567 24.3322 32.9177 25.8982C32.6577 26.3832 32.4618 26.9292 32.3678 27.4692C32.2758 28.0032 32.2987 28.5732 32.3647 29.1152C32.4387 29.7222 32.8607 30.0822 33.4337 30.2712C34.5937 30.6552 35.7517 31.0462 37.0847 31.4942C36.9337 29.8442 37.6728 28.4062 38.3548 26.9592C38.7218 26.1792 39.2047 25.4552 39.6057 24.6892C39.7987 24.3192 39.9227 23.9122 40.1227 23.4092C38.7397 22.3512 37.1767 21.8512 35.5577 21.1752ZM10.9127 19.0952C10.7157 16.5752 12.1698 14.7022 13.2148 12.5842C12.3898 11.8072 11.2647 11.7192 10.5037 11.1822C9.35574 11.7422 8.33975 12.3742 7.23575 12.7432C5.60275 13.2882 4.23674 14.2202 2.92674 15.2742C2.70174 15.4552 2.53774 15.7112 2.22674 16.0672C5.13574 17.1472 7.80175 18.4312 10.9127 19.0952ZM53.6287 18.9902C53.0187 18.2472 52.1747 18.1182 51.5417 17.6752C49.7367 16.4112 47.7157 16.3312 45.6507 16.6072C44.4957 16.7602 43.3057 16.9012 42.4427 17.8722C42.2497 18.0902 41.9167 18.1802 41.6617 18.3502C41.0337 18.7732 40.3757 18.7792 39.7157 18.4732C39.3827 18.3192 39.0887 18.0812 38.7637 17.9052C38.6927 17.8672 38.5667 17.9282 38.4668 17.9442C38.5047 18.2472 38.5407 18.5372 38.5747 18.8092C37.8457 19.3752 36.8488 19.4162 36.3867 20.3712C37.4017 21.1002 38.4497 21.6832 39.6127 22.0112C41.8057 20.9472 43.9738 19.9992 46.3307 19.6972C48.7017 19.3902 51.0907 19.2292 53.6287 18.9902ZM44.7967 43.6892C44.9707 42.5262 45.1928 41.5132 45.2578 40.4902C45.3428 39.1572 45.7797 37.9702 46.3857 36.8022C46.9257 35.7622 47.3337 34.6532 47.8507 33.5992C48.5727 32.1292 48.2497 30.8372 47.2307 29.6722C47.0267 29.4392 46.6467 29.3592 46.4167 29.2432C45.6747 30.6082 45.0218 31.8642 44.3158 33.0892C43.7928 33.9972 43.2147 34.8742 42.6387 35.7502C41.7107 37.1632 41.6268 38.6412 42.3027 40.1622C42.6027 40.8392 42.9477 41.5012 43.3277 42.1372C43.6677 42.7062 44.0487 43.2682 44.7967 43.6892ZM29.3377 18.8012C28.9107 19.5892 28.6147 20.2742 28.1947 20.8732C27.7357 21.5272 27.2237 22.1732 26.6247 22.6962C25.6497 23.5472 25.4187 24.6762 25.2117 25.8412C25.1147 26.3852 25.2887 26.8272 25.7927 27.0882C27.0507 27.7422 28.3107 28.3922 29.5797 29.0232C29.8347 29.1502 30.1347 29.3402 30.4607 28.9652C30.0607 27.0702 30.3398 25.2162 31.2148 23.4442C31.5697 22.7232 31.9227 22.0012 32.2347 21.2602C32.3937 20.8822 32.4557 20.4632 32.5717 20.0232C31.5377 19.3922 30.5787 18.8742 29.3377 18.8012ZM13.2797 20.8482C14.4827 22.1462 16.2048 22.5862 17.7558 23.3222C17.9298 23.4042 18.2047 23.2722 18.3627 23.2502C18.4997 21.8682 18.6257 20.6042 18.7587 19.2572C18.1027 19.1242 17.3397 19.3472 16.8767 18.6842C16.4047 18.0082 16.3477 17.3352 16.7677 16.6292C17.8407 16.3762 18.6127 16.8402 19.3367 17.6192C19.7197 16.8452 20.4497 16.3232 20.2097 15.3852C19.4917 14.9592 18.7687 14.5932 18.1207 14.1232C17.6377 13.7732 17.2197 13.5432 16.5927 13.7382C16.2847 13.8342 15.8997 13.6842 15.6037 13.6512C14.1477 15.9012 12.7477 18.0442 13.2797 20.8482ZM38.7558 33.1932C39.2758 34.0322 40.0367 34.5942 41.0027 34.8882C42.6847 32.3372 44.3988 29.8202 43.9518 26.4692C43.3438 25.9762 42.6947 25.4492 41.9587 24.8532C41.4747 25.7502 41.1338 26.5522 40.6458 27.2532C39.4068 29.0362 38.7528 30.9842 38.7558 33.1932ZM46.9447 48.2762C47.2947 47.5312 47.4947 47.2142 47.5957 46.8692C47.9478 45.6672 48.4517 44.5462 49.1577 43.5052C49.4327 43.1002 49.6327 42.6232 49.7757 42.1522C50.1707 40.8462 50.5347 39.5292 50.8797 38.2092C51.1737 37.0842 50.7147 35.7832 49.6687 34.7592C49.5617 35.0052 49.4767 35.2232 49.3757 35.4352C48.8407 36.5532 48.4218 37.7532 47.7298 38.7652C47.0358 39.7812 46.6827 40.8682 46.4337 42.0212C46.2267 42.9832 46.0617 43.9562 45.8937 44.9262C45.8637 45.1002 45.8637 45.3012 45.9207 45.4652C46.2017 46.2772 46.5067 47.0812 46.9447 48.2762ZM50.7217 33.8532C51.1017 35.2502 51.7528 36.4312 52.1868 37.6892C52.2248 37.7982 52.3157 37.9172 52.4157 37.9722C53.2167 38.4222 53.9857 38.9692 54.8407 39.2702C56.0487 39.6952 57.3218 39.9332 58.6608 40.2762C59.1858 39.2212 59.5427 38.1492 59.3627 36.8792C59.0277 36.7042 58.7197 36.4932 58.3787 36.3732C56.0517 35.5562 53.7197 34.7562 51.3867 33.9572C51.2267 33.9032 51.0487 33.9032 50.7217 33.8532ZM45.5427 2.6032C45.3637 2.4992 45.2987 2.43421 45.2657 2.44721C43.7447 3.03121 42.5228 4.07719 41.2708 5.07019C41.0418 5.25219 40.8527 5.5602 40.7777 5.8452C40.4997 6.9082 39.7907 7.6972 39.1297 8.5062C38.2667 9.5652 37.9297 10.7752 37.8357 12.2122C38.1727 12.2562 38.5787 12.4292 38.7137 12.3062C39.3987 11.6832 40.2878 11.6432 41.1178 11.4012C41.2258 11.1472 41.3638 10.9312 41.4108 10.6972C41.7618 8.95321 42.6077 7.45819 43.6447 6.04019C44.2287 5.24119 44.7577 4.3982 45.2657 3.5482C45.4347 3.2642 45.4617 2.8962 45.5427 2.6032ZM53.2057 49.6092C55.9408 48.2932 57.4977 45.5422 57.2907 42.5322C55.9877 41.9252 54.5758 41.6082 53.0208 41.3112C53.0638 42.2522 53.1277 43.0452 53.1267 43.8372C53.1257 44.5752 53.2007 45.3602 52.9857 46.0422C52.6077 47.2462 52.8488 48.3352 53.2057 49.6092ZM52.3407 50.9592C52.3027 49.8472 52.3477 48.8552 52.2087 47.8902C52.1097 47.1982 52.0877 46.5842 52.3107 45.8992C52.6137 44.9652 52.4197 43.8332 51.9717 42.7012C51.1437 44.0662 50.3078 45.3742 49.5508 46.7252C49.2197 47.3152 49.0317 47.9892 48.8138 48.6362C48.6318 49.1752 48.5707 49.7272 48.9297 50.3162C49.6978 50.7182 50.5137 51.1472 51.3867 51.6052C51.7367 51.3692 52.0827 51.1342 52.3407 50.9592ZM56.0587 20.7172C55.8117 20.5222 55.6517 20.2942 55.4557 20.2572C54.7297 20.1192 53.9858 19.9302 53.2598 19.9682C51.0978 20.0822 48.9397 20.2642 46.7847 20.4782C45.0477 20.6512 43.3987 21.1902 41.8097 21.9032C41.4987 22.0432 41.2287 22.2762 40.9527 22.4592C41.2547 23.0872 41.6337 22.8402 41.9527 22.7252C43.2387 22.2622 44.5307 21.8392 45.9157 21.8052C47.9017 21.7572 49.8628 21.5272 51.7988 21.0552C52.6358 20.8512 53.4947 20.7682 54.3747 20.9462C54.8777 21.0462 55.4447 21.1652 56.0587 20.7172ZM76.1747 11.1712C76.0787 11.3552 75.9448 11.5422 75.8808 11.7512C75.5128 12.9322 75.2797 14.1702 74.7767 15.2872C74.0658 16.8612 73.1597 18.3472 72.3337 19.8692C71.8317 20.7952 71.3197 21.7162 70.8268 22.6462C70.7828 22.7282 70.8477 22.8692 70.8627 22.9822C70.9118 22.9772 70.9877 22.9912 71.0047 22.9652C72.3037 21.0142 73.5407 19.0172 74.9108 17.1172C76.0117 15.5922 76.2447 13.8112 76.6917 12.0862C76.7817 11.7422 76.7527 11.3412 76.1747 11.1712ZM45.9007 26.7952C46.4667 27.3002 46.4658 27.2982 46.8158 27.2382C50.1048 26.6782 53.3617 26.7232 56.5727 27.7292C56.9957 27.8622 57.4397 27.9272 57.8747 28.0242C55.4747 26.4172 52.7427 26.0882 50.0257 26.0042C48.6797 25.9632 47.1577 25.8612 45.9007 26.7952ZM31.2767 27.5482C31.8837 26.0062 32.6327 24.5992 33.4987 23.2382C33.8877 22.6272 34.0958 21.8942 34.3418 21.2012C34.3808 21.0892 34.2167 20.7912 34.1017 20.7612C33.8967 20.7102 33.5288 20.7202 33.4518 20.8432C32.9638 21.6282 32.4617 22.4192 32.1077 23.2682C31.5377 24.6292 31.0087 26.0242 31.2767 27.5482ZM73.4457 34.7702C73.5647 33.5512 73.5578 32.3032 73.8398 31.1232C74.1377 29.8742 74.7097 28.6912 75.1628 27.4782C75.1838 27.4202 75.2127 27.3652 75.2257 27.3052C75.2857 27.0472 75.3387 26.7872 75.4597 26.2322C73.1667 29.3612 72.4677 32.1792 73.4457 34.7702ZM57.8937 35.0362C55.7797 33.5752 51.4847 32.1092 49.8657 32.2142C52.3127 33.8872 55.1197 34.4292 57.8937 35.0362ZM80.4767 35.7542C79.8827 35.3342 79.5568 35.5402 79.3958 36.0392C79.1168 36.9092 78.8797 37.7932 78.6297 38.6572C79.3277 39.2372 79.3278 39.2372 80.7767 38.8832C81.1987 37.7602 80.3197 36.7752 80.4767 35.7542ZM14.1617 13.0292C13.9057 13.3542 13.6087 13.6542 13.4007 14.0082C12.4517 15.6212 11.5347 17.2532 11.7127 19.2332C11.7397 19.5362 11.7377 19.8672 12.2417 19.9382C12.3947 19.1612 12.4987 18.3672 12.7168 17.6062C12.9377 16.8342 13.2557 16.0872 13.5597 15.3422C13.8517 14.6242 14.4467 14.0282 14.1617 13.0292ZM80.6077 29.8692C80.3107 31.4852 80.0587 32.8662 79.7907 34.3312C80.2717 34.5032 80.6627 35.0002 81.3747 34.6672C81.7557 33.0902 81.6387 31.5522 80.6077 29.8692ZM58.8357 47.9012C59.2187 46.9162 59.4257 46.0872 58.9787 45.2672C58.8367 45.0052 58.5007 44.8482 58.2057 44.6042C57.8887 45.4352 57.6217 46.1162 57.3747 46.8022C57.3397 46.8992 57.4017 47.0292 57.4287 47.2022C57.5987 47.3112 57.7907 47.4602 58.0037 47.5702C58.2147 47.6792 58.4447 47.7482 58.8357 47.9012ZM39.0918 16.0622C39.2378 17.1282 39.5907 17.6272 40.3987 17.7742C41.0197 17.8872 41.4557 17.6132 41.6567 17.0192C40.5587 15.6002 40.5588 15.6002 39.0918 16.0622ZM52.9837 39.6562C54.1507 41.1732 55.9147 41.2022 57.6507 41.3102C56.2807 40.3282 54.5868 40.1622 52.9837 39.6562ZM60.2217 12.9052C58.1227 14.6682 57.4207 15.8322 57.4297 17.3852C58.5707 16.1402 59.4087 14.7902 60.2217 12.9052ZM28.7787 17.2792C28.9987 17.2222 29.2707 17.2282 29.4277 17.0962C29.8997 16.7002 30.3517 16.2742 30.7647 15.8172C31.3177 15.2042 31.2657 15.0462 30.3307 14.1692C30.1087 14.4542 29.6927 14.7472 29.7127 15.0082C29.7837 15.9482 29.1307 16.4412 28.7787 17.2792ZM42.2578 15.9452C42.5728 16.2352 42.6248 16.3172 42.6608 16.3112C44.0298 16.0812 45.3977 15.8452 46.7627 15.5942C46.8497 15.5782 46.9117 15.4242 47.0717 15.2292C46.7887 15.1042 46.5227 14.8762 46.2927 14.9072C45.5067 15.0152 44.7277 15.1932 43.9567 15.3862C43.4437 15.5152 42.9488 15.7142 42.2578 15.9452ZM37.6357 16.7372C37.1977 16.1122 36.5967 16.1112 35.9997 16.3662C35.4657 16.5942 34.8347 16.8152 34.9607 17.9252C35.9207 17.5002 37.0947 18.0862 37.6357 16.7372ZM34.5707 11.0292C35.3877 11.5352 36.0277 11.8362 36.8837 11.5582C36.9647 10.8352 37.5187 10.2392 37.2717 9.2222C36.9037 9.9932 36.6287 10.5712 36.2847 11.2922C35.8847 10.8572 35.6137 10.5642 35.2737 10.1942C35.0727 10.4322 34.8877 10.6532 34.5707 11.0292ZM58.5677 7.49519C58.4507 6.9142 58.2287 6.4992 57.7607 6.2412C57.4187 6.0522 56.9327 6.25719 56.9327 6.65219C56.9327 6.99419 56.9778 7.43321 57.1868 7.65621C57.5678 8.05921 58.0617 8.01219 58.5677 7.49519ZM61.9727 5.8432C61.8957 5.2762 61.5208 4.96419 61.0058 4.86319C60.8088 4.82419 60.4817 4.9362 60.3747 5.0912C60.2617 5.2532 60.2538 5.59619 60.3528 5.77719C60.6978 6.41819 61.2197 6.4242 61.9727 5.8432ZM18.5357 8.5992C17.8727 8.3002 17.4877 8.1192 17.0957 7.9512C16.7607 7.8082 16.4177 7.6002 16.0797 7.9512C15.8427 8.1982 16.1297 8.5392 16.7797 8.78321C17.2807 8.9712 17.7827 9.2112 18.5357 8.5992ZM26.2887 21.3912C27.2277 21.1132 27.6797 20.3902 27.9877 19.5842C28.0857 19.3272 27.9857 18.9962 27.9637 18.3022C27.2667 19.5862 26.7777 20.4892 26.2887 21.3912ZM38.7157 13.7972C38.4527 13.6162 38.3137 13.4972 38.1527 13.4182C37.9917 13.3402 37.8147 13.2732 37.6377 13.2532C37.3327 13.2162 36.9737 13.2122 36.9147 13.5952C36.8857 13.7882 37.0177 14.0742 37.1717 14.2152C37.7067 14.7032 37.8897 14.6482 38.7157 13.7972ZM29.2417 10.9532C28.1557 10.1572 28.1487 10.1382 27.6907 10.2902C27.5377 10.3412 27.3647 10.5042 27.3167 10.6522C27.2717 10.7942 27.3217 11.0452 27.4267 11.1422C27.9977 11.6682 28.3987 11.6322 29.2417 10.9532ZM78.1407 21.3632C79.1077 20.5362 79.6687 19.4652 80.0658 18.3092C80.0868 18.2492 79.9407 18.1312 79.7797 17.9212C79.2137 19.1102 78.6768 20.2362 78.1407 21.3632ZM31.9287 13.6652C31.9507 14.4722 32.2147 14.9302 32.7397 15.2032C32.8717 15.2712 33.1217 15.2562 33.2397 15.1712C33.3537 15.0882 33.4627 14.8212 33.4108 14.7142C33.1427 14.1622 32.7747 13.7042 31.9287 13.6652ZM58.8717 2.44119C58.4668 3.45819 58.0247 4.2342 57.9818 5.2162C58.3198 5.3142 58.5798 5.38919 58.8717 5.47319C58.8717 4.48119 58.8717 3.61419 58.8717 2.44119ZM68.2737 20.7852C67.9757 21.7302 68.0857 22.1832 68.6947 22.3432C68.8247 22.3762 69.0757 22.2692 69.1467 22.1522C69.4347 21.6742 69.2217 21.2752 68.4507 20.7732C68.4107 20.7472 68.3327 20.7792 68.2737 20.7852ZM23.5797 11.4002C23.4707 11.5392 23.2917 11.6632 23.2747 11.8052C23.2207 12.2782 23.6277 12.7192 24.1837 12.7502C24.3877 12.7622 24.6647 12.6182 24.8007 12.4562C25.0227 12.1882 24.7297 11.7872 24.1487 11.5362C23.9857 11.4672 23.7997 11.4512 23.5797 11.4002ZM40.7587 24.4072C40.0747 25.5252 39.5897 26.2792 39.1517 27.0592C39.0367 27.2652 39.0667 27.5532 38.9867 28.1052C39.9327 26.9572 40.5787 26.0342 40.7587 24.4072ZM47.9668 35.5912C47.6077 36.2972 47.2357 36.9972 46.8997 37.7142C46.8327 37.8582 46.9037 38.0672 46.9207 38.5032C47.7107 37.4912 48.0098 36.5992 47.9668 35.5912ZM18.6437 13.1482C18.7257 13.0482 18.9467 12.8972 18.9847 12.7102C19.0707 12.2842 18.7227 11.8752 18.2507 11.8662C18.0997 11.8632 17.8337 12.1232 17.8107 12.2892C17.7337 12.8192 18.0247 13.1322 18.6437 13.1482ZM44.2377 31.1152C44.9487 30.2552 45.4848 29.3142 45.1198 28.0522C44.8037 29.1522 44.5217 30.1332 44.2377 31.1152ZM62.5927 11.4672C62.6777 10.8892 62.2487 10.3292 61.8147 10.3412C61.7177 10.3432 61.5817 10.4432 61.5367 10.5332C61.3097 10.9862 61.5587 11.5712 62.0467 11.6552C62.2297 11.6872 62.4457 11.5222 62.5927 11.4672ZM41.4487 13.5332C41.3567 12.9842 40.8527 12.5532 40.3907 12.6322C40.2667 12.6532 40.0848 12.8952 40.0938 13.0242C40.1328 13.5642 40.6037 13.9412 41.1017 13.8402C41.2427 13.8102 41.3517 13.6222 41.4487 13.5332ZM59.8477 3.6732C60.7097 3.7932 60.7097 3.7932 61.3927 3.5642C60.4097 2.8572 60.4097 2.8572 59.8477 3.6732ZM73.0407 26.7122C73.2867 25.9242 73.2508 25.7392 72.7708 25.5782C72.5137 25.4912 72.2637 25.5672 72.1967 25.8482C72.0677 26.3832 72.3807 26.6272 72.8597 26.7222C72.9177 26.7352 72.9797 26.7172 73.0407 26.7122ZM52.7578 12.3572C52.5968 12.3722 52.4577 12.3492 52.3577 12.4012C52.2117 12.4762 52.0027 12.5962 51.9907 12.7142C51.9787 12.8322 52.1737 13.0792 52.2827 13.0822C52.6357 13.0902 52.9938 13.0282 53.3418 12.9542C53.4188 12.9382 53.5117 12.7582 53.5037 12.6602C53.4967 12.5812 53.3607 12.4802 53.2637 12.4482C53.0907 12.3922 52.9028 12.3812 52.7578 12.3572ZM38.0267 8.1172C39.0827 7.1812 39.0827 7.1812 39.0647 6.4242C38.3337 7.0812 38.3368 7.0832 38.0267 8.1172ZM50.2307 15.6252C50.3747 15.7162 50.5187 15.8082 50.6617 15.8992C51.1017 15.4892 51.2607 14.9632 51.0717 14.0292C50.7157 14.7052 50.4727 15.1642 50.2307 15.6252ZM34.5547 19.5372C34.6377 19.6582 34.7207 19.7792 34.8037 19.9002C35.2477 19.6502 35.6927 19.4012 36.3848 19.0122C35.3657 18.7482 34.9198 19.0502 34.5547 19.5372ZM32.8347 12.6632C33.5677 13.0072 33.9357 12.7502 34.2957 12.2652C33.6257 11.7592 33.2157 11.9132 32.8347 12.6632ZM66.5938 24.0282C66.4948 24.1122 66.2827 24.2022 66.2637 24.3222C66.1997 24.7252 66.4097 25.0372 66.8017 25.1132C66.9787 25.1472 67.1968 24.9722 67.3958 24.8922C67.2598 24.6462 67.1397 24.3872 66.9787 24.1592C66.9237 24.0822 66.7627 24.0812 66.5938 24.0282ZM51.9577 39.8442C51.4087 40.0682 51.2337 40.4262 51.5717 41.2382C51.7617 40.5522 51.8587 40.1992 51.9577 39.8442ZM18.4157 17.8652C18.0367 17.7452 17.8007 17.6602 17.5577 17.6082C17.5327 17.6022 17.4037 17.8482 17.4317 17.8782C17.5747 18.0332 17.7357 18.1952 17.9247 18.2702C17.9927 18.2962 18.1537 18.0872 18.4157 17.8652ZM23.5137 20.9332C23.2697 21.1792 23.1637 21.2872 23.0577 21.3942C23.1827 21.5042 23.2987 21.6832 23.4368 21.7022C23.5428 21.7162 23.7697 21.5332 23.7747 21.4292C23.7807 21.2872 23.6297 21.1372 23.5137 20.9332Z" fill="black" fill-opacity="0.1"/>
<path d="M5.94276 27.9322C4.79476 27.3892 3.97176 26.6622 3.66376 25.4962C3.61276 25.3032 3.72376 25.0662 3.81276 24.5342C4.41276 25.4042 4.84576 26.0312 5.21976 26.5722C5.48876 26.6182 5.62975 26.6892 5.72575 26.6512C6.87475 26.1922 7.77977 26.4842 8.78377 27.2292C10.1368 28.2332 11.8178 28.6272 13.4478 29.0402C15.0158 29.4362 16.5928 29.8032 17.9918 30.6632C18.4638 30.9532 18.9948 31.1982 19.3648 31.5912C19.8448 32.1002 20.3768 32.2212 21.0268 32.2362C21.9528 32.2562 22.8368 32.4372 23.7478 32.7152C25.0978 33.1282 26.5578 33.1712 27.9608 33.4272C28.6848 33.5592 29.4478 33.6962 30.0838 34.0342C31.3628 34.7162 32.7118 35.1502 34.0958 35.5182C35.6648 35.9362 36.4668 36.9602 36.1938 38.4982C35.9198 40.0442 35.9478 41.5862 35.9248 43.1372C35.9148 43.8132 35.8368 44.5072 35.6538 45.1562C35.3648 46.1822 35.1728 47.1952 35.2018 48.2732C35.2428 49.7762 34.8248 50.2422 33.4778 50.7862C31.9718 51.3932 30.5998 51.3432 29.2688 50.3232C27.9658 49.3252 26.5208 48.6312 24.8268 48.5942C24.5918 48.5882 24.3478 48.4642 24.1278 48.3552C21.0158 46.7972 17.6768 45.7952 14.5028 44.3942C13.4328 43.9222 12.4158 43.2862 11.4688 42.5932C10.3718 41.7902 9.39676 40.8372 8.24876 40.0762C6.72676 39.0662 6.36476 37.3592 6.09976 35.6842C5.99476 35.0162 6.06876 34.3192 6.06276 33.6352C6.05976 33.1372 6.14476 32.6212 6.04176 32.1462C5.79976 31.0302 5.86676 29.9262 5.99176 28.8122C6.01976 28.5702 5.96776 28.3202 5.94276 27.9322ZM26.5608 46.0892C26.9838 46.4222 27.4208 46.5352 27.9458 46.1552C28.0438 45.7102 28.1328 45.2282 28.2568 44.7562C28.5848 43.4982 28.2838 42.8022 27.0318 42.0022C27.0168 42.1952 26.9778 42.3802 26.9928 42.5602C27.0538 43.2982 27.0768 44.0442 27.2168 44.7692C27.3468 45.4462 27.0348 45.8192 26.5328 46.1372C26.6218 44.0372 25.9728 42.0462 25.6278 39.9782C25.4358 40.1652 25.3038 40.3642 25.2988 40.5672C25.2688 41.7992 25.3598 43.0412 25.2298 44.2592C25.1088 45.3692 25.5798 45.8692 26.5608 46.0892ZM10.5298 40.0852C10.2418 39.3832 9.77276 38.8472 9.10776 38.4702C8.49676 38.1232 8.08377 37.6152 7.86977 36.9292C7.78677 36.6612 7.57976 36.4332 7.34076 36.0422C7.54176 38.4042 8.41876 39.4502 10.5608 40.0502C10.5288 40.6932 10.9548 41.0962 11.3958 41.4112C12.3508 42.0932 13.2978 42.8282 14.3538 43.3152C16.0358 44.0902 17.8088 44.6682 19.5328 45.3542C20.7928 45.8562 22.0638 46.3412 23.2788 46.9392C24.1228 47.3552 24.9478 47.7292 25.8948 47.8362C26.8958 47.9492 27.7918 48.3292 28.6268 48.9272C29.2758 49.3922 30.0178 49.7412 30.7478 50.0762C31.5098 50.4262 33.4998 49.9602 34.0008 49.3052C34.2098 49.0332 34.3158 48.6402 34.3568 48.2882C34.4208 47.7362 34.2798 47.1432 34.4208 46.6212C34.8908 44.8812 35.1578 43.1522 35.0418 41.3252C34.9698 40.1912 34.8508 39.0082 35.2018 37.8532C35.3098 37.4992 35.1888 36.9802 34.5038 36.9452C34.3528 38.2932 34.2178 39.6352 34.0398 40.9732C33.9918 41.3322 33.8608 41.7022 33.6808 42.0182C33.2828 42.7152 33.2118 43.4212 33.4868 44.1632C33.8928 45.2552 33.7248 46.3782 33.6338 47.4832C33.5498 48.5052 32.9408 49.0322 31.9218 49.0792C31.0438 49.1202 30.1948 49.0422 29.4458 48.4762C28.7008 47.9132 27.8548 47.5882 26.9508 47.3032C25.7158 46.9112 24.4228 46.6522 23.2428 46.1682C20.8378 45.1832 18.5258 43.9702 16.1768 42.8482C15.3888 42.4712 14.6408 42.0502 14.1098 41.3122C13.9378 41.0742 13.6658 40.8312 13.3928 40.7532C12.4488 40.4942 11.4858 40.3032 10.5298 40.0852ZM18.6038 42.8942C18.7778 42.6872 19.0158 42.5282 19.0698 42.3202C19.3038 41.4242 19.4748 40.5532 19.2738 39.5792C18.8718 37.6342 18.6388 35.6492 19.1138 33.6672C19.2808 32.9662 19.0488 32.4312 18.4698 32.0652C17.8948 31.7022 17.2968 31.3702 16.6828 31.0772C14.4828 30.0262 12.0818 29.5922 9.77775 28.8612C9.33375 28.7202 8.86877 28.6472 8.24477 28.5042C8.22477 29.3462 8.20076 30.0142 8.19476 30.6822C8.18576 31.6082 8.30976 32.5532 8.16276 33.4552C7.88576 35.1582 8.47376 36.4762 9.66276 37.6102C9.88476 37.8222 10.2028 37.9582 10.3698 38.2022C11.0618 39.2182 12.0488 39.6512 13.2248 39.6892C13.7628 39.7072 14.2128 39.8462 14.5338 40.2662C15.5658 41.6172 17.1158 42.1412 18.6038 42.8942ZM24.7768 34.1942C24.7768 34.7862 24.7018 35.1652 24.7898 35.5002C25.1568 36.8872 25.6788 38.2012 26.6448 39.3082C27.1708 39.9122 27.6718 40.5462 28.1058 41.2172C29.3948 43.2102 30.1748 45.4242 30.8228 47.6922C30.8508 47.7892 30.9898 47.8542 31.2218 48.0662C31.3858 47.8422 31.5548 47.6132 31.7378 47.3622C31.9408 47.4242 32.1708 47.4932 32.4358 47.5742C32.8418 46.5202 33.0148 45.4672 32.6458 44.3512C32.3488 43.4562 32.2488 42.5822 32.7948 41.6812C33.0648 41.2352 33.1448 40.6112 33.1318 40.0712C33.1158 39.4312 33.1998 38.8672 33.4738 38.2822C33.7628 37.6642 33.6358 37.3232 33.0498 37.0802C32.2538 36.7492 31.4328 36.4582 30.5988 36.2432C29.2808 35.9032 27.9488 35.6492 26.7488 34.9342C26.2298 34.6232 25.6018 34.4942 24.7768 34.1942ZM20.7948 43.6462C21.3088 43.0632 20.9408 42.3612 20.9998 41.7152C21.0618 41.0382 21.0428 40.3522 21.1298 39.6782C21.2248 38.9432 21.4078 38.2192 21.5428 37.4892C21.6658 36.8192 21.7968 36.1492 21.8848 35.4742C21.9658 34.8552 22.2618 34.2262 21.9638 33.5372C21.2868 33.8672 21.1468 34.4122 21.0538 34.9552C20.7928 36.4752 20.5018 37.9942 20.3338 39.5252C20.2068 40.6912 20.2378 41.8752 20.2208 43.0502C20.2158 43.3762 20.3498 43.6512 20.7948 43.6462ZM22.3368 44.6452C22.5738 44.2182 22.7468 44.0332 22.7778 43.8262C22.8508 43.3392 22.8838 42.8422 22.8818 42.3482C22.8738 40.7412 22.8668 39.1422 23.1748 37.5442C23.3358 36.7102 23.3008 35.8222 23.0868 34.5302C22.2648 38.0722 21.5128 41.1592 22.3368 44.6452ZM23.5038 45.0582C24.0098 45.3302 24.2898 45.1982 24.3298 44.8392C24.4118 44.1042 24.4248 43.3602 24.4428 42.6182C24.4818 41.0152 24.5128 39.4132 24.5238 37.8102C24.5248 37.6882 24.3408 37.5642 24.1878 37.3722C23.3958 39.9462 23.7618 42.4982 23.5038 45.0582ZM7.03377 32.7592C7.42977 31.2352 7.12977 29.7342 7.04877 28.2282C6.67677 29.7382 6.81677 31.2552 7.03377 32.7592ZM28.9908 45.2552C28.7878 46.9912 28.7878 46.9912 29.8588 47.1292C29.6138 46.6022 29.3938 46.1242 28.9908 45.2552Z" fill="black" fill-opacity="0.1"/>
<path d="M40.9899 42.4775C41.3749 43.2905 41.2448 43.9435 41.0128 44.5495C40.7998 45.1065 40.8068 45.6175 40.9678 46.1715C41.2528 47.1535 41.5048 48.1465 41.8038 49.2595C41.5538 49.7885 40.9169 49.8875 40.3119 49.8945C39.5789 49.9035 38.9009 49.6525 38.0059 48.8175C39.0039 48.9805 39.5729 49.0745 40.1989 49.1765C40.6319 48.4545 40.6819 47.6645 40.4089 47.0255C39.7199 45.4145 40.2919 44.0515 40.9899 42.4775Z" fill="black" fill-opacity="0.1"/>
<path d="M39.749 53.0024C40.675 52.6214 40.179 51.7365 40.603 51.0645C41.144 51.6485 41.657 52.2014 42.274 52.8674C41.991 53.1424 41.652 53.3854 41.435 53.7094C41.218 54.0344 41.124 54.4405 40.886 55.0345C40.639 54.5295 40.501 54.2114 40.331 53.9114C40.16 53.6074 39.955 53.3224 39.749 53.0024Z" fill="black" fill-opacity="0.1"/>
<path d="M29.4736 57.1692C29.7306 56.8892 29.9296 56.6612 30.1396 56.4442C30.3226 56.2552 30.5826 56.1182 30.7476 56.3732C30.8406 56.5182 30.7916 56.8552 30.6796 57.0152C30.0286 57.9452 29.4506 58.1392 28.4796 57.7232C27.7576 57.4132 27.0486 57.0552 26.3286 56.2882C26.7366 56.2532 26.9626 56.1652 27.1286 56.2302C27.8596 56.5212 28.4646 57.1162 29.4736 57.1692Z" fill="black" fill-opacity="0.1"/>
<path d="M54.5497 55.0965C55.1777 54.7615 55.6447 54.5135 56.1777 54.2295C56.0847 55.4325 55.1457 56.1745 54.2747 55.8475C53.9877 55.7405 53.7117 55.5895 53.4557 55.4205C53.1077 55.1905 52.7837 54.9245 52.4717 54.6905C52.6167 54.1495 52.9477 54.2405 53.2087 54.3595C53.6517 54.5615 54.0657 54.8265 54.5497 55.0965Z" fill="black" fill-opacity="0.1"/>
<path d="M29.8115 58.5828C30.0165 58.5828 30.2415 58.5288 30.4255 58.5928C31.1265 58.8328 31.8045 59.1398 32.5095 59.3648C33.1735 59.5778 33.8545 59.6948 34.2915 58.6368C34.5015 59.0728 34.7125 59.3068 34.6655 59.4628C34.5865 59.7248 34.3845 60.0728 34.1605 60.1408C33.7655 60.2598 33.3115 60.2358 32.8895 60.1938C32.5925 60.1648 32.2985 60.0278 32.0185 59.9048C31.2525 59.5708 30.4655 59.2738 29.8115 58.5828Z" fill="black" fill-opacity="0.1"/>
<path d="M47.6246 55.1055C47.8976 55.2975 48.2317 55.4415 48.4337 55.6915C49.1467 56.5785 49.9167 57.1555 51.1027 56.5265C51.1847 56.4835 51.3836 56.6605 51.6266 56.7855C51.2016 57.4035 50.6417 57.5685 50.0247 57.6195C49.5007 57.6635 49.0667 57.4475 48.6897 57.1075C48.1467 56.6185 47.7117 56.0485 47.3477 55.4285C47.4397 55.3215 47.5326 55.2125 47.6246 55.1055Z" fill="black" fill-opacity="0.1"/>
<path d="M11.3594 23.9376C10.9254 23.8706 10.7544 23.8426 10.5834 23.8186C10.4044 23.7936 10.2244 23.7706 10.0194 23.7436C9.94239 23.9286 9.7804 24.1216 9.8214 24.2526C9.9584 24.6916 10.1684 25.1086 10.3544 25.5416C9.9554 25.9906 9.51939 25.8646 9.31239 25.4296C9.11239 25.0076 9.0664 24.4826 9.0674 24.0016C9.0684 23.3416 9.3814 22.9656 9.8434 22.8916C10.4494 22.7926 10.7954 22.9996 11.3594 23.9376Z" fill="black" fill-opacity="0.1"/>
<path d="M5.42354 34.4582C4.92954 34.8772 4.70354 35.0642 4.48154 35.2592C4.06654 35.6212 3.94354 36.0382 4.19454 36.5622C4.32254 36.8282 4.39753 37.1232 4.45453 37.4152C4.47153 37.4992 4.36254 37.6512 4.27254 37.6992C4.18554 37.7452 4.00854 37.7422 3.93854 37.6812C3.32554 37.1542 3.00753 36.1312 3.25653 35.5562C3.57853 34.8172 4.15654 34.4642 5.42354 34.4582Z" fill="black" fill-opacity="0.1"/>
<path d="M3.00079 28.0625C3.65779 29.9155 3.65779 29.9155 4.83479 30.7645C4.55479 31.2035 4.1288 31.2485 3.7598 31.0455C2.8978 30.5705 2.4688 29.7795 2.4668 28.8015C2.4668 28.6175 2.72479 28.4315 3.00079 28.0625Z" fill="black" fill-opacity="0.1"/>
<path d="M15.1595 46.3857C15.4945 46.6107 15.8355 46.8267 16.1635 47.0617C16.7675 47.4947 17.3545 47.9427 18.1805 47.6427C18.2655 47.6127 18.5695 47.8727 18.5515 47.9337C18.4915 48.1377 18.3665 48.3577 18.1995 48.4827C18.0755 48.5767 17.8415 48.5737 17.6685 48.5427C16.4665 48.3307 15.5345 47.7267 14.8955 46.7167C14.9835 46.6057 15.0705 46.4967 15.1595 46.3857Z" fill="black" fill-opacity="0.1"/>
<path d="M29.134 31.3572C29.608 31.8132 30.032 32.3472 30.571 32.7062C31.12 33.0722 31.784 33.2672 32.408 33.5412C32.471 33.9732 32.14 34.0802 31.853 34.0182C31.321 33.9022 30.732 33.7922 30.312 33.4832C29.677 33.0132 29.122 32.4082 29.134 31.3572Z" fill="black" fill-opacity="0.1"/>
<path d="M36.5878 55.9695C36.5448 56.7725 36.0248 56.8674 35.5348 56.8484C34.5478 56.8074 33.3888 57.2075 32.6768 55.8145C33.4708 55.9235 34.1298 56.0634 34.7928 56.0914C35.3808 56.1164 35.9738 56.0165 36.5878 55.9695Z" fill="black" fill-opacity="0.1"/>
<path d="M36.6939 51.9658C37.6349 52.6778 38.1609 53.9698 39.5169 53.9998C39.4399 54.6248 39.0369 54.6878 38.7029 54.5648C37.6299 54.1738 36.8329 53.4548 36.4439 52.3508C36.4209 52.2878 36.5589 52.1678 36.6939 51.9658Z" fill="black" fill-opacity="0.1"/>
<path d="M26.0996 53.7222C26.1706 54.2702 25.8636 54.4792 25.4676 54.4432C24.2266 54.3272 23.2796 53.8012 22.9346 52.3312C23.7426 52.3482 23.8606 53.1892 24.3946 53.3492C24.9566 53.5172 25.5416 53.6032 26.0996 53.7222Z" fill="black" fill-opacity="0.1"/>
<path d="M6.11281 24.312C5.46381 24.126 5.32681 23.6399 5.32381 23.1509C5.32081 22.8059 5.40181 22.3779 5.61481 22.1339C5.87581 21.8369 6.2968 21.6509 6.6828 21.5089C6.8368 21.4529 7.08082 21.647 7.38082 21.765C6.88382 22.202 6.36981 22.4749 6.15181 22.9009C5.96481 23.2679 6.11281 23.809 6.11281 24.312Z" fill="black" fill-opacity="0.1"/>
<path d="M43.7617 50.7998C44.2617 51.1978 44.6677 51.5218 45.0697 51.8418C45.4537 51.6738 45.7807 51.5308 46.2657 51.3178C46.2657 51.6168 46.3317 51.8518 46.2527 52.0168C46.0547 52.4298 45.6747 52.6958 45.2247 52.6298C44.8857 52.5798 44.5507 52.3758 44.2577 52.1768C43.9337 51.9558 43.8937 51.7608 43.7617 50.7998Z" fill="black" fill-opacity="0.1"/>
<path d="M6.7828 40.8632C7.3848 41.7742 7.9068 42.5662 8.4818 43.4372C8.4558 43.4592 8.32579 43.6692 8.21079 43.6602C7.50979 43.6062 7.1498 43.0722 6.8448 42.5372C6.5748 42.0632 6.2668 41.5502 6.7828 40.8632Z" fill="black" fill-opacity="0.1"/>
<path d="M12.328 45.8298C11.796 46.3338 11.66 46.5678 11.474 46.6198C10.937 46.7668 10.538 46.4358 10.173 46.1038C9.68902 45.6638 9.62902 45.4578 9.62402 44.3848C10.402 45.0248 10.815 46.0368 12.328 45.8298Z" fill="black" fill-opacity="0.1"/>
<path d="M9.44275 48.2732C8.53275 48.7442 8.07675 48.2202 7.60175 47.9122C7.05875 47.5602 6.53574 47.1492 6.51074 46.2362C7.50974 46.9302 8.37875 47.5342 9.44275 48.2732Z" fill="black" fill-opacity="0.1"/>
<path d="M33.1966 52.8102C32.6446 53.5782 31.9276 53.6132 31.2606 53.6342C30.7086 53.6522 30.1676 53.4642 29.6606 52.8102C30.4256 52.8502 31.0176 52.8512 31.6016 52.9202C32.1166 52.9822 32.5126 52.1382 33.1966 52.8102Z" fill="black" fill-opacity="0.1"/>
<path d="M22.8999 29.8652C24.1469 30.5582 25.0409 31.0552 25.9089 31.5392C25.8899 31.9382 25.6669 32.0562 25.4049 31.9632C24.4679 31.6312 23.5059 31.3172 22.8999 29.8652Z" fill="black" fill-opacity="0.1"/>
<path d="M38.6958 58.9252C38.5368 59.4372 38.2108 59.4152 37.9128 59.3312C36.9808 59.0672 36.3288 58.4852 35.8418 57.4982C36.1648 57.4782 36.3768 57.3982 36.4768 57.4722C36.8738 57.7642 37.2128 58.1392 37.6198 58.4152C37.9478 58.6382 38.3428 58.7632 38.6958 58.9252Z" fill="black" fill-opacity="0.1"/>
<path d="M43.9497 55.7682C44.9137 55.2392 45.6107 55.9922 46.3937 55.9472C46.5607 56.3782 46.3887 56.5202 46.1157 56.5392C45.2917 56.5952 44.6457 56.1322 43.9497 55.7682Z" fill="black" fill-opacity="0.1"/>
<path d="M27.2026 50.743C26.0006 51.431 25.2536 50.7539 24.4116 50.0519C25.0436 49.6089 25.4316 50.071 25.8556 50.209C26.3146 50.358 26.7546 50.562 27.2026 50.743Z" fill="black" fill-opacity="0.1"/>
<path d="M17.7008 27.1155C17.6248 25.9725 18.2848 25.7024 18.8508 25.3934C19.1658 25.2214 19.5468 25.0525 19.8338 25.6715C19.2178 26.0885 18.5848 26.5175 17.7008 27.1155Z" fill="black" fill-opacity="0.1"/>
<path d="M47.3828 52.9032C48.5328 53.3552 49.4698 52.9992 50.4148 53.3882C49.3628 54.2162 48.6898 54.1382 47.3828 52.9032Z" fill="black" fill-opacity="0.1"/>
<path d="M6.06595 38.8456C5.31995 39.4196 4.71795 39.8846 3.99895 40.4386C3.86595 39.5406 4.27295 39.0726 4.84395 38.6866C5.16395 38.4696 5.35495 38.4896 6.06595 38.8456Z" fill="black" fill-opacity="0.1"/>
<path d="M17.7705 51.8115C18.7795 52.1255 19.4525 52.3345 20.1175 52.5405C20.0115 53.1525 19.6155 53.0415 19.2745 52.9905C18.6925 52.9055 18.0915 52.8245 17.7705 51.8115Z" fill="black" fill-opacity="0.1"/>
<path d="M14.979 50.2752C14.644 50.9432 14.209 50.8132 13.807 50.7012C13.045 50.4882 12.361 50.1702 12.001 48.9862C12.646 49.3932 13.006 49.6892 13.418 49.8622C13.86 50.0462 14.351 50.1152 14.979 50.2752Z" fill="black" fill-opacity="0.1"/>
<path d="M3.85986 42.7715C4.69286 43.3485 5.28886 43.7615 5.87286 44.1655C5.91786 44.6535 5.62387 44.7135 5.30887 44.6125C4.53687 44.3635 3.86386 44.0005 3.85986 42.7715Z" fill="black" fill-opacity="0.1"/>
<path d="M38.3095 61.2852C37.7755 61.8532 37.5385 62.8612 36.0815 62.6852C36.9935 62.0312 37.2925 61.1692 38.3095 61.2852Z" fill="black" fill-opacity="0.1"/>
<path d="M24.7605 27.7742C24.4905 27.9982 24.2525 28.2902 23.9455 28.4282C23.4835 28.6372 22.9725 28.7392 22.3925 28.9132C22.3155 28.3472 22.4785 27.8852 23.0135 27.7962C23.5915 27.7002 24.2025 27.8032 24.7995 27.8192L24.7605 27.7742Z" fill="black" fill-opacity="0.1"/>
<path d="M19.3037 28.8172C19.9307 29.3832 20.4397 29.8432 21.1037 30.4432C20.7367 30.5842 20.4947 30.7712 20.3587 30.7132C19.5697 30.3732 19.4707 30.1742 19.3037 28.8172Z" fill="black" fill-opacity="0.1"/>
<path d="M14.0029 27.0045C14.1889 25.5655 14.4729 25.3905 15.6789 25.8225C15.1559 26.1915 14.6759 26.5305 14.0029 27.0045Z" fill="black" fill-opacity="0.1"/>
<path d="M39.4936 42.3432C38.7776 41.9342 38.2526 41.7282 37.9736 41.0842C39.3226 41.2192 39.3226 41.2192 39.4936 42.3432Z" fill="black" fill-opacity="0.1"/>
<path d="M36.8198 44.4852C37.7408 44.6882 38.3098 44.8142 38.6908 45.4072C37.7058 45.6732 37.7058 45.6732 36.8198 44.4852Z" fill="black" fill-opacity="0.1"/>
<path d="M24.7647 56.1816C25.3637 57.1806 25.1687 57.4226 23.7637 57.5486C23.8597 56.9436 24.4457 56.7576 24.7647 56.1816Z" fill="black" fill-opacity="0.1"/>
<path d="M34.7598 35.4104C35.0418 34.0984 35.7358 34.0034 36.3678 33.8154C36.2338 34.6094 35.6198 34.8424 34.7598 35.4104Z" fill="black" fill-opacity="0.1"/>
<path d="M19.0327 55.0232C19.8227 54.7232 20.3097 54.5222 20.9327 54.9352C20.3797 55.5142 19.8747 55.4842 19.0327 55.0232Z" fill="black" fill-opacity="0.1"/>
<path d="M35.8918 48.1436C36.3658 48.4536 36.6608 48.6286 36.9308 48.8366C36.9808 48.8756 36.9698 49.0726 36.9168 49.1456C36.8608 49.2206 36.7118 49.2846 36.6178 49.2676C36.1758 49.1886 35.8468 48.9846 35.8918 48.1436Z" fill="black" fill-opacity="0.1"/>
<path d="M43.6426 46.2058C44.5766 46.1428 44.6886 46.2868 44.4376 47.3748C44.0116 47.0468 43.6966 46.7298 43.6426 46.2058Z" fill="black" fill-opacity="0.1"/>
<path d="M20.7009 49.8862C20.7009 49.2682 20.6629 48.9902 20.7199 48.7322C20.7429 48.6272 20.9719 48.5672 21.1069 48.4872C21.1849 48.6332 21.3579 48.8142 21.3209 48.9202C21.2319 49.1642 21.0419 49.3742 20.7009 49.8862Z" fill="black" fill-opacity="0.1"/>
<path d="M67.4009 40.2252C67.2989 40.8652 66.9799 41.0312 66.5869 40.9432C65.7979 40.7662 65.1359 40.3622 64.7329 39.6292C64.6909 39.5552 64.7769 39.4102 64.8249 39.2062C65.3599 39.1572 65.5819 39.7092 65.9879 39.8632C66.4209 40.0292 66.8899 40.0992 67.4009 40.2252Z" fill="black" fill-opacity="0.1"/>
<path d="M65.3857 35.8965C65.8147 36.0995 66.2267 36.3555 66.6767 36.4875C67.0527 36.5965 67.4717 36.5605 67.9377 36.5945C67.7297 37.2365 67.3217 37.3305 66.8747 37.2945C66.0977 37.2305 65.7517 36.9725 65.3857 35.8965Z" fill="black" fill-opacity="0.1"/>
<path d="M71.8407 37.1618C71.2457 37.6068 70.6387 38.0608 69.9997 38.5398C69.9677 37.6158 70.1718 37.2138 70.9388 36.8468C71.2538 36.6968 71.6637 36.5708 71.8407 37.1618Z" fill="black" fill-opacity="0.1"/>
<path d="M67.4486 44.9125C66.3256 45.6765 66.2296 45.6554 65.0576 44.5824C65.8636 44.4124 66.4836 44.7125 67.4486 44.9125Z" fill="black" fill-opacity="0.1"/>
<path d="M63.5878 34.2602C62.9338 33.9322 62.4199 33.6732 61.7769 33.3502C61.9969 33.2072 62.1769 32.9932 62.3459 33.0002C62.7589 33.0202 63.2119 33.0572 63.5659 33.2432C63.9829 33.4622 63.8418 33.8522 63.5878 34.2602Z" fill="black" fill-opacity="0.1"/>
<path d="M63.6629 43.4982C62.9799 43.7552 62.4898 43.9382 62.0298 44.1122C61.6578 43.8022 61.7718 43.5342 62.0278 43.3302C62.4798 42.9672 62.9629 42.8242 63.6629 43.4982Z" fill="black" fill-opacity="0.1"/>
<path d="M62.6696 38.5962C62.0426 38.7952 61.7886 38.9132 61.5246 38.9482C61.3286 38.9722 61.1186 38.8862 60.7886 38.8282C61.2776 38.2292 61.7156 38.1152 62.6696 38.5962Z" fill="black" fill-opacity="0.1"/>
<path d="M67.1206 43.7102C67.4886 43.2082 67.6066 42.9412 67.8106 42.7932C68.0916 42.5872 68.4676 42.6482 68.6116 42.9532C68.7886 43.3302 68.4576 43.4892 68.1406 43.5672C67.9616 43.6122 67.7746 43.6222 67.1206 43.7102Z" fill="black" fill-opacity="0.1"/>
<path d="M61.8257 40.6698C61.9107 40.5938 61.9897 40.4658 62.0777 40.4568C62.4207 40.4258 62.8157 40.2788 63.0287 40.7048C63.0587 40.7658 62.9607 40.9528 62.8767 40.9978C62.4947 41.2018 62.4897 41.1908 61.8257 40.6698Z" fill="black" fill-opacity="0.1"/>
<path d="M65.7589 5.69818C66.2539 6.48418 65.6209 7.27218 65.8109 8.23418C66.0959 8.50218 66.5199 8.85518 66.8869 9.26018C67.4829 9.91918 67.5759 10.6442 67.1789 11.1232C66.7359 11.6582 65.5329 11.8822 64.9449 11.4442C64.0239 10.7612 63.2129 9.93318 64.2669 8.67218C64.8169 8.01418 64.9879 7.24818 65.0989 6.44318C65.1559 6.03118 65.3449 5.74819 65.8009 5.72719L65.7589 5.69818ZM65.9249 10.5942C66.0189 10.5192 66.2419 10.4102 66.3459 10.2302C66.4029 10.1312 66.3049 9.86818 66.1959 9.76418C65.9819 9.56218 65.7239 9.39018 65.4579 9.26318C65.2099 9.14418 64.8489 9.52419 64.9179 9.81119C65.0279 10.2672 65.2799 10.5732 65.9249 10.5942Z" fill="black" fill-opacity="0.1"/>
<path d="M59.0308 17.3602C59.2958 17.2092 59.5468 17.0232 59.8268 16.9132C60.7018 16.5682 61.5428 16.9342 61.9218 17.7952C62.1528 18.3192 61.9828 18.8912 61.4888 19.2472C61.0788 19.5432 60.5708 19.5232 60.1338 19.1822C59.5208 18.7052 59.2988 18.0032 59.0708 17.3072L59.0308 17.3602Z" fill="black" fill-opacity="0.1"/>
<path d="M47.7166 11.0932C47.3666 11.0262 46.9866 11.0122 46.6576 10.8752C45.9016 10.5592 45.4476 9.5482 45.7186 8.9002C46.1376 7.8982 47.2306 7.4272 48.1276 7.8892C49.3146 8.5002 49.3926 9.1942 49.2546 10.3302C49.2316 10.5232 48.9976 10.7652 48.8026 10.8472C48.4716 10.9862 48.0956 11.0142 47.7166 11.0932ZM47.5486 8.75119C47.1046 8.74619 46.7156 9.1502 46.7616 9.5662C46.8066 9.9682 47.1976 10.2322 47.7126 10.2092C48.1276 10.1902 48.4236 9.8972 48.4046 9.5232C48.3836 9.1092 47.9926 8.75519 47.5486 8.75119Z" fill="black" fill-opacity="0.1"/>
<path d="M52.3895 5.75521C52.1145 5.34721 51.8185 4.9522 51.5675 4.5292C51.1155 3.7662 51.9435 2.80921 52.6205 2.72921C54.0755 2.55621 55.2855 3.87921 54.9555 5.31121C54.8645 5.70721 54.4635 6.0482 53.9815 6.0082C53.4315 5.9622 52.8915 5.81221 52.3465 5.70721L52.3895 5.75521ZM53.0245 3.7212C52.9495 3.8452 52.7605 4.01821 52.7515 4.19921C52.7275 4.67921 53.0105 5.0052 53.4665 5.1202C53.5925 5.1522 53.8535 5.03921 53.9025 4.92721C54.1365 4.39221 53.7595 3.8102 53.0245 3.7212Z" fill="black" fill-opacity="0.1"/>
<path d="M52.3459 5.70818C52.2799 6.19918 52.8549 6.80718 52.0229 7.20818C51.6989 6.89118 51.3889 6.53119 51.0229 6.24219C50.7299 6.01019 50.1229 6.19118 50.1039 6.51718C50.0889 6.77518 50.2259 7.12118 50.4169 7.28818C50.6259 7.47018 50.9709 7.51518 51.2659 7.56818C51.4409 7.60018 51.6349 7.51218 51.8179 7.51918C51.9929 7.52618 52.1659 7.58518 52.5069 7.65718C52.3399 7.90618 52.2629 8.16719 52.1099 8.22519C51.1599 8.58919 50.2789 8.39818 49.4979 7.76718C48.9149 7.29618 48.7679 6.59918 49.0749 5.92418C49.3109 5.40618 49.9949 5.02119 50.6299 5.16219C51.2309 5.29619 51.8039 5.55119 52.3889 5.75319L52.3459 5.70818Z" fill="black" fill-opacity="0.1"/>
<path d="M73.8698 12.8292C73.9018 13.8622 73.5138 14.3062 72.7778 14.4782C71.9638 14.6692 71.2418 14.3532 70.9258 13.6682C70.6168 12.9972 70.7708 12.1252 71.2978 11.8452C71.8708 11.5412 72.4888 11.5262 73.0548 11.8662C73.5488 12.1632 73.8588 12.6132 73.8698 12.8292ZM72.7878 13.4322C72.8098 12.9502 72.4648 12.5592 72.1488 12.6722C72.0208 12.7182 71.8788 12.9232 71.8688 13.0652C71.8438 13.4172 72.0688 13.6382 72.4108 13.6512C72.5448 13.6562 72.6868 13.4952 72.7878 13.4322Z" fill="black" fill-opacity="0.1"/>
<path d="M71.5456 17.8656C71.5246 18.5586 70.8156 19.1706 70.0286 19.1746C69.1996 19.1796 68.5436 18.4556 68.6056 17.6066C68.6566 16.8986 69.4776 16.2636 70.3366 16.2666C70.9576 16.2676 71.5706 17.0786 71.5456 17.8656ZM70.5596 17.8046C70.3436 17.6206 70.2186 17.5126 70.0926 17.4056C69.9666 17.5596 69.7896 17.6986 69.7366 17.8746C69.7126 17.9546 69.9796 18.2286 70.0326 18.2066C70.2126 18.1366 70.3556 17.9726 70.5596 17.8046Z" fill="black" fill-opacity="0.1"/>
<path d="M76.2208 30.1882C76.2148 29.5222 76.4198 29.1582 76.8828 29.0132C77.4278 28.8432 77.9998 29.0662 78.3038 29.5692C78.3348 29.6222 78.3578 29.6782 78.3838 29.7342C78.7098 30.4022 78.6978 31.0682 78.3178 31.4462C77.9728 31.7902 77.5708 31.7842 77.1358 31.5962C76.4338 31.2912 76.2288 30.9962 76.2208 30.1882Z" fill="black" fill-opacity="0.1"/>
</svg>
